<svg width="32" height="32" viewBox="0 0 32 32" fill="none" xmlns="http://www.w3.org/2000/svg">
<path d="M3.70004 9.05099C3.96671 8.80655 4.27782 8.67877 4.63338 8.66766C4.98893 8.65655 5.30004 8.78432 5.56671 9.05099L16.0667 19.551L26.5667 9.05099C26.8112 8.80655 27.1167 8.67877 27.4834 8.66766C27.85 8.65655 28.1667 8.78433 28.4334 9.05099C28.7 9.29544 28.8389 9.60099 28.85 9.96766C28.8612 10.3343 28.7334 10.651 28.4667 10.9177L16.7667 22.6177C16.6556 22.7288 16.5445 22.8065 16.4334 22.851C16.3223 22.8954 16.2 22.9177 16.0667 22.9177C15.9334 22.9177 15.8112 22.8954 15.7 22.851C15.5889 22.8065 15.4778 22.7288 15.3667 22.6177L3.66671 10.9177C3.42226 10.6732 3.30004 10.3677 3.30004 10.001C3.30004 9.63432 3.43338 9.31766 3.70004 9.05099Z" fill="#EB1B31"/>
</svg>
