<svg width="20" height="20" viewBox="0 0 20 20" fill="none" xmlns="http://www.w3.org/2000/svg">
<path d="M5.65602 17.6875C5.50324 17.5208 5.42338 17.3264 5.41643 17.1042C5.40949 16.8819 5.48935 16.6875 5.65602 16.5208L12.2185 9.95832L5.65602 3.39582C5.50324 3.24304 5.42338 3.05207 5.41643 2.82291C5.40949 2.59374 5.48935 2.39582 5.65602 2.22916C5.80879 2.06249 5.99977 1.97568 6.22893 1.96874C6.4581 1.96179 6.65602 2.04166 6.82268 2.20832L14.1352 9.52082C14.2046 9.59027 14.2532 9.65971 14.281 9.72916C14.3088 9.7986 14.3227 9.87499 14.3227 9.95832C14.3227 10.0417 14.3088 10.118 14.281 10.1875C14.2532 10.2569 14.2046 10.3264 14.1352 10.3958L6.82268 17.7083C6.6699 17.8611 6.47893 17.9375 6.24977 17.9375C6.0206 17.9375 5.82268 17.8542 5.65602 17.6875Z" fill="#80858A"/>
</svg>
