<svg width="1080" height="1920" viewBox="0 0 1080 1920" fill="none" xmlns="http://www.w3.org/2000/svg">
<g clip-path="url(#clip0_222_18888)">
<g clip-path="url(#clip1_222_18888)">
<g clip-path="url(#clip2_222_18888)">
<g style="mix-blend-mode:luminosity" opacity="0.05">
<mask id="mask0_222_18888" style="mask-type:luminance" maskUnits="userSpaceOnUse" x="-318" y="-703" width="1682" height="2975">
<path d="M1363.27 2271.23L1363.27 -702.672L-317.164 -702.672L-317.165 2271.23L1363.27 2271.23Z" fill="white"/>
</mask>
<g mask="url(#mask0_222_18888)">
<mask id="mask1_222_18888" style="mask-type:luminance" maskUnits="userSpaceOnUse" x="-318" y="-703" width="1682" height="2988">
<path d="M1363.27 2284.5L1363.27 -702.672L-317.164 -702.672L-317.165 2284.5L1363.27 2284.5Z" fill="white"/>
</mask>
<g mask="url(#mask1_222_18888)">
<path d="M523.716 790.909L-1263.63 930.839L-1263.63 650.978L523.716 790.909Z" stroke="black" stroke-width="4.12235" stroke-miterlimit="10"/>
<path d="M523.716 790.908L-1121.35 1503.55L-1212.22 1238.86L523.716 790.908Z" stroke="black" stroke-width="4.12235" stroke-miterlimit="10"/>
<path d="M523.716 790.908L-800.793 1999.05L-972.711 1778.2L523.716 790.908Z" stroke="black" stroke-width="4.12235" stroke-miterlimit="10"/>
<path d="M523.716 790.908L-336.713 2363.63L-571.025 2210.55L523.716 790.908Z" stroke="black" stroke-width="4.12235" stroke-miterlimit="10"/>
<path d="M523.716 790.908L220.616 2557.76L-50.7123 2489.06L523.716 790.908Z" stroke="black" stroke-width="4.12235" stroke-miterlimit="10"/>
<path d="M523.716 790.91L810.79 2560.44L531.853 2583.56L523.716 790.91Z" stroke="black" stroke-width="4.12235" stroke-miterlimit="10"/>
<path d="M523.716 790.91L1369.85 2371.36L1113.53 2483.78L523.716 790.91Z" stroke="black" stroke-width="4.12235" stroke-miterlimit="10"/>
<path d="M523.715 790.91L2162.25 1518.46L2029.04 1764.59L523.715 790.91Z" stroke="black" stroke-width="4.12235" stroke-miterlimit="10"/>
<path d="M523.717 790.908L2309.72 947.05L2263.65 1223.1L523.717 790.908Z" stroke="black" stroke-width="4.12235" stroke-miterlimit="10"/>
<path d="M523.717 790.906L2263.65 358.715L2309.72 634.764L523.717 790.906Z" stroke="black" stroke-width="4.12235" stroke-miterlimit="10"/>
<path d="M523.715 790.91L2029.04 -182.77L2162.25 63.3614L523.715 790.91Z" stroke="black" stroke-width="4.12235" stroke-miterlimit="10"/>
<path d="M523.715 790.906L1631.29 -618.746L1837.22 -429.2L523.715 790.906Z" stroke="black" stroke-width="4.12235" stroke-miterlimit="10"/>
<path d="M523.716 790.91L1113.53 -901.963L1369.85 -789.539L523.716 790.91Z" stroke="black" stroke-width="4.12235" stroke-miterlimit="10"/>
<path d="M523.716 790.91L531.853 -1001.74L810.79 -978.619L523.716 790.91Z" stroke="black" stroke-width="4.12235" stroke-miterlimit="10"/>
<path d="M523.716 790.909L-50.7122 -907.238L220.616 -975.943L523.716 790.909Z" stroke="black" stroke-width="4.12235" stroke-miterlimit="10"/>
<path d="M523.716 790.909L-571.025 -628.731L-336.713 -781.809L523.716 790.909Z" stroke="black" stroke-width="4.12235" stroke-miterlimit="10"/>
<path d="M523.716 790.907L-972.711 -196.386L-800.793 -417.234L523.716 790.907Z" stroke="black" stroke-width="4.12235" stroke-miterlimit="10"/>
<path d="M523.716 790.913L-1212.22 342.961L-1121.35 78.2695L523.716 790.913Z" stroke="black" stroke-width="4.12235" stroke-miterlimit="10"/>
<path d="M523.716 790.909L-1263.63 930.839L-1263.63 650.978L523.716 790.909Z" stroke="black" stroke-width="3.55433" stroke-miterlimit="10"/>
<path d="M523.716 790.908L-1121.35 1503.55L-1212.22 1238.86L523.716 790.908Z" stroke="black" stroke-width="3.55433" stroke-miterlimit="10"/>
<path d="M523.716 790.908L-800.793 1999.05L-972.711 1778.2L523.716 790.908Z" stroke="black" stroke-width="3.55433" stroke-miterlimit="10"/>
<path d="M523.716 790.908L-336.713 2363.63L-571.025 2210.55L523.716 790.908Z" stroke="black" stroke-width="3.55433" stroke-miterlimit="10"/>
<path d="M523.716 790.908L220.616 2557.76L-50.7123 2489.06L523.716 790.908Z" stroke="black" stroke-width="3.55433" stroke-miterlimit="10"/>
<path d="M523.716 790.91L810.79 2560.44L531.853 2583.56L523.716 790.91Z" stroke="black" stroke-width="3.55433" stroke-miterlimit="10"/>
<path d="M523.716 790.91L1369.85 2371.36L1113.53 2483.78L523.716 790.91Z" stroke="black" stroke-width="3.55433" stroke-miterlimit="10"/>
<path d="M523.715 790.91L1837.22 2011.02L1631.29 2200.56L523.715 790.91Z" stroke="black" stroke-width="3.55433" stroke-miterlimit="10"/>
<path d="M523.715 790.91L1837.22 2011.02L1631.29 2200.56L523.715 790.91Z" stroke="black" stroke-width="3.55433" stroke-miterlimit="10"/>
<path d="M523.715 790.91L2162.25 1518.46L2029.04 1764.59L523.715 790.91Z" stroke="black" stroke-width="3.55433" stroke-miterlimit="10"/>
<path d="M523.717 790.908L2309.72 947.05L2263.65 1223.1L523.717 790.908Z" stroke="black" stroke-width="3.55433" stroke-miterlimit="10"/>
<path d="M523.717 790.906L2263.65 358.715L2309.72 634.764L523.717 790.906Z" stroke="black" stroke-width="3.55433" stroke-miterlimit="10"/>
<path d="M523.715 790.91L2029.04 -182.77L2162.25 63.3614L523.715 790.91Z" stroke="black" stroke-width="3.55433" stroke-miterlimit="10"/>
<path d="M523.715 790.906L1631.29 -618.746L1837.22 -429.2L523.715 790.906Z" stroke="black" stroke-width="3.55433" stroke-miterlimit="10"/>
<path d="M523.716 790.91L1113.53 -901.963L1369.85 -789.539L523.716 790.91Z" stroke="black" stroke-width="3.55433" stroke-miterlimit="10"/>
<path d="M523.716 790.91L531.853 -1001.74L810.79 -978.619L523.716 790.91Z" stroke="black" stroke-width="3.55433" stroke-miterlimit="10"/>
<path d="M523.716 790.909L-50.7122 -907.238L220.616 -975.943L523.716 790.909Z" stroke="black" stroke-width="3.55433" stroke-miterlimit="10"/>
<path d="M523.716 790.909L-571.025 -628.731L-336.713 -781.809L523.716 790.909Z" stroke="black" stroke-width="3.55433" stroke-miterlimit="10"/>
<path d="M523.716 790.907L-972.711 -196.386L-800.793 -417.234L523.716 790.907Z" stroke="black" stroke-width="3.55433" stroke-miterlimit="10"/>
<path d="M523.716 790.913L-1212.22 342.961L-1121.35 78.2695L523.716 790.913Z" stroke="black" stroke-width="3.55433" stroke-miterlimit="10"/>
</g>
</g>
</g>
</g>
<g opacity="0.1">
<g filter="url(#filter0_f_222_18888)">
<path d="M575.228 1724.4C575.376 1739.91 562.35 1753.11 546.807 1753.26C531.288 1753.41 518.089 1740.38 517.941 1724.84C517.793 1709.32 530.819 1696.12 546.363 1695.98C561.881 1695.83 575.08 1708.85 575.228 1724.4Z" fill="#959595"/>
<path d="M650.157 1724.76C650.058 1740.28 637.377 1752.71 621.883 1752.49C606.364 1752.27 594.029 1739.46 594.399 1724C594.769 1708.8 607.055 1696.76 622.228 1696.74C637.747 1696.69 650.28 1709.27 650.181 1724.79L650.157 1724.76Z" fill="#959595"/>
<path d="M546.607 1619.33C562.175 1619.33 574.536 1631.79 574.412 1647.36C574.289 1662.92 561.706 1675.19 546.163 1674.91C530.941 1674.67 518.95 1662.55 518.827 1647.33C518.704 1631.77 531.064 1619.31 546.632 1619.31L546.607 1619.33Z" fill="#959595"/>
<path d="M496.581 1724.96C496.433 1740.33 484.418 1752.12 468.998 1752.05C453.258 1752 441.317 1739.64 441.687 1723.8C442.032 1708.5 454.244 1696.89 469.714 1697.16C485.035 1697.4 496.754 1709.54 496.581 1724.96Z" fill="#959595"/>
<path d="M546.465 1772.85C561.885 1772.8 573.9 1784.59 574.048 1799.94C574.22 1815.75 562.082 1827.89 546.267 1827.74C530.897 1827.59 519.079 1815.6 519.129 1800.18C519.178 1784.76 531.045 1772.87 546.465 1772.82V1772.85Z" fill="#959595"/>
<path d="M649.596 1647.56C649.423 1662.9 637.359 1674.62 621.89 1674.45C606.544 1674.27 594.825 1662.21 594.997 1646.74C595.17 1631.4 607.235 1619.68 622.704 1619.85C638.05 1620.02 649.769 1632.09 649.596 1647.56Z" fill="#959595"/>
<path d="M622.424 1827.42C607.054 1827.49 594.99 1815.35 595.138 1799.98C595.261 1785.03 607.128 1773.22 622.128 1773.14C637.499 1773.07 649.563 1785.21 649.415 1800.58C649.292 1815.53 637.425 1827.34 622.424 1827.42Z" fill="#959595"/>
<path d="M496.228 1647.14C496.228 1662.43 484.016 1674.47 468.645 1674.25C453.743 1674.05 441.975 1662.09 441.975 1647.14C441.975 1631.84 454.188 1619.8 469.558 1620.03C484.46 1620.22 496.228 1632.19 496.228 1647.14Z" fill="#959595"/>
<path d="M496.111 1800.66C495.914 1815.43 483.775 1827.35 468.972 1827.3C453.824 1827.23 441.685 1814.64 442.105 1799.5C442.524 1784.74 454.885 1773 469.688 1773.32C484.441 1773.62 496.284 1785.88 496.086 1800.68L496.111 1800.66Z" fill="#959595"/>
<path d="M699.324 1751.27C684.718 1750.95 672.506 1738.12 673.122 1723.74C673.739 1709.43 686.1 1697.68 700.212 1697.98C714.818 1698.3 727.03 1711.13 726.413 1725.51C725.796 1739.82 713.436 1751.56 699.324 1751.27Z" fill="#959595"/>
<path d="M573.258 1571.03C573.579 1585.51 561.144 1598.12 546.612 1598.12C532.426 1598.12 520.263 1586.18 519.967 1571.92C519.646 1557.44 532.081 1544.83 546.612 1544.83C560.799 1544.83 572.962 1556.77 573.258 1571.03Z" fill="#959595"/>
<path d="M700.016 1620.84C714.424 1621.01 726.217 1633.05 726.045 1647.38C725.872 1661.79 713.832 1673.58 699.498 1673.41C685.09 1673.24 673.296 1661.2 673.469 1646.87C673.642 1632.46 685.682 1620.67 700.016 1620.84Z" fill="#959595"/>
<path d="M572.888 1875.78C573.012 1890.11 561.169 1902.12 546.786 1902.25C532.451 1902.37 520.436 1890.53 520.313 1876.15C520.19 1861.81 532.032 1849.8 546.416 1849.67C560.75 1849.55 572.765 1861.39 572.888 1875.78Z" fill="#959595"/>
<path d="M648.58 1571.23C648.728 1585.56 636.91 1597.6 622.502 1597.75C608.168 1597.9 596.128 1586.08 595.98 1571.67C595.832 1557.34 607.65 1545.3 622.058 1545.15C636.392 1545 648.432 1556.82 648.58 1571.23Z" fill="#959595"/>
<path d="M393.101 1698.45C407.583 1698.25 419.524 1710.02 419.598 1724.52C419.647 1739.03 407.78 1750.87 393.273 1750.79C379.087 1750.7 367.566 1739.35 367.245 1725.16C366.899 1710.71 378.569 1698.64 393.101 1698.45Z" fill="#959595"/>
<path d="M419.16 1647.75C418.889 1662.13 407.54 1673.03 393.033 1672.86C378.279 1672.66 367.201 1660.97 367.72 1646.07C368.213 1631.74 379.759 1621 394.266 1621.4C408.625 1621.79 419.431 1633.24 419.16 1647.75Z" fill="#959595"/>
<path d="M469.19 1901.55C454.732 1901.57 443.581 1890.49 443.531 1876.04C443.507 1861.58 454.584 1850.43 469.042 1850.38C483.499 1850.36 494.651 1861.43 494.7 1875.89C494.725 1890.35 483.647 1901.5 469.19 1901.55Z" fill="#959595"/>
<path d="M725.8 1800.35C725.751 1815.03 713.909 1826.6 699.254 1826.3C684.92 1826.01 673.694 1814.54 673.743 1800.2C673.793 1785.53 685.635 1773.96 700.29 1774.25C714.624 1774.55 725.85 1786.02 725.8 1800.35Z" fill="#959595"/>
<path d="M419.013 1800.67C418.841 1815.08 407.566 1826.03 393.059 1825.89C378.65 1825.71 367.696 1814.44 367.844 1799.93C368.017 1785.53 379.292 1774.57 393.799 1774.72C408.207 1774.89 419.161 1786.17 419.013 1800.67Z" fill="#959595"/>
<path d="M469.54 1597.37C454.811 1597.59 443.166 1586.15 443.191 1571.45C443.191 1557.09 454.318 1545.76 468.677 1545.54C483.406 1545.32 495.051 1556.77 495.026 1571.47C495.026 1585.83 483.899 1597.15 469.54 1597.37Z" fill="#959595"/>
<path d="M648.086 1876.35C647.914 1890.78 636.589 1901.88 622.132 1901.8C607.329 1901.73 596.054 1890.01 596.449 1875.19C596.843 1860.8 608.365 1849.9 622.847 1850.17C637.256 1850.47 648.259 1861.86 648.086 1876.35Z" fill="#959595"/>
<path d="M725.04 1571.8C724.892 1585.66 713.568 1596.79 699.653 1596.74C685.393 1596.69 674.093 1584.97 674.488 1570.69C674.858 1556.85 686.404 1545.92 700.319 1546.19C714.16 1546.46 725.188 1557.88 725.04 1571.8Z" fill="#959595"/>
<path d="M724.916 1875.87C724.965 1889.61 713.616 1901.06 699.874 1901.11C686.132 1901.16 674.684 1889.81 674.635 1876.07C674.586 1862.33 685.935 1850.88 699.677 1850.83C713.419 1850.78 724.867 1862.13 724.916 1875.87Z" fill="#959595"/>
<path d="M800.306 1646.94C800.454 1660.21 789.229 1671.7 775.857 1672C762.263 1672.3 750.396 1660.5 750.568 1646.89C750.741 1633.54 762.164 1622.27 775.462 1622.27C788.76 1622.27 800.158 1633.59 800.306 1646.94Z" fill="#959595"/>
<path d="M418.369 1876.04C418.32 1889.63 406.403 1901.25 392.908 1900.91C379.561 1900.56 368.434 1889.17 368.508 1875.89C368.557 1862.3 380.473 1850.68 393.969 1851.03C407.316 1851.37 418.443 1862.77 418.369 1876.04Z" fill="#959595"/>
<path d="M546.174 1519.05C532.456 1518.78 521.132 1506.99 521.527 1493.34C521.921 1479.63 533.838 1468.4 547.457 1468.95C560.853 1469.46 571.758 1480.86 571.635 1494.18C571.511 1507.9 559.817 1519.3 546.174 1519.05Z" fill="#959595"/>
<path d="M622.523 1518.85C609.249 1519.02 597.728 1507.83 597.407 1494.45C597.086 1480.89 608.854 1468.97 622.473 1469.12C635.796 1469.24 647.12 1480.64 647.145 1493.96C647.145 1507.26 635.87 1518.68 622.523 1518.85Z" fill="#959595"/>
<path d="M775.594 1749.66C761.902 1749.76 750.355 1738.21 750.404 1724.52C750.454 1710.83 762.099 1699.36 775.767 1699.56C789.139 1699.75 800.291 1710.88 800.513 1724.25C800.735 1737.92 789.312 1749.59 775.594 1749.66Z" fill="#959595"/>
<path d="M394.71 1546.38C408.502 1547.15 419.382 1559.31 418.494 1572.95C417.606 1586.74 405.344 1597.52 391.7 1596.51C378.254 1595.5 367.744 1583.73 368.336 1570.41C368.953 1556.62 381.018 1545.64 394.71 1546.38Z" fill="#959595"/>
<path d="M775.341 1825.07C762.068 1825 750.744 1813.65 750.67 1800.41C750.596 1786.84 762.537 1775.12 776.032 1775.51C789.355 1775.91 800.482 1787.45 800.26 1800.63C800.038 1813.92 788.59 1825.15 775.366 1825.07H775.341Z" fill="#959595"/>
<path d="M495.619 1493.91C495.668 1507.21 484.294 1518.63 470.972 1518.68C457.674 1518.73 446.251 1507.35 446.201 1494.03C446.152 1480.74 457.526 1469.31 470.848 1469.26C484.146 1469.21 495.569 1480.59 495.619 1493.91Z" fill="#959595"/>
<path d="M342.453 1724.77C342.354 1738.09 330.882 1749.44 317.608 1749.34C304.286 1749.24 292.937 1737.77 293.035 1724.5C293.134 1711.18 304.606 1699.83 317.88 1699.93C331.202 1700.03 342.551 1711.5 342.453 1724.77Z" fill="#959595"/>
<path d="M317.607 1671.58C304.137 1671.48 293.059 1660.21 293.281 1646.79C293.503 1633.29 304.901 1622.31 318.298 1622.71C331.473 1623.08 342.106 1633.93 342.156 1647.06C342.23 1660.5 331.029 1671.68 317.583 1671.6L317.607 1671.58Z" fill="#959595"/>
<path d="M318.083 1776.08C331.726 1776.28 342.409 1787.46 341.965 1801.07C341.545 1814.35 330.69 1824.68 317.417 1824.51C303.773 1824.31 293.09 1813.14 293.534 1799.52C293.954 1786.25 304.809 1775.91 318.083 1776.08Z" fill="#959595"/>
<path d="M775.837 1595.36C762.293 1595.53 751.733 1585.32 751.536 1571.85C751.363 1558.3 761.577 1547.74 775.048 1547.55C788.593 1547.37 799.152 1557.59 799.35 1571.06C799.522 1584.6 789.308 1595.16 775.837 1595.36Z" fill="#959595"/>
<path d="M723.578 1494.11C723.529 1507.58 713.142 1517.87 699.622 1517.79C686.151 1517.74 675.888 1507.36 675.937 1493.84C675.987 1480.37 686.373 1470.08 699.893 1470.15C713.364 1470.2 723.628 1480.59 723.578 1494.11Z" fill="#959595"/>
<path d="M393.379 1517.64C379.858 1517.62 369.546 1507.06 369.792 1493.47C370.014 1480.34 380.303 1470.3 393.502 1470.33C407.022 1470.35 417.335 1480.91 417.088 1494.5C416.866 1507.63 406.578 1517.67 393.379 1517.64Z" fill="#959595"/>
<path d="M775.819 1852.29C789.24 1852.46 799.38 1863.02 799.133 1876.56C798.862 1889.93 788.204 1900 774.634 1899.63C761.632 1899.28 751.714 1888.95 751.788 1875.8C751.863 1862.35 762.323 1852.12 775.843 1852.26L775.819 1852.29Z" fill="#959595"/>
<path d="M341.324 1571.71C341.2 1585.08 330.517 1595.35 317.047 1595.03C304.094 1594.71 294.053 1584.27 294.176 1571.22C294.299 1557.85 304.982 1547.59 318.453 1547.91C331.405 1548.23 341.447 1558.66 341.324 1571.71Z" fill="#959595"/>
<path d="M341.199 1876.34C341.002 1889.27 330.516 1899.51 317.588 1899.43C304.315 1899.36 293.854 1888.45 294.273 1875.16C294.693 1862.28 305.376 1852.21 318.328 1852.53C331.232 1852.83 341.372 1863.41 341.199 1876.37V1876.34Z" fill="#959595"/>
<path d="M876.276 1724.47C876.35 1737.35 865.741 1748.01 852.862 1747.96C839.984 1747.91 829.424 1737.18 829.597 1724.33C829.77 1711.82 840.033 1701.51 852.566 1701.28C865.42 1701.06 876.202 1711.6 876.276 1724.47Z" fill="#959595"/>
<path d="M547.03 1394.96C559.909 1395.21 570.32 1406.11 569.95 1418.94C569.58 1431.79 558.552 1442.1 545.747 1441.61C533.239 1441.12 523.173 1430.58 523.296 1418.08C523.419 1405.2 534.201 1394.69 547.055 1394.94L547.03 1394.96Z" fill="#959595"/>
<path d="M621.838 1441.54C609.083 1441.27 598.499 1430.04 599.041 1417.41C599.584 1404.98 610.39 1394.79 622.702 1395.06C635.457 1395.33 646.041 1406.56 645.498 1419.19C644.955 1431.62 634.149 1441.81 621.838 1441.54Z" fill="#959595"/>
<path d="M876.08 1800.2C876.13 1812.51 865.595 1823.24 853.234 1823.44C840.603 1823.64 829.525 1812.56 829.772 1799.93C830.018 1787.57 840.751 1777.06 853.062 1777.14C865.422 1777.24 876.006 1787.84 876.08 1800.2Z" fill="#959595"/>
<path d="M876.176 1646.71C876.447 1659.39 865.616 1670.39 852.91 1670.37C840.525 1670.37 829.966 1659.93 829.719 1647.55C829.447 1634.87 840.278 1623.87 852.984 1623.89C865.369 1623.89 875.929 1634.33 876.176 1646.71Z" fill="#959595"/>
<path d="M494.064 1418.42C493.99 1430.78 483.381 1441.39 471.021 1441.47C458.339 1441.54 447.385 1430.36 447.755 1417.76C448.125 1405.37 458.956 1394.96 471.243 1395.16C483.603 1395.38 494.138 1406.11 494.064 1418.42Z" fill="#959595"/>
<path d="M798.466 1494.06C798.417 1506.42 787.684 1517.05 775.349 1517C762.988 1516.95 752.355 1506.22 752.404 1493.89C752.453 1481.53 763.185 1470.89 775.521 1470.94C787.882 1470.99 798.515 1481.72 798.466 1494.06Z" fill="#959595"/>
<path d="M317.415 1516.71C304.956 1516.49 294.668 1505.81 295.038 1493.42C295.408 1480.94 306.19 1470.77 318.55 1471.29C330.713 1471.79 340.557 1482.05 340.483 1494.11C340.409 1506.57 329.825 1516.93 317.415 1516.71Z" fill="#959595"/>
<path d="M240.289 1701.63C252.625 1701.63 263.283 1712.31 263.258 1724.64C263.258 1736.98 252.575 1747.64 240.239 1747.61C227.904 1747.61 217.245 1736.93 217.27 1724.59C217.27 1712.26 227.953 1701.6 240.289 1701.63Z" fill="#959595"/>
<path d="M240.513 1624.34C252.948 1624.51 263.384 1635.25 263.063 1647.61C262.742 1660.06 251.887 1670.4 239.576 1669.93C227.437 1669.49 217.47 1659.18 217.47 1647.11C217.47 1634.7 228.128 1624.17 240.513 1624.34Z" fill="#959595"/>
<path d="M875.462 1571.37C875.511 1583.95 865.149 1594.19 852.566 1593.97C840.305 1593.74 830.461 1583.75 830.411 1571.52C830.362 1558.94 840.724 1548.7 853.307 1548.92C865.568 1549.14 875.412 1559.13 875.462 1571.37Z" fill="#959595"/>
<path d="M722.3 1418.77C722.029 1431.38 711.42 1441.37 698.887 1440.82C686.625 1440.31 676.978 1430.09 677.25 1417.88C677.521 1405.28 688.13 1395.29 700.663 1395.83C712.925 1396.35 722.572 1406.56 722.3 1418.77Z" fill="#959595"/>
<path d="M240.213 1822.88C227.655 1822.85 217.367 1812.32 217.688 1799.79C217.984 1787.55 228.124 1777.68 240.337 1777.71C252.894 1777.73 263.183 1788.27 262.862 1800.8C262.566 1813.04 252.426 1822.9 240.213 1822.88Z" fill="#959595"/>
<path d="M393.669 1440.48C381.087 1440.6 371.366 1431.08 371.243 1418.55C371.12 1405.97 380.643 1396.25 393.176 1396.12C405.759 1396 415.479 1405.52 415.603 1418.05C415.726 1430.63 406.203 1440.35 393.669 1440.48Z" fill="#959595"/>
<path d="M852.738 1853.72C865.296 1853.62 875.066 1863.24 875.165 1875.77C875.264 1888.33 865.642 1898.1 853.108 1898.19C840.551 1898.29 830.781 1888.7 830.682 1876.14C830.583 1863.58 840.205 1853.81 852.738 1853.72Z" fill="#959595"/>
<path d="M240.341 1549.54C252.948 1549.56 262.422 1559.31 262.175 1571.99C261.953 1584.18 252.455 1593.43 240.168 1593.38C227.561 1593.35 218.087 1583.61 218.334 1570.93C218.556 1558.74 228.054 1549.49 240.341 1549.54Z" fill="#959595"/>
<path d="M240.162 1897.75C227.974 1897.7 218.525 1888.25 218.475 1876.09C218.426 1863.54 228.221 1853.91 240.828 1854.19C252.966 1854.43 262.218 1864.08 262.07 1876.29C261.922 1888.45 252.374 1897.8 240.186 1897.75H240.162Z" fill="#959595"/>
<path d="M546.465 1319.35C558.209 1319.27 568.25 1329.41 568.053 1341.16C567.855 1352.58 558.11 1362.22 546.712 1362.3C534.968 1362.37 524.927 1352.23 525.124 1340.49C525.321 1329.07 535.067 1319.42 546.465 1319.35Z" fill="#959595"/>
<path d="M950.169 1724.52C950.218 1736.41 940.374 1746.25 928.483 1746.18C916.591 1746.1 906.846 1736.16 907.043 1724.27C907.216 1712.73 916.739 1703.23 928.285 1703.05C940.177 1702.88 950.12 1712.63 950.169 1724.52Z" fill="#959595"/>
<path d="M853.133 1472.42C865.025 1472.55 874.721 1482.54 874.499 1494.43C874.252 1506.32 864.162 1515.91 852.27 1515.54C840.748 1515.2 831.373 1505.53 831.373 1493.98C831.373 1482.09 841.266 1472.3 853.158 1472.4L853.133 1472.42Z" fill="#959595"/>
<path d="M950.087 1646.72C950.333 1658.46 940.366 1668.62 928.598 1668.6C917.175 1668.6 907.405 1659 907.158 1647.56C906.911 1635.81 916.878 1625.65 928.647 1625.67C940.07 1625.67 949.84 1635.29 950.087 1646.72Z" fill="#959595"/>
<path d="M797.008 1417.91C797.23 1429.8 787.534 1439.79 775.618 1439.89C763.726 1439.99 753.857 1430.19 753.857 1418.28C753.857 1406.73 763.257 1397.08 774.779 1396.74C786.671 1396.39 796.761 1406.02 796.983 1417.91H797.008Z" fill="#959595"/>
<path d="M949.947 1800.28C949.947 1811.65 940.251 1821.47 928.853 1821.62C917.207 1821.77 906.993 1811.46 907.289 1799.84C907.561 1788.47 917.553 1778.8 928.853 1778.94C940.251 1779.09 949.971 1788.88 949.971 1800.26L949.947 1800.28Z" fill="#959595"/>
<path d="M240.586 1515.33C229.286 1515.52 219.294 1505.9 218.949 1494.53C218.603 1482.91 228.743 1472.57 240.413 1472.65C251.787 1472.75 261.557 1482.51 261.606 1493.89C261.655 1505.24 251.959 1515.1 240.586 1515.3V1515.33Z" fill="#959595"/>
<path d="M339.076 1418.35C339.052 1429.72 329.306 1439.52 317.933 1439.64C306.263 1439.76 296.098 1429.43 296.419 1417.81C296.74 1406.43 306.732 1396.79 318.031 1396.96C329.43 1397.13 339.126 1406.98 339.101 1418.33L339.076 1418.35Z" fill="#959595"/>
<path d="M643.622 1341.13C643.424 1352.51 633.531 1362.23 622.207 1362.15C610.488 1362.1 600.446 1351.67 600.965 1340.05C601.458 1328.63 611.549 1319.13 622.824 1319.47C634.197 1319.82 643.819 1329.84 643.622 1341.11V1341.13Z" fill="#959595"/>
<path d="M471.122 1362.18C459.822 1362.3 449.855 1352.63 449.583 1341.26C449.312 1329.64 459.526 1319.33 471.171 1319.5C482.569 1319.67 492.265 1329.49 492.265 1340.86C492.265 1352.24 482.52 1362.06 471.122 1362.18Z" fill="#959595"/>
<path d="M185.519 1647.13C185.519 1658.7 175.65 1668.35 164.128 1668.05C152.878 1667.75 143.651 1658.33 143.651 1647.13C143.651 1635.56 153.52 1625.91 165.041 1626.21C176.292 1626.51 185.519 1635.93 185.519 1647.13Z" fill="#959595"/>
<path d="M185.739 1724.49C185.814 1735.94 175.92 1745.85 164.472 1745.78C153.025 1745.71 143.205 1735.67 143.428 1724.29C143.65 1713.17 153.124 1703.69 164.25 1703.47C175.624 1703.25 185.665 1713.07 185.764 1724.52L185.739 1724.49Z" fill="#959595"/>
<path d="M949.546 1571.47C949.546 1583.04 939.677 1592.69 928.155 1592.39C916.905 1592.1 907.678 1582.67 907.678 1571.45C907.678 1559.88 917.546 1550.23 929.068 1550.53C940.318 1550.82 949.546 1560.25 949.546 1571.47Z" fill="#959595"/>
<path d="M164.203 1779.36C175.749 1779.12 185.568 1788.79 185.519 1800.36C185.47 1811.58 176.218 1820.98 164.967 1821.23C153.421 1821.47 143.602 1811.8 143.651 1800.23C143.7 1789.01 152.952 1779.61 164.203 1779.36Z" fill="#959595"/>
<path d="M928.381 1896.57C916.958 1896.44 908.002 1887.36 908.002 1875.94C908.002 1864.2 917.55 1854.95 929.294 1855.34C940.692 1855.71 949.475 1865.01 949.228 1876.41C948.982 1887.81 939.779 1896.69 928.381 1896.57Z" fill="#959595"/>
<path d="M720.374 1341.21C720.177 1352.61 711.023 1361.54 699.6 1361.44C687.832 1361.34 678.679 1351.77 679.148 1340C679.592 1328.63 688.967 1319.89 700.365 1320.22C711.763 1320.54 720.596 1329.79 720.374 1341.21Z" fill="#959595"/>
<path d="M413.787 1340.91C413.762 1352.5 404.781 1361.34 393.136 1361.19C381.565 1361.04 372.832 1351.96 373.078 1340.32C373.325 1329.12 382.034 1320.56 393.284 1320.48C404.905 1320.41 413.836 1329.29 413.787 1340.91Z" fill="#959595"/>
<path d="M164.149 1895.98C152.997 1895.78 144.461 1887 144.559 1875.77C144.658 1864.23 153.811 1855.54 165.456 1855.96C176.534 1856.36 184.898 1865.36 184.602 1876.61C184.306 1887.74 175.399 1896.17 164.173 1895.98H164.149Z" fill="#959595"/>
<path d="M852.813 1398.14C864.458 1398.09 873.241 1406.95 873.093 1418.62C872.945 1429.87 864.31 1438.4 853.06 1438.45C841.415 1438.5 832.632 1429.64 832.78 1417.98C832.928 1406.73 841.563 1398.19 852.813 1398.14Z" fill="#959595"/>
<path d="M260.126 1419.6C259.484 1430.58 250.109 1438.82 238.958 1438.18C227.979 1437.54 219.738 1428.16 220.38 1417.01C221.021 1406.03 230.396 1397.79 241.548 1398.44C252.527 1399.08 260.767 1408.45 260.126 1419.6Z" fill="#959595"/>
<path d="M795.324 1340.49C795.497 1351.57 786.837 1360.52 775.784 1360.7C764.707 1360.87 755.751 1352.21 755.578 1341.16C755.406 1330.08 764.065 1321.13 775.118 1320.95C786.196 1320.78 795.152 1329.44 795.324 1340.49Z" fill="#959595"/>
<path d="M928.904 1513.87C917.777 1514.02 908.871 1505.34 908.723 1494.26C908.575 1483.13 917.259 1474.23 928.337 1474.08C939.464 1473.93 948.37 1482.62 948.518 1493.69C948.666 1504.82 939.982 1513.72 928.904 1513.87Z" fill="#959595"/>
<path d="M184.751 1571.49C184.751 1583.11 175.795 1591.85 164.101 1591.62C152.875 1591.4 144.413 1582.72 144.413 1571.45C144.413 1559.83 153.368 1551.09 165.063 1551.31C176.288 1551.54 184.751 1560.22 184.751 1571.49Z" fill="#959595"/>
<path d="M317.685 1321.15C328.245 1321.1 337.275 1329.95 337.447 1340.54C337.62 1351.42 328.269 1360.74 317.389 1360.52C306.805 1360.3 297.997 1351.24 298.071 1340.68C298.17 1330.1 307.101 1321.2 317.685 1321.15Z" fill="#959595"/>
<path d="M184.11 1494.7C183.666 1505.16 174.192 1513.99 163.855 1513.52C153.394 1513.08 144.562 1503.61 145.031 1493.27C145.475 1482.81 154.949 1473.98 165.286 1474.45C175.747 1474.89 184.579 1484.36 184.11 1494.7Z" fill="#959595"/>
<path d="M546.457 1284.69C536.021 1284.61 526.966 1275.44 527.04 1265.02C527.114 1254.59 536.292 1245.54 546.703 1245.61C557.139 1245.68 566.194 1254.86 566.12 1265.27C566.046 1275.71 556.868 1284.76 546.457 1284.69Z" fill="#959595"/>
<path d="M1023.84 1646.83C1024.04 1657.24 1015.08 1666.47 1004.59 1666.67C994.183 1666.86 984.956 1657.91 984.759 1647.43C984.561 1637.01 993.517 1627.79 1004 1627.59C1014.41 1627.39 1023.64 1636.35 1023.84 1646.83Z" fill="#959595"/>
<path d="M1004.71 1744.28C994.25 1744.55 985.023 1735.81 984.629 1725.28C984.209 1714.47 993.436 1704.95 1004.32 1704.98C1014.88 1704.98 1023.83 1713.86 1023.96 1724.42C1024.08 1734.9 1015.25 1744.03 1004.74 1744.28H1004.71Z" fill="#959595"/>
<path d="M602.868 1264.46C603.337 1253.98 612.91 1245.17 623.198 1245.76C633.733 1246.38 642.393 1256 641.652 1266.29C640.912 1276.48 631.833 1284.86 621.816 1284.54C611.331 1284.22 602.424 1274.77 602.868 1264.44V1264.46Z" fill="#959595"/>
<path d="M490.261 1265.35C490.138 1275.81 480.861 1284.77 470.499 1284.5C460.038 1284.22 451.156 1274.83 451.576 1264.49C451.995 1254.32 460.803 1245.81 470.894 1245.79C481.33 1245.79 490.409 1254.92 490.261 1265.33V1265.35Z" fill="#959595"/>
<path d="M1023.64 1800.66C1023.39 1811.12 1014.07 1820.02 1003.71 1819.65C993.22 1819.26 984.437 1809.81 984.955 1799.5C985.474 1789.31 994.355 1780.87 1004.42 1780.95C1014.88 1781.04 1023.86 1790.25 1023.64 1800.66Z" fill="#959595"/>
<path d="M106.125 1724.32C106.298 1734.59 97.9094 1743.32 87.6214 1743.64C77.0372 1743.96 67.9827 1735.08 68.0814 1724.47C68.1801 1714.19 76.7658 1705.65 87.0292 1705.63C97.3173 1705.58 105.928 1714.06 106.1 1724.35L106.125 1724.32Z" fill="#959595"/>
<path d="M411.907 1265.03C411.981 1275.76 403.839 1283.8 393.107 1283.63C382.794 1283.48 374.998 1275.61 374.949 1265.27C374.875 1254.54 383.016 1246.5 393.749 1246.65C404.061 1246.8 411.858 1254.67 411.907 1265V1265.03Z" fill="#959595"/>
<path d="M718.498 1265.23C718.449 1275.71 710.184 1283.93 699.698 1283.9C689.213 1283.86 680.997 1275.59 681.022 1265.11C681.071 1254.62 689.336 1246.41 699.821 1246.43C710.307 1246.48 718.523 1254.75 718.498 1265.23Z" fill="#959595"/>
<path d="M852.765 1361.11C842.107 1361.04 834.138 1352.75 834.434 1342.02C834.705 1331.71 842.699 1324.06 853.061 1324.14C863.719 1324.21 871.688 1332.5 871.392 1343.23C871.121 1353.52 863.127 1361.19 852.765 1361.11Z" fill="#959595"/>
<path d="M947.157 1418.13C947.256 1428.76 939.213 1436.87 928.58 1436.87C917.971 1436.87 909.928 1428.71 910.051 1418.08C910.175 1407.84 917.971 1399.97 928.185 1399.77C938.818 1399.57 947.059 1407.54 947.157 1418.13Z" fill="#959595"/>
<path d="M105.284 1571.92C105.086 1582.16 96.9941 1589.88 86.6567 1589.65C76.418 1589.46 68.6957 1581.37 68.9178 1571.03C69.1151 1560.79 77.2075 1553.07 87.5449 1553.29C97.7836 1553.49 105.506 1561.58 105.284 1571.92Z" fill="#959595"/>
<path d="M164.273 1436.45C154.059 1436.31 146.288 1428.24 146.436 1418C146.584 1407.79 154.651 1400.02 164.89 1400.16C175.104 1400.31 182.876 1408.38 182.728 1418.62C182.58 1428.83 174.512 1436.6 164.273 1436.45Z" fill="#959595"/>
<path d="M1004.72 1552.73C1015.18 1552.95 1023.25 1561.41 1023.02 1571.89C1022.8 1582.35 1014.34 1590.42 1003.85 1590.2C993.394 1589.98 985.326 1581.51 985.548 1571.03C985.77 1560.57 994.233 1552.5 1004.72 1552.73Z" fill="#959595"/>
<path d="M985.79 1876.44C986.432 1865.93 995.116 1858.5 1005.85 1859.29C1016.33 1860.05 1023.66 1868.81 1022.75 1879.54C1021.91 1889.66 1013.52 1896.81 1003.18 1896.27C992.674 1895.73 985.124 1887.12 985.79 1876.41V1876.44Z" fill="#959595"/>
<path d="M105.205 1875.77C105.304 1885.96 97.4335 1893.97 87.2687 1894.07C77.0793 1894.17 69.061 1886.3 68.9623 1876.14C68.8637 1865.95 76.7339 1857.93 86.8987 1857.83C97.0881 1857.73 105.106 1865.6 105.205 1875.77Z" fill="#959595"/>
<path d="M87.1458 1665.88C76.6603 1665.93 68.3706 1657.72 68.3459 1647.21C68.2966 1636.72 76.5123 1628.43 87.0224 1628.41C97.5079 1628.36 105.798 1636.57 105.822 1647.08C105.872 1657.57 97.6559 1665.86 87.1458 1665.88Z" fill="#959595"/>
<path d="M258.446 1340.64C258.545 1350.95 250.724 1358.92 240.46 1359.02C230.148 1359.12 222.179 1351.3 222.08 1341.03C221.981 1330.72 229.778 1322.75 240.066 1322.66C250.378 1322.56 258.347 1330.38 258.446 1340.64Z" fill="#959595"/>
<path d="M86.8057 1781.61C97.4146 1781.46 105.754 1789.63 105.778 1800.24C105.803 1810.84 97.5379 1819.06 86.9291 1818.99C76.6904 1818.91 68.6721 1811.04 68.4007 1800.83C68.1293 1790.22 76.2216 1781.78 86.7811 1781.64L86.8057 1781.61Z" fill="#959595"/>
<path d="M1003.88 1512.02C993.76 1511.79 985.791 1503.23 986.284 1493.12C986.753 1483.37 994.969 1475.75 1004.74 1475.97C1014.85 1476.2 1022.82 1484.76 1022.33 1494.87C1021.86 1504.61 1013.67 1512.24 1003.88 1512.02Z" fill="#959595"/>
<path d="M793.478 1265.27C793.429 1275.41 785.04 1283.5 774.876 1283.21C765.106 1282.91 757.334 1274.87 757.408 1265.08C757.458 1254.94 765.846 1246.84 776.011 1247.14C785.781 1247.44 793.552 1255.48 793.478 1265.27Z" fill="#959595"/>
<path d="M335.643 1265.52C335.421 1275.1 327.156 1283.14 317.608 1283.04C307.715 1282.97 299.376 1274.16 299.869 1264.34C300.338 1254.77 308.85 1246.92 318.324 1247.27C327.872 1247.61 335.841 1256 335.619 1265.52H335.643Z" fill="#959595"/>
<path d="M104.718 1493.66C104.916 1503.09 96.6754 1511.55 87.2015 1511.62C77.7275 1511.7 69.3885 1503.33 69.4872 1493.89C69.5612 1484.76 77.3821 1476.74 86.56 1476.4C95.9599 1476.05 104.521 1484.19 104.743 1493.69L104.718 1493.66Z" fill="#959595"/>
<path d="M546.486 1172.23C555.812 1172.15 563.658 1179.8 563.88 1189.15C564.102 1198.79 555.935 1206.96 546.289 1206.76C536.938 1206.57 529.29 1198.72 529.364 1189.4C529.438 1180.07 537.16 1172.3 546.511 1172.25L546.486 1172.23Z" fill="#959595"/>
<path d="M928.528 1359.91C919.202 1359.86 911.43 1352.14 911.331 1342.79C911.233 1333.12 919.498 1325.05 929.12 1325.37C938.47 1325.69 946.044 1333.61 945.847 1342.94C945.674 1352.29 937.829 1359.93 928.503 1359.91H928.528Z" fill="#959595"/>
<path d="M1098.96 1646.91C1099.08 1656.36 1091.46 1664.18 1081.99 1664.33C1072.54 1664.45 1064.72 1656.83 1064.57 1647.36C1064.45 1637.91 1072.07 1630.09 1081.54 1629.94C1090.99 1629.82 1098.81 1637.44 1098.96 1646.91Z" fill="#959595"/>
<path d="M1082.06 1741.87C1072.76 1742.04 1064.82 1734.49 1064.5 1725.12C1064.17 1715.5 1072.24 1707.23 1081.91 1707.33C1091.24 1707.43 1098.99 1715.2 1099.04 1724.53C1099.08 1733.85 1091.41 1741.67 1082.06 1741.87Z" fill="#959595"/>
<path d="M622.053 1172.49C631.7 1172.37 639.249 1179.84 639.249 1189.46C639.249 1199.11 631.675 1206.56 622.053 1206.44C612.776 1206.31 605.548 1199.18 605.301 1189.91C605.054 1180.26 612.431 1172.61 622.053 1172.49Z" fill="#959595"/>
<path d="M471.657 1172.59C481.254 1172.99 488.286 1180.78 487.768 1190.45C487.249 1200.05 479.404 1206.93 469.708 1206.32C460.481 1205.72 453.745 1198.27 454.017 1188.95C454.288 1179.33 461.986 1172.2 471.657 1172.59Z" fill="#959595"/>
<path d="M164.4 1357.43C155 1357.33 147.993 1350.28 147.968 1340.86C147.968 1331.09 155.419 1323.88 165.214 1324.2C174.54 1324.5 181.398 1331.78 181.201 1341.23C181.004 1350.6 173.824 1357.53 164.4 1357.43Z" fill="#959595"/>
<path d="M869.539 1265.13C869.539 1274.55 862.581 1281.66 853.181 1281.78C843.386 1281.9 836.084 1274.55 836.306 1264.76C836.503 1255.38 843.683 1248.45 853.107 1248.55C862.507 1248.65 869.514 1255.7 869.539 1265.13Z" fill="#959595"/>
<path d="M1020.98 1418.69C1020.78 1428.37 1013.21 1435.4 1003.44 1434.98C994.159 1434.58 987.399 1427.3 987.596 1417.91C987.794 1408.23 995.368 1401.2 1005.14 1401.62C1014.41 1402.02 1021.17 1409.3 1020.98 1418.69Z" fill="#959595"/>
<path d="M1081.71 1783.41C1091.39 1783.36 1098.74 1790.78 1098.66 1800.46C1098.59 1810.1 1091.06 1817.38 1081.39 1817.18C1072.12 1816.98 1065.04 1809.88 1064.89 1800.6C1064.74 1790.93 1072.04 1783.46 1081.69 1783.43L1081.71 1783.41Z" fill="#959595"/>
<path d="M1081.67 1861.37C1090.97 1861.32 1098.13 1868.37 1098.17 1877.67C1098.22 1886.97 1091.17 1894.13 1081.87 1894.18C1072.57 1894.23 1065.41 1887.17 1065.36 1877.87C1065.31 1868.57 1072.37 1861.41 1081.67 1861.37Z" fill="#959595"/>
<path d="M1098.25 1571.75C1098.13 1581.1 1090.9 1588.08 1081.5 1587.96C1072.15 1587.83 1065.16 1580.6 1065.29 1571.21C1065.41 1561.86 1072.64 1554.87 1082.04 1555C1091.39 1555.12 1098.37 1562.35 1098.25 1571.75Z" fill="#959595"/>
<path d="M27.8369 1647.45C27.6889 1656.73 20.4354 1663.71 11.1095 1663.56C1.83295 1663.42 -5.14914 1656.16 -5.00111 1646.84C-4.85308 1637.56 2.4004 1630.58 11.7263 1630.73C21.0028 1630.88 27.9849 1638.13 27.8369 1647.45Z" fill="#959595"/>
<path d="M256.668 1265.08C256.717 1274.38 249.636 1281.51 240.36 1281.56C231.059 1281.61 223.929 1274.53 223.879 1265.25C223.83 1255.95 230.911 1248.82 240.187 1248.77C249.488 1248.72 256.619 1255.8 256.668 1265.08Z" fill="#959595"/>
<path d="M11.1335 1783.9C20.4347 1783.78 27.6635 1790.78 27.7869 1800.04C27.9102 1809.34 20.9035 1816.56 11.6516 1816.69C2.35035 1816.81 -4.87846 1809.8 -5.00181 1800.55C-5.12517 1791.28 1.88159 1784.03 11.1335 1783.9Z" fill="#959595"/>
<path d="M409.834 1189.59C409.785 1198.86 402.63 1205.92 393.329 1205.87C384.052 1205.82 376.996 1198.67 377.045 1189.37C377.095 1180.09 384.249 1173.03 393.551 1173.08C402.827 1173.13 409.883 1180.29 409.834 1189.59Z" fill="#959595"/>
<path d="M27.8893 1724.89C27.7659 1734.24 20.5371 1741.22 11.1372 1741.1C1.78661 1740.97 -5.19548 1733.75 -5.07212 1724.35C-4.94876 1715 2.28004 1708.01 11.68 1708.14C21.0305 1708.26 28.0126 1715.49 27.8893 1724.89Z" fill="#959595"/>
<path d="M700.194 1173.01C709.52 1173.21 716.453 1180.51 716.231 1189.94C716.033 1199.26 708.706 1206.19 699.306 1205.97C689.98 1205.77 683.047 1198.45 683.269 1189.05C683.467 1179.72 690.794 1172.79 700.194 1173.01Z" fill="#959595"/>
<path d="M27.4648 1875.94C27.4648 1884.6 20.088 1892 11.4282 1892.02C2.76845 1892.02 -4.63304 1884.65 -4.65771 1875.99C-4.65771 1867.33 2.71912 1859.93 11.3789 1859.9C20.0386 1859.9 27.4401 1867.28 27.4648 1875.94Z" fill="#959595"/>
<path d="M11.3842 1555.34C20.0439 1555.34 27.3961 1562.54 27.5441 1571.2C27.6921 1580.2 19.9946 1587.83 10.9894 1587.58C2.30496 1587.36 -4.84981 1579.91 -4.72646 1571.27C-4.62777 1562.59 2.69971 1555.36 11.3595 1555.34H11.3842Z" fill="#959595"/>
<path d="M87.4474 1434.61C78.2942 1434.81 70.868 1427.6 70.794 1418.45C70.72 1409.3 78.0228 1401.97 87.176 1402.02C95.9591 1402.07 103.089 1408.98 103.385 1417.74C103.681 1426.89 96.5759 1434.41 87.4474 1434.61Z" fill="#959595"/>
<path d="M1097.75 1494.26C1097.58 1502.89 1089.88 1510.27 1081.3 1509.97C1072.66 1509.68 1065.39 1501.83 1065.83 1493.29C1066.25 1484.98 1073.58 1478.02 1081.84 1478.05C1090.48 1478.07 1097.93 1485.67 1097.78 1494.28L1097.75 1494.26Z" fill="#959595"/>
<path d="M775.146 1173.51C783.732 1173.33 791.355 1180.78 791.405 1189.42C791.454 1198.03 783.88 1205.55 775.269 1205.45C766.98 1205.36 759.776 1198.3 759.455 1190.01C759.134 1181.45 766.486 1173.7 775.121 1173.53L775.146 1173.51Z" fill="#959595"/>
<path d="M318.004 1205.23C309.517 1205.38 301.894 1197.8 302.017 1189.29C302.14 1181.1 309.295 1173.9 317.511 1173.75C325.998 1173.6 333.622 1181.18 333.498 1189.69C333.375 1197.88 326.22 1205.08 318.004 1205.23Z" fill="#959595"/>
<path d="M928.405 1249.76C936.818 1249.63 943.899 1256.51 944.022 1264.95C944.145 1273.36 937.262 1280.44 928.824 1280.57C920.411 1280.69 913.331 1273.81 913.207 1265.37C913.084 1256.96 919.967 1249.88 928.405 1249.76Z" fill="#959595"/>
<path d="M1006.32 1327.24C1014.75 1327.37 1021.61 1334.47 1021.49 1342.88C1021.37 1351.32 1014.26 1358.18 1005.85 1358.05C997.409 1357.93 990.551 1350.83 990.674 1342.41C990.797 1333.98 997.903 1327.12 1006.29 1327.24H1006.32Z" fill="#959595"/>
<path d="M179.326 1265.2C179.326 1273.63 172.985 1279.92 164.548 1279.9C156.11 1279.9 149.819 1273.56 149.843 1265.12C149.843 1256.68 156.184 1250.39 164.622 1250.42C173.059 1250.42 179.351 1256.76 179.326 1265.2Z" fill="#959595"/>
<path d="M11.7498 1478.82C20.2862 1478.99 26.8982 1486 26.6022 1494.56C26.3061 1503.07 19.2007 1509.58 10.6396 1509.16C2.47327 1508.77 -3.818 1502.08 -3.74398 1493.89C-3.66997 1485.33 3.21342 1478.65 11.7745 1478.82H11.7498Z" fill="#959595"/>
<path d="M1081.94 1403.77C1090.25 1403.84 1096.52 1410.35 1096.32 1418.69C1096.12 1426.98 1089.51 1433.17 1081.17 1432.85C1073.25 1432.56 1067.26 1426.34 1067.23 1418.37C1067.21 1410.03 1073.6 1403.67 1081.94 1403.77Z" fill="#959595"/>
<path d="M254.572 1189.04C254.819 1196.81 248.478 1203.55 240.682 1203.79C232.91 1204.04 226.175 1197.7 225.928 1189.91C225.682 1182.13 232.022 1175.4 239.819 1175.15C247.59 1174.91 254.325 1181.25 254.572 1189.04Z" fill="#959595"/>
<path d="M867.472 1189.12C867.669 1197.46 861.378 1203.97 853.064 1204.05C844.725 1204.12 838.335 1197.76 838.359 1189.42C838.409 1181.45 844.404 1175.23 852.324 1174.96C860.663 1174.67 867.275 1180.86 867.472 1189.15V1189.12Z" fill="#959595"/>
<path d="M101.738 1340.74C101.788 1349.2 95.4223 1355.54 86.9846 1355.46C78.5468 1355.39 72.3049 1348.93 72.4776 1340.49C72.6503 1332.45 78.7195 1326.35 86.7872 1326.21C95.2496 1326.03 101.689 1332.32 101.738 1340.74Z" fill="#959595"/>
<path d="M470.624 1126.41C462.753 1126.26 456.462 1119.82 456.512 1111.95C456.561 1103.74 463.444 1097.2 471.66 1097.62C479.506 1098.02 485.599 1104.68 485.328 1112.52C485.057 1120.37 478.494 1126.56 470.648 1126.41H470.624Z" fill="#959595"/>
<path d="M546.215 1097.44C554.554 1097.25 561.067 1103.54 561.141 1111.83C561.215 1120.16 554.875 1126.55 546.535 1126.53C538.567 1126.5 532.349 1120.51 532.053 1112.59C531.757 1104.25 537.95 1097.64 546.215 1097.44Z" fill="#959595"/>
<path d="M636.74 1112.17C636.641 1120.44 629.955 1126.8 621.666 1126.48C613.771 1126.16 607.726 1119.79 607.825 1111.85C607.924 1103.59 614.61 1097.22 622.899 1097.54C630.794 1097.86 636.839 1104.23 636.74 1112.17Z" fill="#959595"/>
<path d="M11.3117 1432.46C3.66344 1432.38 -3.07193 1425.35 -2.72653 1417.75C-2.4058 1410.45 4.25555 1404.11 11.509 1404.16C19.1572 1404.23 25.8926 1411.27 25.5472 1418.86C25.2265 1426.17 18.5651 1432.51 11.3117 1432.46Z" fill="#959595"/>
<path d="M713.909 1112.35C713.712 1120.02 706.532 1126.6 698.983 1126.14C691.68 1125.67 685.438 1118.91 685.635 1111.68C685.833 1104.01 692.988 1097.42 700.562 1097.89C707.865 1098.36 714.107 1105.12 713.909 1112.35Z" fill="#959595"/>
<path d="M407.441 1112C407.441 1119.3 400.952 1125.87 393.65 1125.99C386.026 1126.14 379.143 1119.13 379.414 1111.51C379.685 1104.18 386.396 1097.82 393.65 1097.97C400.952 1098.11 407.441 1104.7 407.416 1111.98L407.441 1112Z" fill="#959595"/>
<path d="M1006.37 1251.95C1013.82 1252.1 1019.32 1257.72 1019.3 1265.19C1019.3 1272.99 1013.21 1278.74 1005.39 1278.37C997.984 1278 992.655 1272.15 992.901 1264.68C993.148 1257.25 998.896 1251.82 1006.37 1251.97V1251.95Z" fill="#959595"/>
<path d="M317.9 1124.81C310.498 1124.9 304.898 1119.33 304.922 1111.95C304.947 1104.58 310.597 1099.05 317.998 1099.2C325.03 1099.35 330.334 1104.6 330.532 1111.61C330.729 1119.01 325.277 1124.71 317.9 1124.81Z" fill="#959595"/>
<path d="M788.487 1112.03C788.487 1119.58 782.96 1125.06 775.411 1125.06C767.861 1125.06 762.384 1119.53 762.384 1111.98C762.384 1104.43 767.911 1098.96 775.46 1098.96C783.01 1098.96 788.487 1104.48 788.487 1112.03Z" fill="#959595"/>
<path d="M941.531 1189.66C941.432 1197.16 935.757 1202.59 928.208 1202.39C920.732 1202.19 915.378 1196.4 915.699 1188.85C915.995 1181.74 921.374 1176.59 928.553 1176.56C936.078 1176.56 941.605 1182.11 941.506 1189.64L941.531 1189.66Z" fill="#959595"/>
<path d="M1081.4 1329.74C1088.95 1329.54 1094.62 1334.97 1094.7 1342.49C1094.77 1350.04 1089.27 1355.59 1081.72 1355.57C1074.54 1355.54 1069.16 1350.39 1068.87 1343.26C1068.54 1335.71 1073.92 1329.93 1081.4 1329.74Z" fill="#959595"/>
<path d="M74.3196 1265.42C74.1962 1258.37 79.3773 1252.74 86.3594 1252.4C93.7856 1252.03 99.7068 1257.51 99.8301 1264.91C99.9781 1272.31 94.279 1278.03 86.8775 1277.93C79.8214 1277.83 74.443 1272.48 74.2949 1265.42H74.3196Z" fill="#959595"/>
<path d="M177.202 1189.34C177.276 1196.18 171.799 1201.92 164.94 1202.12C157.736 1202.32 151.766 1196.4 151.938 1189.19C152.086 1182.34 157.785 1176.83 164.644 1176.86C171.478 1176.91 177.103 1182.48 177.202 1189.34Z" fill="#959595"/>
<path d="M23.8666 1341.06C23.7186 1347.77 17.6247 1353.54 10.9633 1353.27C4.2526 1353 -1.69328 1346.74 -0.95313 1340.15C-0.138965 1332.99 4.1539 1328.78 11.432 1328.46C18.1427 1328.16 23.9899 1334.38 23.8666 1341.06Z" fill="#959595"/>
<path d="M864.931 1111.78C865.055 1118.19 859.602 1123.87 853.163 1123.99C846.748 1124.11 841.074 1118.66 840.95 1112.22C840.827 1105.81 846.279 1100.14 852.719 1100.01C859.133 1099.89 864.808 1105.34 864.931 1111.78Z" fill="#959595"/>
<path d="M239.798 1123.35C232.84 1122.48 228.819 1118.66 229.09 1111.58C229.361 1104.48 233.654 1100.6 240.71 1100.85C247.816 1101.1 251.689 1105.41 251.467 1112.44C251.245 1119.6 246.829 1122.98 239.822 1123.35H239.798Z" fill="#959595"/>
<path d="M610.937 1035.52C611.973 1028.59 615.945 1024.72 623.001 1025.14C630.106 1025.58 633.857 1030.02 633.437 1037.03C633.018 1044.13 628.552 1047.86 621.545 1047.46C614.415 1047.07 611.134 1042.53 610.937 1035.5V1035.52Z" fill="#959595"/>
<path d="M558.059 1037.13C557.467 1043.4 553.815 1047.45 546.735 1047.74C539.999 1048.04 534.646 1042.51 535.188 1035.78C535.756 1028.75 539.876 1024.97 546.932 1024.9C553.322 1024.82 558.133 1029.98 558.084 1037.11L558.059 1037.13Z" fill="#959595"/>
<path d="M1006.27 1178.49C1012.76 1179.3 1016.68 1182.66 1016.95 1189.39C1017.2 1195.73 1011.87 1200.86 1005.53 1200.29C998.892 1199.7 995.142 1195.78 995.314 1189.12C995.512 1182.41 999.706 1179.1 1006.27 1178.49Z" fill="#959595"/>
<path d="M482.116 1036.15C482.215 1042.69 477.404 1047.55 470.866 1047.52C464.328 1047.52 459.443 1042.59 459.739 1036.05C460.06 1029.34 463.785 1025.56 470.496 1025.15C477.009 1024.75 481.993 1029.64 482.091 1036.12L482.116 1036.15Z" fill="#959595"/>
<path d="M1092.77 1265.62C1091.84 1272.01 1088.38 1275.88 1081.65 1276.01C1075.31 1276.1 1070.27 1270.68 1070.96 1264.36C1071.7 1257.75 1075.73 1254.05 1082.36 1254.4C1089.05 1254.72 1092.3 1258.98 1092.77 1265.62Z" fill="#959595"/>
<path d="M404.308 1036.42C403.37 1042.96 399.891 1047.2 393.131 1046.95C386.445 1046.71 382.547 1042.51 382.818 1035.8C383.09 1029.58 387.037 1025.74 393.304 1025.71C400.089 1025.66 403.493 1029.88 404.308 1036.42Z" fill="#959595"/>
<path d="M710.649 1035.97C710.032 1042.53 706.775 1046.82 700.065 1047C693.428 1047.17 689.283 1043.27 689.086 1036.63C688.888 1030 692.811 1025.9 699.448 1025.66C706.158 1025.41 709.637 1029.55 710.649 1035.97Z" fill="#959595"/>
<path d="M97.6397 1189.12C97.097 1195.24 93.865 1199.11 87.7217 1199.88C82.1213 1200.57 76.3481 1195.09 76.6935 1189.42C77.0882 1183.2 80.7396 1179.26 86.9322 1179.11C93.1742 1178.96 96.5788 1183.01 97.6644 1189.1L97.6397 1189.12Z" fill="#959595"/>
<path d="M21.8459 1265.32C20.8837 1271.49 17.479 1275.54 11.1877 1275.39C4.97045 1275.24 1.02299 1271.2 1.17102 1264.95C1.31905 1258.74 5.36519 1254.82 11.6071 1254.94C17.8737 1255.06 21.1304 1259.21 21.8459 1265.32Z" fill="#959595"/>
<path d="M928.654 1101.81C934.847 1102.62 938.819 1106.03 938.621 1112.3C938.424 1118.51 934.353 1122.29 928.111 1122.01C922.338 1121.77 918.637 1117.97 918.588 1112.17C918.563 1105.91 922.511 1102.55 928.654 1101.81Z" fill="#959595"/>
<path d="M775.242 1046.21C769.198 1045.49 765.571 1042.19 765.694 1036.24C765.818 1029.8 769.815 1026.23 776.205 1026.62C782.175 1026.99 785.506 1030.96 785.185 1036.88C784.889 1042.85 781.04 1045.86 775.242 1046.23V1046.21Z" fill="#959595"/>
<path d="M318.203 1026.77C324.543 1027.7 327.652 1031.26 327.084 1037.27C326.517 1043.42 322.52 1046.23 316.55 1045.64C310.851 1045.07 308.063 1041.35 308.334 1035.79C308.63 1029.58 312.578 1026.96 318.203 1026.77Z" fill="#959595"/>
<path d="M174.139 1112C173.424 1118.42 170.044 1121.72 163.999 1121.38C157.856 1121.03 154.822 1117.19 155.216 1111.19C155.586 1105.54 159.114 1102.51 164.74 1102.61C170.957 1102.7 173.72 1106.48 174.139 1112Z" fill="#959595"/>
<path d="M861.323 1036.09C860.978 1040.76 858.56 1044.11 853.749 1044.53C848.469 1045 844.966 1041.89 844.695 1036.71C844.448 1031.48 847.729 1028.12 852.984 1028.1C857.82 1028.05 860.534 1031.21 861.299 1036.12L861.323 1036.09Z" fill="#959595"/>
<path d="M1089.63 1189.22C1089.44 1193.98 1087.09 1197.06 1082.13 1197.23C1077.25 1197.41 1074.21 1194.77 1074.02 1189.83C1073.82 1184.95 1076.48 1181.91 1081.42 1181.72C1086.3 1181.52 1089.07 1184.21 1089.63 1189.22Z" fill="#959595"/>
<path d="M478.054 959.224C477.19 963.467 474.723 966.254 470.208 965.786C466.236 965.366 463.695 962.653 463.966 958.533C464.262 954.068 467.173 951.453 471.664 951.872C475.66 952.242 477.782 955.054 478.054 959.199V959.224Z" fill="#959595"/>
<path d="M1006.05 1104.58C1010.52 1104.92 1013.33 1107.17 1013.4 1111.73C1013.5 1116.71 1010.67 1119.48 1005.71 1119.3C1001.17 1119.13 998.7 1116.37 998.774 1111.83C998.848 1107.24 1001.59 1104.97 1006.05 1104.58Z" fill="#959595"/>
<path d="M232.735 1036.88C233.081 1031.87 235.351 1029.04 239.964 1028.96C245.022 1028.86 247.785 1031.7 247.612 1036.73C247.464 1041.32 244.652 1043.79 240.088 1043.74C235.4 1043.69 233.253 1040.83 232.735 1036.88Z" fill="#959595"/>
<path d="M546.613 951.65C551.227 952.588 554.015 955.055 553.546 959.569C553.127 963.541 550.413 966.082 546.293 965.811C541.827 965.515 539.237 962.604 539.631 958.114C539.977 954.043 542.937 952.144 546.613 951.65Z" fill="#959595"/>
<path d="M18.5852 1189.59C17.9684 1193.98 15.5506 1196.79 10.937 1196.52C6.84151 1196.28 4.27564 1193.61 4.37433 1189.47C4.47302 1184.88 7.31026 1182.24 11.8745 1182.46C16.0194 1182.66 18.1411 1185.42 18.5852 1189.59Z" fill="#959595"/>
<path d="M629.489 958.584C628.675 963.321 626.306 966.158 621.742 965.837C617.745 965.541 615.155 962.877 615.303 958.781C615.476 954.292 618.288 951.652 622.803 951.899C626.899 952.121 628.823 955.056 629.489 958.584Z" fill="#959595"/>
<path d="M700.113 952.293C704.16 953.181 706.651 955.5 706.133 959.694C705.665 963.345 703.025 965.615 699.349 965.269C695.327 964.899 692.885 962.185 693.378 958.016C693.822 954.365 696.462 952.515 700.089 952.293H700.113Z" fill="#959595"/>
<path d="M93.8636 1111.81C93.0987 1116.15 90.8289 1118.84 86.7334 1118.57C82.712 1118.29 80.1954 1115.51 80.5408 1111.44C80.8369 1107.86 83.3534 1105.44 87.0295 1105.44C91.199 1105.44 93.1481 1108.28 93.8636 1111.83V1111.81Z" fill="#959595"/>
<path d="M934.305 1036.78C933.886 1040.26 931.888 1042.14 928.409 1041.99C924.363 1041.81 922.611 1039.3 923.03 1035.47C923.425 1031.92 925.892 1030.39 929.272 1030.71C932.825 1031.03 934.33 1033.33 934.305 1036.81V1036.78Z" fill="#959595"/>
<path d="M169.973 1036.07C169.356 1039.55 167.678 1041.59 164.594 1041.52C161.066 1041.42 159.018 1039.18 159.413 1035.67C159.759 1032.71 161.88 1030.86 165.014 1031.11C168.122 1031.38 169.455 1033.63 169.973 1036.04V1036.07Z" fill="#959595"/>
<path d="M399.123 958.111C399.123 961.935 397.544 964.229 394.016 964.476C390.142 964.747 387.774 962.798 387.799 958.753C387.799 955.25 389.772 953.276 393.3 953.177C396.828 953.079 398.703 955.028 399.148 958.111H399.123Z" fill="#959595"/>
<path d="M780.822 958.929C780.082 962.21 778.379 964.258 775.271 964.036C771.792 963.789 769.794 961.519 770.312 958.016C770.756 955.056 772.952 953.255 776.06 953.65C779.095 954.044 780.501 956.265 780.822 958.904V958.929Z" fill="#959595"/>
</g>
</g>
<g opacity="0.5">
<g clip-path="url(#clip3_222_18888)">
<path d="M79.7954 1580.79C82.5897 1580.71 82.9494 1583.17 83.8071 1584.89C87.6527 1592.69 91.4707 1600.52 95.0121 1608.46C97.9447 1615.04 102.482 1619.91 108.901 1623.14C117.699 1627.63 126.469 1632.11 135.184 1636.76C137.259 1637.86 140.607 1637.92 140.662 1641.21C140.717 1644.61 137.37 1644.67 135.267 1645.66C125.556 1650.31 115.79 1654.85 105.996 1659.33C101.375 1661.43 98.1384 1664.75 96.0911 1669.37C92.1901 1678.17 88.1507 1686.91 84.1944 1695.68C83.1984 1697.87 83.2814 1701.24 80.0721 1701.32C76.3924 1701.43 76.4754 1697.76 75.3964 1695.4C71.7167 1687.27 68.0371 1679.14 64.4681 1670.92C61.9781 1665.19 58.0494 1661.04 52.3224 1658.42C43.1647 1654.21 34.1177 1649.76 25.0431 1645.33C23.1064 1644.39 20.2291 1644.2 20.3951 1641.07C20.5334 1638.47 22.9681 1638.17 24.7387 1637.23C32.8451 1632.91 40.8407 1628.43 49.0577 1624.31C56.8044 1620.41 62.1994 1614.54 65.6854 1606.66C68.9224 1599.33 72.3807 1592.08 75.9221 1584.89C76.7521 1583.2 77.0287 1580.65 79.8507 1580.71L79.7954 1580.79ZM80.9297 1590.28C73.3767 1602.56 70.8314 1614.96 61.6737 1623.03C52.8481 1630.81 41.5601 1634.96 31.1851 1641.35C42.3901 1646.91 53.9547 1650.5 62.8081 1658.2C71.8827 1666.08 73.7641 1678.86 80.0721 1689.48C82.7281 1683.54 85.3011 1678.45 87.3484 1673.13C91.4154 1662.43 98.4981 1654.9 109.26 1650.78C112.691 1649.48 115.9 1647.66 119.22 1646.08C122.513 1644.53 125.833 1643.04 130.923 1640.68C105.691 1631.86 87.2101 1618.19 80.9021 1590.31L80.9297 1590.28Z" fill="#34322D"/>
<path d="M150.012 1589.03C148.518 1588.45 147.854 1587.35 147.494 1585.96C143.289 1569.2 132.526 1558.82 116.203 1553.84C114.709 1553.4 112.855 1552.99 112.855 1550.94C112.855 1548.89 114.903 1548.73 116.175 1547.92C116.95 1547.43 117.78 1547.01 118.638 1546.68C132.305 1541.53 141.739 1532.38 146.277 1518.3C146.913 1516.36 147.134 1513.18 150.095 1513.21C152.585 1513.21 152.917 1516 153.47 1517.83C158.173 1533.1 169.102 1541.98 183.461 1547.48C185.287 1548.17 187.998 1548.56 187.998 1551.05C187.998 1553.6 184.899 1553.29 183.35 1554.51C183.184 1554.65 182.935 1554.7 182.714 1554.76C167.552 1559.18 157.233 1568.45 153.221 1584.11C152.723 1586.05 152.114 1588.09 149.984 1589.03H150.012ZM149.984 1520.04C145.474 1536.11 133.993 1544.74 117.503 1551.16C134.878 1556.17 145.862 1564.77 150.012 1581.29C154.051 1564.41 165.643 1556.08 183.018 1551.11C166.446 1544.69 154.687 1536.44 149.984 1520.04Z" fill="#34322D"/>
<path d="M80.9289 1590.28C87.2369 1618.16 105.718 1631.83 130.95 1640.65C125.86 1643 122.54 1644.5 119.247 1646.05C115.927 1647.6 112.718 1649.42 109.287 1650.75C98.5249 1654.87 91.4422 1662.4 87.3752 1673.1C85.3556 1678.41 82.7826 1683.53 80.0989 1689.45C73.7909 1678.83 71.9096 1666.05 62.8349 1658.16C53.9816 1650.47 42.4169 1646.88 31.2119 1641.32C41.5869 1634.9 52.8749 1630.78 61.7006 1623C70.8859 1614.92 73.4036 1602.53 80.9566 1590.25L80.9289 1590.28Z" fill="#ECECE7"/>
<path d="M149.983 1520.04C154.686 1536.45 166.417 1544.69 183.017 1551.11C165.642 1556.09 154.05 1564.41 150.011 1581.29C145.861 1564.77 134.877 1556.14 117.502 1551.16C133.992 1544.75 145.446 1536.14 149.983 1520.04Z" fill="#ECECE7"/>
</g>
<g clip-path="url(#clip4_222_18888)">
<path d="M994.563 333.572C991.769 333.655 991.409 331.193 990.552 329.478C986.706 321.677 982.888 313.848 979.347 305.908C976.414 299.324 971.877 294.455 965.458 291.218C956.66 286.737 947.89 282.255 939.175 277.608C937.1 276.501 933.752 276.446 933.697 273.154C933.641 269.751 936.989 269.696 939.092 268.7C948.803 264.052 958.569 259.515 968.363 255.034C972.983 252.931 976.22 249.611 978.268 244.992C982.169 236.194 986.208 227.452 990.164 218.683C991.16 216.497 991.077 213.122 994.287 213.039C997.966 212.929 997.883 216.608 998.962 218.959C1002.64 227.093 1006.32 235.226 1009.89 243.442C1012.38 249.169 1016.31 253.318 1022.04 255.947C1031.19 260.151 1040.24 264.605 1049.32 269.032C1051.25 269.972 1054.13 270.166 1053.96 273.292C1053.83 275.892 1051.39 276.197 1049.62 277.137C1041.51 281.453 1033.52 285.935 1025.3 290.057C1017.55 293.957 1012.16 299.822 1008.67 307.706C1005.44 315.037 1001.98 322.285 998.437 329.478C997.607 331.166 997.33 333.711 994.508 333.655L994.563 333.572ZM993.429 324.084C1000.98 311.801 1003.53 299.407 1012.69 291.329C1021.51 283.555 1032.8 279.406 1043.17 273.015C1031.97 267.455 1020.4 263.858 1011.55 256.168C1002.48 248.284 1000.59 235.503 994.287 224.88C991.631 230.827 989.058 235.918 987.01 241.229C982.943 251.935 975.861 259.46 965.098 263.582C961.668 264.882 958.458 266.708 955.138 268.285C951.846 269.834 948.526 271.328 943.435 273.679C968.667 282.504 987.149 296.17 993.457 324.056L993.429 324.084Z" fill="#34322D"/>
<path d="M924.347 325.33C925.841 325.911 926.505 327.018 926.865 328.401C931.07 345.166 941.832 355.54 958.156 360.519C959.65 360.962 961.503 361.377 961.503 363.424C961.503 365.471 959.456 365.637 958.183 366.439C957.409 366.937 956.579 367.352 955.721 367.684C942.054 372.83 932.619 381.987 928.082 396.068C927.446 398.004 927.224 401.186 924.264 401.158C921.774 401.158 921.442 398.364 920.889 396.538C916.185 381.267 905.257 372.387 890.898 366.882C889.072 366.19 886.361 365.803 886.361 363.313C886.361 360.768 889.459 361.073 891.009 359.855C891.175 359.717 891.424 359.662 891.645 359.606C906.806 355.18 917.126 345.913 921.138 330.255C921.636 328.318 922.244 326.271 924.375 325.33H924.347ZM924.375 394.325C928.884 378.252 940.366 369.621 956.855 363.203C939.481 358.195 928.497 349.592 924.347 333.076C920.308 349.952 908.715 358.278 891.341 363.258C907.913 369.676 919.671 377.92 924.375 394.325Z" fill="#34322D"/>
<path d="M993.43 324.088C987.122 296.202 968.641 282.536 943.409 273.711C948.499 271.36 951.819 269.866 955.112 268.316C958.432 266.767 961.641 264.941 965.072 263.614C975.834 259.492 982.917 251.967 986.984 241.261C989.003 235.949 991.576 230.831 994.26 224.911C1000.57 235.534 1002.45 248.315 1011.52 256.2C1020.38 263.89 1031.94 267.487 1043.15 273.047C1032.77 279.465 1021.48 283.587 1012.66 291.361C1003.47 299.439 1000.96 311.832 993.402 324.115L993.43 324.088Z" fill="#ECECE7"/>
<path d="M924.376 394.322C919.672 377.917 907.942 369.673 891.342 363.255C908.716 358.276 920.309 349.949 924.348 333.074C928.498 349.589 939.482 358.22 956.856 363.2C940.367 369.618 928.913 378.222 924.376 394.322Z" fill="#ECECE7"/>
</g>
<g clip-path="url(#clip5_222_18888)">
<path d="M-15.9053 319.299C-5.558 323.393 2.10567 317.888 7.19633 306.13C9.05 301.815 12.619 298.163 15.69 294.456C20.4763 288.674 26.646 289.228 30.049 295.729C34.0053 303.281 37.4637 311.138 38.2937 319.658C38.7363 324.306 40.9497 325.91 44.9613 326.851C52.3207 328.594 59.597 330.613 66.901 332.55C71.051 333.656 74.952 335.233 75.616 340.157C76.2523 344.777 73.1813 347.184 69.6953 349.37C63.4703 353.27 57.439 357.531 51.1033 361.238C47.811 363.174 46.7873 365.028 47.811 368.956C49.9137 377.2 50.8267 385.665 50.9927 394.213C51.0757 398.086 50.8543 401.683 46.9257 403.675C43.1077 405.611 39.8983 404.007 36.6613 401.904C29.136 397.007 21.5553 392.166 14.86 386.191C12.0103 383.646 9.52033 383.452 6.228 385.112C-2.404 389.427 -11.5617 392.471 -20.6917 395.541C-24.897 396.952 -29.213 398.28 -32.7543 394.13C-36.0743 390.257 -34.4697 386.523 -32.4777 382.677C-28.632 375.374 -25.229 367.822 -21.079 360.684C-18.7827 356.728 -19.17 354.349 -22.5453 351.279C-28.6597 345.69 -34.3037 339.604 -40.086 333.684C-42.659 331.056 -44.2083 328.068 -42.659 324.361C-41.1373 320.737 -38.1493 319.299 -34.3867 319.271C-29.1023 319.243 -23.7903 319.271 -15.9053 319.271V319.299ZM-17.8697 324.278C-22.7113 324.278 -27.553 324.223 -32.3947 324.278C-34.359 324.306 -36.766 323.725 -37.6237 326.408C-38.2877 328.539 -36.7937 329.839 -35.4933 331.139C-29.6557 337.031 -23.9563 343.09 -17.8973 348.733C-13.4153 352.911 -12.862 357.033 -16.099 362.151C-20.8023 369.537 -24.5373 377.421 -28.1063 385.416C-28.9363 387.27 -30.4027 389.151 -28.4107 391.06C-26.7507 392.664 -25.0077 391.475 -23.2647 390.921C-13.5813 387.961 -4.064 384.586 5.01067 380.105C9.82467 377.726 13.6427 378.334 17.5437 381.847C24.073 387.685 31.4323 392.471 38.7917 397.201C40.4793 398.28 42.2223 399.995 44.4357 398.806C46.7873 397.561 45.9297 395.265 45.819 393.245C45.3487 385.195 44.8507 377.172 42.6927 369.343C41.2263 364.059 42.7203 360.103 47.811 357.226C54.3957 353.464 60.6483 349.121 67.0117 344.999C68.5333 344.03 70.4423 343.284 70.2763 340.987C70.055 338.193 67.648 338.166 65.7113 337.612C57.9647 335.455 50.2733 333.075 42.4713 331.305C37.2977 330.143 34.448 327.709 33.7563 322.259C32.7327 314.208 29.8277 306.711 26.314 299.436C24.1837 295.037 22.0257 294.29 18.9547 298.44C16.354 301.953 12.9233 305.135 11.3463 309.063C5.84067 322.701 -3.34467 328.345 -17.842 324.223L-17.8697 324.278Z" fill="#34322D"/>
<path d="M-17.8707 324.276C-3.37335 328.398 5.81198 322.727 11.3177 309.116C12.8947 305.188 16.3253 302.007 18.926 298.493C21.997 294.344 24.155 295.118 26.2853 299.489C29.799 306.793 32.704 314.29 33.7276 322.312C34.4193 327.762 37.269 330.197 42.4426 331.358C50.2723 333.129 57.9637 335.508 65.6827 337.666C67.6193 338.191 70.0263 338.219 70.2476 341.041C70.4413 343.337 68.5046 344.084 66.983 345.052C60.6196 349.174 54.367 353.517 47.7823 357.28C42.6916 360.185 41.1976 364.113 42.664 369.397C44.8496 377.226 45.3476 385.248 45.7903 393.299C45.901 395.318 46.7586 397.614 44.407 398.859C42.1937 400.021 40.4506 398.334 38.763 397.255C31.4036 392.524 24.072 387.738 17.515 381.901C13.5863 378.388 9.79599 377.779 4.98199 380.158C-4.06501 384.64 -13.61 388.015 -23.2933 390.975C-25.0363 391.5 -26.7517 392.69 -28.4393 391.113C-30.4313 389.204 -28.965 387.323 -28.135 385.47C-24.566 377.475 -20.831 369.59 -16.1277 362.204C-12.8907 357.114 -13.444 352.964 -17.926 348.787C-23.985 343.143 -29.6843 337.085 -35.522 331.192C-36.8223 329.892 -38.344 328.564 -37.6523 326.462C-36.7947 323.778 -34.3877 324.359 -32.4233 324.332C-27.5817 324.249 -22.74 324.332 -17.8983 324.332L-17.8707 324.276Z" fill="#F1BFA3"/>
</g>
<g clip-path="url(#clip6_222_18888)">
<path d="M1044.67 1145.35C1054.54 1144.65 1064.73 1144.31 1074.94 1144.4C1084.85 1144.48 1094.74 1144.92 1104.62 1146.02C1112.21 1146.87 1114.61 1151.15 1111.21 1158.11C1105.66 1169.49 1099.75 1180.67 1093.18 1191.49C1089.42 1197.68 1090.34 1199.43 1097.7 1200.39C1110.07 1202 1122.27 1204.53 1134.38 1207.56C1137.54 1208.36 1139.85 1209.86 1140.54 1213.22C1141.23 1216.59 1139.69 1218.88 1137.06 1220.82C1104.87 1244.58 1070.73 1265.2 1035.3 1283.72C1031.96 1285.46 1028.84 1284.8 1026.47 1281.97C1023.9 1278.9 1024.43 1275.75 1026.85 1272.7C1037.37 1259.47 1048.42 1246.72 1060.74 1235.12C1062.48 1233.49 1064.67 1232.03 1063.41 1229.06C1062.17 1226.15 1059.6 1226.69 1057.22 1226.66C1049.29 1226.54 1041.38 1226.22 1033.52 1225.11C1027.54 1224.26 1025.33 1221.4 1026.22 1215.49C1029.43 1194.03 1033.65 1172.78 1038.78 1151.7C1039.54 1148.55 1041.1 1146.27 1044.67 1145.35ZM1029.97 1280.93C1032.52 1281.66 1033.92 1280.88 1035.25 1280.17C1069.8 1262.06 1103.1 1241.91 1134.55 1218.75C1136.22 1217.53 1137.83 1216.37 1137.45 1214C1137.01 1211.38 1134.85 1210.9 1132.75 1210.38C1120.76 1207.45 1108.69 1204.94 1096.43 1203.38C1088.04 1202.32 1085.79 1197.68 1090.16 1190.41C1096.69 1179.56 1102.7 1168.43 1108.24 1157.05C1110.96 1151.48 1109.88 1149.59 1103.65 1149.07C1096.58 1148.49 1089.51 1148.2 1082.45 1147.65C1080.14 1147.47 1079 1148.22 1078.02 1150.43C1070.05 1168.5 1062.44 1186.71 1055.56 1205.23C1053.75 1210.1 1054.33 1211.11 1059.34 1212.42C1070.07 1215.2 1080.99 1216.86 1092.03 1217.7C1094.76 1217.91 1097.15 1218.61 1097.98 1221.57C1098.82 1224.49 1097.31 1226.43 1095.02 1228C1075.78 1241.12 1058.13 1256.22 1040.64 1271.55C1037.25 1274.52 1033.88 1277.49 1029.97 1280.93ZM1028.67 1279.63C1029.61 1278.87 1030.41 1278.28 1031.14 1277.64C1051.41 1259.72 1071.77 1241.92 1094.1 1226.53C1095.72 1225.41 1096.99 1224.06 1096.34 1221.96C1095.68 1219.84 1093.76 1219.54 1091.87 1219.39C1080.82 1218.53 1069.92 1216.86 1059.2 1214.12C1052.77 1212.48 1051.75 1210.61 1054.06 1204.38C1059.65 1189.19 1065.86 1174.24 1072.27 1159.37C1073.93 1155.54 1075.57 1151.7 1077.3 1147.62C1066.9 1147.33 1057.16 1147.82 1047.39 1148.23C1044.1 1148.37 1042.36 1149.82 1041.58 1153.18C1036.7 1173.89 1032.52 1194.7 1029.28 1215.72C1028.66 1219.73 1030.17 1221.52 1034.04 1221.99C1041.93 1222.95 1049.82 1223.5 1057.76 1223.39C1061.58 1223.34 1064.96 1224.09 1066.48 1227.99C1068.02 1231.93 1065.83 1234.67 1063.06 1237.25C1050.96 1248.46 1040.23 1260.93 1029.93 1273.8C1028.73 1275.3 1027.17 1276.8 1028.67 1279.61L1028.67 1279.63Z" fill="#34322D"/>
<path d="M1029.97 1280.92C1033.86 1277.5 1037.25 1274.52 1040.64 1271.55C1058.13 1256.22 1075.78 1241.12 1095.02 1228C1097.31 1226.43 1098.82 1224.49 1097.98 1221.57C1097.14 1218.62 1094.74 1217.91 1092.03 1217.7C1080.99 1216.86 1070.07 1215.2 1059.34 1212.42C1054.32 1211.11 1053.75 1210.1 1055.56 1205.23C1062.43 1186.71 1070.05 1168.5 1078.02 1150.43C1078.98 1148.23 1080.14 1147.47 1082.45 1147.65C1089.51 1148.2 1096.6 1148.49 1103.65 1149.07C1109.88 1149.59 1110.95 1151.48 1108.24 1157.05C1102.7 1168.43 1096.69 1179.56 1090.16 1190.41C1085.78 1197.68 1088.04 1202.32 1096.43 1203.38C1108.69 1204.94 1120.75 1207.43 1132.75 1210.38C1134.85 1210.9 1137.01 1211.38 1137.44 1214C1137.83 1216.37 1136.22 1217.53 1134.55 1218.75C1103.11 1241.91 1069.81 1262.05 1035.24 1280.17C1033.91 1280.86 1032.52 1281.66 1029.97 1280.92Z" fill="#F1BFA3"/>
<path d="M1028.67 1279.63C1027.19 1276.83 1028.74 1275.33 1029.94 1273.81C1040.22 1260.95 1050.96 1248.48 1063.07 1237.27C1065.84 1234.69 1068.02 1231.96 1066.49 1228.01C1064.97 1224.11 1061.58 1223.35 1057.76 1223.4C1049.82 1223.52 1041.92 1222.97 1034.04 1222C1030.15 1221.52 1028.67 1219.75 1029.29 1215.73C1032.53 1194.72 1036.72 1173.9 1041.58 1153.19C1042.36 1149.84 1044.11 1148.38 1047.39 1148.24C1057.16 1147.83 1066.91 1147.34 1077.3 1147.63C1075.55 1151.71 1073.93 1155.55 1072.27 1159.39C1065.87 1174.25 1059.66 1189.2 1054.06 1204.39C1051.76 1210.65 1052.77 1212.5 1059.2 1214.13C1069.94 1216.87 1080.85 1218.54 1091.87 1219.41C1093.77 1219.55 1095.69 1219.85 1096.34 1221.97C1097 1224.09 1095.73 1225.42 1094.1 1226.55C1071.77 1241.93 1051.42 1259.75 1031.15 1277.66C1030.42 1278.3 1029.63 1278.88 1028.67 1279.65L1028.67 1279.63Z" fill="#F1BFA3"/>
</g>
</g>
</g>
</g>
<defs>
<filter id="filter0_f_222_18888" x="-234.5" y="940.25" width="1563.83" height="1565.37" filterUnits="userSpaceOnUse" color-interpolation-filters="sRGB">
<feFlood flood-opacity="0" result="BackgroundImageFix"/>
<feBlend mode="normal" in="SourceGraphic" in2="BackgroundImageFix" result="shape"/>
<feGaussianBlur stdDeviation="5.7" result="effect1_foregroundBlur_222_18888"/>
</filter>
<clipPath id="clip0_222_18888">
<rect width="1080" height="1920" fill="white"/>
</clipPath>
<clipPath id="clip1_222_18888">
<rect width="1079" height="2274" fill="white" transform="translate(1)"/>
</clipPath>
<clipPath id="clip2_222_18888">
<rect width="2973.91" height="1680.43" fill="white" transform="translate(1363.27 -702.672) rotate(90)"/>
</clipPath>
<clipPath id="clip3_222_18888">
<rect width="167.66" height="188.117" fill="white" transform="translate(20.3667 1513.23)"/>
</clipPath>
<clipPath id="clip4_222_18888">
<rect width="167.66" height="188.117" fill="white" transform="matrix(-1 0 0 -1 1053.99 401.131)"/>
</clipPath>
<clipPath id="clip5_222_18888">
<rect width="118.994" height="114.115" fill="white" transform="translate(-43.2666 290.473)"/>
</clipPath>
<clipPath id="clip6_222_18888">
<rect width="128.73" height="131.434" fill="white" transform="matrix(0.965932 -0.258798 0.25884 0.96592 992.802 1159.25)"/>
</clipPath>
</defs>
</svg>
