<svg width="390" height="822" viewBox="0 0 390 822" fill="none" xmlns="http://www.w3.org/2000/svg">
<g clip-path="url(#clip0_194_35639)">
<g clip-path="url(#clip1_194_35639)">
<g style="mix-blend-mode:luminosity" opacity="0.05">
<mask id="mask0_194_35639" style="mask-type:luminance" maskUnits="userSpaceOnUse" x="-115" y="-254" width="608" height="1075">
<path d="M492.387 821L492.387 -254L-114.999 -254L-114.999 821L492.387 821Z" fill="white"/>
</mask>
<g mask="url(#mask0_194_35639)">
<mask id="mask1_194_35639" style="mask-type:luminance" maskUnits="userSpaceOnUse" x="-115" y="-254" width="608" height="1080">
<path d="M492.387 825.797L492.387 -254L-114.999 -254L-114.999 825.797L492.387 825.797Z" fill="white"/>
</mask>
<g mask="url(#mask1_194_35639)">
<path d="M188.934 285.896L-457.094 336.478L-457.094 235.314L188.934 285.896Z" stroke="black" stroke-width="4.12235" stroke-miterlimit="10"/>
<path d="M188.934 285.896L-405.669 543.501L-438.513 447.821L188.934 285.896Z" stroke="black" stroke-width="4.12235" stroke-miterlimit="10"/>
<path d="M188.934 285.896L-289.805 722.613L-351.944 642.781L188.934 285.896Z" stroke="black" stroke-width="4.12235" stroke-miterlimit="10"/>
<path d="M188.934 285.896L-122.065 854.399L-206.756 799.065L188.934 285.896Z" stroke="black" stroke-width="4.12235" stroke-miterlimit="10"/>
<path d="M188.934 285.896L79.3791 924.574L-18.6912 899.739L188.934 285.896Z" stroke="black" stroke-width="4.12235" stroke-miterlimit="10"/>
<path d="M188.934 285.896L292.695 925.541L191.875 933.899L188.934 285.896Z" stroke="black" stroke-width="4.12235" stroke-miterlimit="10"/>
<path d="M188.934 285.896L494.764 857.194L402.12 897.832L188.934 285.896Z" stroke="black" stroke-width="4.12235" stroke-miterlimit="10"/>
<path d="M188.933 285.896L781.174 548.889L733.027 637.86L188.933 285.896Z" stroke="black" stroke-width="4.12235" stroke-miterlimit="10"/>
<path d="M188.934 285.896L834.479 342.338L817.826 442.124L188.934 285.896Z" stroke="black" stroke-width="4.12235" stroke-miterlimit="10"/>
<path d="M188.934 285.895L817.826 129.668L834.479 229.454L188.934 285.895Z" stroke="black" stroke-width="4.12235" stroke-miterlimit="10"/>
<path d="M188.933 285.897L733.027 -66.0664L781.174 22.9044L188.933 285.897Z" stroke="black" stroke-width="4.12235" stroke-miterlimit="10"/>
<path d="M188.933 285.895L589.262 -223.662L663.695 -155.146L188.933 285.895Z" stroke="black" stroke-width="4.12235" stroke-miterlimit="10"/>
<path d="M188.934 285.897L402.12 -326.039L494.764 -285.4L188.934 285.897Z" stroke="black" stroke-width="4.12235" stroke-miterlimit="10"/>
<path d="M188.934 285.897L191.875 -362.105L292.695 -353.748L188.934 285.897Z" stroke="black" stroke-width="4.12235" stroke-miterlimit="10"/>
<path d="M188.934 285.896L-18.6912 -327.946L79.3792 -352.781L188.934 285.896Z" stroke="black" stroke-width="4.12235" stroke-miterlimit="10"/>
<path d="M188.934 285.897L-206.756 -227.271L-122.065 -282.605L188.934 285.897Z" stroke="black" stroke-width="4.12235" stroke-miterlimit="10"/>
<path d="M188.934 285.896L-351.944 -70.9884L-289.805 -150.82L188.934 285.896Z" stroke="black" stroke-width="4.12235" stroke-miterlimit="10"/>
<path d="M188.934 285.898L-438.513 123.973L-405.669 28.2929L188.934 285.898Z" stroke="black" stroke-width="4.12235" stroke-miterlimit="10"/>
<path d="M188.934 285.896L-457.094 336.478L-457.094 235.314L188.934 285.896Z" stroke="black" stroke-width="3.55433" stroke-miterlimit="10"/>
<path d="M188.934 285.896L-405.669 543.501L-438.513 447.821L188.934 285.896Z" stroke="black" stroke-width="3.55433" stroke-miterlimit="10"/>
<path d="M188.934 285.896L-289.805 722.613L-351.944 642.781L188.934 285.896Z" stroke="black" stroke-width="3.55433" stroke-miterlimit="10"/>
<path d="M188.934 285.896L-122.065 854.399L-206.756 799.065L188.934 285.896Z" stroke="black" stroke-width="3.55433" stroke-miterlimit="10"/>
<path d="M188.934 285.896L79.3791 924.574L-18.6912 899.739L188.934 285.896Z" stroke="black" stroke-width="3.55433" stroke-miterlimit="10"/>
<path d="M188.934 285.896L292.695 925.541L191.875 933.899L188.934 285.896Z" stroke="black" stroke-width="3.55433" stroke-miterlimit="10"/>
<path d="M188.934 285.896L494.764 857.194L402.12 897.832L188.934 285.896Z" stroke="black" stroke-width="3.55433" stroke-miterlimit="10"/>
<path d="M188.933 285.896L663.695 726.937L589.262 795.454L188.933 285.896Z" stroke="black" stroke-width="3.55433" stroke-miterlimit="10"/>
<path d="M188.933 285.896L663.695 726.937L589.262 795.454L188.933 285.896Z" stroke="black" stroke-width="3.55433" stroke-miterlimit="10"/>
<path d="M188.933 285.896L781.174 548.889L733.027 637.86L188.933 285.896Z" stroke="black" stroke-width="3.55433" stroke-miterlimit="10"/>
<path d="M188.934 285.896L834.479 342.338L817.826 442.124L188.934 285.896Z" stroke="black" stroke-width="3.55433" stroke-miterlimit="10"/>
<path d="M188.934 285.895L817.826 129.668L834.479 229.454L188.934 285.895Z" stroke="black" stroke-width="3.55433" stroke-miterlimit="10"/>
<path d="M188.933 285.897L733.027 -66.0664L781.174 22.9044L188.933 285.897Z" stroke="black" stroke-width="3.55433" stroke-miterlimit="10"/>
<path d="M188.933 285.895L589.262 -223.662L663.695 -155.146L188.933 285.895Z" stroke="black" stroke-width="3.55433" stroke-miterlimit="10"/>
<path d="M188.934 285.897L402.12 -326.039L494.764 -285.4L188.934 285.897Z" stroke="black" stroke-width="3.55433" stroke-miterlimit="10"/>
<path d="M188.934 285.897L191.875 -362.105L292.695 -353.748L188.934 285.897Z" stroke="black" stroke-width="3.55433" stroke-miterlimit="10"/>
<path d="M188.934 285.896L-18.6912 -327.946L79.3792 -352.781L188.934 285.896Z" stroke="black" stroke-width="3.55433" stroke-miterlimit="10"/>
<path d="M188.934 285.897L-206.756 -227.271L-122.065 -282.605L188.934 285.897Z" stroke="black" stroke-width="3.55433" stroke-miterlimit="10"/>
<path d="M188.934 285.896L-351.944 -70.9884L-289.805 -150.82L188.934 285.896Z" stroke="black" stroke-width="3.55433" stroke-miterlimit="10"/>
<path d="M188.934 285.898L-438.513 123.973L-405.669 28.2929L188.934 285.898Z" stroke="black" stroke-width="3.55433" stroke-miterlimit="10"/>
</g>
</g>
</g>
</g>
<g opacity="0.1">
<g filter="url(#filter0_f_194_35639)">
<path d="M207.553 623.33C207.606 628.939 202.898 633.71 197.28 633.763C191.671 633.817 186.9 629.109 186.846 623.491C186.793 617.881 191.501 613.111 197.119 613.057C202.728 613.004 207.499 617.712 207.553 623.33Z" fill="#959595"/>
<path d="M234.635 623.462C234.599 629.071 230.016 633.566 224.416 633.486C218.806 633.405 214.348 628.777 214.481 623.186C214.615 617.693 219.056 613.341 224.54 613.332C230.149 613.314 234.68 617.862 234.644 623.471L234.635 623.462Z" fill="#959595"/>
<path d="M197.207 585.353C202.834 585.353 207.302 589.856 207.257 595.483C207.213 601.11 202.665 605.542 197.047 605.444C191.545 605.355 187.211 600.976 187.166 595.474C187.122 589.847 191.589 585.344 197.216 585.344L197.207 585.353Z" fill="#959595"/>
<path d="M179.126 623.534C179.072 629.09 174.729 633.352 169.156 633.325C163.467 633.308 159.151 628.84 159.284 623.115C159.409 617.586 163.823 613.386 169.415 613.484C174.952 613.573 179.188 617.961 179.126 623.534Z" fill="#959595"/>
<path d="M197.156 640.845C202.729 640.827 207.072 645.09 207.126 650.636C207.188 656.352 202.801 660.74 197.085 660.686C191.529 660.633 187.258 656.299 187.275 650.725C187.293 645.152 191.583 640.854 197.156 640.836V640.845Z" fill="#959595"/>
<path d="M234.432 595.554C234.37 601.101 230.009 605.337 224.418 605.274C218.871 605.212 214.636 600.851 214.698 595.26C214.76 589.713 219.121 585.477 224.712 585.54C230.259 585.602 234.495 589.963 234.432 595.554Z" fill="#959595"/>
<path d="M224.611 660.57C219.056 660.596 214.695 656.209 214.749 650.654C214.793 645.25 219.082 640.978 224.504 640.951C230.06 640.925 234.42 645.312 234.367 650.868C234.322 656.272 230.033 660.543 224.611 660.57Z" fill="#959595"/>
<path d="M178.998 595.403C178.998 600.932 174.584 605.284 169.028 605.203C163.642 605.132 159.389 600.807 159.389 595.403C159.389 589.874 163.803 585.522 169.358 585.603C174.745 585.674 178.998 589.999 178.998 595.403Z" fill="#959595"/>
<path d="M178.956 650.897C178.884 656.238 174.497 660.545 169.147 660.527C163.671 660.501 159.284 655.953 159.435 650.477C159.587 645.145 164.055 640.9 169.405 641.016C174.738 641.123 179.018 645.555 178.947 650.905L178.956 650.897Z" fill="#959595"/>
<path d="M252.406 633.043C247.127 632.927 242.713 628.29 242.936 623.091C243.159 617.919 247.626 613.674 252.727 613.781C258.006 613.897 262.42 618.534 262.198 623.733C261.975 628.905 257.507 633.15 252.406 633.043Z" fill="#959595"/>
<path d="M206.84 567.892C206.956 573.127 202.462 577.684 197.209 577.684C192.082 577.684 187.685 573.368 187.578 568.213C187.462 562.979 191.957 558.422 197.209 558.422C202.337 558.422 206.733 562.738 206.84 567.892Z" fill="#959595"/>
<path d="M252.656 585.897C257.864 585.96 262.127 590.311 262.064 595.492C262.002 600.7 257.65 604.963 252.469 604.9C247.261 604.838 242.999 600.486 243.061 595.305C243.124 590.097 247.475 585.835 252.656 585.897Z" fill="#959595"/>
<path d="M206.707 678.05C206.751 683.231 202.471 687.574 197.272 687.619C192.091 687.663 187.748 683.383 187.703 678.184C187.659 673.003 191.939 668.66 197.138 668.616C202.319 668.571 206.662 672.851 206.707 678.05Z" fill="#959595"/>
<path d="M234.065 567.963C234.119 573.144 229.847 577.496 224.64 577.55C219.458 577.603 215.107 573.332 215.053 568.124C215 562.943 219.271 558.591 224.479 558.538C229.66 558.484 234.012 562.756 234.065 567.963Z" fill="#959595"/>
<path d="M141.723 613.95C146.958 613.879 151.274 618.132 151.301 623.376C151.318 628.619 147.029 632.9 141.786 632.873C136.658 632.837 132.494 628.735 132.378 623.608C132.253 618.382 136.471 614.021 141.723 613.95Z" fill="#959595"/>
<path d="M151.142 595.623C151.044 600.822 146.942 604.764 141.699 604.701C136.366 604.63 132.362 600.403 132.549 595.017C132.728 589.836 136.901 585.957 142.144 586.1C147.334 586.242 151.24 590.38 151.142 595.623Z" fill="#959595"/>
<path d="M169.225 687.366C164 687.375 159.969 683.371 159.951 678.145C159.942 672.92 163.946 668.889 169.172 668.871C174.397 668.862 178.428 672.866 178.446 678.092C178.455 683.317 174.451 687.348 169.225 687.366Z" fill="#959595"/>
<path d="M261.976 650.786C261.958 656.092 257.678 660.274 252.381 660.167C247.2 660.06 243.142 655.914 243.16 650.733C243.178 645.427 247.458 641.245 252.755 641.352C257.936 641.459 261.994 645.605 261.976 650.786Z" fill="#959595"/>
<path d="M151.089 650.903C151.027 656.111 146.951 660.07 141.708 660.017C136.5 659.954 132.541 655.879 132.594 650.636C132.657 645.428 136.732 641.469 141.975 641.522C147.183 641.584 151.143 645.66 151.089 650.903Z" fill="#959595"/>
<path d="M169.352 577.414C164.028 577.495 159.819 573.357 159.828 568.042C159.828 562.852 163.85 558.759 169.04 558.679C174.364 558.599 178.573 562.736 178.564 568.051C178.564 573.241 174.542 577.334 169.352 577.414Z" fill="#959595"/>
<path d="M233.887 678.256C233.824 683.473 229.731 687.486 224.505 687.459C219.155 687.432 215.08 683.196 215.222 677.837C215.365 672.638 219.53 668.697 224.764 668.795C229.972 668.902 233.949 673.022 233.887 678.256Z" fill="#959595"/>
<path d="M261.701 568.168C261.648 573.18 257.555 577.202 252.525 577.184C247.371 577.166 243.287 572.93 243.429 567.767C243.563 562.764 247.737 558.814 252.766 558.912C257.769 559.01 261.755 563.139 261.701 568.168Z" fill="#959595"/>
<path d="M261.656 678.085C261.674 683.052 257.572 687.189 252.605 687.207C247.638 687.225 243.5 683.123 243.482 678.156C243.465 673.189 247.567 669.051 252.534 669.033C257.501 669.015 261.638 673.117 261.656 678.085Z" fill="#959595"/>
<path d="M288.906 595.33C288.96 600.127 284.902 604.283 280.069 604.39C275.155 604.497 270.866 600.234 270.928 595.312C270.991 590.487 275.12 586.412 279.926 586.412C284.733 586.412 288.853 590.505 288.906 595.33Z" fill="#959595"/>
<path d="M150.856 678.147C150.839 683.06 146.531 687.26 141.654 687.135C136.829 687.011 132.807 682.891 132.834 678.093C132.852 673.18 137.159 668.979 142.037 669.104C146.861 669.229 150.883 673.349 150.856 678.147Z" fill="#959595"/>
<path d="M197.051 549.103C192.093 549.005 188 544.742 188.142 539.811C188.285 534.852 192.592 530.795 197.515 530.991C202.357 531.178 206.298 535.298 206.254 540.114C206.209 545.072 201.982 549.192 197.051 549.103Z" fill="#959595"/>
<path d="M224.647 549.031C219.849 549.093 215.685 545.045 215.569 540.211C215.453 535.307 219.706 531 224.629 531.053C229.444 531.098 233.537 535.218 233.546 540.033C233.546 544.84 229.471 548.968 224.647 549.031Z" fill="#959595"/>
<path d="M279.974 632.462C275.025 632.498 270.851 628.324 270.869 623.375C270.887 618.426 275.096 614.279 280.036 614.351C284.87 614.422 288.9 618.444 288.981 623.277C289.061 628.217 284.932 632.435 279.974 632.462Z" fill="#959595"/>
<path d="M142.305 558.982C147.29 559.258 151.223 563.654 150.902 568.586C150.58 573.571 146.149 577.467 141.217 577.102C136.357 576.736 132.558 572.483 132.772 567.667C132.995 562.682 137.356 558.714 142.305 558.982Z" fill="#959595"/>
<path d="M206.136 706.014C206.217 710.803 202.141 714.976 197.317 715.056C192.528 715.136 188.355 711.061 188.275 706.237C188.194 701.448 192.27 697.275 197.094 697.195C201.883 697.114 206.056 701.19 206.136 706.014Z" fill="#959595"/>
<path d="M279.882 659.723C275.085 659.697 270.992 655.595 270.965 650.806C270.938 645.901 275.254 641.666 280.132 641.808C284.948 641.951 288.969 646.124 288.889 650.886C288.809 655.693 284.671 659.75 279.891 659.723H279.882Z" fill="#959595"/>
<path d="M178.778 540.014C178.796 544.821 174.685 548.949 169.869 548.967C165.063 548.985 160.934 544.874 160.916 540.059C160.898 535.252 165.009 531.123 169.825 531.106C174.631 531.088 178.76 535.199 178.778 540.014Z" fill="#959595"/>
<path d="M123.417 623.466C123.381 628.282 119.234 632.384 114.437 632.348C109.621 632.313 105.519 628.166 105.555 623.368C105.591 618.553 109.737 614.451 114.535 614.487C119.35 614.522 123.452 618.669 123.417 623.466Z" fill="#959595"/>
<path d="M114.436 604.238C109.567 604.202 105.564 600.127 105.644 595.276C105.724 590.398 109.844 586.429 114.686 586.572C119.448 586.706 123.291 590.63 123.309 595.374C123.336 600.234 119.287 604.273 114.427 604.247L114.436 604.238Z" fill="#959595"/>
<path d="M233.397 706.147C233.379 711.016 229.313 715.029 224.462 714.967C219.584 714.904 215.607 710.793 215.731 705.951C215.847 701.198 219.762 697.337 224.506 697.301C229.366 697.265 233.415 701.296 233.406 706.156L233.397 706.147Z" fill="#959595"/>
<path d="M177.949 706.229C177.895 711.16 173.865 715.03 168.933 714.878C164.136 714.736 160.39 710.83 160.444 706.023C160.497 701.092 164.528 697.222 169.459 697.373C174.257 697.516 178.002 701.422 177.949 706.229Z" fill="#959595"/>
<path d="M114.608 642.014C119.54 642.086 123.401 646.125 123.24 651.048C123.089 655.845 119.165 659.582 114.367 659.519C109.436 659.448 105.575 655.408 105.735 650.486C105.887 645.688 109.811 641.952 114.608 642.014Z" fill="#959595"/>
<path d="M280.062 576.685C275.166 576.748 271.349 573.056 271.278 568.187C271.216 563.291 274.908 559.474 279.776 559.403C284.672 559.341 288.489 563.033 288.56 567.901C288.623 572.797 284.931 576.614 280.062 576.685Z" fill="#959595"/>
<path d="M261.173 540.087C261.155 544.956 257.401 548.674 252.514 548.648C247.645 548.63 243.935 544.875 243.953 539.989C243.971 535.12 247.725 531.401 252.612 531.428C257.481 531.446 261.191 535.2 261.173 540.087Z" fill="#959595"/>
<path d="M141.824 548.594C136.937 548.585 133.209 544.768 133.298 539.855C133.379 535.111 137.097 531.481 141.868 531.49C146.755 531.499 150.482 535.316 150.393 540.229C150.313 544.973 146.594 548.603 141.824 548.594Z" fill="#959595"/>
<path d="M280.055 669.56C284.906 669.623 288.571 673.439 288.482 678.335C288.384 683.168 284.531 686.807 279.627 686.673C274.927 686.548 271.343 682.812 271.369 678.059C271.396 673.199 275.177 669.498 280.064 669.551L280.055 669.56Z" fill="#959595"/>
<path d="M123.009 568.139C122.964 572.973 119.103 576.682 114.234 576.566C109.552 576.45 105.923 572.678 105.967 567.961C106.012 563.128 109.873 559.418 114.742 559.534C119.424 559.65 123.053 563.422 123.009 568.139Z" fill="#959595"/>
<path d="M122.963 678.255C122.892 682.927 119.102 686.628 114.429 686.601C109.632 686.575 105.851 682.633 106.002 677.827C106.154 673.172 110.015 669.533 114.697 669.649C119.361 669.756 123.026 673.582 122.963 678.263V678.255Z" fill="#959595"/>
<path d="M141.867 697.648C146.54 697.657 150.294 701.403 150.321 706.075C150.348 710.882 146.469 714.708 141.653 714.61C136.989 714.52 133.306 710.704 133.36 706.022C133.413 701.349 137.186 697.64 141.867 697.648Z" fill="#959595"/>
<path d="M261.105 706.201C261.069 711.069 257.234 714.77 252.33 714.663C247.612 714.565 243.992 710.811 244.028 706.049C244.063 701.18 247.898 697.479 252.802 697.586C257.52 697.684 261.131 701.439 261.105 706.201Z" fill="#959595"/>
<path d="M316.365 623.358C316.392 628.013 312.557 631.866 307.902 631.848C303.247 631.83 299.431 627.951 299.493 623.305C299.555 618.784 303.265 615.056 307.795 614.976C312.441 614.896 316.338 618.703 316.365 623.358Z" fill="#959595"/>
<path d="M197.36 504.247C202.015 504.336 205.778 508.277 205.645 512.915C205.511 517.561 201.525 521.288 196.897 521.11C192.375 520.931 188.737 517.124 188.782 512.602C188.826 507.948 192.723 504.149 197.369 504.238L197.36 504.247Z" fill="#959595"/>
<path d="M224.399 521.084C219.789 520.986 215.963 516.928 216.16 512.362C216.356 507.868 220.262 504.185 224.711 504.283C229.322 504.381 233.147 508.439 232.951 513.004C232.755 517.499 228.849 521.182 224.399 521.084Z" fill="#959595"/>
<path d="M316.294 650.733C316.312 655.182 312.504 659.061 308.037 659.133C303.471 659.204 299.467 655.2 299.556 650.634C299.645 646.167 303.524 642.368 307.974 642.395C312.442 642.43 316.267 646.265 316.294 650.733Z" fill="#959595"/>
<path d="M316.329 595.249C316.427 599.832 312.512 603.809 307.919 603.801C303.443 603.801 299.626 600.028 299.537 595.552C299.439 590.968 303.354 586.991 307.946 587C312.423 587 316.239 590.772 316.329 595.249Z" fill="#959595"/>
<path d="M178.216 512.729C178.189 517.196 174.355 521.031 169.887 521.057C165.303 521.084 161.344 517.045 161.478 512.488C161.612 508.011 165.526 504.248 169.967 504.319C174.435 504.4 178.243 508.279 178.216 512.729Z" fill="#959595"/>
<path d="M197.289 741.81C192.839 741.872 188.933 738.047 188.88 733.57C188.817 729.12 192.643 725.214 197.119 725.161C201.569 725.098 205.475 728.924 205.529 733.401C205.591 737.85 201.765 741.756 197.289 741.81Z" fill="#959595"/>
<path d="M288.159 706.164C288.132 710.659 284.271 714.449 279.803 714.368C275.3 714.288 271.545 710.391 271.679 705.932C271.813 701.545 275.505 697.924 279.874 697.889C284.351 697.862 288.186 701.688 288.159 706.164Z" fill="#959595"/>
<path d="M160.986 733.231C161.146 728.719 165.07 725.062 169.528 725.277C174.059 725.491 177.652 729.432 177.394 733.891C177.135 738.296 173.381 741.801 169.029 741.694C164.517 741.587 160.825 737.699 160.986 733.231Z" fill="#959595"/>
<path d="M288.241 540.069C288.223 544.536 284.344 548.38 279.885 548.362C275.417 548.344 271.574 544.465 271.592 540.006C271.61 535.539 275.489 531.695 279.948 531.713C284.415 531.731 288.259 535.61 288.241 540.069Z" fill="#959595"/>
<path d="M114.367 548.256C109.864 548.176 106.145 544.314 106.279 539.838C106.413 535.326 110.31 531.652 114.777 531.839C119.174 532.017 122.732 535.727 122.705 540.088C122.678 544.591 118.853 548.336 114.367 548.256Z" fill="#959595"/>
<path d="M86.4899 615.1C90.9487 615.1 94.801 618.961 94.7921 623.42C94.7921 627.878 90.9308 631.731 86.4721 631.722C82.0134 631.722 78.161 627.861 78.1699 623.402C78.1699 618.943 82.0312 615.091 86.4899 615.1Z" fill="#959595"/>
<path d="M232.816 733.401C232.87 737.869 229.044 741.739 224.559 741.739C220.073 741.739 216.248 737.869 216.301 733.401C216.355 729.032 220.02 725.331 224.398 725.233C228.857 725.126 232.763 728.916 232.816 733.41V733.401Z" fill="#959595"/>
<path d="M86.5711 587.163C91.0655 587.225 94.8376 591.104 94.7217 595.572C94.6058 600.075 90.6821 603.812 86.2322 603.642C81.8448 603.482 78.2422 599.754 78.2422 595.394C78.2422 590.908 82.0945 587.1 86.5711 587.163Z" fill="#959595"/>
<path d="M316.07 568.015C316.088 572.563 312.343 576.263 307.795 576.183C303.363 576.103 299.805 572.491 299.787 568.068C299.769 563.52 303.515 559.819 308.063 559.9C312.495 559.98 316.053 563.592 316.07 568.015Z" fill="#959595"/>
<path d="M260.711 512.854C260.613 517.41 256.779 521.022 252.248 520.826C247.816 520.639 244.33 516.947 244.428 512.533C244.526 507.976 248.36 504.364 252.891 504.56C257.322 504.748 260.809 508.439 260.711 512.854Z" fill="#959595"/>
<path d="M86.4626 658.929C81.9236 658.921 78.2051 655.113 78.321 650.583C78.428 646.16 82.0931 642.593 86.5072 642.602C91.0462 642.61 94.7648 646.418 94.6489 650.948C94.5419 655.371 90.8768 658.938 86.4626 658.929Z" fill="#959595"/>
<path d="M114.536 698.086C119.075 698.113 122.552 701.635 122.526 706.174C122.499 710.713 118.976 714.191 114.437 714.164C109.898 714.138 106.421 710.615 106.447 706.076C106.474 701.537 109.997 698.059 114.536 698.086Z" fill="#959595"/>
<path d="M141.929 520.7C137.381 520.745 133.867 517.303 133.823 512.772C133.778 508.225 137.22 504.711 141.75 504.666C146.298 504.622 149.812 508.064 149.856 512.594C149.901 517.142 146.459 520.655 141.929 520.7Z" fill="#959595"/>
<path d="M260.53 733.365C260.584 737.939 257.151 741.435 252.594 741.453C248.028 741.471 244.568 738.002 244.586 733.436C244.604 729.004 247.948 725.598 252.362 725.517C256.946 725.428 260.477 728.826 260.53 733.374V733.365Z" fill="#959595"/>
<path d="M307.857 670.076C312.396 670.041 315.928 673.519 315.963 678.049C315.999 682.588 312.521 686.119 307.991 686.155C303.452 686.19 299.921 682.721 299.885 678.182C299.849 673.643 303.327 670.112 307.857 670.076Z" fill="#959595"/>
<path d="M86.5088 560.123C91.0657 560.132 94.49 563.654 94.4008 568.238C94.3205 572.643 90.8873 575.987 86.4464 575.969C81.8896 575.961 78.4653 572.438 78.5544 567.855C78.6347 563.449 82.0679 560.105 86.5088 560.123Z" fill="#959595"/>
<path d="M86.444 685.994C82.0388 685.977 78.6234 682.561 78.6055 678.165C78.5877 673.626 82.1279 670.148 86.6848 670.246C91.0722 670.335 94.4162 673.822 94.3627 678.236C94.3092 682.633 90.8582 686.012 86.4529 685.994H86.444Z" fill="#959595"/>
<path d="M149.742 733.623C149.68 738.135 146.104 741.524 141.538 741.381C137.168 741.247 133.878 737.77 133.94 733.347C134.003 728.834 137.579 725.446 142.144 725.588C146.514 725.722 149.805 729.2 149.742 733.623Z" fill="#959595"/>
<path d="M197.156 476.914C201.401 476.887 205.03 480.553 204.959 484.797C204.888 488.926 201.365 492.413 197.245 492.44C193.001 492.466 189.371 488.801 189.442 484.556C189.514 480.428 193.036 476.941 197.156 476.914Z" fill="#959595"/>
<path d="M343.073 623.374C343.091 627.672 339.533 631.231 335.235 631.204C330.937 631.177 327.414 627.583 327.485 623.285C327.548 619.112 330.99 615.678 335.163 615.616C339.462 615.554 343.055 619.076 343.073 623.374Z" fill="#959595"/>
<path d="M308 532.247C312.298 532.292 315.803 535.904 315.723 540.202C315.633 544.5 311.986 547.969 307.688 547.835C303.523 547.71 300.135 544.215 300.135 540.041C300.135 535.743 303.711 532.203 308.009 532.239L308 532.247Z" fill="#959595"/>
<path d="M343.043 595.251C343.133 599.496 339.53 603.17 335.276 603.161C331.148 603.161 327.616 599.692 327.527 595.554C327.438 591.31 331.04 587.636 335.294 587.645C339.423 587.645 342.954 591.122 343.043 595.251Z" fill="#959595"/>
<path d="M287.714 512.541C287.794 516.839 284.29 520.451 279.982 520.487C275.684 520.522 272.117 516.982 272.117 512.675C272.117 508.502 275.515 505.015 279.679 504.89C283.977 504.765 287.625 508.243 287.705 512.541H287.714Z" fill="#959595"/>
<path d="M342.993 650.761C342.993 654.872 339.488 658.421 335.368 658.475C331.159 658.528 327.468 654.801 327.575 650.601C327.673 646.49 331.284 642.994 335.368 643.047C339.488 643.101 343.002 646.641 343.002 650.752L342.993 650.761Z" fill="#959595"/>
<path d="M307.965 713.853C303.854 713.879 300.278 710.375 300.206 706.246C300.126 702.019 303.836 698.327 308.054 698.408C312.174 698.488 315.678 702.073 315.651 706.175C315.625 710.295 312.084 713.826 307.965 713.853Z" fill="#959595"/>
<path d="M287.634 733.446C287.66 737.539 284.156 741.115 280.036 741.195C275.827 741.275 272.126 737.566 272.206 733.357C272.287 729.246 275.871 725.741 279.965 725.768C284.076 725.794 287.607 729.335 287.634 733.446Z" fill="#959595"/>
<path d="M86.5972 547.756C82.513 547.827 78.9014 544.349 78.7765 540.238C78.6517 536.038 82.3168 532.302 86.5347 532.328C90.6457 532.364 94.177 535.895 94.1949 540.006C94.2127 544.108 90.7081 547.675 86.5972 547.747V547.756Z" fill="#959595"/>
<path d="M122.196 512.701C122.187 516.812 118.665 520.352 114.554 520.397C110.336 520.441 106.662 516.705 106.778 512.505C106.894 508.394 110.506 504.907 114.59 504.97C118.71 505.032 122.214 508.59 122.205 512.692L122.196 512.701Z" fill="#959595"/>
<path d="M232.273 484.79C232.202 488.901 228.626 492.414 224.533 492.388C220.297 492.37 216.667 488.598 216.855 484.398C217.033 480.269 220.68 476.835 224.755 476.96C228.866 477.085 232.344 480.706 232.273 484.781V484.79Z" fill="#959595"/>
<path d="M169.924 492.397C165.839 492.441 162.237 488.946 162.139 484.835C162.041 480.635 165.732 476.907 169.941 476.97C174.061 477.032 177.566 480.581 177.566 484.692C177.566 488.803 174.043 492.352 169.924 492.397Z" fill="#959595"/>
<path d="M86.4978 698.559C90.6801 698.576 94.1579 702.152 94.042 706.308C93.9261 710.383 90.5107 713.7 86.4532 713.692C82.2709 713.674 78.7931 710.098 78.9091 705.942C79.025 701.867 82.4404 698.55 86.4978 698.559Z" fill="#959595"/>
<path d="M66.6935 595.4C66.6935 599.583 63.1265 603.069 58.9621 602.962C54.8957 602.855 51.5605 599.449 51.5605 595.4C51.5605 591.218 55.1275 587.731 59.292 587.838C63.3584 587.945 66.6935 591.352 66.6935 595.4Z" fill="#959595"/>
<path d="M66.7733 623.365C66.8001 627.502 63.2242 631.087 59.0865 631.06C54.9487 631.034 51.3996 627.404 51.4799 623.293C51.5601 619.272 54.9844 615.847 59.0062 615.767C63.1172 615.687 66.7466 619.236 66.7822 623.374L66.7733 623.365Z" fill="#959595"/>
<path d="M169.198 753.92C173.381 753.92 176.867 757.487 176.76 761.651C176.653 765.718 173.247 769.053 169.189 769.053C165.007 769.053 161.52 765.486 161.627 761.321C161.734 757.255 165.141 753.92 169.198 753.92Z" fill="#959595"/>
<path d="M197.083 769.141C192.937 769.06 189.423 765.395 189.548 761.293C189.682 757.138 193.383 753.66 197.476 753.847C201.524 754.034 204.868 757.521 204.842 761.534C204.815 765.672 201.185 769.221 197.074 769.149L197.083 769.141Z" fill="#959595"/>
<path d="M342.848 568.052C342.848 572.234 339.281 575.721 335.116 575.614C331.05 575.507 327.715 572.1 327.715 568.043C327.715 563.861 331.282 560.374 335.446 560.481C339.513 560.588 342.848 563.994 342.848 568.052Z" fill="#959595"/>
<path d="M224.621 753.92C228.803 753.965 232.272 757.567 232.12 761.714C231.977 765.789 228.535 769.089 224.487 769.053C220.305 769.009 216.836 765.406 216.987 761.259C217.13 757.184 220.572 753.885 224.621 753.92Z" fill="#959595"/>
<path d="M122.132 733.381C122.203 737.501 118.645 741.122 114.507 741.131C110.37 741.148 106.794 737.555 106.838 733.426C106.874 729.404 110.263 725.962 114.302 725.837C118.404 725.712 122.069 729.244 122.132 733.381Z" fill="#959595"/>
<path d="M58.9889 643.199C63.1623 643.11 66.7114 646.605 66.6936 650.788C66.6757 654.845 63.3317 658.243 59.2653 658.332C55.0919 658.421 51.5428 654.925 51.5606 650.743C51.5784 646.686 54.9225 643.288 58.9889 643.199Z" fill="#959595"/>
<path d="M335.198 685.566C331.069 685.521 327.832 682.239 327.832 678.111C327.832 673.866 331.283 670.522 335.528 670.665C339.648 670.798 342.822 674.16 342.733 678.28C342.644 682.4 339.318 685.61 335.198 685.566Z" fill="#959595"/>
<path d="M260.015 484.816C259.943 488.936 256.635 492.164 252.506 492.129C248.253 492.093 244.944 488.633 245.114 484.38C245.274 480.269 248.663 477.112 252.783 477.228C256.903 477.344 260.095 480.688 260.015 484.816Z" fill="#959595"/>
<path d="M149.2 484.708C149.191 488.899 145.945 492.092 141.736 492.038C137.554 491.985 134.397 488.703 134.486 484.494C134.575 480.446 137.723 477.351 141.79 477.324C145.99 477.298 149.218 480.508 149.2 484.708Z" fill="#959595"/>
<path d="M58.9695 685.352C54.9388 685.281 51.8533 682.106 51.889 678.049C51.9246 673.875 55.233 670.736 59.4421 670.888C63.446 671.031 66.469 674.286 66.362 678.352C66.255 682.374 63.0358 685.424 58.9784 685.352H58.9695Z" fill="#959595"/>
<path d="M315.115 733.365C315.178 737.387 312.048 740.615 308.044 740.678C304.022 740.74 300.794 737.61 300.731 733.606C300.669 729.584 303.799 726.356 307.803 726.294C311.825 726.231 315.053 729.361 315.115 733.365Z" fill="#959595"/>
<path d="M307.884 505.397C312.093 505.379 315.268 508.58 315.214 512.798C315.161 516.864 312.04 519.95 307.973 519.968C303.764 519.986 300.59 516.784 300.643 512.566C300.697 508.5 303.818 505.414 307.884 505.397Z" fill="#959595"/>
<path d="M93.66 513.154C93.4281 517.122 90.0395 520.101 86.0088 519.869C82.0405 519.637 79.0621 516.248 79.2939 512.218C79.5258 508.249 82.9144 505.271 86.9451 505.503C90.9134 505.735 93.8918 509.123 93.66 513.154Z" fill="#959595"/>
<path d="M287.105 484.558C287.168 488.562 284.038 491.799 280.043 491.861C276.039 491.924 272.802 488.794 272.739 484.798C272.677 480.795 275.807 477.557 279.802 477.495C283.806 477.433 287.043 480.563 287.105 484.558Z" fill="#959595"/>
<path d="M252.647 754.206C256.838 754.241 259.959 757.514 259.852 761.741C259.745 765.78 256.562 768.821 252.478 768.777C248.286 768.741 245.165 765.468 245.272 761.241C245.379 757.202 248.563 754.161 252.647 754.206Z" fill="#959595"/>
<path d="M141.697 768.721C137.666 768.658 134.581 765.484 134.608 761.426C134.634 757.262 137.943 754.114 142.143 754.257C146.147 754.399 149.17 757.645 149.072 761.712C148.974 765.733 145.754 768.783 141.697 768.721Z" fill="#959595"/>
<path d="M335.387 547.23C331.365 547.284 328.146 544.145 328.092 540.141C328.039 536.119 331.178 532.9 335.182 532.846C339.204 532.793 342.423 535.932 342.476 539.936C342.53 543.958 339.391 547.177 335.387 547.23Z" fill="#959595"/>
<path d="M66.416 568.06C66.416 572.26 63.179 575.417 58.9521 575.336C54.8946 575.256 51.8359 572.117 51.8359 568.042C51.8359 563.842 55.073 560.685 59.2999 560.765C63.3573 560.845 66.416 563.984 66.416 568.06Z" fill="#959595"/>
<path d="M114.465 477.565C118.281 477.547 121.545 480.748 121.607 484.574C121.67 488.506 118.29 491.877 114.358 491.797C110.532 491.717 107.348 488.444 107.375 484.627C107.411 480.802 110.639 477.582 114.465 477.565Z" fill="#959595"/>
<path d="M66.1845 540.3C66.024 544.081 62.5996 547.274 58.8632 547.104C55.0822 546.944 51.8898 543.52 52.0592 539.783C52.2197 536.002 55.644 532.81 59.3804 532.979C63.1614 533.14 66.3539 536.564 66.1845 540.3Z" fill="#959595"/>
<path d="M197.153 464.385C193.381 464.358 190.108 461.041 190.135 457.278C190.162 453.506 193.479 450.233 197.242 450.26C201.014 450.287 204.287 453.604 204.26 457.367C204.233 461.139 200.916 464.412 197.153 464.385Z" fill="#959595"/>
<path d="M86.5708 726.364C90.3964 726.417 93.5978 729.663 93.5978 733.489C93.5978 737.439 90.1646 740.748 86.232 740.596C82.4153 740.445 79.2674 737.11 79.3655 733.311C79.4636 729.485 82.7542 726.31 86.5708 726.364Z" fill="#959595"/>
<path d="M279.929 754.383C283.746 754.383 286.983 757.602 287.028 761.419C287.072 765.342 283.666 768.704 279.751 768.597C275.943 768.49 272.76 765.191 272.813 761.401C272.867 757.584 276.113 754.383 279.929 754.383Z" fill="#959595"/>
<path d="M369.701 595.293C369.772 599.056 366.535 602.391 362.745 602.462C358.982 602.534 355.647 599.297 355.575 595.507C355.504 591.744 358.741 588.408 362.531 588.337C366.294 588.266 369.629 591.503 369.701 595.293Z" fill="#959595"/>
<path d="M335.349 698.996C339.29 699.032 342.545 702.43 342.411 706.353C342.278 710.17 339.032 713.291 335.215 713.255C331.274 713.22 328.019 709.822 328.152 705.899C328.286 702.082 331.532 698.961 335.349 698.996Z" fill="#959595"/>
<path d="M362.787 630.516C359.006 630.614 355.671 627.457 355.528 623.65C355.377 619.744 358.712 616.302 362.645 616.311C366.461 616.311 369.698 619.521 369.743 623.338C369.787 627.127 366.595 630.427 362.796 630.516H362.787Z" fill="#959595"/>
<path d="M217.543 457.074C217.712 453.284 221.172 450.101 224.891 450.315C228.699 450.538 231.829 454.016 231.561 457.734C231.294 461.417 228.012 464.449 224.391 464.333C220.602 464.217 217.382 460.802 217.543 457.065V457.074Z" fill="#959595"/>
<path d="M176.841 457.396C176.797 461.177 173.444 464.414 169.698 464.316C165.917 464.218 162.707 460.82 162.859 457.084C163.01 453.41 166.194 450.333 169.841 450.324C173.613 450.324 176.895 453.624 176.841 457.387V457.396Z" fill="#959595"/>
<path d="M114.491 768.481C110.719 768.481 107.437 765.181 107.491 761.418C107.535 757.637 110.888 754.4 114.634 754.498C118.299 754.596 121.42 757.744 121.473 761.4C121.536 765.164 118.263 768.481 114.491 768.481Z" fill="#959595"/>
<path d="M369.629 650.897C369.54 654.678 366.169 657.897 362.424 657.763C358.634 657.621 355.459 654.205 355.647 650.478C355.834 646.795 359.044 643.745 362.682 643.772C366.463 643.807 369.709 647.134 369.629 650.897Z" fill="#959595"/>
<path d="M66.1214 706.156C66.0946 709.937 62.7773 713.192 59.0141 713.112C55.2331 713.04 52.005 709.67 52.1388 705.924C52.2636 702.25 55.4293 699.156 59.0855 699.129C62.8576 699.094 66.1481 702.384 66.1214 706.156Z" fill="#959595"/>
<path d="M190.308 788.6C190.46 784.881 193.679 781.85 197.371 781.948C201.223 782.055 204.335 785.443 204.086 789.251C203.836 792.996 200.572 795.93 196.88 795.734C193.153 795.529 190.157 792.283 190.308 788.6Z" fill="#959595"/>
<path d="M37.9971 623.304C38.0596 627.014 35.0276 630.171 31.309 630.287C27.4834 630.403 24.2107 627.192 24.2464 623.358C24.2821 619.639 27.3853 616.554 31.095 616.545C34.8136 616.527 37.9258 619.595 37.9882 623.313L37.9971 623.304Z" fill="#959595"/>
<path d="M231.325 788.867C231.307 792.657 228.32 795.627 224.53 795.618C220.74 795.6 217.77 792.613 217.779 788.823C217.797 785.033 220.785 782.063 224.574 782.072C228.364 782.09 231.334 785.077 231.325 788.867Z" fill="#959595"/>
<path d="M169.04 782.07C172.83 781.99 175.889 784.906 175.969 788.687C176.049 792.477 173.133 795.535 169.352 795.616C165.562 795.696 162.504 792.78 162.423 788.999C162.343 785.209 165.259 782.15 169.04 782.07Z" fill="#959595"/>
<path d="M148.403 789.098C148.278 792.763 145.3 795.528 141.59 795.403C137.925 795.278 135.16 792.3 135.285 788.59C135.41 784.925 138.389 782.16 142.098 782.285C145.763 782.41 148.528 785.389 148.403 789.098Z" fill="#959595"/>
<path d="M148.521 457.279C148.547 461.158 145.605 464.065 141.726 464.003C137.998 463.949 135.18 461.105 135.162 457.368C135.136 453.489 138.078 450.582 141.957 450.635C145.685 450.689 148.503 453.534 148.521 457.27V457.279Z" fill="#959595"/>
<path d="M259.337 457.352C259.319 461.142 256.332 464.111 252.542 464.102C248.752 464.084 245.782 461.097 245.791 457.307C245.809 453.517 248.796 450.548 252.586 450.557C256.376 450.574 259.346 453.562 259.337 457.352Z" fill="#959595"/>
<path d="M308.062 768.062C304.325 768.133 301.418 765.342 301.347 761.632C301.276 757.896 304.067 754.989 307.777 754.917C311.513 754.846 314.42 757.637 314.491 761.347C314.563 765.083 311.772 767.99 308.062 768.062Z" fill="#959595"/>
<path d="M307.867 492.012C304.014 491.985 301.134 488.989 301.241 485.11C301.339 481.382 304.229 478.618 307.974 478.645C311.826 478.671 314.707 481.668 314.6 485.547C314.501 489.265 311.612 492.039 307.867 492.012Z" fill="#959595"/>
<path d="M341.896 733.364C341.949 737.11 339.194 739.999 335.484 740.088C331.596 740.186 328.653 737.306 328.68 733.427C328.698 729.69 331.525 726.881 335.261 726.863C339.006 726.846 341.851 729.628 341.904 733.355L341.896 733.364Z" fill="#959595"/>
<path d="M341.985 512.62C342.02 516.464 339.113 519.398 335.27 519.398C331.435 519.398 328.528 516.446 328.573 512.602C328.617 508.902 331.435 506.057 335.127 505.986C338.971 505.914 341.949 508.795 341.985 512.62Z" fill="#959595"/>
<path d="M37.6929 568.213C37.6216 571.914 34.6967 574.705 30.9602 574.625C27.2595 574.553 24.4683 571.628 24.5486 567.892C24.6199 564.191 27.5448 561.4 31.2813 561.48C34.982 561.552 37.7732 564.476 37.6929 568.213Z" fill="#959595"/>
<path d="M59.0145 519.245C55.3227 519.192 52.5137 516.276 52.5672 512.575C52.6207 508.883 55.5367 506.074 59.2374 506.128C62.9293 506.181 65.7383 509.097 65.6848 512.798C65.6313 516.49 62.7152 519.299 59.0145 519.245Z" fill="#959595"/>
<path d="M362.79 561.275C366.571 561.355 369.487 564.414 369.407 568.204C369.326 571.985 366.268 574.901 362.478 574.821C358.697 574.74 355.781 571.682 355.861 567.892C355.941 564.111 359 561.195 362.79 561.275Z" fill="#959595"/>
<path d="M355.948 678.289C356.18 674.49 359.319 671.806 363.198 672.091C366.988 672.368 369.637 675.533 369.307 679.412C369.004 683.068 365.972 685.655 362.235 685.458C358.436 685.262 355.708 682.15 355.948 678.28V678.289Z" fill="#959595"/>
<path d="M37.6646 678.048C37.7002 681.731 34.8556 684.629 31.1816 684.665C27.4986 684.7 24.6005 681.856 24.5648 678.182C24.5291 674.499 27.3738 671.6 31.0478 671.565C34.7307 671.529 37.6289 674.374 37.6646 678.048Z" fill="#959595"/>
<path d="M31.137 602.179C27.3471 602.196 24.3508 599.227 24.3419 595.428C24.324 591.638 27.2936 588.642 31.0924 588.633C34.8823 588.615 37.8786 591.585 37.8875 595.383C37.9054 599.173 34.9358 602.17 31.137 602.179Z" fill="#959595"/>
<path d="M93.0529 484.611C93.0886 488.338 90.2617 491.218 86.5521 491.254C82.8246 491.29 79.9442 488.463 79.9085 484.753C79.8729 481.026 82.6908 478.145 86.4094 478.11C90.1369 478.074 93.0172 480.901 93.0529 484.611Z" fill="#959595"/>
<path d="M31.0142 644.012C34.8487 643.959 37.8628 646.911 37.8718 650.745C37.8807 654.58 34.8933 657.549 31.0588 657.522C27.358 657.496 24.4599 654.651 24.3618 650.959C24.2637 647.125 27.1886 644.075 31.0053 644.021L31.0142 644.012Z" fill="#959595"/>
<path d="M259.177 788.904C259.15 792.631 256.323 795.449 252.587 795.458C248.717 795.467 245.845 792.515 245.952 788.627C246.05 784.918 248.948 782.171 252.703 782.233C256.43 782.296 259.203 785.158 259.177 788.904Z" fill="#959595"/>
<path d="M86.6143 767.999C82.9671 768.071 79.9529 765.11 79.9708 761.463C79.9886 757.949 82.8333 755.051 86.3468 754.98C89.994 754.908 93.0081 757.869 92.9903 761.516C92.9725 765.03 90.1278 767.928 86.6143 767.999Z" fill="#959595"/>
<path d="M362.485 546.559C358.829 546.479 355.949 543.385 356.127 539.729C356.296 536.206 359.266 533.451 362.797 533.531C366.453 533.611 369.334 536.706 369.155 540.362C368.986 543.884 366.025 546.64 362.485 546.559Z" fill="#959595"/>
<path d="M362.522 712.594C359.044 712.531 356.146 709.562 356.164 706.093C356.182 702.499 359.33 699.494 362.915 699.655C366.384 699.815 369.219 702.865 369.112 706.316C368.996 709.794 366 712.656 362.531 712.594H362.522Z" fill="#959595"/>
<path d="M286.438 457.368C286.42 461.033 283.388 463.958 279.714 463.851C276.183 463.744 273.374 460.837 273.401 457.296C273.418 453.631 276.45 450.706 280.124 450.813C283.656 450.92 286.465 453.827 286.438 457.368Z" fill="#959595"/>
<path d="M59.1129 726.959C62.778 726.959 65.7208 729.964 65.6405 733.629C65.5603 737.161 62.6621 739.987 59.1308 739.996C55.4657 739.996 52.5229 736.991 52.6032 733.326C52.6834 729.795 55.5816 726.968 59.1129 726.959Z" fill="#959595"/>
<path d="M120.955 457.458C120.875 460.918 117.888 463.825 114.437 463.79C110.861 463.763 107.847 460.579 108.025 457.03C108.195 453.57 111.271 450.735 114.695 450.859C118.146 450.984 121.027 454.016 120.947 457.458H120.955Z" fill="#959595"/>
<path d="M37.4884 539.926C37.5597 543.332 34.5813 546.391 31.157 546.418C27.7327 546.444 24.7185 543.421 24.7542 540.006C24.781 536.707 27.6078 533.808 30.9251 533.684C34.3227 533.559 37.417 536.501 37.4973 539.935L37.4884 539.926Z" fill="#959595"/>
<path d="M286.33 788.839C286.33 792.281 283.281 795.304 279.847 795.251C276.396 795.206 273.418 792.121 273.516 788.687C273.614 785.361 276.512 782.49 279.839 782.436C283.272 782.383 286.33 785.397 286.33 788.839Z" fill="#959595"/>
<path d="M120.814 788.864C120.796 792.315 117.729 795.285 114.304 795.169C110.978 795.053 108.151 792.128 108.16 788.82C108.178 785.369 111.246 782.399 114.67 782.515C117.996 782.631 120.823 785.556 120.814 788.864Z" fill="#959595"/>
<path d="M31.0842 712.397C27.7223 712.371 24.8687 709.526 24.842 706.164C24.8152 702.677 27.8472 699.717 31.3161 699.842C34.6779 699.967 37.4691 702.9 37.3889 706.236C37.3175 709.606 34.4372 712.415 31.0753 712.397H31.0842Z" fill="#959595"/>
<path d="M197.164 423.733C200.534 423.706 203.37 426.47 203.45 429.85C203.531 433.337 200.579 436.288 197.092 436.217C193.712 436.146 190.948 433.31 190.975 429.939C191.002 426.568 193.793 423.759 197.172 423.742L197.164 423.733Z" fill="#959595"/>
<path d="M335.251 491.576C331.88 491.558 329.071 488.767 329.035 485.387C329 481.891 331.987 478.975 335.465 479.091C338.845 479.207 341.582 482.07 341.511 485.44C341.449 488.82 338.613 491.585 335.242 491.576H335.251Z" fill="#959595"/>
<path d="M396.853 595.321C396.898 598.737 394.142 601.564 390.718 601.617C387.303 601.662 384.476 598.906 384.422 595.482C384.378 592.066 387.133 589.24 390.558 589.186C393.973 589.141 396.8 591.897 396.853 595.321Z" fill="#959595"/>
<path d="M390.745 629.647C387.383 629.709 384.512 626.981 384.396 623.592C384.28 620.114 387.196 617.127 390.692 617.162C394.062 617.198 396.863 620.007 396.88 623.378C396.898 626.749 394.125 629.576 390.745 629.647Z" fill="#959595"/>
<path d="M224.477 423.829C227.964 423.784 230.693 426.486 230.693 429.964C230.693 433.451 227.955 436.144 224.477 436.099C221.124 436.055 218.511 433.477 218.422 430.124C218.333 426.638 220.999 423.873 224.477 423.829Z" fill="#959595"/>
<path d="M170.117 423.865C173.586 424.008 176.128 426.826 175.94 430.321C175.753 433.79 172.917 436.278 169.413 436.055C166.078 435.841 163.643 433.148 163.741 429.777C163.839 426.299 166.621 423.722 170.117 423.865Z" fill="#959595"/>
<path d="M59.0601 490.682C55.6626 490.646 53.13 488.096 53.1211 484.689C53.1211 481.158 55.8142 478.554 59.3544 478.67C62.7252 478.777 65.2043 481.407 65.1329 484.823C65.0616 488.211 62.4666 490.717 59.0601 490.682Z" fill="#959595"/>
<path d="M313.93 457.315C313.93 460.722 311.415 463.29 308.017 463.334C304.477 463.379 301.838 460.722 301.918 457.181C301.989 453.793 304.584 451.287 307.991 451.323C311.388 451.358 313.921 453.909 313.93 457.315Z" fill="#959595"/>
<path d="M203.194 816.841C203.194 820.239 200.679 822.798 197.29 822.843C193.768 822.887 191.137 820.23 191.208 816.699C191.28 813.328 193.875 810.822 197.272 810.858C200.661 810.893 203.185 813.444 203.194 816.841Z" fill="#959595"/>
<path d="M341.289 761.373C341.343 764.788 338.855 767.401 335.475 767.49C331.926 767.589 329.251 764.967 329.278 761.435C329.304 758.038 331.846 755.496 335.252 755.479C338.659 755.461 341.236 757.976 341.289 761.373Z" fill="#959595"/>
<path d="M368.666 512.826C368.595 516.321 365.857 518.863 362.326 518.711C358.973 518.569 356.53 515.938 356.601 512.54C356.672 509.045 359.41 506.503 362.941 506.655C366.294 506.798 368.738 509.428 368.666 512.826Z" fill="#959595"/>
<path d="M390.62 644.662C394.115 644.644 396.773 647.329 396.746 650.824C396.719 654.311 393.999 656.942 390.504 656.87C387.151 656.799 384.591 654.231 384.538 650.878C384.484 647.382 387.124 644.68 390.611 644.671L390.62 644.662Z" fill="#959595"/>
<path d="M368.574 733.374C368.628 736.745 366.104 739.366 362.742 739.42C359.371 739.473 356.75 736.95 356.696 733.588C356.643 730.217 359.175 727.595 362.528 727.542C365.899 727.488 368.521 730.012 368.574 733.374Z" fill="#959595"/>
<path d="M390.604 672.842C393.965 672.824 396.551 675.374 396.569 678.736C396.587 682.098 394.037 684.684 390.675 684.702C387.313 684.72 384.727 682.17 384.709 678.808C384.691 675.446 387.242 672.86 390.604 672.842Z" fill="#959595"/>
<path d="M396.596 568.151C396.551 571.531 393.939 574.055 390.541 574.01C387.161 573.965 384.638 571.353 384.682 567.955C384.727 564.575 387.34 562.052 390.737 562.096C394.117 562.141 396.641 564.754 396.596 568.151Z" fill="#959595"/>
<path d="M9.70007 595.518C9.64657 598.871 7.02483 601.394 3.65402 601.341C0.301053 601.287 -2.22259 598.665 -2.16909 595.295C-2.11558 591.942 0.506155 589.418 3.87696 589.472C7.22993 589.525 9.75358 592.147 9.70007 595.518Z" fill="#959595"/>
<path d="M92.41 457.297C92.4279 460.659 89.8685 463.236 86.5156 463.254C83.1537 463.272 80.5765 460.712 80.5587 457.359C80.5409 453.997 83.1002 451.42 86.4531 451.402C89.815 451.385 92.3922 453.944 92.41 457.297Z" fill="#959595"/>
<path d="M3.66269 644.84C7.02458 644.796 9.6374 647.328 9.68199 650.672C9.72657 654.034 7.19401 656.647 3.84996 656.692C0.488066 656.736 -2.12475 654.204 -2.16934 650.86C-2.21393 647.507 0.318635 644.885 3.66269 644.84Z" fill="#959595"/>
<path d="M230.499 816.912C230.473 820.274 227.878 822.815 224.498 822.788C221.136 822.762 218.595 820.167 218.621 816.787C218.648 813.425 221.243 810.884 224.623 810.91C227.985 810.937 230.526 813.532 230.499 816.912Z" fill="#959595"/>
<path d="M175.121 816.822C175.139 820.184 172.579 822.761 169.226 822.779C165.865 822.797 163.287 820.238 163.27 816.885C163.252 813.523 165.811 810.946 169.164 810.928C172.526 810.91 175.103 813.469 175.121 816.822Z" fill="#959595"/>
<path d="M147.771 430.009C147.754 433.362 145.167 435.912 141.806 435.894C138.453 435.877 135.902 433.29 135.92 429.929C135.938 426.576 138.524 424.025 141.886 424.043C145.239 424.061 147.789 426.647 147.771 430.009Z" fill="#959595"/>
<path d="M9.71902 623.509C9.67443 626.888 7.06161 629.412 3.66405 629.367C0.284328 629.323 -2.23932 626.71 -2.19473 623.312C-2.15014 619.933 0.462678 617.409 3.86024 617.454C7.23996 617.498 9.76361 620.111 9.71902 623.509Z" fill="#959595"/>
<path d="M252.721 424.017C256.092 424.089 258.597 426.728 258.517 430.135C258.446 433.506 255.797 436.011 252.4 435.931C249.029 435.86 246.523 433.211 246.603 429.814C246.675 426.443 249.323 423.937 252.721 424.017Z" fill="#959595"/>
<path d="M31.0319 739.311C27.893 739.257 25.2802 736.609 25.2891 733.47C25.2891 730.206 28.1248 727.495 31.3708 727.647C34.5008 727.789 37.0512 730.527 36.9531 733.648C36.8551 736.778 34.162 739.364 31.0319 739.311Z" fill="#959595"/>
<path d="M9.56563 678.109C9.56563 681.239 6.8993 683.914 3.76927 683.923C0.639236 683.923 -2.036 681.257 -2.04492 678.127C-2.04492 674.997 0.621404 672.321 3.75144 672.312C6.88147 672.312 9.55671 674.979 9.56563 678.109Z" fill="#959595"/>
<path d="M3.75337 562.219C6.8834 562.219 9.54081 564.823 9.59431 567.953C9.64782 571.208 6.86556 573.963 3.61068 573.874C0.471732 573.794 -2.11433 571.101 -2.06974 567.979C-2.03407 564.84 0.614413 562.228 3.74445 562.219H3.75337Z" fill="#959595"/>
<path d="M258.39 816.884C258.372 820.023 255.742 822.654 252.603 822.681C249.348 822.708 246.61 819.899 246.726 816.653C246.842 813.523 249.544 810.954 252.674 811.017C255.813 811.079 258.408 813.754 258.39 816.884Z" fill="#959595"/>
<path d="M147.646 816.947C147.583 820.077 144.855 822.708 141.742 822.646C138.612 822.583 135.982 819.855 136.044 816.742C136.106 813.612 138.826 810.982 141.947 811.044C145.077 811.106 147.708 813.835 147.646 816.947Z" fill="#959595"/>
<path d="M313.824 788.867C313.815 792.202 311.167 794.797 307.823 794.743C304.496 794.69 301.928 791.997 302.026 788.662C302.115 785.469 304.666 782.972 307.867 782.946C311.211 782.919 313.842 785.532 313.824 788.867Z" fill="#959595"/>
<path d="M31.2461 518.579C27.9377 518.65 25.2535 516.046 25.2268 512.738C25.2 509.43 27.8396 506.781 31.148 506.799C34.3226 506.817 36.8997 509.314 37.0068 512.479C37.1138 515.788 34.5455 518.508 31.2461 518.579Z" fill="#959595"/>
<path d="M65.0249 761.57C64.9803 764.897 62.3051 767.474 58.961 767.394C55.6437 767.313 53.1022 764.593 53.2271 761.249C53.343 758.057 55.9201 755.596 59.1304 755.596C62.4656 755.596 65.0695 758.235 65.0338 761.579L65.0249 761.57Z" fill="#959595"/>
<path d="M86.4719 783.006C89.6019 783.006 92.2594 785.61 92.3129 788.749C92.3664 792.004 89.5841 794.759 86.3292 794.67C83.1992 794.581 80.6131 791.897 80.6488 788.767C80.6934 785.628 83.333 783.015 86.4719 783.006Z" fill="#959595"/>
<path d="M396.417 540.14C396.355 543.261 393.573 545.928 390.469 545.82C387.348 545.713 384.718 542.878 384.878 539.792C385.03 536.787 387.678 534.272 390.666 534.281C393.787 534.29 396.48 537.037 396.426 540.149L396.417 540.14Z" fill="#959595"/>
<path d="M279.812 424.196C282.915 424.134 285.671 426.827 285.689 429.948C285.706 433.06 282.969 435.78 279.856 435.745C276.86 435.709 274.256 433.158 274.14 430.162C274.024 427.068 276.682 424.268 279.803 424.205L279.812 424.196Z" fill="#959595"/>
<path d="M390.772 711.811C387.705 711.9 384.931 709.18 384.949 706.094C384.967 703.134 387.535 700.512 390.505 700.432C393.572 700.343 396.346 703.062 396.328 706.148C396.31 709.109 393.742 711.73 390.772 711.811Z" fill="#959595"/>
<path d="M114.58 435.663C111.512 435.716 108.757 432.979 108.801 429.902C108.846 426.941 111.432 424.337 114.401 424.284C117.469 424.23 120.225 426.968 120.18 430.045C120.135 433.005 117.549 435.609 114.58 435.663Z" fill="#959595"/>
<path d="M335.207 451.758C338.248 451.714 340.807 454.202 340.851 457.252C340.896 460.292 338.408 462.852 335.358 462.896C332.317 462.941 329.758 460.453 329.713 457.403C329.669 454.362 332.157 451.803 335.207 451.758Z" fill="#959595"/>
<path d="M363.367 479.768C366.417 479.813 368.896 482.381 368.851 485.422C368.807 488.472 366.239 490.951 363.198 490.906C360.148 490.862 357.669 488.293 357.713 485.252C357.758 482.203 360.326 479.724 363.358 479.768H363.367Z" fill="#959595"/>
<path d="M64.4552 457.34C64.4552 460.389 62.1634 462.663 59.1137 462.654C56.0639 462.654 53.7899 460.363 53.7989 457.313C53.7989 454.263 56.0906 451.989 59.1404 451.998C62.1902 451.998 64.4642 454.29 64.4552 457.34Z" fill="#959595"/>
<path d="M280.052 811.365C283.137 811.436 285.518 813.969 285.402 817.063C285.286 820.14 282.709 822.485 279.624 822.333C276.672 822.182 274.407 819.765 274.434 816.796C274.461 813.701 276.957 811.293 280.052 811.365Z" fill="#959595"/>
<path d="M9.14031 706.193C9.10464 709.216 6.81284 711.49 3.7809 711.499C0.624112 711.499 -1.72119 709.065 -1.60526 705.899C-1.49825 702.885 0.864885 700.682 3.91466 700.754C6.93769 700.825 9.17598 703.152 9.14031 706.193Z" fill="#959595"/>
<path d="M114.516 822.218C111.484 822.236 109.166 819.98 109.112 816.957C109.059 813.791 111.449 811.401 114.614 811.472C117.637 811.535 119.885 813.853 119.858 816.894C119.831 819.917 117.548 822.2 114.516 822.218Z" fill="#959595"/>
<path d="M340.61 788.947C340.557 791.988 338.229 794.226 335.18 794.173C332.139 794.119 329.901 791.801 329.954 788.742C330.008 785.701 332.335 783.463 335.385 783.517C338.426 783.57 340.664 785.898 340.61 788.947Z" fill="#959595"/>
<path d="M3.88556 534.56C6.97101 534.622 9.36089 537.155 9.25388 540.249C9.14687 543.326 6.57864 545.68 3.48427 545.528C0.532589 545.386 -1.74136 542.969 -1.71461 540.008C-1.68786 536.914 0.800112 534.497 3.89448 534.56H3.88556Z" fill="#959595"/>
<path d="M362.528 766.856C359.505 766.803 357.249 764.493 357.258 761.461C357.267 758.314 359.728 755.977 362.903 756.111C365.899 756.236 368.102 758.635 368.003 761.667C367.914 764.681 365.56 766.901 362.528 766.848V766.856Z" fill="#959595"/>
<path d="M390.7 507.43C393.705 507.457 395.97 509.811 395.898 512.825C395.827 515.821 393.437 518.06 390.423 517.944C387.561 517.837 385.394 515.59 385.385 512.709C385.376 509.695 387.686 507.394 390.7 507.43Z" fill="#959595"/>
<path d="M91.6526 429.812C91.7418 432.621 89.45 435.056 86.632 435.145C83.823 435.234 81.3886 432.942 81.2994 430.124C81.2102 427.315 83.502 424.881 86.3199 424.792C89.1289 424.702 91.5634 426.994 91.6526 429.812Z" fill="#959595"/>
<path d="M313.183 429.841C313.254 432.855 310.98 435.209 307.975 435.236C304.961 435.263 302.651 432.962 302.66 429.948C302.678 427.068 304.845 424.821 307.707 424.722C310.722 424.615 313.111 426.854 313.183 429.85V429.841Z" fill="#959595"/>
<path d="M36.4114 484.646C36.4292 487.705 34.1285 489.997 31.0787 489.97C28.0289 489.943 25.7728 487.607 25.8352 484.557C25.8977 481.65 28.0914 479.447 31.0074 479.394C34.0661 479.331 36.3935 481.605 36.4114 484.646Z" fill="#959595"/>
<path d="M59.0314 783.612C61.9028 783.567 64.2214 785.734 64.3551 788.588C64.4889 791.584 62.206 794.019 59.2187 794.072C56.2224 794.126 53.8593 791.771 53.8949 788.775C53.9306 785.913 56.16 783.666 59.0314 783.612Z" fill="#959595"/>
<path d="M36.3203 761.506C36.3114 764.351 34.0196 766.66 31.1749 766.687C28.2054 766.723 25.8066 764.261 25.9136 761.301C26.0117 758.465 28.3837 756.227 31.2195 756.28C34.0642 756.334 36.3381 758.661 36.3203 761.506Z" fill="#959595"/>
<path d="M169.743 407.171C166.899 407.118 164.625 404.79 164.643 401.946C164.661 398.976 167.149 396.613 170.118 396.765C172.954 396.907 175.156 399.315 175.058 402.151C174.96 404.987 172.588 407.225 169.752 407.171H169.743Z" fill="#959595"/>
<path d="M197.066 396.701C200.08 396.63 202.434 398.903 202.461 401.9C202.488 404.914 200.196 407.223 197.182 407.215C194.301 407.206 192.054 405.039 191.947 402.176C191.84 399.162 194.078 396.772 197.066 396.701Z" fill="#959595"/>
<path d="M229.786 402.025C229.75 405.012 227.333 407.313 224.337 407.197C221.484 407.081 219.299 404.78 219.334 401.909C219.37 398.921 221.787 396.621 224.783 396.737C227.637 396.853 229.821 399.153 229.786 402.025Z" fill="#959595"/>
<path d="M390.629 728.271C393.474 728.271 395.792 730.545 395.846 733.38C395.899 736.35 393.456 738.767 390.486 738.677C387.642 738.597 385.394 736.243 385.43 733.398C385.466 730.554 387.775 728.271 390.62 728.262L390.629 728.271Z" fill="#959595"/>
<path d="M3.72708 517.801C0.962667 517.774 -1.47181 515.232 -1.34696 512.486C-1.23103 509.846 1.17668 507.555 3.79842 507.572C6.56284 507.599 8.99731 510.141 8.87246 512.887C8.75654 515.527 6.34882 517.819 3.72708 517.801Z" fill="#959595"/>
<path d="M257.678 402.088C257.607 404.861 255.012 407.242 252.283 407.073C249.643 406.903 247.387 404.46 247.459 401.847C247.53 399.074 250.116 396.693 252.854 396.862C255.493 397.031 257.749 399.475 257.678 402.088Z" fill="#959595"/>
<path d="M307.803 811.74C310.559 811.66 313.065 814.13 313.038 816.886C313.011 819.525 310.693 821.888 308.053 821.96C305.298 822.04 302.792 819.57 302.819 816.814C302.845 814.175 305.164 811.812 307.803 811.74Z" fill="#959595"/>
<path d="M146.906 401.964C146.906 404.603 144.561 406.975 141.922 407.02C139.166 407.073 136.678 404.541 136.776 401.785C136.874 399.137 139.3 396.836 141.922 396.89C144.561 396.943 146.906 399.324 146.898 401.955L146.906 401.964Z" fill="#959595"/>
<path d="M3.8506 728.47C6.51693 728.523 8.82655 730.913 8.77305 733.562C8.71954 736.228 6.32966 738.537 3.68117 738.484C1.01484 738.43 -1.29478 736.041 -1.24128 733.392C-1.18777 730.726 1.20211 728.416 3.8506 728.47Z" fill="#959595"/>
<path d="M86.4007 811.839C89.0492 811.794 91.4391 814.104 91.4926 816.77C91.5372 819.418 89.2276 821.808 86.5613 821.862C83.9128 821.906 81.5229 819.597 81.4694 816.93C81.4248 814.282 83.7344 811.892 86.4007 811.839Z" fill="#959595"/>
<path d="M363.388 452.551C366.081 452.604 368.069 454.637 368.06 457.339C368.06 460.157 365.858 462.235 363.031 462.101C360.356 461.968 358.429 459.854 358.519 457.152C358.608 454.468 360.686 452.506 363.388 452.56V452.551Z" fill="#959595"/>
<path d="M114.542 406.591C111.867 406.627 109.843 404.612 109.852 401.945C109.861 399.279 111.903 397.282 114.578 397.335C117.119 397.389 119.037 399.288 119.108 401.821C119.179 404.496 117.209 406.556 114.542 406.591Z" fill="#959595"/>
<path d="M284.634 401.974C284.634 404.703 282.636 406.683 279.908 406.683C277.179 406.683 275.199 404.685 275.199 401.956C275.199 399.228 277.197 397.248 279.925 397.248C282.654 397.248 284.634 399.246 284.634 401.974Z" fill="#959595"/>
<path d="M362.539 784.212C365.214 784.158 367.256 786.156 367.265 788.822C367.274 791.498 365.25 793.504 362.575 793.468C360.033 793.442 358.098 791.551 358.009 789.019C357.92 786.343 359.873 784.265 362.539 784.212Z" fill="#959595"/>
<path d="M339.951 430.036C339.915 432.747 337.864 434.709 335.135 434.637C332.433 434.566 330.498 432.47 330.614 429.742C330.721 427.173 332.665 425.31 335.26 425.301C337.98 425.301 339.978 427.307 339.942 430.027L339.951 430.036Z" fill="#959595"/>
<path d="M390.506 480.67C393.234 480.599 395.285 482.56 395.312 485.28C395.339 488.009 393.35 490.015 390.622 490.006C388.027 489.998 386.083 488.134 385.976 485.557C385.86 482.828 387.804 480.741 390.506 480.67Z" fill="#959595"/>
<path d="M26.5011 457.422C26.4565 454.871 28.3292 452.838 30.8528 452.713C33.537 452.58 35.6772 454.559 35.7218 457.235C35.7753 459.91 33.7153 461.979 31.0401 461.943C28.4897 461.907 26.5457 459.972 26.4922 457.422H26.5011Z" fill="#959595"/>
<path d="M63.6875 429.92C63.7143 432.391 61.7346 434.468 59.2555 434.54C56.6516 434.611 54.4936 432.471 54.556 429.867C54.6095 427.388 56.6695 425.399 59.1485 425.408C61.6187 425.426 63.6518 427.441 63.6875 429.92Z" fill="#959595"/>
<path d="M390.603 766.047C388.132 766.03 386.099 764.005 386.073 761.526C386.046 758.922 388.239 756.809 390.834 756.916C393.305 757.023 395.257 759.128 395.195 761.598C395.133 764.068 393.073 766.065 390.594 766.039L390.603 766.047Z" fill="#959595"/>
<path d="M339.809 816.78C339.844 819.232 337.802 821.336 335.35 821.381C332.898 821.417 330.793 819.375 330.749 816.922C330.713 814.47 332.755 812.365 335.207 812.321C337.66 812.285 339.764 814.327 339.809 816.78Z" fill="#959595"/>
<path d="M35.6158 789.09C35.4642 791.515 33.1814 793.522 30.7826 793.325C28.3481 793.129 26.2971 790.802 26.6538 788.43C27.0461 785.853 28.6424 784.381 31.282 784.363C33.6986 784.346 35.7585 786.691 35.6069 789.09H35.6158Z" fill="#959595"/>
<path d="M59.2025 821.228C56.884 821.273 54.7973 819.258 54.7527 816.921C54.7081 814.594 56.7234 812.516 59.0598 812.471C61.3873 812.427 63.4651 814.442 63.5096 816.779C63.5542 819.097 61.5389 821.184 59.2025 821.228Z" fill="#959595"/>
<path d="M8.14082 761.401C8.19432 763.719 6.17897 765.815 3.84259 765.86C1.52405 765.913 -0.571558 763.898 -0.616146 761.561C-0.669651 759.243 1.3457 757.147 3.68208 757.103C6.00062 757.049 8.09623 759.064 8.14082 761.401Z" fill="#959595"/>
<path d="M8.26505 484.764C8.21155 487.189 6.00894 489.276 3.60122 489.178C1.17566 489.08 -0.973452 486.815 -0.705927 484.434C-0.41165 481.848 1.13999 480.323 3.77064 480.207C6.1962 480.1 8.30964 482.347 8.26505 484.764Z" fill="#959595"/>
<path d="M312.264 401.883C312.309 404.202 310.338 406.253 308.011 406.297C305.692 406.342 303.641 404.371 303.596 402.044C303.552 399.725 305.523 397.674 307.85 397.63C310.169 397.585 312.22 399.556 312.264 401.883Z" fill="#959595"/>
<path d="M86.3123 406.064C83.7976 405.752 82.3441 404.37 82.4422 401.811C82.5403 399.243 84.0919 397.843 86.6423 397.932C89.2105 398.021 90.6106 399.581 90.5303 402.123C90.4501 404.709 88.8538 405.931 86.3213 406.064H86.3123Z" fill="#959595"/>
<path d="M220.459 374.318C220.834 371.812 222.269 370.412 224.82 370.564C227.388 370.724 228.743 372.33 228.592 374.862C228.44 377.43 226.826 378.777 224.294 378.634C221.716 378.492 220.53 376.851 220.459 374.309V374.318Z" fill="#959595"/>
<path d="M201.347 374.9C201.133 377.165 199.813 378.627 197.253 378.734C194.819 378.841 192.884 376.844 193.08 374.409C193.285 371.868 194.774 370.504 197.325 370.477C199.634 370.45 201.373 372.314 201.356 374.891L201.347 374.9Z" fill="#959595"/>
<path d="M363.35 425.996C365.695 426.29 367.113 427.503 367.211 429.938C367.301 432.229 365.374 434.084 363.083 433.879C360.684 433.665 359.328 432.247 359.391 429.84C359.462 427.414 360.978 426.219 363.35 425.996Z" fill="#959595"/>
<path d="M173.897 374.544C173.933 376.907 172.194 378.664 169.831 378.655C167.468 378.655 165.702 376.871 165.809 374.508C165.925 372.083 167.272 370.718 169.697 370.567C172.052 370.424 173.853 372.19 173.889 374.535L173.897 374.544Z" fill="#959595"/>
<path d="M394.617 457.493C394.278 459.803 393.03 461.203 390.595 461.247C388.303 461.283 386.484 459.321 386.734 457.038C387.001 454.649 388.455 453.311 390.854 453.436C393.27 453.552 394.447 455.094 394.617 457.493Z" fill="#959595"/>
<path d="M394.482 788.76C394.214 791.052 393.002 792.603 390.603 792.603C388.382 792.603 386.938 791.177 386.884 788.965C386.831 786.593 388.302 785.095 390.674 785.086C392.904 785.077 394.116 786.548 394.482 788.76Z" fill="#959595"/>
<path d="M145.774 374.642C145.435 377.005 144.178 378.539 141.734 378.45C139.318 378.36 137.909 376.844 138.007 374.419C138.105 372.172 139.532 370.781 141.797 370.772C144.249 370.754 145.48 372.279 145.774 374.642Z" fill="#959595"/>
<path d="M256.5 374.479C256.277 376.851 255.1 378.403 252.674 378.465C250.275 378.528 248.777 377.119 248.706 374.72C248.634 372.321 250.052 370.841 252.451 370.752C254.877 370.663 256.134 372.161 256.5 374.479Z" fill="#959595"/>
<path d="M34.9298 429.841C34.7336 432.052 33.5654 433.452 31.345 433.729C29.3207 433.978 27.234 431.999 27.3589 429.948C27.5015 427.7 28.8213 426.274 31.0596 426.22C33.3157 426.167 34.5463 427.629 34.9387 429.832L34.9298 429.841Z" fill="#959595"/>
<path d="M7.53484 457.386C7.18706 459.616 5.95645 461.078 3.68249 461.024C1.43529 460.971 0.00849637 459.508 0.0620012 457.252C0.115506 455.005 1.57797 453.587 3.83409 453.632C6.09913 453.676 7.27624 455.175 7.53484 457.386Z" fill="#959595"/>
<path d="M366.452 816.822C366.176 819.033 364.99 820.415 362.743 820.612C360.71 820.79 358.676 818.739 358.873 816.715C359.095 814.485 360.442 813.076 362.689 813.112C364.936 813.139 366.14 814.619 366.452 816.831V816.822Z" fill="#959595"/>
<path d="M335.297 398.279C337.535 398.574 338.971 399.804 338.899 402.069C338.828 404.316 337.356 405.681 335.1 405.583C333.014 405.494 331.676 404.12 331.658 402.025C331.649 399.76 333.076 398.547 335.297 398.279Z" fill="#959595"/>
<path d="M279.847 378.181C277.662 377.922 276.351 376.727 276.396 374.578C276.44 372.251 277.885 370.958 280.194 371.101C282.353 371.234 283.556 372.67 283.44 374.81C283.333 376.968 281.942 378.056 279.847 378.19V378.181Z" fill="#959595"/>
<path d="M114.652 371.152C116.943 371.491 118.067 372.775 117.862 374.951C117.657 377.172 116.212 378.188 114.054 377.974C111.994 377.769 110.987 376.423 111.085 374.416C111.192 372.169 112.618 371.224 114.652 371.152Z" fill="#959595"/>
<path d="M3.82625 792.283C1.6593 792.149 0.357346 791.052 0.375181 788.832C0.384098 786.62 1.6593 785.416 3.86192 785.452C5.90402 785.479 7.09896 786.656 7.16138 788.698C7.23272 790.901 6.01995 792.078 3.82625 792.292V792.283Z" fill="#959595"/>
<path d="M62.5806 401.965C62.322 404.283 61.1003 405.478 58.9155 405.353C56.695 405.229 55.5982 403.837 55.7409 401.671C55.8746 399.628 57.1498 398.532 59.183 398.567C61.4302 398.603 62.429 399.967 62.5806 401.965Z" fill="#959595"/>
<path d="M34.5647 816.768C34.431 818.935 33.352 820.246 31.1226 820.237C28.9111 820.237 27.6983 818.962 27.725 816.768C27.7429 814.726 28.92 813.522 30.9532 813.451C33.1558 813.371 34.3418 814.575 34.5558 816.768H34.5647Z" fill="#959595"/>
<path d="M310.96 374.524C310.836 376.21 309.962 377.422 308.223 377.574C306.314 377.743 305.048 376.62 304.95 374.747C304.861 372.857 306.047 371.644 307.946 371.635C309.694 371.617 310.675 372.759 310.951 374.533L310.96 374.524Z" fill="#959595"/>
<path d="M393.482 429.875C393.411 431.596 392.564 432.71 390.772 432.773C389.006 432.835 387.909 431.881 387.838 430.098C387.766 428.332 388.729 427.235 390.513 427.164C392.279 427.092 393.277 428.064 393.482 429.875Z" fill="#959595"/>
<path d="M393.231 817.019C392.928 818.579 392.018 819.56 390.351 819.382C388.879 819.222 387.988 818.223 388.095 816.725C388.211 815.075 389.272 814.156 390.921 814.317C392.402 814.46 393.151 815.485 393.231 817.019Z" fill="#959595"/>
<path d="M172.429 346.738C172.117 348.272 171.225 349.279 169.593 349.11C168.158 348.958 167.239 347.977 167.337 346.488C167.444 344.874 168.497 343.929 170.119 344.08C171.564 344.214 172.331 345.231 172.429 346.729V346.738Z" fill="#959595"/>
<path d="M363.272 399.279C364.886 399.404 365.903 400.216 365.929 401.865C365.965 403.667 364.939 404.665 363.147 404.603C361.506 404.541 360.614 403.542 360.641 401.901C360.668 400.242 361.658 399.422 363.272 399.279Z" fill="#959595"/>
<path d="M83.7598 374.809C83.8846 372.998 84.705 371.973 86.3726 371.946C88.2007 371.911 89.1994 372.936 89.137 374.755C89.0835 376.414 88.0669 377.306 86.4172 377.288C84.7229 377.27 83.947 376.236 83.7598 374.809Z" fill="#959595"/>
<path d="M197.21 344C198.877 344.339 199.885 345.231 199.716 346.863C199.564 348.298 198.583 349.217 197.094 349.119C195.48 349.012 194.543 347.959 194.686 346.336C194.811 344.865 195.881 344.178 197.21 344Z" fill="#959595"/>
<path d="M6.35621 430.01C6.13328 431.597 5.25936 432.613 3.5918 432.515C2.11149 432.426 1.18407 431.463 1.21974 429.965C1.25541 428.306 2.28092 427.352 3.93066 427.432C5.42879 427.504 6.1957 428.503 6.35621 430.01Z" fill="#959595"/>
<path d="M227.165 346.506C226.871 348.219 226.015 349.244 224.365 349.128C222.92 349.021 221.984 348.058 222.037 346.578C222.1 344.955 223.116 344.001 224.748 344.09C226.229 344.17 226.924 345.231 227.165 346.506Z" fill="#959595"/>
<path d="M252.692 344.232C254.154 344.553 255.055 345.392 254.868 346.908C254.698 348.227 253.744 349.048 252.415 348.923C250.962 348.789 250.079 347.808 250.257 346.301C250.418 344.981 251.372 344.313 252.683 344.232H252.692Z" fill="#959595"/>
<path d="M6.1512 816.877C5.83909 818.419 4.99192 819.329 3.48487 819.16C2.174 819.008 1.33576 818.063 1.44277 816.725C1.56761 815.263 2.53962 814.38 4.04668 814.54C5.3843 814.683 6.01744 815.664 6.1512 816.877Z" fill="#959595"/>
<path d="M33.5651 401.893C33.2887 403.462 32.4683 404.434 30.988 404.336C29.5344 404.238 28.6248 403.23 28.7497 401.759C28.8567 400.466 29.7663 399.592 31.095 399.592C32.602 399.592 33.3065 400.617 33.5651 401.901V401.893Z" fill="#959595"/>
<path d="M337.339 374.773C337.188 376.031 336.466 376.708 335.208 376.655C333.746 376.592 333.113 375.683 333.264 374.301C333.407 373.016 334.299 372.464 335.52 372.579C336.804 372.695 337.348 373.525 337.339 374.782V374.773Z" fill="#959595"/>
<path d="M61.0744 374.515C60.8515 375.773 60.2451 376.513 59.1304 376.486C57.8552 376.45 57.115 375.639 57.2577 374.373C57.3826 373.302 58.1495 372.634 59.282 372.723C60.4056 372.821 60.8871 373.632 61.0744 374.506V374.515Z" fill="#959595"/>
<path d="M143.9 346.336C143.9 347.718 143.329 348.547 142.054 348.636C140.654 348.734 139.798 348.03 139.807 346.567C139.807 345.301 140.52 344.588 141.795 344.552C143.071 344.516 143.748 345.221 143.909 346.336H143.9Z" fill="#959595"/>
<path d="M281.863 346.631C281.596 347.817 280.981 348.557 279.857 348.477C278.6 348.388 277.877 347.567 278.064 346.301C278.225 345.231 279.019 344.58 280.142 344.723C281.239 344.865 281.747 345.668 281.863 346.622V346.631Z" fill="#959595"/>
</g>
</g>
<g opacity="0.5">
<g clip-path="url(#clip2_194_35639)">
<path d="M28.4803 571.421C29.4903 571.391 29.6203 572.281 29.9303 572.901C31.3203 575.721 32.7003 578.551 33.9803 581.421C35.0403 583.801 36.6803 585.561 39.0003 586.731C42.1803 588.351 45.3503 589.971 48.5003 591.651C49.2503 592.051 50.4603 592.071 50.4803 593.261C50.5003 594.491 49.2903 594.511 48.5303 594.871C45.0203 596.551 41.4903 598.191 37.9503 599.811C36.2803 600.571 35.1103 601.771 34.3703 603.441C32.9603 606.621 31.5003 609.781 30.0703 612.951C29.7103 613.741 29.7403 614.961 28.5803 614.991C27.2503 615.031 27.2803 613.701 26.8903 612.851C25.5603 609.911 24.2303 606.971 22.9403 604.001C22.0403 601.931 20.6203 600.431 18.5503 599.481C15.2403 597.961 11.9703 596.351 8.6903 594.751C7.9903 594.411 6.9503 594.341 7.0103 593.211C7.0603 592.271 7.9403 592.161 8.5803 591.821C11.5103 590.261 14.4003 588.641 17.3703 587.151C20.1703 585.741 22.1203 583.621 23.3803 580.771C24.5503 578.121 25.8003 575.501 27.0803 572.901C27.3803 572.291 27.4803 571.371 28.5003 571.391L28.4803 571.421ZM28.8903 574.851C26.1603 579.291 25.2403 583.771 21.9303 586.691C18.7403 589.501 14.6603 591.001 10.9103 593.311C14.9603 595.321 19.1403 596.621 22.3403 599.401C25.6203 602.251 26.3003 606.871 28.5803 610.711C29.5403 608.561 30.4703 606.721 31.2103 604.801C32.6803 600.931 35.2403 598.211 39.1303 596.721C40.3703 596.251 41.5303 595.591 42.7303 595.021C43.9203 594.461 45.1203 593.921 46.9603 593.071C37.8403 589.881 31.1603 584.941 28.8803 574.861L28.8903 574.851Z" fill="#34322D"/>
<path d="M53.8597 574.4C53.3197 574.19 53.0797 573.79 52.9497 573.29C51.4297 567.23 47.5397 563.48 41.6397 561.68C41.0997 561.52 40.4297 561.37 40.4297 560.63C40.4297 559.89 41.1697 559.83 41.6297 559.54C41.9097 559.36 42.2097 559.21 42.5197 559.09C47.4597 557.23 50.8697 553.92 52.5097 548.83C52.7397 548.13 52.8197 546.98 53.8897 546.99C54.7897 546.99 54.9097 548 55.1097 548.66C56.8097 554.18 60.7597 557.39 65.9497 559.38C66.6097 559.63 67.5897 559.77 67.5897 560.67C67.5897 561.59 66.4697 561.48 65.9097 561.92C65.8497 561.97 65.7597 561.99 65.6797 562.01C60.1997 563.61 56.4697 566.96 55.0197 572.62C54.8397 573.32 54.6197 574.06 53.8497 574.4H53.8597ZM53.8497 549.46C52.2197 555.27 48.0697 558.39 42.1097 560.71C48.3897 562.52 52.3597 565.63 53.8597 571.6C55.3197 565.5 59.5097 562.49 65.7897 560.69C59.7997 558.37 55.5497 555.39 53.8497 549.46Z" fill="#34322D"/>
<path d="M28.8899 574.85C31.1699 584.93 37.8499 589.87 46.9699 593.06C45.1299 593.91 43.9299 594.45 42.7399 595.01C41.5399 595.57 40.3799 596.23 39.1399 596.71C35.2499 598.2 32.6899 600.92 31.2199 604.79C30.4899 606.71 29.5599 608.56 28.5899 610.7C26.3099 606.86 25.6299 602.24 22.3499 599.39C19.1499 596.61 14.9699 595.31 10.9199 593.3C14.6699 590.98 18.7499 589.49 21.9399 586.68C25.2599 583.76 26.1699 579.28 28.8999 574.84L28.8899 574.85Z" fill="#ECECE7"/>
<path d="M53.8494 549.461C55.5494 555.391 59.7894 558.371 65.7894 560.691C59.5094 562.491 55.3194 565.501 53.8594 571.601C52.3594 565.631 48.3894 562.511 42.1094 560.711C48.0694 558.391 52.2094 555.281 53.8494 549.461Z" fill="#ECECE7"/>
</g>
<g clip-path="url(#clip3_194_35639)">
<path d="M359.119 120.579C358.109 120.609 357.979 119.719 357.669 119.099C356.279 116.279 354.899 113.449 353.619 110.579C352.559 108.199 350.919 106.439 348.599 105.269C345.419 103.649 342.249 102.029 339.099 100.349C338.349 99.9491 337.139 99.9291 337.119 98.7391C337.099 97.5091 338.309 97.4891 339.069 97.1291C342.579 95.4491 346.109 93.8091 349.649 92.1891C351.319 91.4291 352.489 90.2291 353.229 88.5591C354.639 85.3791 356.099 82.2191 357.529 79.0491C357.889 78.2591 357.859 77.0391 359.019 77.0091C360.349 76.9691 360.319 78.2991 360.709 79.1491C362.039 82.0891 363.369 85.0291 364.659 87.9991C365.559 90.0691 366.979 91.5691 369.049 92.5191C372.359 94.0391 375.629 95.6491 378.909 97.2491C379.609 97.5891 380.649 97.6591 380.589 98.7891C380.539 99.7291 379.659 99.8391 379.019 100.179C376.089 101.739 373.199 103.359 370.229 104.849C367.429 106.259 365.479 108.379 364.219 111.229C363.049 113.879 361.799 116.499 360.519 119.099C360.219 119.709 360.119 120.629 359.099 120.609L359.119 120.579ZM358.709 117.149C361.439 112.709 362.359 108.229 365.669 105.309C368.859 102.499 372.939 100.999 376.689 98.6891C372.639 96.6791 368.459 95.3791 365.259 92.5991C361.979 89.7491 361.299 85.1291 359.019 81.2891C358.059 83.4391 357.129 85.2791 356.389 87.1991C354.919 91.0691 352.359 93.7891 348.469 95.2791C347.229 95.7491 346.069 96.4091 344.869 96.9791C343.679 97.5391 342.479 98.0791 340.639 98.9291C349.759 102.119 356.439 107.059 358.719 117.139L358.709 117.149Z" fill="#34322D"/>
<path d="M333.74 117.6C334.28 117.81 334.52 118.21 334.65 118.71C336.17 124.77 340.06 128.52 345.96 130.32C346.5 130.48 347.17 130.63 347.17 131.37C347.17 132.11 346.43 132.17 345.97 132.46C345.69 132.64 345.39 132.79 345.08 132.91C340.14 134.77 336.73 138.08 335.09 143.17C334.86 143.87 334.78 145.02 333.71 145.01C332.81 145.01 332.69 144 332.49 143.34C330.79 137.82 326.84 134.61 321.65 132.62C320.99 132.37 320.01 132.23 320.01 131.33C320.01 130.41 321.13 130.52 321.69 130.08C321.75 130.03 321.84 130.01 321.92 129.99C327.4 128.39 331.13 125.04 332.58 119.38C332.76 118.68 332.98 117.94 333.75 117.6H333.74ZM333.75 142.54C335.38 136.73 339.53 133.61 345.49 131.29C339.21 129.48 335.24 126.37 333.74 120.4C332.28 126.5 328.09 129.51 321.81 131.31C327.8 133.63 332.05 136.61 333.75 142.54Z" fill="#34322D"/>
<path d="M358.71 117.15C356.43 107.07 349.75 102.13 340.63 98.9402C342.47 98.0902 343.67 97.5502 344.86 96.9902C346.06 96.4302 347.22 95.7702 348.46 95.2902C352.35 93.8002 354.91 91.0802 356.38 87.2102C357.11 85.2902 358.04 83.4402 359.01 81.3002C361.29 85.1402 361.97 89.7602 365.25 92.6102C368.45 95.3902 372.63 96.6902 376.68 98.7002C372.93 101.02 368.85 102.51 365.66 105.32C362.34 108.24 361.43 112.72 358.7 117.16L358.71 117.15Z" fill="#ECECE7"/>
<path d="M333.75 142.539C332.05 136.609 327.81 133.629 321.81 131.309C328.09 129.509 332.28 126.499 333.74 120.399C335.24 126.369 339.21 129.489 345.49 131.289C339.53 133.609 335.39 136.719 333.75 142.539Z" fill="#ECECE7"/>
</g>
<g clip-path="url(#clip4_194_35639)">
<path d="M-6.11041 115.42C-2.37041 116.9 0.399592 114.91 2.23959 110.66C2.90959 109.1 4.19959 107.78 5.30959 106.44C7.03959 104.35 9.26959 104.55 10.4996 106.9C11.9296 109.63 13.1796 112.47 13.4796 115.55C13.6396 117.23 14.4396 117.81 15.8896 118.15C18.5496 118.78 21.1796 119.51 23.8196 120.21C25.3196 120.61 26.7296 121.18 26.9696 122.96C27.1996 124.63 26.0896 125.5 24.8296 126.29C22.5796 127.7 20.3996 129.24 18.1096 130.58C16.9196 131.28 16.5496 131.95 16.9196 133.37C17.6796 136.35 18.0096 139.41 18.0696 142.5C18.0996 143.9 18.0196 145.2 16.5996 145.92C15.2196 146.62 14.0596 146.04 12.8896 145.28C10.1696 143.51 7.42959 141.76 5.00959 139.6C3.97959 138.68 3.07959 138.61 1.88959 139.21C-1.23041 140.77 -4.54041 141.87 -7.84041 142.98C-9.36041 143.49 -10.9204 143.97 -12.2004 142.47C-13.4004 141.07 -12.8204 139.72 -12.1004 138.33C-10.7104 135.69 -9.48041 132.96 -7.98041 130.38C-7.15041 128.95 -7.29041 128.09 -8.51041 126.98C-10.7204 124.96 -12.7604 122.76 -14.8504 120.62C-15.7804 119.67 -16.3404 118.59 -15.7804 117.25C-15.2304 115.94 -14.1504 115.42 -12.7904 115.41C-10.8804 115.4 -8.96041 115.41 -6.11041 115.41V115.42ZM-6.82041 117.22C-8.57041 117.22 -10.3204 117.2 -12.0704 117.22C-12.7804 117.23 -13.6504 117.02 -13.9604 117.99C-14.2004 118.76 -13.6604 119.23 -13.1904 119.7C-11.0804 121.83 -9.02041 124.02 -6.83041 126.06C-5.21041 127.57 -5.01041 129.06 -6.18041 130.91C-7.88041 133.58 -9.23041 136.43 -10.5204 139.32C-10.8204 139.99 -11.3504 140.67 -10.6304 141.36C-10.0304 141.94 -9.40041 141.51 -8.77041 141.31C-5.27041 140.24 -1.83041 139.02 1.44959 137.4C3.18959 136.54 4.56959 136.76 5.97959 138.03C8.33959 140.14 10.9996 141.87 13.6596 143.58C14.2696 143.97 14.8996 144.59 15.6996 144.16C16.5496 143.71 16.2396 142.88 16.1996 142.15C16.0296 139.24 15.8496 136.34 15.0696 133.51C14.5396 131.6 15.0796 130.17 16.9196 129.13C19.2996 127.77 21.5596 126.2 23.8596 124.71C24.4096 124.36 25.0996 124.09 25.0396 123.26C24.9596 122.25 24.0896 122.24 23.3896 122.04C20.5896 121.26 17.8096 120.4 14.9896 119.76C13.1196 119.34 12.0896 118.46 11.8396 116.49C11.4696 113.58 10.4196 110.87 9.14959 108.24C8.37959 106.65 7.59959 106.38 6.48959 107.88C5.54959 109.15 4.30959 110.3 3.73959 111.72C1.74959 116.65 -1.57041 118.69 -6.81041 117.2L-6.82041 117.22Z" fill="#34322D"/>
<path d="M-6.82073 117.22C-1.58073 118.71 1.73927 116.66 3.72927 111.74C4.29927 110.32 5.53927 109.17 6.47927 107.9C7.58927 106.4 8.36927 106.68 9.13927 108.26C10.4093 110.9 11.4593 113.61 11.8293 116.51C12.0793 118.48 13.1093 119.36 14.9793 119.78C17.8093 120.42 20.5893 121.28 23.3793 122.06C24.0793 122.25 24.9493 122.26 25.0293 123.28C25.0993 124.11 24.3993 124.38 23.8493 124.73C21.5493 126.22 19.2893 127.79 16.9093 129.15C15.0693 130.2 14.5293 131.62 15.0593 133.53C15.8493 136.36 16.0293 139.26 16.1893 142.17C16.2293 142.9 16.5393 143.73 15.6893 144.18C14.8893 144.6 14.2593 143.99 13.6493 143.6C10.9893 141.89 8.33927 140.16 5.96927 138.05C4.54927 136.78 3.17927 136.56 1.43927 137.42C-1.83073 139.04 -5.28073 140.26 -8.78073 141.33C-9.41073 141.52 -10.0307 141.95 -10.6407 141.38C-11.3607 140.69 -10.8307 140.01 -10.5307 139.34C-9.24073 136.45 -7.89073 133.6 -6.19073 130.93C-5.02073 129.09 -5.22073 127.59 -6.84073 126.08C-9.03073 124.04 -11.0907 121.85 -13.2007 119.72C-13.6707 119.25 -14.2207 118.77 -13.9707 118.01C-13.6607 117.04 -12.7907 117.25 -12.0807 117.24C-10.3307 117.21 -8.58073 117.24 -6.83073 117.24L-6.82073 117.22Z" fill="#F1BFA3"/>
</g>
<g opacity="0.37" clip-path="url(#clip5_194_35639)">
<path d="M-5.37555 823.451C1.66792 826.213 6.88462 822.499 10.3499 814.565C11.6117 811.653 14.0411 809.189 16.1315 806.688C19.3896 802.787 23.5893 803.16 25.9058 807.547C28.5989 812.643 30.953 817.944 31.518 823.693C31.8193 826.829 33.3259 827.912 36.0567 828.547C41.0662 829.723 46.0192 831.085 50.9911 832.392C53.816 833.139 56.4715 834.203 56.9234 837.525C57.3566 840.643 55.2662 842.267 52.8932 843.741C48.6558 846.373 44.5503 849.248 40.2376 851.749C37.9965 853.056 37.2996 854.307 37.9964 856.957C39.4277 862.52 40.0492 868.232 40.1622 874C40.2187 876.613 40.0681 879.04 37.3938 880.384C34.7949 881.691 32.6103 880.608 30.4068 879.189C25.2843 875.885 20.1241 872.619 15.5666 868.587C13.6268 866.869 11.9318 866.739 9.69071 867.859C3.81486 870.771 -2.4188 872.824 -8.63364 874.896C-11.4962 875.848 -14.4341 876.744 -16.8447 873.944C-19.1047 871.331 -18.0124 868.811 -16.6564 866.216C-14.0387 861.288 -11.7222 856.192 -8.89729 851.376C-7.33417 848.707 -7.59783 847.101 -9.89544 845.029C-14.0575 841.259 -17.8994 837.152 -21.8354 833.157C-23.5869 831.384 -24.6415 829.368 -23.5869 826.867C-22.5511 824.421 -20.5172 823.451 -17.9559 823.432C-14.3588 823.413 -10.7429 823.432 -5.37555 823.432V823.451ZM-6.71269 826.811C-10.0084 826.811 -13.3042 826.773 -16.5999 826.811C-17.9371 826.829 -19.5755 826.437 -20.1593 828.248C-20.6113 829.685 -19.5943 830.563 -18.7092 831.44C-14.7355 835.416 -10.8559 839.504 -6.73152 843.312C-3.6806 846.131 -3.30394 848.912 -5.50739 852.365C-8.70897 857.349 -11.2514 862.669 -13.6808 868.064C-14.2458 869.315 -15.244 870.584 -13.888 871.872C-12.758 872.955 -11.5716 872.152 -10.3851 871.779C-3.7936 869.781 2.6849 867.504 8.86207 864.48C12.139 862.875 14.7379 863.285 17.3933 865.656C21.8379 869.595 26.8474 872.824 31.8569 876.016C33.0058 876.744 34.1922 877.901 35.6988 877.099C37.2996 876.259 36.7158 874.709 36.6405 873.347C36.3203 867.915 35.9813 862.501 34.5124 857.219C33.5142 853.653 34.5312 850.984 37.9964 849.043C42.4787 846.504 46.7349 843.573 51.0664 840.792C52.1022 840.139 53.4017 839.635 53.2887 838.085C53.138 836.2 51.4996 836.181 50.1813 835.808C44.9081 834.352 39.6726 832.747 34.3617 831.552C30.84 830.768 28.9002 829.125 28.4294 825.448C27.7326 820.016 25.7551 814.957 23.3633 810.048C21.9132 807.08 20.4443 806.576 18.3538 809.376C16.5835 811.747 14.2483 813.893 13.1748 816.544C9.42705 825.747 3.17455 829.555 -6.69385 826.773L-6.71269 826.811Z" fill="#34322D"/>
<path d="M-6.71374 826.809C3.15466 829.59 9.40716 825.764 13.1549 816.58C14.2284 813.929 16.5636 811.782 18.3339 809.412C20.4244 806.612 21.8933 807.134 23.3435 810.084C25.7352 815.012 27.7127 820.07 28.4095 825.484C28.8803 829.161 30.8201 830.804 34.3418 831.588C39.6715 832.782 44.9071 834.388 50.1614 835.844C51.4797 836.198 53.1182 836.217 53.2688 838.121C53.4007 839.67 52.0824 840.174 51.0466 840.828C46.715 843.609 42.4588 846.54 37.9766 849.078C34.5113 851.038 33.4944 853.689 34.4925 857.254C35.9803 862.537 36.3193 867.95 36.6206 873.382C36.6959 874.745 37.2798 876.294 35.679 877.134C34.1723 877.918 32.9859 876.78 31.8371 876.052C26.8275 872.86 21.8368 869.63 17.3734 865.692C14.6992 863.321 12.1191 862.91 8.84218 864.516C2.68384 867.54 -3.81348 869.817 -10.405 871.814C-11.5914 872.169 -12.7591 872.972 -13.9079 871.908C-15.2638 870.62 -14.2657 869.35 -13.7007 868.1C-11.2713 862.705 -8.72885 857.385 -5.52727 852.401C-3.32383 848.966 -3.70049 846.166 -6.75141 843.348C-10.8758 839.54 -14.7554 835.452 -18.7291 831.476C-19.6142 830.598 -20.65 829.702 -20.1792 828.284C-19.5954 826.473 -17.9569 826.865 -16.6198 826.846C-13.3241 826.79 -10.0283 826.846 -6.73257 826.846L-6.71374 826.809Z" fill="#F1BFA3"/>
</g>
<g opacity="0.37" clip-path="url(#clip6_194_35639)">
<path d="M51.4272 789.852C54.9925 791.251 57.633 789.37 59.387 785.351C60.0257 783.876 61.2554 782.628 62.3135 781.362C63.9627 779.386 66.0885 779.575 67.261 781.796C68.6242 784.378 69.8157 787.063 70.1017 789.975C70.2543 791.563 71.0169 792.111 72.3991 792.433C74.9348 793.028 77.4419 793.719 79.9585 794.38C81.3884 794.759 82.7325 795.298 82.9613 796.98C83.1806 798.559 82.1224 799.382 80.9213 800.129C78.7765 801.462 76.6983 802.918 74.5154 804.185C73.381 804.847 73.0283 805.48 73.381 806.823C74.1054 809.64 74.42 812.533 74.4772 815.455C74.5058 816.778 74.4296 818.007 73.0759 818.688C71.7604 819.35 70.6546 818.802 69.5393 818.083C66.9464 816.41 64.3345 814.755 62.0276 812.713C61.0457 811.843 60.1878 811.777 59.0534 812.344C56.0792 813.819 52.9239 814.859 49.7781 815.908C48.3291 816.391 46.842 816.844 45.6218 815.426C44.4779 814.103 45.0308 812.826 45.7172 811.512C47.0422 809.016 48.2147 806.435 49.6446 803.996C50.4358 802.644 50.3024 801.831 49.1394 800.781C47.0327 798.871 45.088 796.791 43.0957 794.768C42.2091 793.87 41.6753 792.849 42.2091 791.582C42.7334 790.343 43.763 789.852 45.0594 789.842C46.8802 789.833 48.7104 789.842 51.4272 789.842V789.852ZM50.7504 791.554C49.0822 791.554 47.414 791.535 45.7458 791.554C45.0689 791.563 44.2396 791.364 43.9441 792.282C43.7153 793.01 44.2301 793.454 44.6781 793.898C46.6895 795.912 48.6532 797.983 50.7409 799.911C52.2852 801.339 52.4758 802.748 51.3605 804.497C49.74 807.021 48.453 809.716 47.2233 812.448C46.9373 813.082 46.4321 813.724 47.1185 814.377C47.6904 814.925 48.291 814.519 48.8915 814.33C52.228 813.318 55.5072 812.164 58.6339 810.633C60.2926 809.82 61.6081 810.028 62.9522 811.228C65.2019 813.223 67.7376 814.859 70.2733 816.476C70.8548 816.844 71.4554 817.431 72.218 817.024C73.0283 816.599 72.7327 815.814 72.6946 815.124C72.5326 812.372 72.361 809.631 71.6174 806.955C71.1122 805.149 71.627 803.797 73.381 802.814C75.6497 801.528 77.8041 800.044 79.9966 798.635C80.5209 798.304 81.1787 798.049 81.1215 797.264C81.0452 796.309 80.2159 796.3 79.5486 796.111C76.8795 795.373 74.2294 794.56 71.5412 793.955C69.7586 793.558 68.7767 792.726 68.5384 790.863C68.1857 788.112 67.1847 785.55 65.9741 783.063C65.2401 781.56 64.4965 781.305 63.4384 782.723C62.5423 783.924 61.3603 785.011 60.8169 786.354C58.9199 791.015 55.7551 792.943 50.7599 791.535L50.7504 791.554Z" fill="#34322D"/>
<path d="M50.7504 791.552C55.7455 792.961 58.9104 791.022 60.8074 786.371C61.3507 785.028 62.5328 783.941 63.4289 782.74C64.487 781.322 65.2305 781.587 65.9646 783.081C67.1752 785.577 68.1761 788.139 68.5288 790.881C68.7672 792.743 69.749 793.575 71.5316 793.972C74.2294 794.577 76.8795 795.39 79.5391 796.128C80.2064 796.307 81.0357 796.317 81.112 797.281C81.1787 798.066 80.5114 798.321 79.9871 798.652C77.7946 800.061 75.6402 801.545 73.3714 802.831C71.6174 803.824 71.1027 805.166 71.6079 806.972C72.361 809.648 72.5326 812.39 72.6851 815.141C72.7232 815.831 73.0187 816.616 72.2084 817.041C71.4458 817.438 70.8453 816.862 70.2638 816.493C67.7281 814.876 65.2019 813.241 62.9427 811.246C61.5891 810.045 60.2831 809.837 58.6244 810.65C55.5072 812.182 52.2184 813.335 48.882 814.347C48.2815 814.526 47.6904 814.933 47.1089 814.394C46.4226 813.742 46.9278 813.099 47.2138 812.465C48.4435 809.733 49.7304 807.038 51.351 804.514C52.4663 802.774 52.2756 801.356 50.7313 799.929C48.6437 798 46.68 795.929 44.6686 793.915C44.2205 793.471 43.6962 793.017 43.9346 792.299C44.2301 791.382 45.0594 791.58 45.7362 791.571C47.4044 791.542 49.0727 791.571 50.7409 791.571L50.7504 791.552Z" fill="#F1BFA3"/>
</g>
<g clip-path="url(#clip7_194_35639)">
<path d="M377.231 414.019C380.798 413.766 384.481 413.641 388.169 413.675C391.754 413.704 395.329 413.864 398.897 414.262C401.642 414.568 402.511 416.117 401.281 418.631C399.273 422.745 397.137 426.786 394.762 430.699C393.406 432.934 393.736 433.567 396.396 433.914C400.87 434.497 405.279 435.411 409.654 436.506C410.798 436.794 411.633 437.336 411.882 438.553C412.132 439.77 411.574 440.597 410.625 441.298C398.991 449.889 386.649 457.341 373.842 464.037C372.638 464.666 371.507 464.426 370.651 463.403C369.721 462.292 369.915 461.155 370.788 460.052C374.591 455.271 378.587 450.662 383.039 446.467C383.666 445.877 384.458 445.352 384.005 444.279C383.556 443.225 382.625 443.423 381.766 443.41C378.9 443.367 376.04 443.252 373.198 442.851C371.04 442.542 370.24 441.511 370.561 439.374C371.721 431.616 373.245 423.933 375.1 416.315C375.376 415.174 375.941 414.352 377.231 414.019ZM371.917 463.026C372.837 463.29 373.343 463.008 373.824 462.751C386.312 456.205 398.349 448.924 409.716 440.552C410.319 440.109 410.903 439.691 410.763 438.834C410.605 437.886 409.824 437.712 409.065 437.526C404.731 436.465 400.369 435.558 395.939 434.995C392.905 434.614 392.091 432.935 393.673 430.307C396.033 426.386 398.206 422.361 400.208 418.248C401.189 416.235 400.802 415.553 398.548 415.365C395.994 415.155 393.436 415.048 390.886 414.85C390.051 414.787 389.638 415.057 389.284 415.854C386.403 422.387 383.651 428.969 381.166 435.664C380.513 437.423 380.72 437.789 382.533 438.261C386.411 439.266 390.359 439.869 394.35 440.173C395.334 440.247 396.2 440.501 396.5 441.57C396.802 442.626 396.255 443.328 395.43 443.894C388.475 448.638 382.094 454.097 375.773 459.636C374.548 460.711 373.328 461.786 371.917 463.026ZM371.447 462.558C371.788 462.281 372.076 462.07 372.34 461.84C379.667 455.361 387.025 448.925 395.096 443.364C395.684 442.958 396.141 442.471 395.905 441.71C395.668 440.944 394.974 440.836 394.29 440.783C390.298 440.473 386.355 439.869 382.48 438.876C380.157 438.285 379.791 437.61 380.624 435.356C382.646 429.864 384.889 424.46 387.205 419.087C387.805 417.701 388.398 416.315 389.024 414.838C385.266 414.734 381.743 414.911 378.213 415.059C377.025 415.109 376.394 415.636 376.112 416.848C374.349 424.333 372.84 431.859 371.669 439.454C371.445 440.907 371.988 441.553 373.387 441.721C376.24 442.068 379.091 442.269 381.96 442.228C383.341 442.209 384.564 442.482 385.115 443.893C385.668 445.316 384.88 446.306 383.878 447.239C379.503 451.291 375.627 455.798 371.904 460.449C371.468 460.994 370.904 461.534 371.445 462.552L371.447 462.558Z" fill="#34322D"/>
<path d="M371.916 463.026C373.322 461.787 374.547 460.712 375.773 459.636C382.094 454.097 388.474 448.639 395.429 443.894C396.255 443.328 396.801 442.626 396.499 441.57C396.194 440.502 395.328 440.249 394.349 440.173C390.359 439.869 386.41 439.266 382.532 438.262C380.719 437.789 380.513 437.423 381.165 435.664C383.651 428.969 386.403 422.387 389.283 415.855C389.632 415.059 390.051 414.787 390.885 414.85C393.436 415.049 395.999 415.154 398.547 415.365C400.801 415.553 401.188 416.235 400.207 418.248C398.205 422.361 396.033 426.386 393.673 430.307C392.09 432.935 392.904 434.614 395.938 434.995C400.368 435.558 404.729 436.459 409.065 437.526C409.823 437.713 410.605 437.887 410.763 438.834C410.903 439.691 410.319 440.109 409.716 440.552C398.354 448.923 386.318 456.204 373.823 462.752C373.341 463.002 372.837 463.29 371.916 463.026Z" fill="#F1BFA3"/>
<path d="M371.447 462.558C370.914 461.545 371.472 461.005 371.905 460.455C375.622 455.806 379.505 451.297 383.88 447.244C384.881 446.312 385.672 445.327 385.116 443.898C384.566 442.487 383.343 442.215 381.962 442.233C379.092 442.274 376.235 442.075 373.389 441.727C371.982 441.554 371.446 440.912 371.67 439.46C372.842 431.865 374.357 424.338 376.113 416.854C376.395 415.642 377.027 415.115 378.214 415.065C381.745 414.917 385.268 414.74 389.026 414.844C388.392 416.317 387.806 417.706 387.207 419.093C384.891 424.466 382.647 429.87 380.625 435.362C379.794 437.622 380.158 438.291 382.482 438.882C386.362 439.873 390.305 440.477 394.291 440.788C394.976 440.841 395.669 440.949 395.907 441.716C396.144 442.483 395.685 442.963 395.098 443.37C387.027 448.93 379.67 455.372 372.342 461.845C372.078 462.076 371.795 462.285 371.448 462.564L371.447 462.558Z" fill="#F1BFA3"/>
</g>
</g>
</g>
<defs>
<filter id="filter0_f_194_35639" x="-92.4" y="332.6" width="579.799" height="580.404" filterUnits="userSpaceOnUse" color-interpolation-filters="sRGB">
<feFlood flood-opacity="0" result="BackgroundImageFix"/>
<feBlend mode="normal" in="SourceGraphic" in2="BackgroundImageFix" result="shape"/>
<feGaussianBlur stdDeviation="5.7" result="effect1_foregroundBlur_194_35639"/>
</filter>
<clipPath id="clip0_194_35639">
<rect width="390" height="822" fill="white"/>
</clipPath>
<clipPath id="clip1_194_35639">
<rect width="1075" height="607.386" fill="white" transform="translate(492.387 -254) rotate(90)"/>
</clipPath>
<clipPath id="clip2_194_35639">
<rect width="60.6" height="68" fill="white" transform="translate(7 547)"/>
</clipPath>
<clipPath id="clip3_194_35639">
<rect width="60.6" height="68" fill="white" transform="matrix(-1 0 0 -1 380.6 145)"/>
</clipPath>
<clipPath id="clip4_194_35639">
<rect width="43.01" height="41.25" fill="white" transform="translate(-16 105)"/>
</clipPath>
<clipPath id="clip5_194_35639">
<rect width="81" height="77" fill="white" transform="translate(-24 804)"/>
</clipPath>
<clipPath id="clip6_194_35639">
<rect width="41" height="39" fill="white" transform="translate(42 780)"/>
</clipPath>
<clipPath id="clip7_194_35639">
<rect width="46.5292" height="47.5101" fill="white" transform="translate(358.482 419.043) rotate(-15)"/>
</clipPath>
</defs>
</svg>
