<svg width="36" height="36" viewBox="0 0 36 36" fill="none" xmlns="http://www.w3.org/2000/svg">
<path d="M0 18C0 27.9411 8.05888 36 18 36C27.9411 36 36 27.9411 36 18C36 8.05888 27.9411 0 18 0C8.05888 0 0 8.05888 0 18Z" fill="#313131"/>
<path d="M11.0909 24.0029H13.6364V17.8211L10 15.0938V22.912C10 23.5147 10.4882 24.0029 11.0909 24.0029Z" fill="white"/>
<path d="M22.3636 24.0029H24.9091C25.5118 24.0029 26 23.5147 26 22.912V15.0938L22.3636 17.8211V24.0029Z" fill="white"/>
<path d="M22.3636 13.0938V17.8211L26 15.0938V13.6393C26 12.2911 24.4609 11.5211 23.3818 12.3302L22.3636 13.0938Z" fill="white"/>
<path fill-rule="evenodd" clip-rule="evenodd" d="M13.6364 17.8211V13.0938L18 16.3666L22.3636 13.0938V17.8211L18 21.0938L13.6364 17.8211Z" fill="white"/>
<path d="M10 13.6393V15.0938L13.6364 17.8211V13.0938L12.6182 12.3302C11.5391 11.5211 10 12.2911 10 13.6393Z" fill="white"/>
</svg>
