<svg width="36" height="36" viewBox="0 0 36 36" fill="none" xmlns="http://www.w3.org/2000/svg">
<path d="M0 18C0 27.9411 8.05888 36 18 36C27.9411 36 36 27.9411 36 18C36 8.05888 27.9411 0 18 0C8.05888 0 0 8.05888 0 18Z" fill="#313131"/>
<path d="M18 10.3496C20.475 10.3496 20.8125 10.3496 21.825 10.3496C22.725 10.3496 23.175 10.5746 23.5125 10.6871C23.9625 10.9121 24.3 11.0246 24.6375 11.3621C24.975 11.6996 25.2 12.0371 25.3125 12.4871C25.425 12.8246 25.5375 13.2746 25.65 14.1746C25.65 15.1871 25.65 15.4121 25.65 17.9996C25.65 20.5871 25.65 20.8121 25.65 21.8246C25.65 22.7246 25.425 23.1746 25.3125 23.5121C25.0875 23.9621 24.975 24.2996 24.6375 24.6371C24.3 24.9746 23.9625 25.1996 23.5125 25.3121C23.175 25.4246 22.725 25.5371 21.825 25.6496C20.8125 25.6496 20.5875 25.6496 18 25.6496C15.4125 25.6496 15.1875 25.6496 14.175 25.6496C13.275 25.6496 12.825 25.4246 12.4875 25.3121C12.0375 25.0871 11.7 24.9746 11.3625 24.6371C11.025 24.2996 10.8 23.9621 10.6875 23.5121C10.575 23.1746 10.4625 22.7246 10.35 21.8246C10.35 20.8121 10.35 20.5871 10.35 17.9996C10.35 15.4121 10.35 15.1871 10.35 14.1746C10.35 13.2746 10.575 12.8246 10.6875 12.4871C10.9125 12.0371 11.025 11.6996 11.3625 11.3621C11.7 11.0246 12.0375 10.7996 12.4875 10.6871C12.825 10.5746 13.275 10.4621 14.175 10.3496C15.1875 10.3496 15.525 10.3496 18 10.3496ZM18 8.66211C15.4125 8.66211 15.1875 8.66211 14.175 8.66211C13.1625 8.66211 12.4875 8.88711 11.925 9.11211C11.3625 9.33711 10.8 9.67461 10.2375 10.2371C9.67498 10.7996 9.44998 11.2496 9.11248 11.9246C8.88748 12.4871 8.77498 13.1621 8.66248 14.1746C8.66248 15.1871 8.66248 15.5246 8.66248 17.9996C8.66248 20.5871 8.66248 20.8121 8.66248 21.8246C8.66248 22.8371 8.88748 23.5121 9.11248 24.0746C9.33748 24.6371 9.67498 25.1996 10.2375 25.7621C10.8 26.3246 11.25 26.5496 11.925 26.8871C12.4875 27.1121 13.1625 27.2246 14.175 27.3371C15.1875 27.3371 15.525 27.3371 18 27.3371C20.475 27.3371 20.8125 27.3371 21.825 27.3371C22.8375 27.3371 23.5125 27.1121 24.075 26.8871C24.6375 26.6621 25.2 26.3246 25.7625 25.7621C26.325 25.1996 26.55 24.7496 26.8875 24.0746C27.1125 23.5121 27.225 22.8371 27.3375 21.8246C27.3375 20.8121 27.3375 20.4746 27.3375 17.9996C27.3375 15.5246 27.3375 15.1871 27.3375 14.1746C27.3375 13.1621 27.1125 12.4871 26.8875 11.9246C26.6625 11.3621 26.325 10.7996 25.7625 10.2371C25.2 9.67461 24.75 9.44961 24.075 9.11211C23.5125 8.88711 22.8375 8.77461 21.825 8.66211C20.8125 8.66211 20.5875 8.66211 18 8.66211Z" fill="white"/>
<path d="M18 13.1621C15.3 13.1621 13.1625 15.2996 13.1625 17.9996C13.1625 20.6996 15.3 22.8371 18 22.8371C20.7 22.8371 22.8375 20.6996 22.8375 17.9996C22.8375 15.2996 20.7 13.1621 18 13.1621ZM18 21.1496C16.3125 21.1496 14.85 19.7996 14.85 17.9996C14.85 16.3121 16.2 14.8496 18 14.8496C19.6875 14.8496 21.15 16.1996 21.15 17.9996C21.15 19.6871 19.6875 21.1496 18 21.1496Z" fill="white"/>
<path d="M22.95 14.1746C23.5713 14.1746 24.075 13.6709 24.075 13.0496C24.075 12.4283 23.5713 11.9246 22.95 11.9246C22.3287 11.9246 21.825 12.4283 21.825 13.0496C21.825 13.6709 22.3287 14.1746 22.95 14.1746Z" fill="white"/>
</svg>
