<svg width="121" height="63" viewBox="0 0 121 63" fill="none" xmlns="http://www.w3.org/2000/svg">
<path d="M62.8635 21.5527C82.4911 30.4642 116.133 36.0127 116.133 36.0127L116.572 43.3701L59.1419 42.1541L27.9269 41.3662L1.73938 44.2736L0.890723 41.145C0.890723 41.145 12.8419 35.9993 20.3893 27.1071C27.0492 19.2604 31.9803 3.43855 31.9803 3.43855C31.9803 3.43855 50.1322 15.7722 62.8635 21.5527Z" fill="#F5F5F5"/>
<path d="M32.2662 3.63788C49.5793 21.1969 81.8502 34.1031 101.611 36.6012L101.801 43.4491C101.851 45.0424 98.0426 50.4008 91.3102 49.4956C84.5778 48.5905 82.4833 44.3424 81.1645 43.5305L80.8606 36.3499C64.8088 34.1919 30.5611 4.51926 32.2662 3.63788Z" fill="#1A73B3"/>
<path d="M80.8552 36.3482L101.45 36.5785L101.754 43.759C100.865 45.6492 97.8697 49.5197 92.998 49.8802C88.1263 50.2407 83.0755 45.7961 81.1591 43.5287L80.8552 36.3482Z" fill="#054B74"/>
<path d="M39.8201 35.9087L60.4149 36.139L60.7188 43.3196C59.83 45.2098 56.8346 49.0803 51.9628 49.4407C47.0911 49.8012 42.0404 45.3566 40.124 43.0893L39.8201 35.9087Z" fill="#054B74"/>
<path d="M30.8899 15.0328C29.8507 22.7626 22.8771 32.1485 19.5202 35.8752L10.962 41.7057L1.06007 41.0091C21.56 32.9763 30.0924 12.7043 31.7961 3.57244C31.927 4.1718 31.9292 7.30298 30.8899 15.0328Z" fill="#1A73B3"/>
<path d="M0.880071 41.1398L19.6463 35.7298L19.8426 42.89C19.0083 44.7859 16.2247 48.6814 11.765 49.0964C7.30538 49.5115 2.73666 45.1348 1.00976 42.8946L0.880071 41.1398Z" fill="#054B74"/>
<path d="M39.9582 36.0838C40.4055 29.9244 34.9243 11.7667 32.1068 3.61357C37.9857 15.3515 49.6821 26.0964 60.3972 36.2931L39.9582 36.0838Z" fill="#1A73B3"/>
<path d="M60.4236 36.1373L81.0184 36.3675L81.3223 43.5481C80.4335 45.4383 77.4381 49.3088 72.5664 49.6693C67.6946 50.0297 62.6439 45.5852 60.7275 43.3178L60.4236 36.1373Z" fill="#C4C4C4"/>
<path d="M19.5408 35.7193L40.1356 35.9496L40.4395 43.1301C39.5507 45.0203 36.5553 48.8908 31.6835 49.2513C26.8118 49.6117 21.7611 45.1672 19.8447 42.8998L19.5408 35.7193Z" fill="#C4C4C4"/>
<path d="M101.302 36.5497L116.611 36.0714L116.591 43.2025C115.865 45.113 113.504 49.0653 109.868 49.5911C106.233 50.1169 102.629 45.87 101.281 43.6808L101.302 36.5497Z" fill="#C4C4C4"/>
</svg>
