<svg width="121" height="63" viewBox="0 0 121 63" fill="none" xmlns="http://www.w3.org/2000/svg">
<path d="M57.4797 21.5527C37.8522 30.4642 4.21016 36.0127 4.21016 36.0127L3.77137 43.3701L61.2014 42.1541L92.4164 41.3662L118.604 44.2736L119.453 41.145C119.453 41.145 107.501 35.9993 99.954 27.1071C93.294 19.2604 88.363 3.43855 88.363 3.43855C88.363 3.43855 70.2111 15.7722 57.4797 21.5527Z" fill="#F5F5F5"/>
<path d="M88.0771 3.63788C70.7639 21.1969 38.4931 34.1031 18.732 36.6012L18.542 43.4491C18.4918 45.0424 22.3007 50.4008 29.0331 49.4956C35.7655 48.5905 37.86 44.3424 39.1788 43.5305L39.4827 36.3499C55.5345 34.1919 89.7822 4.51926 88.0771 3.63788Z" fill="#1A73B3"/>
<path d="M39.488 36.3482L18.8932 36.5785L18.5893 43.759C19.4781 45.6492 22.4735 49.5197 27.3453 49.8802C32.217 50.2407 37.2677 45.7961 39.1841 43.5287L39.488 36.3482Z" fill="#054B74"/>
<path d="M80.5232 35.9087L59.9284 36.139L59.6245 43.3196C60.5132 45.2098 63.5087 49.0803 68.3804 49.4407C73.2521 49.8012 78.3029 45.3566 80.2193 43.0893L80.5232 35.9087Z" fill="#054B74"/>
<path d="M89.4533 15.0328C90.4925 22.7626 97.4662 32.1485 100.823 35.8752L109.381 41.7057L119.283 41.0091C98.7833 32.9763 90.2509 12.7043 88.5472 3.57244C88.4162 4.1718 88.4141 7.30298 89.4533 15.0328Z" fill="#1A73B3"/>
<path d="M119.463 41.1398L100.697 35.7298L100.501 42.89C101.335 44.7859 104.119 48.6814 108.578 49.0964C113.038 49.5115 117.607 45.1348 119.334 42.8946L119.463 41.1398Z" fill="#054B74"/>
<path d="M80.3851 36.0838C79.9378 29.9244 85.419 11.7667 88.2365 3.61357C82.3575 15.3515 70.6612 26.0964 59.9461 36.2931L80.3851 36.0838Z" fill="#1A73B3"/>
<path d="M59.9197 36.1373L39.3249 36.3675L39.021 43.5481C39.9097 45.4383 42.9052 49.3088 47.7769 49.6693C52.6486 50.0297 57.6994 45.5852 59.6158 43.3178L59.9197 36.1373Z" fill="#C4C4C4"/>
<path d="M100.802 35.7193L80.2077 35.9496L79.9038 43.1301C80.7925 45.0203 83.788 48.8908 88.6597 49.2513C93.5314 49.6117 98.5822 45.1672 100.499 42.8998L100.802 35.7193Z" fill="#C4C4C4"/>
<path d="M19.0415 36.5497L3.73205 36.0714L3.75262 43.2025C4.47855 45.113 6.83933 49.0653 10.475 49.5911C14.1107 50.1169 17.7146 45.87 19.0621 43.6808L19.0415 36.5497Z" fill="#C4C4C4"/>
</svg>
