<svg width="72" height="72" viewBox="0 0 72 72" fill="none" xmlns="http://www.w3.org/2000/svg">
<path d="M68.9602 30.7726C70.3466 34.1196 70.3466 37.8804 68.9602 41.2274L63.0027 55.61C61.6163 58.9571 58.9571 61.6163 55.61 63.0027L41.2274 68.9602C37.8804 70.3466 34.1196 70.3466 30.7726 68.9602L16.39 63.0027C13.0429 61.6163 10.3837 58.9571 8.99727 55.61L3.0398 41.2274C1.6534 37.8804 1.6534 34.1196 3.0398 30.7726L8.99728 16.39C10.3837 13.0429 13.0429 10.3837 16.39 8.99727L30.7726 3.0398C34.1196 1.6534 37.8804 1.6534 41.2274 3.0398L55.61 8.99728C58.9571 10.3837 61.6163 13.0429 63.0027 16.39L68.9602 30.7726Z" fill="#76CFED"/>
<path d="M58.5608 29.1431C53.2173 27.7554 47.8738 30.2925 46.6463 34.8201C46.3863 35.7453 46.3285 36.6704 46.4296 37.5815C46.704 39.9925 45.592 42.3754 43.4546 43.637C41.0284 45.0527 39.2376 47.1974 38.5011 49.8607C36.8114 55.9862 41.4616 62.4902 48.8559 64.4106C56.2501 66.331 63.6154 62.9248 65.3051 56.8132C66.0416 54.15 65.5795 51.4166 64.2075 49.0196C63.0089 46.903 63.2688 44.2958 64.7419 42.3334C65.2907 41.6045 65.7239 40.7634 65.9694 39.8383C67.2114 35.3247 63.9043 30.5308 58.5608 29.1431Z" fill="#054B74"/>
<path d="M56.5959 28.7935C51.2525 27.4058 45.909 29.9429 44.6814 34.4705C44.4215 35.3956 44.3637 36.3208 44.4648 37.2319C44.7392 39.6429 43.6272 42.0258 41.4898 43.2734C39.0636 44.6891 37.2728 46.8338 36.5362 49.497C34.8465 55.6226 39.4968 62.1266 46.891 64.047C54.2852 65.9673 61.6506 62.5611 63.3403 56.4496C64.0768 53.7863 63.6147 51.053 62.2427 48.656C61.044 46.5394 61.304 43.9322 62.777 41.9698C63.3258 41.2409 63.7591 40.3998 64.0046 39.4747C65.2466 34.9751 61.9394 30.1812 56.5959 28.7935Z" fill="#7EAD00"/>
<path d="M55.1572 47.1971C57.6123 45.8128 58.4497 42.7673 57.0414 40.3863C55.614 38.0053 52.4737 37.1932 50.0185 38.559C47.5634 39.9433 46.726 42.9888 48.1343 45.3698C49.5427 47.7508 52.7021 48.5814 55.1572 47.1971Z" fill="#054B74"/>
<path d="M56.2039 48.9252C52.76 50.8535 48.3519 49.708 46.3643 46.3858C44.3767 43.0637 45.5575 38.7678 48.9816 36.8394C52.4058 34.9111 56.8336 36.0566 58.8015 39.3788C60.8088 42.72 59.6281 46.9968 56.2039 48.9252ZM49.5326 37.7177C46.6005 39.3597 45.5968 43.0255 47.2892 45.8703C48.9816 48.7152 52.76 49.6889 55.6922 48.0469C58.6244 46.4049 59.6281 42.7391 57.9356 39.8943C56.2236 37.0494 52.4648 36.0757 49.5326 37.7177Z" fill="#1A73B3"/>
<path d="M59.4255 4.61279L57.5625 11.3551L58.5301 14.3127L60.552 14.8454L62.5738 15.3781L64.9423 13.2755L66.8053 6.53316C66.993 5.84631 66.5742 5.13143 65.8521 4.9492L61.0141 3.70167C60.3064 3.51944 59.5699 3.92594 59.3822 4.62681L59.4255 4.61279Z" fill="#054B74"/>
<path d="M59.0511 13.5996L63.3259 14.6509L56.7116 40.1203C56.596 40.5548 56.1483 40.8072 55.7006 40.695L53.0433 40.0362C52.5956 39.9241 52.3357 39.4895 52.4512 39.055L59.0511 13.5996Z" fill="#054B74"/>
<path d="M57.9843 13.0918C59.5873 13.4562 61.1904 13.8347 62.7934 14.1992C60.5116 22.8338 58.2298 31.4825 55.948 40.1171C55.8324 40.5517 55.3847 40.804 54.9371 40.6918L51.3988 39.7807C50.9511 39.6686 50.6912 39.234 50.8067 38.7995C53.1896 30.2209 55.5869 21.6564 57.9843 13.0918Z" fill="#7EAD00"/>
<path d="M66.3311 4.95117L66.7643 5.68007L66.1289 5.55391L66.3311 4.95117Z" fill="#4F6D01"/>
<path fill-rule="evenodd" clip-rule="evenodd" d="M62.0725 5.97074C60.6646 5.60319 59.258 5.23599 57.8516 4.87156L57.8786 4.77344C59.2855 5.138 60.6921 5.50522 62.1 5.87275C63.8864 6.33911 65.6748 6.80596 67.4679 7.2685L67.441 7.36665C65.648 6.90414 63.8592 6.43717 62.0725 5.97074Z" fill="#054B74"/>
<path d="M67.7012 6.53263L67.4124 6.46254C67.1957 6.40647 66.9791 6.53263 66.9213 6.74288L66.6758 7.63999C66.6181 7.85025 66.748 8.06051 66.9647 8.11658L67.2535 8.18666C67.4701 8.24273 67.6868 8.11658 67.7445 7.90632L67.99 7.00921C68.0334 6.79895 67.9034 6.58869 67.7012 6.53263Z" fill="#1A73B3"/>
<path d="M58.2129 4.03849L57.9241 3.9684C57.7075 3.91233 57.4908 4.03849 57.4331 4.24874L57.1876 5.14585C57.1298 5.35611 57.2598 5.56637 57.4764 5.62244L57.7652 5.69252C57.9819 5.74859 58.1985 5.62244 58.2563 5.41218L58.5018 4.51507C58.5451 4.30481 58.4151 4.09455 58.2129 4.03849Z" fill="#1A73B3"/>
<path fill-rule="evenodd" clip-rule="evenodd" d="M61.4514 8.73247C60.0435 8.36492 58.6369 7.99771 57.2305 7.63328L57.2575 7.53516C58.6644 7.89972 60.0711 8.26694 61.4789 8.63448C63.2654 9.10083 65.0537 9.56768 66.8468 10.0302L66.8199 10.1284C65.0269 9.66586 63.2381 9.19889 61.4514 8.73247Z" fill="#054B74"/>
<path d="M67.0801 9.29434L66.7913 9.22426C66.5746 9.16819 66.358 9.29434 66.3003 9.5046L66.0547 10.4017C65.997 10.612 66.1269 10.8222 66.3436 10.8783L66.6324 10.9484C66.849 11.0045 67.0657 10.8783 67.1234 10.668L67.369 9.77093C67.4123 9.56067 67.2823 9.35041 67.0801 9.29434Z" fill="#1A73B3"/>
<path d="M57.5918 6.8002L57.303 6.73012C57.0864 6.67405 56.8697 6.8002 56.812 7.01046L56.5665 7.90757C56.5087 8.11783 56.6387 8.32809 56.8553 8.38416L57.1441 8.45424C57.3608 8.51031 57.5774 8.38416 57.6352 8.1739L57.8807 7.27679C57.924 7.06653 57.794 6.85627 57.5918 6.8002Z" fill="#1A73B3"/>
<path fill-rule="evenodd" clip-rule="evenodd" d="M60.6741 11.4375C59.2662 11.07 57.8595 10.7028 56.4531 10.3384L56.4801 10.2402C57.887 10.6048 59.2937 10.972 60.7016 11.3396C62.488 11.8059 64.2763 12.2728 66.0694 12.7353L66.0426 12.8335C64.2495 12.3709 62.4608 11.904 60.6741 11.4375Z" fill="#054B74"/>
<path d="M66.3028 11.9994L66.0139 11.9293C65.7973 11.8733 65.5807 11.9994 65.5229 12.2097L65.2774 13.1068C65.2196 13.317 65.3496 13.5273 65.5662 13.5834L65.8551 13.6535C66.0717 13.7095 66.2883 13.5834 66.3461 13.3731L66.5916 12.476C66.6349 12.2658 66.5194 12.0555 66.3028 11.9994Z" fill="#1A73B3"/>
<path d="M56.8133 9.50528L56.5245 9.4352C56.3078 9.37913 56.0912 9.50528 56.0334 9.71554L55.7735 10.5986C55.7157 10.8089 55.8457 11.0191 56.0623 11.0752L56.3512 11.1453C56.5678 11.2014 56.7844 11.0752 56.8422 10.865L57.0877 9.96785C57.1455 9.77161 57.0155 9.56135 56.8133 9.50528Z" fill="#1A73B3"/>
<path d="M59.0368 3.96861L57.1738 10.7109C57.4338 11.5099 57.6937 12.3089 57.9681 13.1079C59.5712 13.4723 61.1742 13.8508 62.7773 14.2152C63.3838 13.6826 63.9759 13.1499 64.5825 12.6173L66.4455 5.87496C66.6332 5.18811 66.2144 4.47323 65.4923 4.291L60.6543 3.04347C60.5821 3.01543 60.1055 2.90329 59.6434 3.16962C59.1812 3.43595 59.0657 3.8845 59.0368 3.96861Z" fill="#7EAD00"/>
<path d="M55.3113 51.8099L45.2309 49.2027C45.0143 49.1466 44.7832 49.2728 44.711 49.4971L44.3066 50.9829C44.2489 51.1932 44.3788 51.4174 44.6099 51.4875L46.213 51.9081C46.3574 51.9501 46.444 52.0482 46.5162 52.1884C46.8051 52.9594 47.8882 53.7303 49.3035 54.1088C50.7188 54.4732 52.0475 54.319 52.6973 53.8004C52.8129 53.7163 52.9428 53.6602 53.1017 53.7023L54.7048 54.1228C54.9214 54.1789 55.1524 54.0527 55.2247 53.8284L55.629 52.3426C55.6868 52.1043 55.5568 51.88 55.3113 51.8099Z" fill="#4F6D01"/>
<path d="M52.0913 51.8954L47.9898 50.8301C47.8309 50.788 47.6576 50.8862 47.6143 51.0403L47.5276 51.3627C47.4843 51.5169 47.5854 51.6851 47.7443 51.7272L51.8457 52.7925C52.0046 52.8346 52.1779 52.7364 52.2212 52.5822L52.3079 52.2598C52.3512 52.0916 52.2501 51.9374 52.0913 51.8954Z" fill="#4F6D01"/>
<path fill-rule="evenodd" clip-rule="evenodd" d="M59.9193 11.9897C60.1922 12.0647 60.3509 12.3402 60.2736 12.6052L52.5686 39.0293C52.4913 39.2942 52.2074 39.4482 51.9345 39.3732C51.6615 39.2983 51.5028 39.0227 51.5801 38.7577L59.2851 12.3336C59.3624 12.0687 59.6463 11.9147 59.9193 11.9897Z" fill="#575B00"/>
<path fill-rule="evenodd" clip-rule="evenodd" d="M61.9739 12.4877C62.2469 12.5627 62.4056 12.8383 62.3283 13.1032L54.6233 39.5273C54.546 39.7923 54.2621 39.9463 53.9892 39.8713C53.7162 39.7963 53.5575 39.5207 53.6348 39.2558L61.3398 12.8317C61.4171 12.5667 61.701 12.4127 61.9739 12.4877Z" fill="#575B00"/>
<path d="M16.1259 65.2033C17.2479 69.2676 27.1602 70.2211 38.2657 67.3328C49.3711 64.4446 57.4643 58.8085 56.3423 54.7441C55.2203 50.6798 45.308 49.7264 34.2025 52.6146C23.097 55.5028 15.0039 61.139 16.1259 65.2033Z" fill="#054B74"/>
<path d="M15.7027 63.6697C16.6845 67.226 26.4831 67.7676 37.5886 64.8793C48.694 61.9911 56.9009 56.7668 55.9192 53.2105C54.9374 49.6542 45.1388 49.1127 34.0333 52.0009C22.9278 54.8891 14.7209 60.1134 15.7027 63.6697Z" fill="#1A73B3"/>
<path d="M20.589 15.6963C18.3005 13.5875 14.536 13.64 12.1807 15.8137L6.82989 20.752C4.47459 22.9257 4.4204 26.3974 6.70886 28.5062L23.5339 44.0104C25.8223 46.1193 29.5868 46.0667 31.9421 43.893L37.2929 38.9548C39.6482 36.7811 39.7024 33.3094 37.4139 31.2006L20.589 15.6963Z" fill="#CCCCCC"/>
<path d="M6.28516 28.1172L13.2252 21.7122C13.886 21.1024 14.9423 21.0876 15.5844 21.6793V21.6793C16.2265 22.271 16.2113 23.245 15.5504 23.8549L8.61036 30.2599L6.28516 28.1172Z" fill="#7A7A7A"/>
<path d="M10.0059 31.5449L16.9459 25.14C17.6067 24.5301 18.663 24.5153 19.3051 25.107V25.107C19.9472 25.6987 19.932 26.6728 19.2711 27.2827L12.3311 33.6876L10.0059 31.5449Z" fill="#7A7A7A"/>
<path d="M30.8625 25.1641L16.9824 37.974L23.5348 44.0119C25.8232 46.1208 29.5877 46.0682 31.943 43.8945L37.2938 38.9563C39.6491 36.7826 39.7033 33.3109 37.4148 31.2021L30.8625 25.1641Z" fill="#FF0000"/>
<path d="M13.7266 34.9727L20.6666 28.5677C21.3274 27.9578 22.3837 27.9431 23.0258 28.5348V28.5348C23.6679 29.1264 23.6527 30.1005 22.9918 30.7104L16.0518 37.1153L13.7266 34.9727Z" fill="#7A7A7A"/>
<path opacity="0.5" d="M33.8513 42.1312L31.9421 43.8932C29.5868 46.0669 25.8223 46.1195 23.5339 44.0107L6.70886 28.5064C4.4204 26.3976 4.47459 22.9259 6.82989 20.7522L8.73907 18.9902C6.85142 20.7323 7.17634 23.8541 9.4648 25.963L26.2898 41.4672C28.5783 43.5761 31.9637 43.8734 33.8513 42.1312Z" fill="#4D4D4D"/>
<path opacity="0.5" d="M33.8526 42.1314L31.9434 43.8933C29.5881 46.067 25.8236 46.1196 23.5351 44.0108L18.3722 39.1774C17.938 38.7246 17.5039 38.2718 17.5039 38.2718L19.9511 35.9383C19.9511 35.9383 20.2396 35.8632 21.6529 37.1928L26.2911 41.4673C28.5795 43.5762 31.9649 43.8735 33.8526 42.1314Z" fill="#BA0707"/>
<path d="M32.4103 24.8248C32.0834 24.5235 31.5456 24.531 31.2091 24.8416L16.633 38.2938C16.2965 38.6043 16.2888 39.1003 16.6157 39.4016L18.2221 40.8818C18.549 41.1831 19.0868 41.1756 19.4233 40.865L33.9994 27.4128C34.3358 27.1023 34.3436 26.6063 34.0167 26.305L32.4103 24.8248Z" fill="#054B74"/>
<path d="M32.4103 24.8248C32.0834 24.5235 31.5965 24.4841 31.3228 24.7366L19.4669 35.6784C19.1932 35.931 19.2364 36.38 19.5633 36.6812L21.1697 38.1615C21.4966 38.4627 21.9835 38.5022 22.2572 38.2496L34.1131 27.3079C34.3867 27.0553 34.3436 26.6063 34.0167 26.305L32.4103 24.8248Z" fill="#1A73B3"/>
<path d="M20.166 15.3066L17.055 18.1778C16.3941 18.7877 16.3789 19.7618 17.021 20.3535V20.3535C17.6631 20.9452 18.7193 20.9304 19.3802 20.3205L22.4912 17.4493L20.166 15.3066Z" fill="#7A7A7A"/>
<path d="M23.8867 18.7344L20.7757 21.6056C20.1148 22.2154 20.0996 23.1895 20.7417 23.7812V23.7812C21.3838 24.3729 22.44 24.3581 23.1009 23.7482L26.2119 20.8771L23.8867 18.7344Z" fill="#7A7A7A"/>
<path d="M27.6074 22.1621L24.4964 25.0333C23.8355 25.6432 23.8203 26.6172 24.4624 27.2089V27.2089C25.1045 27.8006 26.1607 27.7859 26.8216 27.176L29.9326 24.3048L27.6074 22.1621Z" fill="#7A7A7A"/>
<path d="M31.1289 31.0664L23.8389 32.9623L30.5279 57.5143C31.2224 59.4736 31.4446 60.675 34.5553 60.6315L37.9008 55.5968L31.1289 31.0664Z" fill="#515283"/>
<path d="M31.1289 31.0664L26.437 32.2866L34.5553 60.6315C37.833 59.9484 38.4019 57.7097 37.9009 55.5968L31.1289 31.0664Z" fill="#7676AE"/>
<path d="M28.7736 37.8255C31.6037 37.0895 33.3185 34.3937 32.6036 31.8043C31.8888 29.2149 29.015 27.7125 26.1849 28.4485C23.3548 29.1846 21.64 31.8804 22.3549 34.4697C23.0697 37.0591 25.9435 38.5615 28.7736 37.8255Z" fill="#515283"/>
<path d="M28.2808 36.3709C30.3023 35.8452 31.5271 33.9196 31.0165 32.07C30.5059 30.2205 28.4533 29.1473 26.4318 29.6731C24.4102 30.1988 23.1854 32.1244 23.696 33.9739C24.2066 35.8235 26.2593 36.8966 28.2808 36.3709Z" fill="#7676AE"/>
<path d="M28.5444 36.3013C30.4189 35.8138 31.5504 34.0124 31.0715 32.2777C30.5926 30.5431 28.6848 29.5321 26.8102 30.0196C24.9357 30.5071 23.8042 32.3086 24.2831 34.0432C24.762 35.7778 26.6698 36.7888 28.5444 36.3013Z" fill="#B1B0CE"/>
<path d="M29.0433 34.2145C29.7503 33.562 29.7666 32.5198 29.0796 31.8868C28.3927 31.2537 27.2626 31.2695 26.5556 31.922C25.8486 32.5745 25.8323 33.6167 26.5192 34.2497C27.2062 34.8828 28.3363 34.867 29.0433 34.2145Z" fill="#515283"/>
<path d="M52.7707 10.5805L49.0583 8.97915C48.0175 8.53077 47.1848 7.76211 46.699 6.80129L44.9643 3.37436C44.652 2.76584 43.6806 2.76584 43.3683 3.37436L41.6335 6.80129C41.1478 7.76211 40.3151 8.53077 39.2743 8.97915L35.5619 10.5805C34.9027 10.8688 34.9027 11.7655 35.5619 12.0538L39.2743 13.6551C40.3151 14.1035 41.1478 14.8722 41.6335 15.833L43.3683 19.2599C43.6806 19.8685 44.652 19.8685 44.9643 19.2599L46.699 15.833C47.1848 14.8722 48.0175 14.1035 49.0583 13.6551L52.7707 12.0538C53.4646 11.7655 53.4646 10.8688 52.7707 10.5805Z" fill="white"/>
<path d="M38.8837 17.5227L37.2338 16.811C36.7712 16.6117 36.4011 16.2701 36.1852 15.843L35.4142 14.32C35.2754 14.0495 34.8437 14.0495 34.7049 14.32L33.9339 15.843C33.718 16.2701 33.3479 16.6117 32.8853 16.811L31.2354 17.5227C30.9424 17.6508 30.9424 18.0494 31.2354 18.1775L32.8853 18.8892C33.3479 19.0885 33.718 19.4301 33.9339 19.8571L34.7049 21.3802C34.8437 21.6507 35.2754 21.6507 35.4142 21.3802L36.1852 19.8571C36.4011 19.4301 36.7712 19.0885 37.2338 18.8892L38.8837 18.1775C39.1921 18.0494 39.1921 17.6508 38.8837 17.5227Z" fill="white"/>
<path fill-rule="evenodd" clip-rule="evenodd" d="M51.9632 11.3171L48.607 9.86941C47.3392 9.32327 46.3244 8.38644 45.733 7.21682C45.7329 7.21667 45.7331 7.21697 45.733 7.21682L44.1663 4.12191L42.5998 7.21636C42.5998 7.21651 42.5999 7.21621 42.5998 7.21636C42.0084 8.38599 40.9934 9.32327 39.7256 9.86941L36.3694 11.3171L39.7256 12.7649C40.9934 13.311 42.0082 14.2478 42.5996 15.4175C42.5997 15.4176 42.5995 15.4173 42.5996 15.4175L44.1663 18.5124L45.7327 15.4179C45.7328 15.4178 45.7327 15.4181 45.7327 15.4179C46.3242 14.2483 47.3392 13.311 48.607 12.7649L51.9632 11.3171ZM49.0583 13.6551C48.0175 14.1035 47.1848 14.8722 46.699 15.833L44.9643 19.2599C44.652 19.8684 43.6806 19.8684 43.3683 19.2599L41.6335 15.833C41.1478 14.8722 40.3151 14.1035 39.2743 13.6551L35.5619 12.0538C34.9027 11.7655 34.9027 10.8688 35.5619 10.5805L39.2743 8.97915C40.3151 8.53077 41.1478 7.76211 41.6335 6.80129L43.3683 3.37436C43.6806 2.76584 44.652 2.76584 44.9643 3.37436L46.699 6.80129C47.1848 7.76211 48.0175 8.53077 49.0583 8.97915L52.7707 10.5805C53.4646 10.8688 53.4646 11.7655 52.7707 12.0538L49.0583 13.6551ZM38.8837 18.1775C39.1921 18.0494 39.1921 17.6508 38.8837 17.5227L37.2338 16.811C36.7712 16.6117 36.4011 16.2701 36.1852 15.843L35.4142 14.32C35.2754 14.0495 34.8437 14.0495 34.7049 14.32L33.9339 15.843C33.718 16.2701 33.3479 16.6117 32.8853 16.811L31.2354 17.5227C30.9424 17.6508 30.9424 18.0494 31.2354 18.1775L32.8853 18.8892C33.3479 19.0885 33.718 19.4301 33.9339 19.8571L34.7049 21.3802C34.8437 21.6507 35.2754 21.6507 35.4142 21.3802L36.1852 19.8571C36.4011 19.4301 36.7712 19.0885 37.2338 18.8892L38.8837 18.1775ZM36.7824 17.9989L37.1275 17.8501L36.7824 17.7012C36.0929 17.4042 35.5407 16.8944 35.2191 16.2586C35.2191 16.2584 35.2192 16.2587 35.2191 16.2586L35.0595 15.9433L34.9002 16.2581C34.9001 16.2583 34.9002 16.258 34.9002 16.2581C34.5786 16.894 34.0262 17.4042 33.3367 17.7012L32.9916 17.8501L33.3367 17.9989C33.3368 17.999 33.3365 17.9989 33.3367 17.9989C34.026 18.296 34.5784 18.8059 34.8999 19.4416C34.9 19.4418 34.8999 19.4415 34.8999 19.4416L35.0595 19.7569L35.2189 19.4421C35.219 19.4419 35.2188 19.4422 35.2189 19.4421C35.5404 18.8064 36.0931 18.296 36.7824 17.9989C36.7826 17.9989 36.7822 17.999 36.7824 17.9989Z" fill="#4C4C4C"/>
<path fill-rule="evenodd" clip-rule="evenodd" d="M58.0654 3.64697L58.0637 3.65231L58.0514 3.69012L56.1049 10.7347L56.1952 11.0122L56.196 11.0149C56.4265 11.7233 56.6593 12.4389 56.9029 13.1559C55.5704 17.9162 54.2379 22.6768 52.9079 27.44C48.6035 27.7027 44.7729 30.2276 43.6902 34.2129C43.3949 35.2661 43.331 36.3156 43.4445 37.339L43.4449 37.3417C43.6788 39.3969 42.7283 41.3879 40.9616 42.4191C39.0989 43.506 37.566 45.0001 36.5412 46.8222L35.2661 42.2033L39.7481 37.8969C40.5913 36.9314 41.6689 34.383 39.2344 31.9141C36.8 29.4452 35.465 28.0728 35.1018 27.6952C35.5553 26.9693 35.2537 26.073 34.7274 25.5854L34.7254 25.5836L33.1177 24.1021C32.5807 23.6073 31.6364 23.3544 30.8857 23.81L21.2964 14.9734C18.5922 12.4815 14.2052 12.5697 11.4728 15.0914L6.12205 20.0296C3.36317 22.5758 3.26447 26.7073 6.00159 29.2296L15.5607 38.0383C15.198 38.7057 15.2903 39.5555 15.9085 40.1252L17.5148 41.6054C18.1285 42.1709 19.0273 42.2397 19.7236 41.8749L22.8272 44.735C23.8554 45.6824 25.1284 46.2549 26.4541 46.4651L28.1708 52.7663C24.1611 54.2156 20.75 55.9444 18.3649 57.7153C17.0879 58.6634 16.0587 59.6574 15.4014 60.6676C14.7439 61.678 14.3989 62.8045 14.7092 63.9282C14.7777 64.1764 14.8753 64.4121 14.9987 64.6346C15.0132 64.9129 15.0571 65.1892 15.1323 65.4618C15.5156 66.8501 16.6218 67.8582 18.0338 68.5479C19.4468 69.2382 21.2741 69.6683 23.3495 69.868C27.508 70.268 32.8896 69.7634 38.5304 68.2964C41.7621 67.4559 44.7509 66.3849 47.3497 65.1825C47.8499 65.2905 48.3495 65.376 48.847 65.4396C56.5522 67.3204 64.4437 63.7799 66.2981 57.073C67.1111 54.133 66.5932 51.1356 65.1077 48.5391C64.1169 46.7882 64.3161 44.5971 65.5721 42.923C66.1896 42.1028 66.6827 41.1495 66.9638 40.093C68.2206 35.5171 65.3739 30.8602 60.7057 28.8279L64.2285 15.263L65.8584 13.8159L67.7991 6.79255L67.7998 6.78995C67.9936 6.081 67.8222 5.35657 67.3945 4.81191C67.1504 4.11097 66.5596 3.53189 65.7547 3.32774L65.7518 3.32699L60.952 2.08929C60.7758 2.03475 60.5393 1.99772 60.2861 2.00011C59.9656 2.00313 59.5425 2.06969 59.1199 2.31327C58.3483 2.75792 58.1203 3.47457 58.0662 3.64446L58.0654 3.64697ZM33.6519 27.734L34.3979 28.4215C34.3979 28.4215 39.1423 31.7806 39.2344 34.9055C39.3331 38.2511 34.1158 41.889 34.1158 41.889L36.1913 49.4074L36.3878 50.119C36.4305 49.9115 36.4804 49.7042 36.5374 49.4974C36.6507 49.0876 36.789 48.6901 36.9507 48.3056C37.8401 46.1914 39.438 44.4716 41.491 43.2737C43.6284 42.0261 44.7404 39.6432 44.466 37.2322C44.3649 36.3211 44.4227 35.396 44.6826 34.4708C45.6864 30.7685 49.4425 28.3971 53.7002 28.4145C55.0351 23.6326 56.3727 18.8533 57.7104 14.0742L57.8972 13.4067L57.9759 13.1257L57.9799 13.1114L57.969 13.1085C57.6947 12.3098 57.4347 11.5107 57.1748 10.712L59.0378 3.96965L59.045 3.94745C59.0841 3.82504 59.2138 3.41878 59.6444 3.17066C60.1065 2.90433 60.5831 3.01647 60.6553 3.04451L65.4933 4.29205C66.0083 4.422 66.369 4.82287 66.4655 5.29128C66.7882 5.60794 66.9317 6.0773 66.8068 6.53425L64.9438 13.2766L63.3076 14.7291L59.4907 29.4266C64.2815 31.1 67.1385 35.5938 65.9702 39.8396C65.7247 40.7647 65.2914 41.6057 64.7426 42.3346C63.2695 44.2971 63.0096 46.9043 64.2083 49.0209C65.5802 51.4178 66.0424 54.1512 65.3058 56.8145C63.6301 62.8755 56.3722 66.2757 49.04 64.4584C48.4396 64.3839 47.8353 64.2754 47.2303 64.1314C44.6191 65.3666 41.5757 66.4721 38.2645 67.3332C27.159 70.2215 17.2467 69.268 16.1247 65.2037C16.0483 64.9272 16.0146 64.6433 16.0217 64.3536C15.8758 64.1398 15.7682 63.9119 15.7015 63.6701C14.8621 60.6294 20.7402 56.3692 29.4041 53.3925L27.2674 45.5499C25.8994 45.4745 24.5668 44.963 23.5346 44.0118L19.7715 40.5442L19.4233 40.8655C19.0869 41.176 18.5491 41.1835 18.2222 40.8823L16.6158 39.402C16.3508 39.1579 16.3057 38.7858 16.4772 38.4883C16.5173 38.4187 16.5693 38.3531 16.6331 38.2943L16.9815 37.9727L6.70894 28.5064C4.42047 26.3976 4.47466 22.9259 6.82996 20.7522L12.1808 15.814C14.5361 13.6403 18.3006 13.5877 20.589 15.6966L30.8616 25.1628L31.3229 24.7371C31.5966 24.4845 32.0835 24.524 32.4104 24.8252L34.0167 26.3055L34.0187 26.3073C34.2769 26.5465 34.3568 26.8781 34.242 27.1307C34.2122 27.1962 34.1694 27.2564 34.1132 27.3083L33.6519 27.734Z" fill="#4C4C4C"/>
</svg>
