<svg width="72" height="72" viewBox="0 0 72 72" fill="none" xmlns="http://www.w3.org/2000/svg">
<path d="M68.9602 30.7726C70.3466 34.1196 70.3466 37.8804 68.9602 41.2274L63.0027 55.61C61.6163 58.9571 58.9571 61.6163 55.61 63.0027L41.2274 68.9602C37.8804 70.3466 34.1196 70.3466 30.7726 68.9602L16.39 63.0027C13.0429 61.6163 10.3837 58.9571 8.99727 55.61L3.0398 41.2274C1.6534 37.8804 1.6534 34.1196 3.0398 30.7726L8.99728 16.39C10.3837 13.0429 13.0429 10.3837 16.39 8.99727L30.7726 3.0398C34.1196 1.6534 37.8804 1.6534 41.2274 3.0398L55.61 8.99728C58.9571 10.3837 61.6163 13.0429 63.0027 16.39L68.9602 30.7726Z" fill="#76CFED"/>
<path d="M54.7417 2.97266L33.5924 2.97275C33.0269 2.97275 32.5253 3.33824 32.3487 3.87903L20.336 32.3411C20.0576 33.1935 20.6884 34.0708 21.5798 34.0708L28.8903 34.0708C29.7944 34.0708 30.4264 34.9713 30.1243 35.8292L24.0015 64.172C23.5355 65.4955 25.1745 66.5372 26.161 65.5446L60.4802 28.9351C61.3053 28.1049 60.7212 26.6849 59.5547 26.6849L50.9836 26.6849C50.0008 26.6849 49.3684 25.6353 49.8226 24.7578L55.9028 4.89971C56.357 4.02226 55.7246 2.97266 54.7417 2.97266Z" fill="#FF0000"/>
<path d="M50.6812 2.97266L29.5318 2.97275C28.9663 2.97275 28.4648 3.33824 28.2881 3.87903L16.2755 32.3411C15.997 33.1935 16.6278 34.0708 17.5192 34.0708L24.8298 34.0708C25.7339 34.0708 26.3658 34.9713 26.0638 35.8292L19.941 64.172C19.4749 65.4955 21.1139 66.5372 22.1005 65.5446L56.4197 28.9351C57.2448 28.1049 56.6607 26.6849 55.4941 26.6849L46.9231 26.6849C45.9402 26.6849 45.3078 25.6353 45.762 24.7578L51.8423 4.89971C52.2965 4.02226 51.664 2.97266 50.6812 2.97266Z" fill="#F1BFA3"/>
<path fill-rule="evenodd" clip-rule="evenodd" d="M29.6711 2.00009L51.0415 2L51.0482 2.00002L54.6775 2C56.0349 2 56.9143 3.42351 56.3232 4.63363L50.1783 24.5822L50.157 24.6231C49.8741 25.1664 50.268 25.8162 50.8801 25.8162L59.5408 25.8162C61.169 25.8162 61.9856 27.783 60.8404 28.9375L26.1621 65.7079L26.1568 65.7131C25.1186 66.7515 23.5635 66.188 23.1359 65.0613L22.5261 65.7079L22.5208 65.7131C21.1497 67.0845 18.8771 65.6618 19.4905 63.8382L25.6778 35.369L25.6885 35.3387C25.8767 34.8076 25.483 34.25 24.9199 34.25L17.5329 34.25C16.2867 34.25 15.4049 33.0309 15.7941 31.8463L15.8008 31.826L27.9397 3.23765C28.1929 2.49818 28.8882 2.00009 29.6711 2.00009ZM51.0415 3.01558L29.6711 3.01567C29.3189 3.01567 29.0065 3.24194 28.8965 3.57675L28.8898 3.59704L16.7526 32.1816C16.5938 32.7036 16.984 33.2345 17.5329 33.2345L24.9199 33.2345C26.1723 33.2345 27.0512 34.4631 26.6564 35.6453L20.469 64.1147L20.4583 64.1451C20.1687 64.9624 21.1837 65.6061 21.7987 64.9995L24.5458 62.0867L24.105 64.1147L24.0943 64.1451C23.8047 64.9624 24.8197 65.6061 25.4347 64.9995L60.112 28.2301L60.1173 28.2249C60.6311 27.7109 60.2674 26.8318 59.5408 26.8318L50.8801 26.8318C49.5227 26.8318 48.6434 25.4082 49.2346 24.1981L55.3794 4.24959L55.4007 4.20864C55.6836 3.66544 55.2897 3.01558 54.6775 3.01558L51.0482 3.01559L51.0415 3.01558Z" fill="#4C4C4C"/>
<path d="M30.418 57.7676C30.418 56.1107 31.7611 54.7676 33.418 54.7676H67.0001C68.6569 54.7676 70.0001 56.1107 70.0001 57.7676V67.0012C70.0001 68.6581 68.6569 70.0012 67.0001 70.0012H33.418C31.7611 70.0012 30.418 68.6581 30.418 67.0012V57.7676Z" fill="#054B74"/>
<path d="M28.3887 55.7344C28.3887 54.0775 29.7318 52.7344 31.3887 52.7344H64.9708C66.6276 52.7344 67.9708 54.0775 67.9708 55.7344V64.968C67.9708 66.6249 66.6276 67.968 64.9708 67.968H31.3887C29.7318 67.968 28.3887 66.6249 28.3887 64.968V55.7344Z" fill="#1A73B3"/>
<path d="M56.1463 64.6159C55.7797 64.6159 55.496 64.5154 55.2953 64.3146C55.0945 64.1137 54.9941 63.8211 54.9941 63.4368V59.1004C54.9941 58.7248 55.0902 58.4366 55.2822 58.2357C55.4829 58.0348 55.7666 57.9344 56.1332 57.9344C56.4998 57.9344 56.7791 58.0348 56.9711 58.2357C57.1631 58.4366 57.2591 58.7248 57.2591 59.1004V59.8209L57.1151 59.179C57.2984 58.7947 57.569 58.489 57.9269 58.2619C58.2935 58.0261 58.7255 57.9082 59.223 57.9082C59.6944 57.9082 60.0959 58.0217 60.4275 58.2488C60.7679 58.4759 61.0123 58.8209 61.1607 59.2838H60.9774C61.1782 58.8558 61.4793 58.5196 61.8808 58.275C62.2823 58.0305 62.7275 57.9082 63.2162 57.9082C63.7225 57.9082 64.1371 58.0086 64.46 58.2095C64.783 58.4017 65.023 58.7074 65.1801 59.1266C65.346 59.5371 65.4289 60.0568 65.4289 60.6856V63.4368C65.4289 63.8211 65.3241 64.1137 65.1147 64.3146C64.9139 64.5154 64.6259 64.6159 64.2506 64.6159C63.884 64.6159 63.6003 64.5154 63.3995 64.3146C63.1988 64.1137 63.0984 63.8211 63.0984 63.4368V60.7511C63.0984 60.3755 63.0417 60.1048 62.9282 59.9388C62.8147 59.7729 62.6271 59.6899 62.3652 59.6899C62.0423 59.6899 61.7935 59.8035 61.619 60.0306C61.4531 60.2576 61.3702 60.5808 61.3702 61V63.4368C61.3702 63.8211 61.2698 64.1137 61.0691 64.3146C60.8683 64.5154 60.5803 64.6159 60.205 64.6159C59.8296 64.6159 59.5416 64.5154 59.3409 64.3146C59.1401 64.1137 59.0397 63.8211 59.0397 63.4368V60.7511C59.0397 60.3755 58.983 60.1048 58.8695 59.9388C58.7561 59.7729 58.5684 59.6899 58.3065 59.6899C57.9923 59.6899 57.7479 59.8035 57.5734 60.0306C57.4075 60.2576 57.3246 60.5808 57.3246 61V63.4368C57.3246 64.2228 56.9318 64.6159 56.1463 64.6159Z" fill="white"/>
<path d="M49.7651 64.6421C49.2676 64.6421 48.8268 64.5504 48.4428 64.367C48.0675 64.1835 47.7707 63.9346 47.5525 63.6202C47.343 63.297 47.2383 62.9302 47.2383 62.5197C47.2383 62.0481 47.3605 61.6769 47.6049 61.4061C47.8493 61.1354 48.242 60.9433 48.7832 60.8297C49.3244 60.7074 50.0444 60.6463 50.9435 60.6463H51.6636V61.7468H50.9435C50.6031 61.7468 50.3194 61.773 50.0925 61.8254C49.8742 61.869 49.7128 61.9433 49.608 62.0481C49.5033 62.1442 49.4509 62.2708 49.4509 62.428C49.4509 62.6289 49.5207 62.7948 49.6604 62.9259C49.8088 63.0569 50.0183 63.1224 50.2888 63.1224C50.507 63.1224 50.6991 63.0743 50.8649 62.9783C51.0395 62.8822 51.1791 62.7512 51.2839 62.5852C51.3886 62.4106 51.441 62.2097 51.441 61.9826V60.4629C51.441 60.1485 51.3581 59.9257 51.1922 59.7947C51.0351 59.6637 50.7602 59.5982 50.3674 59.5982C50.1579 59.5982 49.9222 59.6244 49.6604 59.6768C49.3985 59.7205 49.1061 59.8035 48.7832 59.9257C48.5475 60.0131 48.3468 60.0262 48.1809 59.965C48.0151 59.9039 47.8842 59.7991 47.7882 59.6506C47.7009 59.5021 47.6572 59.3406 47.6572 59.1659C47.666 58.9912 47.7227 58.8253 47.8274 58.6681C47.9409 58.5108 48.1111 58.3886 48.3381 58.3012C48.757 58.144 49.1411 58.0392 49.4902 57.9868C49.8481 57.9344 50.1754 57.9082 50.4721 57.9082C51.1879 57.9082 51.777 58.013 52.2396 58.2226C52.711 58.4235 53.0601 58.7379 53.287 59.1659C53.5227 59.5851 53.6405 60.1266 53.6405 60.7904V63.4368C53.6405 63.8211 53.5489 64.1137 53.3656 64.3146C53.1823 64.5154 52.9161 64.6159 52.5669 64.6159C52.2091 64.6159 51.9341 64.5154 51.7421 64.3146C51.5588 64.1137 51.4672 63.8211 51.4672 63.4368V63.0962L51.5457 63.2796C51.5021 63.5591 51.4017 63.7993 51.2446 64.0001C51.0875 64.201 50.8824 64.3582 50.6292 64.4718C50.3761 64.5853 50.0881 64.6421 49.7651 64.6421Z" fill="white"/>
<path d="M43.386 66.9475C43.1154 66.9563 42.9015 66.9082 42.7444 66.8034C42.5786 66.6986 42.4651 66.5676 42.404 66.4104C42.3429 66.2532 42.3298 66.0916 42.3647 65.9257C42.3909 65.7685 42.4608 65.6287 42.5742 65.5064C42.6877 65.3929 42.8317 65.3274 43.0063 65.3099C43.2943 65.2924 43.5038 65.2138 43.6347 65.0741C43.7656 64.9431 43.8311 64.7378 43.8311 64.4584V59.1001C43.8311 58.7245 43.9315 58.4363 44.1322 58.2354C44.333 58.0345 44.621 57.9341 44.9963 57.9341C45.3717 57.9341 45.6597 58.0345 45.8605 58.2354C46.0612 58.4363 46.1616 58.7245 46.1616 59.1001V64.2356C46.1616 64.8208 46.0612 65.3099 45.8605 65.7029C45.6597 66.1047 45.3542 66.406 44.944 66.6069C44.5425 66.8165 44.0231 66.9301 43.386 66.9475ZM44.9833 57.0039C44.5643 57.0039 44.2413 56.9079 44.0144 56.7157C43.7962 56.5236 43.6871 56.2441 43.6871 55.8773C43.6871 55.5192 43.7962 55.244 44.0144 55.0519C44.2413 54.8597 44.5643 54.7637 44.9833 54.7637C45.4022 54.7637 45.7208 54.8597 45.939 55.0519C46.1659 55.244 46.2794 55.5192 46.2794 55.8773C46.2794 56.2441 46.1659 56.5236 45.939 56.7157C45.7208 56.9079 45.4022 57.0039 44.9833 57.0039Z" fill="white"/>
<path d="M33.5454 64.4986C33.2224 64.4986 32.9737 64.4156 32.7991 64.2497C32.6333 64.075 32.5504 63.8304 32.5504 63.516C32.5504 63.2016 32.6333 62.9614 32.7991 62.7955C32.9737 62.6295 33.2224 62.5466 33.5454 62.5466H34.7237V57.1883H35.8235L33.9251 58.3543C33.6981 58.494 33.4843 58.5508 33.2835 58.5246C33.0828 58.4896 32.9126 58.4023 32.7729 58.2626C32.6333 58.1228 32.5416 57.9525 32.498 57.7516C32.4543 57.5507 32.4718 57.3499 32.5504 57.149C32.6289 56.9481 32.786 56.7778 33.0217 56.638L34.8285 55.5114C35.0205 55.3891 35.2169 55.2974 35.4176 55.2362C35.6271 55.1751 35.8453 55.1445 36.0722 55.1445C36.4039 55.1445 36.6614 55.2319 36.8447 55.4066C37.028 55.5725 37.1196 55.817 37.1196 56.1402V62.5466H38.1671C38.49 62.5466 38.7344 62.6295 38.9002 62.7955C39.0748 62.9614 39.1621 63.2016 39.1621 63.516C39.1621 63.8304 39.0748 64.075 38.9002 64.2497C38.7344 64.4156 38.49 64.4986 38.1671 64.4986H33.5454Z" fill="white"/>
<path d="M37.2464 19.7037C37.7881 19.1728 38.655 19.1728 39.1967 19.7037L42.6588 23.0969C42.9156 23.3486 43.2599 23.4913 43.6195 23.495L48.4656 23.5454C49.2237 23.5532 49.8363 24.1659 49.8442 24.9239L49.8945 29.775C49.8982 30.1343 50.0406 30.4782 50.292 30.735L53.6846 34.201C54.2146 34.7425 54.2146 35.6084 53.6846 36.1499L50.292 39.6159C50.0406 39.8727 49.8982 40.2167 49.8945 40.5759L49.8442 45.427C49.8363 46.1851 49.2237 46.7977 48.4656 46.8056L43.6195 46.8559C43.2599 46.8596 42.9156 47.0023 42.6588 47.254L39.1967 50.6472C38.655 51.1781 37.7881 51.1781 37.2464 50.6472L33.7843 47.254C33.5275 47.0023 33.1833 46.8596 32.8237 46.8559L27.9775 46.8056C27.2194 46.7977 26.6068 46.1851 26.5989 45.427L26.5486 40.5759C26.5449 40.2167 26.4025 39.8727 26.1511 39.6159L22.7585 36.1499C22.2285 35.6084 22.2285 34.7425 22.7585 34.201L26.1511 30.735C26.4025 30.4782 26.5449 30.1343 26.5486 29.775L26.5989 24.9239C26.6068 24.1659 27.2194 23.5532 27.9775 23.5454L32.8237 23.495C33.1833 23.4913 33.5275 23.3486 33.7843 23.0969L37.2464 19.7037Z" fill="#4F6D01"/>
<path d="M35.4248 18.1638C35.9745 17.6251 36.8538 17.6251 37.4035 18.1638L40.8455 21.5373C41.1061 21.7927 41.4553 21.9375 41.8202 21.9412L46.6379 21.9913C47.4072 21.9993 48.029 22.6214 48.037 23.3913L48.087 28.2121C48.0908 28.5772 48.2354 28.9266 48.4907 29.1874L51.862 32.6316C52.4004 33.1817 52.4004 34.0615 51.862 34.6116L48.4907 38.0558C48.2354 38.3166 48.0908 38.666 48.087 39.0311L48.037 43.8519C48.029 44.6217 47.4072 45.2439 46.6379 45.2519L41.8202 45.3019C41.4553 45.3057 41.1061 45.4505 40.8455 45.7059L37.4035 49.0794C36.8538 49.6181 35.9745 49.6181 35.4248 49.0794L31.9828 45.7059C31.7222 45.4505 31.373 45.3057 31.0081 45.3019L26.1904 45.2519C25.421 45.2439 24.7993 44.6217 24.7913 43.8519L24.7413 39.0311C24.7375 38.666 24.5929 38.3166 24.3376 38.0558L20.9663 34.6116C20.4279 34.0615 20.4279 33.1817 20.9663 32.6316L24.3376 29.1874C24.5929 28.9266 24.7375 28.5772 24.7413 28.2121L24.7913 23.3913C24.7993 22.6214 25.421 21.9993 26.1904 21.9913L31.0081 21.9412C31.373 21.9375 31.7222 21.7927 31.9828 21.5373L35.4248 18.1638Z" fill="#7EAD00"/>
<path fill-rule="evenodd" clip-rule="evenodd" d="M37.9464 17.6101L41.3884 20.9835C41.5061 21.0988 41.6637 21.1642 41.8284 21.1659L46.6461 21.2159C47.8376 21.2283 48.8004 22.1918 48.8128 23.384L48.8628 28.2048C48.8645 28.3696 48.9298 28.5273 49.045 28.6451L52.4163 32.0893C53.25 32.941 53.25 34.3036 52.4163 35.1553L49.045 38.5995C48.9298 38.7173 48.8645 38.875 48.8628 39.0398L48.8128 43.8606C48.8004 45.0528 47.8376 46.0163 46.6461 46.0287L41.8284 46.0787C41.6637 46.0804 41.5061 46.1457 41.3884 46.2611L37.9464 49.6345C37.0952 50.4688 35.7335 50.4688 34.8823 49.6345L31.4403 46.2611C31.3227 46.1457 31.165 46.0804 31.0003 46.0787L26.1826 46.0287C24.9912 46.0163 24.0283 45.0528 24.0159 43.8606L23.9659 39.0398C23.9642 38.875 23.8989 38.7173 23.7837 38.5995L20.4124 35.1553C19.5787 34.3036 19.5787 32.941 20.4124 32.0893L23.7837 28.6451C23.8989 28.5273 23.9642 28.3696 23.9659 28.2048L24.0159 23.384C24.0283 22.1918 24.9912 21.2283 26.1826 21.2159L31.0003 21.1659C31.165 21.1642 31.3227 21.0988 31.4403 20.9835L34.8823 17.6101C35.7335 16.7758 37.0952 16.7758 37.9464 17.6101ZM37.4037 18.1645C36.854 17.6258 35.9747 17.6258 35.425 18.1645L31.983 21.538C31.7224 21.7934 31.3732 21.9382 31.0084 21.942L26.1907 21.992C25.4213 22 24.7995 22.6221 24.7915 23.392L24.7415 28.2128C24.7377 28.5779 24.5931 28.9273 24.3378 29.1881L20.9665 32.6323C20.4281 33.1824 20.4281 34.0622 20.9665 34.6123L24.3378 38.0565C24.5931 38.3173 24.7377 38.6667 24.7415 39.0318L24.7915 43.8526C24.7995 44.6225 25.4213 45.2446 26.1907 45.2526L31.0084 45.3026C31.3732 45.3064 31.7224 45.4512 31.983 45.7066L35.425 49.0801C35.9747 49.6188 36.854 49.6188 37.4037 49.0801L40.8457 45.7066C41.1063 45.4512 41.4556 45.3064 41.8204 45.3026L46.6381 45.2526C47.4075 45.2446 48.0292 44.6225 48.0372 43.8526L48.0872 39.0318C48.091 38.6667 48.2356 38.3173 48.4909 38.0565L51.8622 34.6123C52.4006 34.0622 52.4006 33.1824 51.8622 32.6323L48.4909 29.1881C48.2356 28.9273 48.091 28.5779 48.0872 28.2128L48.0372 23.392C48.0292 22.6221 47.4075 22 46.6381 21.992L41.8204 21.942C41.4556 21.9382 41.1063 21.7934 40.8457 21.538L37.4037 18.1645Z" fill="#4F6D01"/>
<path fill-rule="evenodd" clip-rule="evenodd" d="M34.6186 27.1165C35.3858 27.8841 36.6297 27.8841 37.3969 27.1165C38.164 26.3488 38.164 25.1041 37.3969 24.3365C36.6297 23.5688 35.3858 23.5688 34.6186 24.3365C33.8514 25.1041 33.8514 26.3488 34.6186 27.1165ZM33.2295 28.5065C34.7639 30.0418 37.2516 30.0418 38.786 28.5065C40.3204 26.9711 40.3204 24.4818 38.786 22.9464C37.2516 21.4111 34.7639 21.4111 33.2295 22.9464C31.6951 24.4818 31.6951 26.9711 33.2295 28.5065Z" fill="white"/>
<path fill-rule="evenodd" clip-rule="evenodd" d="M36.976 41.6637C37.7431 42.4313 38.987 42.4313 39.7542 41.6637C40.5214 40.896 40.5214 39.6513 39.7542 38.8836C38.987 38.116 37.7431 38.116 36.976 38.8836C36.2088 39.6513 36.2088 40.896 36.976 41.6637ZM35.5868 43.0537C37.1212 44.589 39.6089 44.589 41.1433 43.0537C42.6777 41.5183 42.6777 39.029 41.1433 37.4936C39.6089 35.9583 37.1212 35.9583 35.5868 37.4936C34.0525 39.029 34.0525 41.5183 35.5868 43.0537Z" fill="white"/>
<path d="M42.4487 25.6554C42.9858 25.118 43.8565 25.118 44.3935 25.6554C44.9305 26.1928 44.9305 27.0641 44.3935 27.6014L30.2245 41.7795C29.6875 42.3169 28.8168 42.3169 28.2797 41.7795C27.7427 41.2421 27.7427 40.3709 28.2797 39.8335L42.4487 25.6554Z" fill="white"/>
<path d="M27.7794 12.699L23.4376 10.6659C22.2203 10.0967 21.2464 9.1208 20.6783 7.90095L18.6494 3.55013C18.2842 2.77756 17.148 2.77756 16.7828 3.55013L14.754 7.90095C14.1859 9.1208 13.212 10.0967 11.9947 10.6659L7.65286 12.699C6.88188 13.065 6.88188 14.2035 7.65286 14.5695L11.9947 16.6026C13.212 17.1718 14.1859 18.1477 14.754 19.3676L16.7828 23.7184C17.148 24.491 18.2842 24.491 18.6494 23.7184L20.6783 19.3676C21.2464 18.1477 22.2203 17.1718 23.4376 16.6026L27.7794 14.5695C28.5909 14.2035 28.5909 13.065 27.7794 12.699Z" fill="white"/>
<path d="M10.8735 21.8213L9.0127 20.8532C8.49098 20.5821 8.07361 20.1174 7.83014 19.5365L6.96062 17.4647C6.80411 17.0968 6.31718 17.0968 6.16066 17.4647L5.29114 19.5365C5.04767 20.1174 4.6303 20.5821 4.10859 20.8532L2.24781 21.8213C1.9174 21.9956 1.9174 22.5377 2.24781 22.712L4.10859 23.6801C4.6303 23.9512 5.04767 24.4159 5.29114 24.9968L6.16066 27.0686C6.31718 27.4365 6.80411 27.4365 6.96062 27.0686L7.83014 24.9968C8.07361 24.4159 8.49098 23.9512 9.0127 23.6801L10.8735 22.712C11.2213 22.5377 11.2213 21.9956 10.8735 21.8213Z" fill="white"/>
<path fill-rule="evenodd" clip-rule="evenodd" d="M27.3558 13.622L23.0079 11.586C23.0077 11.5859 23.008 11.5861 23.0079 11.586C21.5747 10.9157 20.4272 9.76588 19.7586 8.33038C19.7585 8.33023 19.7586 8.33054 19.7586 8.33038L17.7338 3.98839C17.7293 3.9872 17.7232 3.98628 17.7161 3.98628C17.7091 3.98628 17.703 3.9872 17.6985 3.98839L15.6739 8.32991C15.6738 8.33007 15.674 8.32976 15.6739 8.32991C15.0053 9.76541 13.858 10.9155 12.4248 11.5858C12.4247 11.5859 12.425 11.5857 12.4248 11.5858L8.092 13.6147C8.09195 13.6149 8.09206 13.6145 8.092 13.6147C8.09071 13.6196 8.08955 13.6267 8.08955 13.6343C8.08955 13.6418 8.09056 13.6484 8.09185 13.6533C8.09191 13.6535 8.0918 13.6531 8.09185 13.6533L12.4244 15.6825C13.8577 16.3528 15.005 17.5025 15.6737 18.9381C15.6738 18.9383 15.6736 18.938 15.6737 18.9381L17.6985 23.2801C17.703 23.2813 17.7091 23.2822 17.7161 23.2822C17.7232 23.2822 17.7293 23.2813 17.7338 23.2801L19.7584 18.9386C19.7584 18.9384 19.7583 18.9388 19.7584 18.9386C20.4271 17.503 21.5745 16.3528 23.0079 15.6825L27.3558 13.6466L27.3624 13.6436C27.3676 13.6413 27.3709 13.6393 27.3729 13.6381C27.373 13.6371 27.3731 13.6358 27.3731 13.6343C27.3731 13.6327 27.373 13.6314 27.3729 13.6304C27.3709 13.6292 27.3676 13.6273 27.3624 13.6249L27.3558 13.622ZM23.4376 16.6026C22.2203 17.1718 21.2464 18.1477 20.6783 19.3676L18.6494 23.7184C18.2842 24.491 17.148 24.491 16.7828 23.7184L14.754 19.3676C14.1859 18.1477 13.212 17.1718 11.9947 16.6026L7.65286 14.5695C6.88188 14.2035 6.88188 13.065 7.65286 12.699L11.9947 10.6659C13.212 10.0967 14.1859 9.1208 14.754 7.90095L16.7828 3.55013C17.148 2.77756 18.2842 2.77756 18.6494 3.55013L20.6783 7.90095C21.2464 9.1208 22.2203 10.0967 23.4376 10.6659L27.7794 12.699C28.5909 13.065 28.5909 14.2035 27.7794 14.5695L23.4376 16.6026ZM9.52938 22.2667L8.54498 21.7545C7.79725 21.3658 7.22241 20.7124 6.8942 19.9293L6.56064 19.1345L6.22708 19.9293C5.89887 20.7124 5.32453 21.3656 4.5768 21.7542L3.5919 22.2667L4.5763 22.7788C5.32404 23.1675 5.89887 23.8209 6.22708 24.604L6.56064 25.3988L6.8942 24.604C7.22241 23.8209 7.79676 23.1678 8.54449 22.7791L9.52938 22.2667ZM9.0127 23.6801C8.49098 23.9512 8.07361 24.4159 7.83014 24.9968L6.96062 27.0686C6.80411 27.4365 6.31718 27.4365 6.16066 27.0686L5.29114 24.9968C5.04767 24.4159 4.6303 23.9512 4.10859 23.6801L2.24781 22.712C1.9174 22.5377 1.9174 21.9956 2.24781 21.8213L4.10859 20.8532C4.6303 20.5821 5.04767 20.1174 5.29114 19.5365L6.16066 17.4647C6.31718 17.0968 6.80411 17.0968 6.96062 17.4647L7.83014 19.5365C8.07361 20.1174 8.49098 20.5821 9.0127 20.8532L10.8735 21.8213C11.2213 21.9956 11.2213 22.5377 10.8735 22.712L9.0127 23.6801Z" fill="#4C4C4C"/>
</svg>
