<svg width="72" height="72" viewBox="0 0 72 72" fill="none" xmlns="http://www.w3.org/2000/svg">
<path d="M68.9602 30.7726C70.3466 34.1196 70.3466 37.8804 68.9602 41.2274L63.0027 55.61C61.6163 58.9571 58.9571 61.6163 55.61 63.0027L41.2274 68.9602C37.8804 70.3466 34.1196 70.3466 30.7726 68.9602L16.39 63.0027C13.0429 61.6163 10.3837 58.9571 8.99727 55.61L3.0398 41.2274C1.6534 37.8804 1.6534 34.1196 3.0398 30.7726L8.99728 16.39C10.3837 13.0429 13.0429 10.3837 16.39 8.99727L30.7726 3.0398C34.1196 1.6534 37.8804 1.6534 41.2274 3.0398L55.61 8.99728C58.9571 10.3837 61.6163 13.0429 63.0027 16.39L68.9602 30.7726Z" fill="#76CFED"/>
<path d="M33 40C33 39.4477 33.4477 39 34 39H47C47.5523 39 48 39.4477 48 40V50C48 50.5523 47.5523 51 47 51H34C33.4477 51 33 50.5523 33 50V40Z" fill="#B1B0CE"/>
<path d="M49 40C49 39.4477 49.4477 39 50 39H57C57.5523 39 58 39.4477 58 40V50C58 50.5523 57.5523 51 57 51H50C49.4477 51 49 50.5523 49 50V40Z" fill="#515283"/>
<rect x="15" y="33" width="4" height="18" fill="#515283"/>
<rect x="47" y="33" width="4" height="18" fill="#515283"/>
<rect x="62" y="33" width="4" height="18" fill="#515283"/>
<rect x="15" y="33" width="2" height="18" fill="#B1B0CE"/>
<rect x="47" y="33" width="2" height="18" fill="#B1B0CE"/>
<rect x="62" y="33" width="2" height="18" fill="#7676AE"/>
<path d="M62.926 12.9121L23.3384 12.9121C21.3945 12.9121 19.6236 14.0293 18.7865 15.7837L11 32.1026H67.4661V17.1343C67.4661 16.2293 67.306 15.296 66.707 14.6176C65.7637 13.5493 64.3939 12.9121 62.926 12.9121Z" fill="#FF0000"/>
<path d="M16.5957 38.621C11 38.621 11 32.1035 11 32.1035H21.9371C21.9371 32.1035 21.9371 38.621 16.5957 38.621Z" fill="#BA0707"/>
<path d="M39.2325 38.621C33.6367 38.621 33.6367 32.1035 33.6367 32.1035H44.5738C44.5738 32.1035 44.5738 38.621 39.2325 38.621Z" fill="#BA0707"/>
<path d="M27.9217 38.621C21.9355 38.621 21.9355 32.1035 21.9355 32.1035H33.6357C33.6357 32.1035 33.6357 38.621 27.9217 38.621Z" fill="#CCCDC7"/>
<path d="M50.6905 38.621C44.5742 38.621 44.5742 32.1035 44.5742 32.1035H56.5288C56.5288 32.1035 56.5288 38.621 50.6905 38.621Z" fill="#CCCDC7"/>
<path d="M62.125 38.621C56.5293 38.621 56.5293 32.1035 56.5293 32.1035H67.4664C67.4664 32.1035 67.4664 38.621 62.125 38.621Z" fill="#BA0707"/>
<path d="M40 12.9121H29L21.9355 32.1026H33.6357L40 12.9121Z" fill="#EEEFE8"/>
<path d="M49 12.9121L60 12.9121L56.5293 32.1026H44.5748L49 12.9121Z" fill="#EEEFE8"/>
<rect x="15" y="52" width="51" height="16" fill="#575B00"/>
<path d="M13 68C13 66.8954 13.8954 66 15 66H67C68.1046 66 69 66.8954 69 68C69 69.1046 68.1046 70 67 70H15C13.8954 70 13 69.1046 13 68Z" fill="#054B74"/>
<rect x="15" y="52" width="38" height="16" fill="#B8CC33"/>
<path d="M11 68C11 66.8954 11.8954 66 13 66H53C54.1046 66 55 66.8954 55 68C55 69.1046 54.1046 70 53 70H13C11.8954 70 11 69.1046 11 68Z" fill="#1A73B3"/>
<path d="M13 52C13 50.8954 13.8954 50 15 50H67C68.1046 50 69 50.8954 69 52C69 53.1046 68.1046 54 67 54H15C13.8954 54 13 53.1046 13 52Z" fill="#054B74"/>
<path d="M11 52C11 50.8954 11.8954 50 13 50H52C53.1046 50 54 50.8954 54 52C54 53.1046 53.1046 54 52 54H13C11.8954 54 11 53.1046 11 52Z" fill="#1A73B3"/>
<path d="M37 59C37 57.8954 37.8954 57 39 57H47C48.1046 57 49 57.8954 49 59C49 60.1046 48.1046 61 47 61H39C37.8954 61 37 60.1046 37 59Z" fill="#515283"/>
<path fill-rule="evenodd" clip-rule="evenodd" d="M56.5569 32.6026C56.5299 32.295 56.5295 32.1079 56.5295 32.1027C56.529 32.1027 56.5285 32.1026 56.528 32.1026H44.5749L34.6366 32.1026L44.5735 32.1026H44.5749L56.4611 32.1027C56.4829 32.1027 56.5052 32.1026 56.528 32.1026C56.528 32.1026 56.528 32.5019 56.4395 33.1026C56.4395 33.1026 56.4395 33.1026 56.4395 33.1026C56.3666 33.5978 56.2335 34.23 55.9908 34.8884C55.565 36.0437 54.8014 37.2802 53.4326 38C52.7725 38.3471 51.9716 38.5741 51 38.614V39H57C57.5523 39 58 39.4477 58 40V50H62V38.6192C59.0215 38.5666 57.6647 36.6396 57.0466 34.8948C56.7237 33.9832 56.6024 33.1214 56.5569 32.6026ZM56.5097 36.1859C56.1769 36.8243 55.7326 37.4559 55.147 38H57C58.1046 38 59 38.8954 59 40V49H61V39.5372C59.8775 39.3652 58.9556 38.9355 58.2126 38.3411C57.4374 37.7209 56.8929 36.9507 56.5097 36.1859ZM44.6374 32.9011C44.6362 32.8917 44.635 32.8823 44.6338 32.873C44.5908 32.5377 44.5785 32.2893 44.5749 32.1741C44.5744 32.157 44.5741 32.1429 44.5739 32.1318C44.5738 32.1373 44.5736 32.1437 44.5735 32.1508C44.5708 32.2738 44.5577 32.6243 44.4932 33.1026C44.4932 33.1026 44.4932 33.1026 44.4932 33.1026C44.426 33.6013 44.303 34.2389 44.078 34.9024C43.6874 36.0537 42.9895 37.2831 41.7422 38C41.0752 38.3834 40.251 38.6202 39.2328 38.6202C38.1661 38.6202 37.3027 38.3834 36.6039 38C35.3001 37.2847 34.5692 36.0593 34.1595 34.9103C33.9219 34.2439 33.7922 33.6033 33.7215 33.1026C33.6366 32.5018 33.6366 32.1026 33.6366 32.1026C33.6366 32.1026 33.6366 32.2906 33.6086 32.6026C33.5619 33.1237 33.4371 33.991 33.104 34.9072C32.462 36.673 31.0459 38.6202 27.9226 38.6202C24.6458 38.6202 23.1627 36.6673 22.4914 34.8995C22.1446 33.9862 22.0145 33.1223 21.9657 32.6026C21.9432 32.3627 21.938 32.1962 21.9368 32.132C21.9357 32.1962 21.9311 32.3627 21.911 32.6026C21.8672 33.1255 21.7499 33.9969 21.4361 34.9165C21.0337 36.0957 20.3082 37.3542 19 38.0585V50H33V40C33 39.4477 33.4477 39 34 39H47V37.4882C46.062 36.7667 45.4867 35.7983 45.1337 34.8817C44.881 34.2256 44.7423 33.5961 44.6662 33.1026C44.6554 33.0326 44.6458 32.9653 44.6374 32.9011ZM44.6341 36.1855C44.3321 36.8132 43.9238 37.448 43.3705 38H46V37.9537C45.4112 37.4167 44.968 36.8025 44.6341 36.1855ZM34.9313 38C34.3641 37.4555 33.942 36.8295 33.6274 36.2065C33.2252 36.9887 32.6514 37.7743 31.8313 38.3979C30.8427 39.1497 29.5554 39.6202 27.9226 39.6202C26.3002 39.6202 25.0062 39.1925 23.9952 38.4966C23.07 37.8597 22.4297 37.0316 21.9874 36.205C21.5622 37.0825 20.9332 37.9641 20 38.6154V49H32V40C32 38.8954 32.8954 38 34 38H34.9313ZM11 32.1026C10 32.1026 10 32.103 10 32.1034L10 32.1066L10 32.1125L10.0002 32.1299C10.0004 32.144 10.0007 32.1631 10.0013 32.1868C10.0025 32.2342 10.0048 32.3002 10.0093 32.3826C10.0182 32.5472 10.0356 32.7781 10.07 33.0567C10.1385 33.6105 10.276 34.369 10.5553 35.1737C11.0508 36.6014 12.0445 38.3002 14 39.1262V49H13C11.3431 49 10 50.3431 10 52C10 53.6569 11.3431 55 13 55H14L14 65H13C11.3431 65 10 66.3431 10 68C10 69.6569 11.3431 71 13 71H67C68.6569 71 70 69.6569 70 68C70 66.3431 68.6569 65 67 65V55C68.6569 55 70 53.6569 70 52C70 50.3431 68.6569 49 67 49V37.1049C67.7248 36.0364 68.0827 34.8341 68.2641 33.9137C68.3646 33.4041 68.4148 32.9606 68.4401 32.642C68.4528 32.4823 68.4593 32.3528 68.4626 32.2607C68.4643 32.2146 68.4651 32.1778 68.4656 32.1512L68.466 32.1189L68.4661 32.1086L68.4661 32.1036C68.4661 32.1034 68.4661 32.1027 68.3177 32.1026L68.4661 32.1036V17.1343C68.4661 16.149 68.2996 14.9104 67.4566 13.9557C66.3265 12.6758 64.6852 11.9121 62.926 11.9121H23.3384C21.0091 11.9121 18.8871 13.2508 17.884 15.353L10 31.8763L10 32.1034L11 32.1026ZM18.7865 15.7837C19.6236 14.0293 21.3945 12.9121 23.3384 12.9121H62.926C64.3939 12.9121 65.7637 13.5493 66.707 14.6176C67.306 15.296 67.4661 16.2293 67.4661 17.1343V32.1026C67.4661 32.1026 67.4661 32.2906 67.44 32.6026C67.3662 33.485 67.0834 35.3596 66 36.7836V50H67C68.1046 50 69 50.8954 69 52C69 53.1046 68.1046 54 67 54H66V66H67C68.1046 66 69 66.8954 69 68C69 69.1046 68.1046 70 67 70H13C11.8954 70 11 69.1046 11 68C11 66.8954 11.8954 66 13 66H15L15 54H13C11.8954 54 11 53.1046 11 52C11 50.8954 11.8954 50 13 50H15V38.4166C11.7597 37.5228 11.1443 33.9337 11.0274 32.6026C11 32.2906 11 32.1026 11 32.1026L18.7865 15.7837Z" fill="#4C4C4C"/>
<path d="M19.5145 9.75453L16.0514 8.13394C15.0804 7.68017 14.3037 6.90229 13.8505 5.92993L12.2323 2.46187C11.941 1.84604 11.0347 1.84604 10.7435 2.46187L9.12518 5.92993C8.67206 6.90229 7.89529 7.68017 6.92432 8.13394L3.46121 9.75453C2.84626 10.0462 2.84626 10.9538 3.46121 11.2455L6.92432 12.8661C7.89529 13.3198 8.67206 14.0977 9.12518 15.0701L10.7435 18.5381C11.0347 19.154 11.941 19.154 12.2323 18.5381L13.8505 15.0701C14.3037 14.0977 15.0804 13.3198 16.0514 12.8661L19.5145 11.2455C20.1618 10.9538 20.1618 10.0462 19.5145 9.75453Z" fill="white"/>
<path fill-rule="evenodd" clip-rule="evenodd" d="M18.7482 10.5L15.628 9.03989C14.4442 8.48664 13.4966 7.53763 12.9443 6.35279C12.9443 6.35263 12.9442 6.35248 12.9441 6.35232L11.4879 3.23145L10.0316 6.35232C10.0315 6.35248 10.0314 6.35263 10.0314 6.35279C9.47918 7.53747 8.53178 8.4864 7.34817 9.03967C7.3481 9.0397 7.34803 9.03974 7.34796 9.03977C7.34788 9.03981 7.34779 9.03985 7.3477 9.03989L4.22753 10.5L7.3477 11.9601C8.53154 12.5134 9.47911 13.4624 10.0314 14.6472C10.0314 14.6474 10.0315 14.6475 10.0316 14.6477L11.4879 17.7686L12.9441 14.6477C12.9442 14.6475 12.9443 14.6474 12.9443 14.6472C13.4966 13.4624 14.4442 12.5134 15.628 11.9601L18.7482 10.5ZM16.0514 12.8661C15.0804 13.3198 14.3037 14.0977 13.8505 15.0701L12.2323 18.5381C11.941 19.154 11.0347 19.154 10.7435 18.5381L9.12518 15.0701C8.67206 14.0977 7.89529 13.3198 6.92432 12.8661L3.46121 11.2455C2.84626 10.9538 2.84626 10.0462 3.46121 9.75453L6.92432 8.13394C7.89529 7.68017 8.67206 6.90229 9.12518 5.92993L10.7435 2.46187C11.0347 1.84604 11.941 1.84604 12.2323 2.46187L13.8505 5.92993C14.3037 6.90229 15.0804 7.68017 16.0514 8.13394L19.5145 9.75453C20.1618 10.0462 20.1618 10.9538 19.5145 11.2455L16.0514 12.8661Z" fill="#4C4C4C"/>
<path d="M24.6859 18.0176L22.445 16.969C21.8168 16.6754 21.3141 16.1721 21.0209 15.5429L19.9738 13.2989C19.7853 12.9004 19.199 12.9004 19.0105 13.2989L17.9634 15.5429C17.6702 16.1721 17.1675 16.6754 16.5393 16.969L14.2984 18.0176C13.9005 18.2064 13.9005 18.7936 14.2984 18.9824L16.5393 20.031C17.1675 20.3246 17.6702 20.8279 17.9634 21.4571L19.0105 23.7011C19.199 24.0996 19.7853 24.0996 19.9738 23.7011L21.0209 21.4571C21.3141 20.8279 21.8168 20.3246 22.445 20.031L24.6859 18.9824C25.1047 18.7936 25.1047 18.2064 24.6859 18.0176Z" fill="white"/>
<path fill-rule="evenodd" clip-rule="evenodd" d="M23.3573 18.5L22.0216 17.875C22.0215 17.8749 22.0213 17.8748 22.0212 17.8748C21.1803 17.4816 20.507 16.8073 20.1147 15.9658C20.1147 15.9657 20.1147 15.9656 20.1147 15.9656C20.1146 15.9655 20.1146 15.9654 20.1145 15.9653L19.4921 14.6315L18.8698 15.9653C18.8697 15.9654 18.8696 15.9656 18.8695 15.9658C18.4773 16.8073 17.804 17.4816 16.9631 17.8748C16.963 17.8748 16.9628 17.8749 16.9627 17.8749C16.9627 17.8749 16.9627 17.875 16.9626 17.875L15.627 18.5L16.9626 19.125C16.9627 19.1251 16.9628 19.1251 16.9629 19.1252C16.963 19.1252 16.963 19.1252 16.9631 19.1252C17.8042 19.5184 18.4775 20.193 18.8698 21.0347L19.4921 22.3685L20.1145 21.0347C20.1146 21.0346 20.1147 21.0344 20.1147 21.0342C20.507 20.1927 21.1803 19.5184 22.0212 19.1252C22.0213 19.1252 22.0215 19.1251 22.0216 19.125L23.3573 18.5ZM22.445 20.031C21.8168 20.3246 21.3141 20.8279 21.0209 21.4571L19.9738 23.7011C19.7853 24.0996 19.199 24.0996 19.0105 23.7011L17.9634 21.4571C17.6702 20.8279 17.1675 20.3246 16.5393 20.031L14.2984 18.9824C13.9005 18.7936 13.9005 18.2064 14.2984 18.0176L16.5393 16.969C17.1675 16.6754 17.6702 16.1721 17.9634 15.5429L19.0105 13.2989C19.199 12.9004 19.7853 12.9004 19.9738 13.2989L21.0209 15.5429C21.3141 16.1721 21.8168 16.6754 22.445 16.969L24.6859 18.0176C25.1047 18.2064 25.1047 18.7936 24.6859 18.9824L22.445 20.031Z" fill="#4C4C4C"/>
<rect x="53" y="55" width="1" height="10" fill="#4C4C4C"/>
</svg>
