<svg width="72" height="72" viewBox="0 0 72 72" fill="none" xmlns="http://www.w3.org/2000/svg">
<path d="M68.9602 30.7726C70.3466 34.1196 70.3466 37.8804 68.9602 41.2274L63.0027 55.61C61.6163 58.9571 58.9571 61.6163 55.61 63.0027L41.2274 68.9602C37.8804 70.3466 34.1196 70.3466 30.7726 68.9602L16.39 63.0027C13.0429 61.6163 10.3837 58.9571 8.99727 55.61L3.0398 41.2274C1.6534 37.8804 1.6534 34.1196 3.0398 30.7726L8.99728 16.39C10.3837 13.0429 13.0429 10.3837 16.39 8.99727L30.7726 3.0398C34.1196 1.6534 37.8804 1.6534 41.2274 3.0398L55.61 8.99728C58.9571 10.3837 61.6163 13.0429 63.0027 16.39L68.9602 30.7726Z" fill="#76CFED"/>
<path d="M3.07231 26.4881L4.01637 22.9983L23.9193 19.8535L68.9337 58.5783L67.8304 62.6566C67.688 63.1827 67.2564 63.5832 66.717 63.6895L39.913 68.971C38.2081 69.3069 36.4544 68.6908 35.3442 67.3659L3.78158 29.6979C3.03357 28.8052 2.76916 27.6086 3.07231 26.4881Z" fill="#054B74"/>
<path d="M38.3352 62.1441L5.14592 24.5973C4.28519 23.6311 4.87327 22.1071 6.16548 21.9552L29.7541 19.1761C31.3034 18.9939 32.8472 19.561 33.9016 20.6996L68.0516 57.2139C68.4812 57.6779 68.2258 58.4278 67.6002 58.5394L41.3336 63.1773C40.2206 63.3757 39.0832 62.9839 38.3352 62.1441Z" fill="#7EAD00"/>
<ellipse cx="0.755004" cy="0.748765" rx="0.755004" ry="0.748765" transform="matrix(0.966541 0.256514 -0.261142 0.9653 51.9004 51.1543)" fill="#8CBB45"/>
<ellipse cx="0.755004" cy="0.748765" rx="0.755004" ry="0.748765" transform="matrix(0.966541 0.256514 -0.261142 0.9653 55.0508 51.0625)" fill="#8CBB45"/>
<path d="M44.5803 56.748L36.3061 59.46L39.5723 63.3142L48.2878 61.3595L44.5803 56.748Z" fill="#8CBB45"/>
<path d="M22.1243 26.6742L19.0198 22.2226L18.4312 21.2129L4.36719 23.0285L12.6797 32.9165L19.6112 31.982L22.1243 26.6742Z" fill="#7EAD00"/>
<path d="M47.4091 44.6948C46.068 45.1925 46.0366 45.2553 45.3307 45.2102C43.149 45.3111 43.8409 46.7353 44.4833 47.5459C45.1258 48.3566 47.7678 47.3507 48.8411 46.5686C49.6998 45.9429 53.9719 45.6541 55.7726 45.6342L53.7914 43.4013C52.3747 43.5943 48.7502 44.1972 47.4091 44.6948Z" fill="#8CBB45"/>
<path d="M23.4271 32.9961L19.8878 33.3371L23.2866 38.2935L28.3119 39.6272L23.4271 32.9961Z" fill="#4F6D01"/>
<path d="M34.6712 36.834L31.1319 37.175L34.2903 41.4274L37.8297 41.0864L34.6712 36.834Z" fill="#4F6D01"/>
<path d="M39.1204 36.3067L35.5811 36.6477L38.7396 40.9001L42.2789 40.5591L39.1204 36.3067Z" fill="#4F6D01"/>
<path fill-rule="evenodd" clip-rule="evenodd" d="M19.6785 21.1242L23.118 26.3977L20.6827 31.9645L19.1551 31.309L21.2363 26.5515L18.2801 22.019L19.6785 21.1242Z" fill="#E4E4E4"/>
<path d="M18.7787 33.4688L15.2393 33.8098L17.22 36.841L22.2453 38.1747L18.7787 33.4688Z" fill="#4F6D01"/>
<path d="M31.6357 22.5825L22.0257 23.9017C19.6221 24.2316 17.2068 23.4221 15.4972 21.7136L29.3063 20.0438L31.6357 22.5825Z" fill="#1A73B3"/>
<path d="M51.5091 53.6794L60.2576 52.1602L66.108 58.4074L56.3544 59.6598L51.5091 53.6794Z" fill="#4F6D01"/>
<path d="M21.6963 38.6223L17.7234 37.568L22.3822 42.6454L27.4733 43.9965C31.7979 45.1442 36.3276 45.3212 40.737 44.5146L53.08 42.2569L49.9071 38.8542L48.4851 39.1693C39.6317 41.1315 30.444 40.9439 21.6963 38.6223Z" fill="#E4E4E4"/>
<path fill-rule="evenodd" clip-rule="evenodd" d="M24.6762 30.4364L33.9629 42.1545L32.6533 43.1726L23.9512 32.1921L13.0381 33.5922L12.8242 31.9569L24.6762 30.4364Z" fill="#E4E4E4"/>
<path fill-rule="evenodd" clip-rule="evenodd" d="M44.8351 34.1124L28.4773 37.2396L28.1618 35.6206L44.5196 32.4933L44.8351 34.1124Z" fill="#E4E4E4"/>
<path d="M41.344 51.1945C45.5627 47.705 53.0882 46.2738 56.3236 45.9944L60.6881 50.5669C56.7875 50.3852 48.358 50.7514 45.8451 53.6694C43.3322 56.5874 37.1712 58.1246 34.4048 58.5285L30.2019 53.3587C32.1581 54.0913 37.1253 54.684 41.344 51.1945Z" fill="#B1B0CE"/>
<path d="M49.5075 60.8304L36.1486 44.9086L41.0161 43.6398L54.6154 60.2656L49.5075 60.8304Z" fill="#E4E4E4"/>
<path fill-rule="evenodd" clip-rule="evenodd" d="M29.2436 19.3043L43.3903 30.4706L49.3181 44.9881C49.7401 46.0217 49.1529 47.1879 48.0654 47.4757L28.7953 52.5764L28.0432 49.7886L46.1758 44.989L40.9762 32.255L27.4279 21.561L29.2436 19.3043Z" fill="#F6921E"/>
<path fill-rule="evenodd" clip-rule="evenodd" d="M6.75675 23.2347C6.27583 23.2912 6.05403 23.8571 6.37044 24.2202L38.9323 61.5941C39.2952 61.9976 39.8447 62.1858 40.3825 62.0899L40.3853 62.0894L64.8368 57.772C65.5416 57.6475 65.8295 56.8009 65.3443 56.2794L32.9597 21.4743C32.2674 20.7267 31.2532 20.354 30.2353 20.4737L6.75675 23.2347ZM68.3015 58.8351L40.6775 63.7127C39.5645 63.9112 38.4271 63.5193 37.679 62.6795L4.31389 24.3837C3.45316 23.4175 4.04124 21.8935 5.33345 21.7415L30.039 18.8363C31.5884 18.6541 33.1322 19.2211 34.1866 20.3597L68.7529 57.5097C69.1826 57.9736 68.9272 58.7235 68.3015 58.8351Z" fill="#1A73B3"/>
<path fill-rule="evenodd" clip-rule="evenodd" d="M69.4503 56.8749C69.8037 57.2565 69.9418 57.727 69.9071 58.1751L70 58.255L68.7434 62.8999C68.5077 63.7711 67.793 64.4341 66.8999 64.6101L40.0959 69.8917C38.05 70.2948 35.9456 69.5555 34.6134 67.9656L3.05071 30.2976C2.10647 29.1707 1.77271 27.6602 2.15538 26.2457L2.9612 23.267C2.99356 22.097 3.85437 20.97 5.22106 20.8092L24.0559 18.5944C23.9255 17.874 23.8594 17.1623 23.8594 16.4594C23.8594 7.71509 30.5225 2 37.9103 2C38.441 2 38.9682 2.02949 39.4896 2.08753C40.0111 2.02949 40.5383 2 41.069 2C48.4568 2 55.1199 7.71509 55.1199 16.4594C55.1199 21.2307 52.0816 26.4158 46.4271 32.1308L69.4503 56.8749ZM45.1163 32.1065C51.1467 26.1733 54.1727 21.0127 54.1727 16.4594C54.1727 8.24778 47.9484 2.93824 41.069 2.93824C40.5378 2.93824 40.0105 2.96989 39.4896 3.0321C38.9688 2.96989 38.4415 2.93824 37.9103 2.93824C31.0309 2.93824 24.8066 8.24778 24.8066 16.4594C24.8066 17.1211 24.8705 17.7957 24.9983 18.4835C25.0548 18.7877 25.1238 19.0946 25.2053 19.404L5.33275 21.7409C4.43763 21.8462 3.88038 22.6098 3.90852 23.3903L3.07037 26.4885C2.76722 27.6091 3.03163 28.8057 3.77964 29.6984L35.3423 67.3664C36.4525 68.6913 38.2062 69.3074 39.9111 68.9715L66.7151 63.6899C67.2544 63.5836 67.6861 63.1832 67.8284 62.6571L68.9317 58.5787L68.83 58.4912C69.0217 58.2033 69.0216 57.8 68.7522 57.5091L45.1163 32.1065ZM39.5481 21.2262C41.6456 20.5643 43.1639 18.6179 43.1639 16.3225C43.1639 14.0272 41.6456 12.0808 39.5481 11.4188C37.4507 12.0808 35.9324 14.0272 35.9324 16.3225C35.9324 18.6179 37.4507 20.5643 39.5481 21.2262ZM39.5481 22.2033C36.9211 21.513 34.9852 19.1417 34.9852 16.3225C34.9852 13.5034 36.9211 11.1321 39.5481 10.4418C42.1751 11.1321 44.1111 13.5034 44.1111 16.3225C44.1111 19.1417 42.1751 21.513 39.5481 22.2033Z" fill="#4C4C4C"/>
<ellipse opacity="0.5" cx="39.8996" cy="35.9608" rx="5.26486" ry="2.43351" fill="#1F1F1F"/>
<path fill-rule="evenodd" clip-rule="evenodd" d="M27.9648 16.4567C27.9648 8.24509 34.1891 2.93555 41.0685 2.93555C47.9479 2.93555 54.1722 8.24509 54.1722 16.4567C54.1722 21.7003 50.1592 27.7494 42.1659 34.8562C41.5435 35.4004 40.6099 35.4004 39.9875 34.8562C31.9778 27.7494 27.9648 21.7003 27.9648 16.4567ZM41.127 22.4036C44.5193 22.4036 47.2693 19.6798 47.2693 16.3198C47.2693 12.9599 44.5193 10.2361 41.127 10.2361C37.7347 10.2361 34.9847 12.9599 34.9847 16.3198C34.9847 19.6798 37.7347 22.4036 41.127 22.4036Z" fill="#870617"/>
<path d="M41.1254 35.2675H37.791V34.2246H41.1254V35.2675Z" fill="#870617"/>
<path fill-rule="evenodd" clip-rule="evenodd" d="M24.8047 16.4567C24.8047 8.24509 31.0289 2.93555 37.9083 2.93555C44.7878 2.93555 51.012 8.24509 51.012 16.4567C51.012 21.7003 46.999 27.7508 39.0058 34.8577C38.3834 35.4018 37.4497 35.4018 36.8273 34.8577C28.8177 27.7508 24.8047 21.7003 24.8047 16.4567ZM37.9668 22.4036C41.3592 22.4036 44.1092 19.6798 44.1092 16.3198C44.1092 12.9599 41.3592 10.2361 37.9668 10.2361C34.5745 10.2361 31.8245 12.9599 31.8245 16.3198C31.8245 19.6798 34.5745 22.4036 37.9668 22.4036Z" fill="#DD2826"/>
<path d="M4.53293 41.9484L8.58532 40.0702C9.7215 39.5443 10.6304 38.6427 11.1607 37.5158L13.0543 33.4963C13.3952 32.7825 14.4556 32.7825 14.7964 33.4963L16.6901 37.5158C17.2203 38.6427 18.1292 39.5443 19.2654 40.0702L23.3178 41.9484C24.0374 42.2865 24.0374 43.3384 23.3178 43.6764L19.2654 45.5547C18.1292 46.0806 17.2203 46.9822 16.6901 48.1091L14.7964 52.1286C14.4556 52.8424 13.3952 52.8424 13.0543 52.1286L11.1607 48.1091C10.6304 46.9822 9.7215 46.0806 8.58532 45.5547L4.53293 43.6764C3.77548 43.3384 3.77548 42.2865 4.53293 41.9484Z" fill="white"/>
<path d="M16.5228 56.9437L18.2595 56.0493C18.7465 55.7988 19.136 55.3695 19.3633 54.8329L20.1748 52.9188C20.3209 52.579 20.7754 52.579 20.9215 52.9188L21.733 54.8329C21.9603 55.3695 22.3498 55.7988 22.8367 56.0493L24.5735 56.9437C24.8819 57.1047 24.8819 57.6055 24.5735 57.7665L22.8367 58.6609C22.3498 58.9114 21.9603 59.3407 21.733 59.8773L20.9215 61.7914C20.7754 62.1313 20.3209 62.1313 20.1748 61.7914L19.3633 59.8773C19.136 59.3407 18.7465 58.9114 18.2595 58.6609L16.5228 57.7665C16.1982 57.6055 16.1982 57.1047 16.5228 56.9437Z" fill="white"/>
<path d="M53.5745 31.4467L56.0831 30.1946C56.7865 29.8439 57.3492 29.2429 57.6774 28.4916L58.8497 25.8119C59.0607 25.3361 59.7171 25.3361 59.9281 25.8119L61.1004 28.4916C61.4286 29.2429 61.9913 29.8439 62.6946 30.1946L65.2033 31.4467C65.6487 31.6721 65.6487 32.3733 65.2033 32.5987L62.6946 33.8509C61.9913 34.2015 61.4286 34.8026 61.1004 35.5539L59.9281 38.2335C59.7171 38.7093 59.0607 38.7093 58.8497 38.2335L57.6774 35.5539C57.3492 34.8026 56.7865 34.2015 56.0831 33.8509L53.5745 32.5987C53.1056 32.3733 53.1056 31.6721 53.5745 31.4467Z" fill="white"/>
<path fill-rule="evenodd" clip-rule="evenodd" d="M4.9283 42.8011L4.92212 42.8038C4.91732 42.806 4.91417 42.8078 4.91234 42.8089C4.91221 42.8098 4.91211 42.811 4.91211 42.8124C4.91211 42.8139 4.91221 42.8151 4.91234 42.816C4.91417 42.8171 4.91732 42.8189 4.92212 42.8211L4.9283 42.8238L8.98637 44.7047C8.98652 44.7048 8.98623 44.7046 8.98637 44.7047C10.3241 45.3241 11.3952 46.3865 12.0193 47.7128L13.9089 51.7237C13.9131 51.7248 13.9188 51.7257 13.9254 51.7257C13.9319 51.7257 13.9376 51.7248 13.9419 51.7237L15.8315 47.7128C15.8315 47.7127 15.8314 47.713 15.8315 47.7128C16.4555 46.3867 17.5263 45.3242 18.8639 44.7049C18.8641 44.7048 18.8638 44.705 18.8639 44.7049L22.9079 42.8305C22.908 42.8304 22.9079 42.8307 22.9079 42.8305C22.9092 42.826 22.9102 42.8194 22.9102 42.8124C22.9102 42.8055 22.9093 42.7994 22.9081 42.7949C22.908 42.7947 22.9081 42.795 22.9081 42.7949L18.8644 40.9202C17.5265 40.3009 16.4558 39.2388 15.8317 37.9125C15.8316 37.9123 15.8317 37.9126 15.8317 37.9125L13.9419 33.9011C13.9376 33.9001 13.9319 33.8992 13.9254 33.8992C13.9188 33.8992 13.9131 33.9001 13.9089 33.9011L12.0193 37.9121C11.3952 39.2386 10.3243 40.3009 8.98637 40.9202L4.9283 42.8011ZM8.58532 40.0702L4.53293 41.9484C3.77548 42.2865 3.77548 43.3384 4.53293 43.6764L8.58532 45.5547C9.7215 46.0806 10.6304 46.9822 11.1607 48.1091L13.0543 52.1286C13.3952 52.8424 14.4556 52.8424 14.7964 52.1286L16.6901 48.1091C17.2203 46.9822 18.1292 46.0806 19.2654 45.5547L23.3178 43.6764C24.0374 43.3384 24.0374 42.2865 23.3178 41.9484L19.2654 40.0702C18.1292 39.5443 17.2203 38.6427 16.6901 37.5157L14.7964 33.4963C14.4556 32.7825 13.3952 32.7825 13.0543 33.4963L11.1607 37.5157C10.6304 38.6427 9.7215 39.5443 8.58532 40.0702ZM13.9114 33.8957C13.9119 33.895 13.9117 33.8952 13.911 33.8967C13.9109 33.8969 13.9111 33.8964 13.911 33.8967M13.9114 33.8957C13.9112 33.896 13.9108 33.8966 13.9102 33.8973ZM17.7773 57.3551L18.6961 57.8283C19.394 58.1873 19.9305 58.791 20.2368 59.5145L20.5481 60.2487L20.8595 59.5145C21.1658 58.791 21.7019 58.1876 22.3997 57.8285L23.319 57.3551L22.4002 56.8819C21.7023 56.5229 21.1658 55.9192 20.8595 55.1957L20.5481 54.4615L20.2368 55.1957C19.9305 55.9192 19.3944 56.5226 18.6965 56.8817L17.7773 57.3551ZM18.2595 56.0493L16.5228 56.9437C16.1982 57.1047 16.1982 57.6055 16.5228 57.7665L18.2595 58.6609C18.7465 58.9114 19.136 59.3407 19.3633 59.8773L20.1748 61.7914C20.3209 62.1313 20.7754 62.1313 20.9215 61.7914L21.733 59.8773C21.9603 59.3407 22.3498 58.9114 22.8367 58.6609L24.5735 57.7665C24.8819 57.6055 24.8819 57.1047 24.5735 56.9437L22.8367 56.0493C22.3498 55.7988 21.9603 55.3695 21.733 54.8329L20.9215 52.9188C20.7754 52.579 20.3209 52.579 20.1748 52.9188L19.3633 54.8329C19.136 55.3695 18.7465 55.7988 18.2595 56.0493ZM54.5254 32.0227L56.509 33.0128C57.4211 33.4675 58.1351 34.239 58.5468 35.1813L59.3889 37.1063L60.231 35.1813C60.6427 34.239 61.3567 33.4675 62.2688 33.0128L64.2523 32.0227L62.2688 31.0326C61.3567 30.578 60.6427 29.8065 60.231 28.8642L59.3889 26.9392L58.5468 28.8642C58.1351 29.8065 57.4211 30.578 56.509 31.0326L54.5254 32.0227ZM56.0831 30.1946L53.5745 31.4467C53.1056 31.6721 53.1056 32.3733 53.5745 32.5987L56.0831 33.8509C56.7865 34.2015 57.3492 34.8026 57.6774 35.5539L58.8497 38.2335C59.0607 38.7093 59.7171 38.7093 59.9281 38.2335L61.1004 35.5539C61.4286 34.8026 61.9913 34.2015 62.6946 33.8509L65.2033 32.5987C65.6487 32.3733 65.6487 31.6721 65.2033 31.4467L62.6946 30.1946C61.9913 29.8439 61.4286 29.2429 61.1004 28.4916L59.9281 25.8119C59.7171 25.3361 59.0607 25.3361 58.8497 25.8119L57.6774 28.4916C57.3492 29.2429 56.7865 29.8439 56.0831 30.1946Z" fill="#4C4C4C"/>
</svg>
