<svg width="72" height="72" viewBox="0 0 72 72" fill="none" xmlns="http://www.w3.org/2000/svg">
<path d="M68.9602 30.7726C70.3466 34.1196 70.3466 37.8804 68.9602 41.2274L63.0027 55.61C61.6163 58.9571 58.9571 61.6163 55.61 63.0027L41.2274 68.9602C37.8804 70.3466 34.1196 70.3466 30.7726 68.9602L16.39 63.0027C13.0429 61.6163 10.3837 58.9571 8.99727 55.61L3.0398 41.2274C1.6534 37.8804 1.6534 34.1196 3.0398 30.7726L8.99728 16.39C10.3837 13.0429 13.0429 10.3837 16.39 8.99727L30.7726 3.0398C34.1196 1.6534 37.8804 1.6534 41.2274 3.0398L55.61 8.99728C58.9571 10.3837 61.6163 13.0429 63.0027 16.39L68.9602 30.7726Z" fill="#76CFED"/>
<path d="M64.436 36.5918C63.7553 31.5682 57.7283 28.7534 55.5869 27.7567C41.5332 21.1843 12.2914 29.1844 7.61162 46.6121C5.93823 52.8208 7.07273 61.4539 13.0431 66.235C21.254 72.8075 36.1018 70.1139 42.2565 63.2317C47.3617 57.5212 44.568 51.0431 50.6376 47.5279C55.0055 44.9959 59.3449 46.6794 62.4932 42.9622C62.635 42.7737 64.904 40.0262 64.436 36.5918ZM60.6212 38.8679C59.7562 41.4403 56.6505 42.8006 53.6724 41.8982C50.6944 41.0093 48.9784 38.181 49.8435 35.6086C50.7085 33.0228 53.8284 31.6625 56.8065 32.5648C59.7704 33.4672 61.4863 36.282 60.6212 38.8679Z" fill="#E87227"/>
<path d="M63.474 34.4902C62.7933 29.4666 56.7663 26.6518 54.6249 25.6552C40.5712 19.0828 11.3294 27.0828 6.64963 44.5105C4.96205 50.7058 6.09656 59.3388 12.0669 64.12C20.2778 70.6924 35.1256 67.9988 41.2803 61.1166C46.3856 55.4062 43.5919 48.928 49.6614 45.4129C54.0293 42.8809 58.3687 44.5644 61.517 40.8472C61.673 40.6721 63.942 37.9246 63.474 34.4902ZM59.6451 36.7663C58.78 39.3387 55.6743 40.699 52.6962 39.7967C49.7182 38.9078 48.0022 36.0795 48.8673 33.5071C49.7324 30.9212 52.8522 29.5609 55.8303 30.4633C58.7942 31.3656 60.5101 34.1805 59.6451 36.7663Z" fill="#F1BFA3"/>
<path d="M26.0053 39.5408C25.8493 40.9684 24.5588 42.0728 23.4101 42.5442C22.1763 43.0425 21.0702 42.8136 20.0633 42.625C19.4252 42.5038 17.8936 42.1806 16.5464 40.955C15.8515 40.322 14.9864 39.5273 14.9864 38.3826C14.9723 36.9549 16.3195 35.9852 16.6882 35.7293C18.8721 34.1536 21.6942 35.0021 21.9211 35.0694C23.7221 35.6351 26.2606 37.3455 26.0053 39.5408Z" fill="#B27A50"/>
<path d="M22.9838 49.7771C22.8278 51.2048 21.5373 52.3091 20.3886 52.7805C19.1549 53.2788 18.0487 53.0499 17.0419 52.8613C16.4037 52.7401 14.8721 52.4169 13.5249 51.1913C12.83 50.5583 11.965 49.7637 11.965 48.6189C11.9508 47.1913 13.298 46.2216 13.6667 45.9657C15.8506 44.3899 18.6727 45.2384 18.8996 45.3057C20.7006 45.8714 23.2249 47.5818 22.9838 49.7771Z" fill="#B27A50"/>
<path d="M23.9389 61.0467C23.7829 62.4743 22.4924 63.5787 21.3437 64.05C20.1099 64.5484 19.0038 64.3194 17.9969 64.1309C17.3588 64.0096 15.8272 63.6864 14.48 62.4608C13.7851 61.8278 12.92 61.0332 12.92 59.8884C12.9059 58.4608 14.2531 57.4911 14.6218 57.2352C16.8057 55.6594 19.6278 56.5079 19.8547 56.5753C21.6699 57.1409 24.1941 58.8514 23.9389 61.0467Z" fill="#B27A50"/>
<path d="M25.6108 38.7596C25.4548 40.1872 24.1643 41.2916 23.0156 41.7629C21.7818 42.2613 20.6757 42.0323 19.6688 41.8437C19.0306 41.7225 17.4991 41.3993 16.1518 40.1737C15.457 39.5407 14.5919 38.7461 14.5919 37.6013C14.5777 36.1737 15.9249 35.204 16.2937 34.9481C18.4776 33.3723 21.2997 34.2208 21.5266 34.2882C23.3276 34.8538 25.8518 36.5643 25.6108 38.7596Z" fill="#E82E3C"/>
<path d="M22.5893 48.9978C22.4333 50.4255 21.1428 51.5298 19.9941 52.0012C18.7603 52.4995 17.6542 52.2706 16.6473 52.082C16.0092 51.9608 14.4776 51.6376 13.1304 50.412C12.4355 49.779 11.5704 48.9844 11.5704 47.8396C11.5562 46.412 12.9035 45.4423 13.2722 45.1864C15.4561 43.6106 18.2782 44.4591 18.5051 44.5264C20.3061 45.0786 22.8304 46.8025 22.5893 48.9978Z" fill="#0075C4"/>
<path d="M23.5385 60.2693C23.3825 61.6969 22.092 62.8013 20.9433 63.2727C19.7096 63.771 18.6034 63.5421 17.5965 63.3535C16.9584 63.2323 15.4268 62.9091 14.0796 61.6835C13.3847 61.0505 12.5196 60.2559 12.5196 59.1111C12.5055 57.6835 13.8527 56.7137 14.2214 56.4579C16.4053 54.8821 19.2274 55.7306 19.4543 55.7979C21.2553 56.3636 23.7938 58.074 23.5385 60.2693Z" fill="#7EAD00"/>
<path d="M44.6131 54.4508C41.082 51.838 37.1538 48.5248 33.1972 44.417C27.7941 38.7874 23.8943 33.2655 21.1289 28.6459C21.6536 28.3496 22.2067 28.0668 22.7881 27.784C24.4048 27.0028 25.9505 26.3833 27.4112 25.8984C33.5233 33.8581 39.6355 41.8312 45.7476 49.7908C45.3505 51.3396 44.9818 52.9019 44.6131 54.4508Z" fill="#E87227"/>
<path d="M17.7523 5.84477C17.055 5.16471 16.3987 4.57848 15.7956 4.11168L14.369 3.19042L15.5426 5.2047C15.9869 5.57454 16.4732 6.01705 16.998 6.52885C18.2474 7.74741 19.6802 9.3238 21.2368 11.1618C24.3493 14.8372 27.936 19.5341 31.5091 24.4508C31.6327 24.6209 31.8559 24.7007 32.0685 24.6509C36.7627 23.5497 41.5135 23.1451 45.7993 23.4884L44.1242 22.4066C40.2937 22.2783 36.2 22.6973 32.1692 23.6128C28.6573 18.7893 25.1319 14.1794 22.0565 10.5479C20.4891 8.69712 19.0335 7.09432 17.7523 5.84477Z" fill="#4C4C4C"/>
<path d="M14.369 3.19042L14.3587 3.18533C13.8493 2.93514 12.9347 2.4859 11.9642 2.21988C11.019 1.96076 9.83859 1.82396 8.94427 2.43079C8.25993 2.89434 7.97077 3.64816 7.85868 4.37272C7.59687 5.69659 7.93401 7.32194 8.08497 8.04273C8.25471 8.88065 8.78556 10.0108 9.55428 11.3302C10.3312 12.6635 11.378 14.2345 12.6192 15.9663C15.0111 19.3035 18.1418 23.2613 21.4967 27.3065C21.2278 27.4449 20.9644 27.5853 20.707 27.7293C20.7017 27.7322 20.6965 27.7352 20.6914 27.7383C13.5502 31.402 7.74728 36.8814 5.8449 43.8956C4.5768 48.5065 4.84806 54.4404 7.48595 59.2338C8.50694 61.8474 10.129 64.261 12.473 66.1198C16.7655 69.5223 22.7517 70.4998 28.4106 69.7752C34.067 69.051 39.5003 66.6141 42.7111 63.0587C44.429 61.1558 45.2913 59.1694 45.8738 57.265L45.1452 56.0145C44.5683 58.1651 43.7867 60.3447 41.9124 62.4208C38.9079 65.7476 33.7366 68.0987 28.2693 68.7987C22.8045 69.4984 17.1477 68.5364 13.1484 65.3664C10.9586 63.6297 9.42756 61.3588 8.45853 58.8656C8.45079 58.8457 8.4417 58.8263 8.43131 58.8075C5.91681 54.2587 5.64268 48.5657 6.85963 44.1416L6.86008 44.14C8.66863 37.4705 14.2223 32.1721 21.2259 28.5867C21.2428 28.5781 21.259 28.5687 21.2746 28.5585C21.676 28.3349 22.0962 28.118 22.5362 27.9013C22.6739 27.8335 22.7725 27.7115 22.8053 27.5686C22.838 27.4256 22.8016 27.2763 22.7057 27.1611C19.2133 22.9643 15.9512 18.8521 13.4881 15.4154C12.2562 13.6967 11.2288 12.1532 10.4733 10.8566C9.71006 9.54671 9.2505 8.53186 9.11412 7.85704L9.11345 7.85383C8.95516 7.09808 8.6683 5.65351 8.89058 4.54459C8.89201 4.53749 8.89326 4.53036 8.89435 4.5232C8.98855 3.90494 9.20792 3.46665 9.55732 3.23006C10.029 2.90995 10.7754 2.92052 11.671 3.16602C12.5348 3.40282 13.3692 3.81118 13.884 4.06401L13.933 4.08808C14.381 4.3118 14.9207 4.68708 15.5426 5.2047L14.369 3.19042Z" fill="#4C4C4C"/>
<path d="M59.7753 27.4041C57.9549 26.0692 56.0426 25.1868 55.0304 24.7203C51.9495 23.2937 48.1847 22.5427 44.1242 22.4066L45.7993 23.4884C49.0709 23.7505 52.0715 24.4485 54.5693 25.6052C55.579 26.0706 57.404 26.9149 59.1309 28.1813C60.8625 29.4512 62.4413 31.1065 63.0302 33.1741C63.0432 33.2199 63.0632 33.2637 63.0896 33.3041C63.4802 33.9033 63.7914 34.5472 63.9927 35.2379L65.2292 36.0364C65.0676 34.8558 64.6276 33.7944 64.0223 32.8499C63.3346 30.5207 61.5732 28.7226 59.7753 27.4041Z" fill="#4C4C4C"/>
<path d="M64.2156 37.7152L65.2292 36.0364L63.9927 35.2379C64.0799 35.5374 64.1465 35.8457 64.19 36.1629C64.2639 36.7002 64.2653 37.2204 64.2156 37.7152Z" fill="#4C4C4C"/>
<path d="M59.7676 45.0819C60.9749 44.6559 62.1274 43.9815 63.1559 42.779L63.1605 42.7735L63.1711 42.7603L63.1803 42.7484L62.759 42.4555L63.1824 42.7457L63.1949 42.7298L63.1981 42.7258C63.5059 42.3348 65.7104 39.5343 65.2292 36.0364L64.2156 37.7152C63.9794 40.0668 62.5894 41.8427 62.3525 42.1437L62.3376 42.1626L62.3355 42.1653L62.3316 42.1703C61.814 42.7737 61.2643 43.2234 60.6814 43.5685L59.7676 45.0819Z" fill="#4C4C4C"/>
<path d="M55.0961 52.8189C54.5773 52.6035 54.0671 52.461 53.5813 52.3711L53.5829 52.3714L53.479 52.8544L53.58 52.3709L53.5813 52.3711C53.3243 52.3223 53.0731 52.288 52.8303 52.2656C52.8726 52.4046 52.9003 52.5448 52.9141 52.6848L52.3924 52.7302L52.4152 52.2379C52.4633 52.2399 52.5118 52.2423 52.5607 52.2452C52.6493 52.2504 52.7392 52.2572 52.8303 52.2656C52.8207 52.2338 52.8102 52.2021 52.799 52.1705C52.4436 51.1678 51.4221 50.5507 50.3512 50.6089L50.5222 50.9175L50.0575 51.1451L49.9381 50.6653C50.0757 50.635 50.2139 50.6164 50.3512 50.6089C50.0423 50.0519 49.6958 49.4298 49.3159 48.7526C49.233 48.8342 49.153 48.9167 49.0758 49.0001L48.6806 48.6765L49.1438 48.4462L49.3159 48.7526C49.7882 48.288 50.3555 47.8538 51.0482 47.4565C52.8464 46.4243 54.6415 46.1251 56.4372 45.8302L56.4831 45.8227C57.5888 45.6412 58.6996 45.4587 59.7676 45.0819L60.6814 43.5685C59.3766 44.341 57.9058 44.5886 56.2569 44.8594L56.2293 44.864C54.4522 45.1558 52.481 45.4795 50.5026 46.6151C49.6004 47.1326 48.8759 47.7152 48.2855 48.3529C48.1432 48.5066 48.1162 48.7267 48.2174 48.9068C48.7377 49.8323 49.1995 50.6622 49.5927 51.3726C49.7033 51.5723 49.9437 51.6762 50.1769 51.6249C50.8656 51.4733 51.5767 51.8384 51.8049 52.4821C51.8395 52.5799 51.8611 52.6782 51.8707 52.7756C51.8948 53.0209 52.1079 53.2118 52.3696 53.2225C52.6873 53.2355 53.0256 53.2709 53.3751 53.3374L53.378 53.3379C53.7638 53.4092 54.1663 53.519 54.5756 53.681L55.0961 52.8189Z" fill="#4C4C4C"/>
<path d="M49.0845 62.7754C52.1658 67.0003 57.6164 66.8 58.2886 66.7731L58.2911 66.773C59.404 66.7235 60.5914 66.4879 61.5097 66.171C61.9665 66.0133 62.3824 65.8267 62.6938 65.6169C62.8495 65.5121 62.9976 65.3891 63.1101 65.2454C63.223 65.1013 63.3203 64.9094 63.3155 64.6819L63.3154 64.6775C63.3043 64.3112 63.0448 64.1011 62.8403 63.9911C62.6628 63.8957 62.434 63.8244 62.2401 63.764L62.2097 63.7546C61.7807 63.6207 61.2935 63.4659 60.8175 63.1276L60.5003 63.5198L60.8164 63.1268L60.8175 63.1276C59.6683 62.3057 59.5015 61.0416 59.3181 59.3816L59.3127 59.333C59.1336 57.7107 58.9218 55.7922 57.2941 54.2318C56.4689 53.4411 55.5417 53.0067 55.1009 52.8209L55.0983 52.8198L55.0961 52.8189L54.5756 53.681C54.6082 53.6939 54.6409 53.7072 54.6737 53.7208C55.0639 53.8854 55.8542 54.2591 56.5461 54.922C57.9004 56.2203 58.0914 57.8144 58.2758 59.4834L58.2852 59.5684C58.4554 61.1131 58.6424 62.8101 60.1832 63.912L60.1843 63.9128C60.8055 64.3547 61.4363 64.5516 61.8659 64.6856L61.8796 64.6899C61.9828 64.7221 62.0679 64.7487 62.142 64.7744C62.1245 64.7875 62.1051 64.8013 62.0836 64.8158C61.879 64.9536 61.56 65.1038 61.1486 65.2458C60.3309 65.5281 59.2491 65.7436 58.2429 65.7885C57.5646 65.8156 52.6795 65.9628 49.948 62.2171C49.8488 62.0813 49.7556 61.945 49.6682 61.8086L49.0845 62.7754Z" fill="#4C4C4C"/>
<path d="M46.2038 56.0973C46.3859 56.3228 46.6159 56.5201 46.8899 56.6748C47.0424 56.7608 47.2012 56.8294 47.3636 56.8811C47.3054 57.98 47.4105 59.5502 48.1562 61.1824L48.1568 61.1838L48.5995 62.1164L49.0845 62.7754L49.6682 61.8086C49.4523 61.4713 49.2716 61.1328 49.1208 60.7973L49.1195 60.7946C48.3618 59.1368 48.3417 57.5374 48.4395 56.5415C48.4657 56.2753 48.2613 56.038 47.979 56.0068C47.7907 55.986 47.6036 55.9282 47.429 55.8297C46.7888 55.4684 46.5707 54.6974 46.9262 54.0873C47.036 53.8988 47.0033 53.6652 46.8454 53.5099C46.7856 53.4511 46.7241 53.3904 46.6609 53.3278C46.5291 53.1973 46.3321 53.1448 46.147 53.1908C45.962 53.2368 45.8184 53.3741 45.7724 53.5489C45.6755 53.9175 45.5827 54.291 45.4897 54.6649L45.4894 54.666C45.3783 55.1134 45.2662 55.5633 45.1452 56.0145L45.8738 57.265C45.994 56.8718 46.1024 56.4821 46.2038 56.0973Z" fill="#4C4C4C"/>
<path fill-rule="evenodd" clip-rule="evenodd" d="M57.1642 31.6033C53.9256 30.6315 50.4494 32.0817 49.4743 34.9666C49.2003 35.7738 49.1577 36.6039 49.3118 37.3981C49.3264 37.4729 49.3591 37.5436 49.4075 37.6045C50.188 38.587 51.321 39.368 52.694 39.7741C55.933 40.7454 59.394 39.2938 60.3688 36.4232C60.6433 35.6107 60.6854 34.7779 60.5303 33.9812C60.5158 33.9065 60.4831 33.836 60.4348 33.7751C59.6567 32.7947 58.5283 32.0145 57.1642 31.6033ZM56.845 32.5419C54.0694 31.7095 51.2451 32.9795 50.4728 35.2657C50.2661 35.8743 50.2228 36.5002 50.3223 37.1071C50.9689 37.8817 51.8904 38.5035 53.0093 38.8343L53.0115 38.8349C55.7867 39.6676 58.5976 38.3983 59.3701 36.1247C59.5776 35.5104 59.6203 34.8816 59.52 34.2724C58.8752 33.4991 57.9575 32.8774 56.845 32.5419Z" fill="#4C4C4C"/>
<path d="M49.3159 48.7526L49.1438 48.4462L48.6806 48.6765L49.0758 49.0001C49.153 48.9167 49.233 48.8342 49.3159 48.7526Z" fill="#4C4C4C"/>
<path d="M50.3512 50.6089C50.2139 50.6164 50.0757 50.635 49.9381 50.6653L50.0575 51.1451L50.5222 50.9175L50.3512 50.6089Z" fill="#4C4C4C"/>
<path d="M52.8303 52.2656C52.7392 52.2572 52.6493 52.2504 52.5607 52.2452C52.5118 52.2423 52.4633 52.2399 52.4152 52.2379L52.3924 52.7302L52.9141 52.6848C52.9003 52.5448 52.8726 52.4046 52.8303 52.2656Z" fill="#4C4C4C"/>
<path d="M50.3598 53.3849C51.1681 53.2233 52.8841 52.9943 54.7134 53.762C55.1247 53.9371 55.9756 54.3411 56.7272 55.0684C59.6627 57.9102 57.5497 62.0448 60.2725 64.0112C61.3786 64.8058 62.5273 64.7115 62.5415 65.1829C62.5557 65.8698 60.1591 66.6779 58.0602 66.7721C57.3937 66.7991 52.2743 66.9742 49.3955 62.9876C47.2115 59.9708 47.8355 56.7115 47.9631 56.065C47.9773 55.8495 48.0624 54.7182 49.0409 53.964C49.5373 53.56 50.062 53.4387 50.3598 53.3849Z" fill="#7676AE"/>
<path d="M62.1429 65.6953C61.3771 66.2205 59.6328 66.6919 58.0587 66.7592C57.3922 66.7862 52.2869 66.9478 49.3939 62.9612C47.1958 59.9579 47.8198 56.6851 47.9616 56.0387C47.9758 55.8366 48.0609 54.6918 49.0394 53.9376C49.5358 53.5605 50.0605 53.4258 50.3583 53.372C50.9397 53.2508 52.06 53.1026 53.3222 53.345C52.8684 54.2743 51.9891 56.4831 52.6415 59.1363C53.3789 62.0589 55.7755 64.6178 59.0088 65.4528C60.1575 65.7626 61.2353 65.7895 62.1429 65.6953Z" fill="#515283"/>
<path fill-rule="evenodd" clip-rule="evenodd" d="M54.4755 55.166C54.7014 54.8621 55.1438 54.7897 55.4637 55.0042C55.7359 55.1866 56.0082 55.3997 56.2795 55.6573L56.2873 55.6648L56.2873 55.6648C57.8298 57.1766 57.8916 59.1972 57.8768 59.9177C57.8691 60.2896 57.5455 60.5851 57.1539 60.5778C56.7624 60.5705 56.4512 60.2631 56.4589 59.8913C56.4724 59.2388 56.3926 57.7066 55.2727 56.6058C55.0631 56.4072 54.8546 56.2444 54.6459 56.1045C54.326 55.89 54.2497 55.4698 54.4755 55.166Z" fill="#B1B0CE"/>
<path d="M50.26 52.2276C46.4736 45.2646 21.6199 7.78006 14.4016 4.14368C13.4231 3.65883 10.8989 2.37936 9.52327 3.32213C8.10514 4.29183 8.68657 7.14706 8.89929 8.25145C10.4734 16.0629 41.0138 49.1569 46.8707 54.8269C47.3386 54.2343 48.0477 53.5071 49.0546 52.8741C49.4942 52.6047 49.8913 52.3892 50.26 52.2276Z" fill="#FF0000"/>
<path d="M34.262 36.1769C37.4103 40.1635 40.5726 44.0019 43.7208 47.7325C43.579 47.8538 43.4514 47.9884 43.3238 48.1097C42.6289 48.81 42.2602 49.5777 42.0758 50.0895C34.4179 42.4127 10.1269 14.6776 8.87898 8.44187C8.69463 7.55297 8.28337 5.50583 8.87898 4.25329C8.89317 4.23983 8.89317 4.22636 8.90735 4.21289C12.8923 9.68093 29.7382 30.4665 34.262 36.1769Z" fill="#B01717"/>
<path d="M50.2568 52.2289C49.8881 52.404 49.491 52.606 49.0656 52.8754C48.0587 53.5084 47.3497 54.2356 46.8959 54.8282C46.1584 54.1279 45.2508 53.2255 44.173 52.1885C43.5207 51.542 42.8258 50.8417 42.0742 50.0875C42.2586 49.5757 42.6273 48.808 43.3222 48.1077C44.6127 46.7878 46.2152 46.4242 46.9668 46.3164C48.3423 48.7407 49.4769 50.8013 50.2568 52.2289Z" fill="#4E6C87"/>
<path d="M48.47 53.2906C48.3282 53.3984 48.1864 53.4926 48.0729 53.6139C48.0304 53.6408 47.9736 53.6812 47.9311 53.7351C47.7893 53.8563 47.6616 53.964 47.5624 54.0852C47.4206 54.2199 47.2929 54.3546 47.2078 54.4623C47.0802 54.5836 46.9951 54.6913 46.8959 54.8125C46.1584 54.1122 45.2508 53.2098 44.173 52.1728C43.5207 51.5263 42.8258 50.826 42.0742 50.0718C42.2586 49.56 42.6273 48.7923 43.3222 48.0919C43.464 47.9573 43.5916 47.8226 43.7192 47.7148C45.2934 49.6138 46.8959 51.4724 48.47 53.2906Z" fill="#3A5770"/>
<path fill-rule="evenodd" clip-rule="evenodd" d="M52.1552 52.8182C52.4854 53.7591 51.95 54.776 50.9593 55.0897C50.7846 55.145 50.5938 55.2236 50.4001 55.353L50.3832 55.3643L50.3832 55.3642C50.0217 55.6002 49.8064 55.8918 49.657 56.1282C49.1198 56.9786 47.9583 57.2544 47.0628 56.7441C46.1674 56.2338 45.877 55.1308 46.4143 54.2804C46.6896 53.8446 47.2377 53.0619 48.2323 52.4102C48.8014 52.0313 49.3447 51.8151 49.7634 51.6825C50.7541 51.3689 51.825 51.8773 52.1552 52.8182Z" fill="#2F3B68"/>
<path d="M15.4028 24.8734L12.5922 23.6243C11.8042 23.2745 11.1738 22.675 10.806 21.9255L9.49267 19.2525C9.25627 18.7778 8.52079 18.7778 8.28439 19.2525L6.97104 21.9255C6.6033 22.675 5.97289 23.2745 5.18488 23.6243L2.37431 24.8734C1.87523 25.0982 1.87523 25.7977 2.37431 26.0225L5.18488 27.2716C5.97289 27.6213 6.6033 28.2209 6.97104 28.9704L8.28439 31.6434C8.52079 32.1181 9.25627 32.1181 9.49267 31.6434L10.806 28.9704C11.1738 28.2209 11.8042 27.6213 12.5922 27.2716L15.4028 26.0225C15.9281 25.7977 15.9281 25.0982 15.4028 24.8734Z" fill="white"/>
<path fill-rule="evenodd" clip-rule="evenodd" d="M14.3705 25.4479L12.175 26.4237C12.1748 26.4238 12.1747 26.4238 12.1746 26.4239C12.1746 26.4239 12.1745 26.4239 12.1745 26.4239C11.1769 26.8668 10.3784 27.6264 9.91298 28.5746C9.91294 28.5747 9.9129 28.5748 9.91286 28.5749C9.91283 28.5749 9.9128 28.575 9.91277 28.575L8.88853 30.6596L7.86429 28.575C7.86427 28.575 7.86424 28.5749 7.86421 28.5749C7.86417 28.5748 7.86412 28.5747 7.86408 28.5746C7.3987 27.6264 6.60015 26.8668 5.60257 26.4239C5.60246 26.4239 5.60235 26.4238 5.60224 26.4238C5.6022 26.4237 5.60216 26.4237 5.60211 26.4237L3.40654 25.4479L5.60211 24.4722C5.60216 24.4722 5.6022 24.4721 5.60224 24.4721C5.60235 24.4721 5.60246 24.472 5.60257 24.472C6.60015 24.0291 7.3987 23.2695 7.86408 22.3213C7.86409 22.3213 7.8641 22.3212 7.86411 22.3212C7.86417 22.3211 7.86423 22.321 7.86429 22.3208L8.88853 20.2362L9.91277 22.3208C9.91283 22.321 9.9129 22.3211 9.91296 22.3212C9.91297 22.3212 9.91297 22.3213 9.91298 22.3213C10.3784 23.2695 11.1769 24.0291 12.1745 24.472C12.1745 24.472 12.1746 24.472 12.1746 24.472C12.1747 24.4721 12.1748 24.4721 12.175 24.4722L14.3705 25.4479ZM12.5922 23.6243L15.4028 24.8734C15.9281 25.0982 15.9281 25.7977 15.4028 26.0225L12.5922 27.2716C11.8042 27.6213 11.1738 28.2209 10.806 28.9704L9.49267 31.6434C9.25627 32.1181 8.52079 32.1181 8.28439 31.6434L6.97104 28.9704C6.6033 28.2209 5.97289 27.6213 5.18488 27.2716L2.37431 26.0225C1.87523 25.7977 1.87523 25.0982 2.37431 24.8734L5.18488 23.6243C5.97289 23.2745 6.6033 22.675 6.97104 21.9255L8.28439 19.2525C8.52079 18.7778 9.25627 18.7778 9.49267 19.2525L10.806 21.9255C11.1738 22.675 11.8042 23.2745 12.5922 23.6243Z" fill="#4C4C4C"/>
<path d="M69.4945 11.6064L65.8809 10.0005C64.8678 9.55079 64.0573 8.77993 63.5844 7.81634L61.8958 4.37958C61.5919 3.76931 60.6463 3.76931 60.3423 4.37958L58.6537 7.81634C58.1809 8.77993 57.3704 9.55079 56.3573 10.0005L52.7437 11.6064C52.102 11.8955 52.102 12.7948 52.7437 13.0839L56.3573 14.6899C57.3704 15.1396 58.1809 15.9104 58.6537 16.874L60.3423 20.3108C60.6463 20.921 61.5919 20.921 61.8958 20.3108L63.5844 16.874C64.0573 15.9104 64.8678 15.1396 65.8809 14.6899L69.4945 13.0839C70.17 12.7948 70.17 11.8955 69.4945 11.6064Z" fill="white"/>
<path d="M55.9771 18.5685L54.371 17.8548C53.9207 17.6549 53.5605 17.3123 53.3504 16.8841L52.5999 15.3566C52.4648 15.0854 52.0445 15.0854 51.9094 15.3566L51.159 16.8841C50.9488 17.3123 50.5886 17.6549 50.1383 17.8548L48.5322 18.5685C48.2471 18.697 48.2471 19.0967 48.5322 19.2252L50.1383 19.939C50.5886 20.1388 50.9488 20.4814 51.159 20.9097L51.9094 22.4371C52.0445 22.7084 52.4648 22.7084 52.5999 22.4371L53.3504 20.9097C53.5605 20.4814 53.9207 20.1388 54.371 19.939L55.9771 19.2252C56.2773 19.0967 56.2773 18.697 55.9771 18.5685Z" fill="white"/>
<path fill-rule="evenodd" clip-rule="evenodd" d="M68.7085 12.3452L65.4416 10.8933C64.2075 10.3456 63.2198 9.40606 62.6441 8.23307C62.644 8.23292 62.6442 8.23322 62.6441 8.23307L61.1191 5.12928L59.5943 8.23261C59.5943 8.23276 59.5944 8.23246 59.5943 8.23261C59.0186 9.4056 58.0306 10.3456 56.7966 10.8933L53.5297 12.3452L56.7966 13.7971C58.0306 14.3448 59.0184 15.2843 59.5941 16.4573C59.5942 16.4574 59.594 16.4571 59.5941 16.4573L61.1191 19.5611L62.6439 16.4577C62.6439 16.4576 62.6438 16.4579 62.6439 16.4577C63.2196 15.2847 64.2075 14.3448 65.4416 13.7971L68.7085 12.3452ZM65.8809 14.6899C64.8678 15.1396 64.0573 15.9104 63.5844 16.874L61.8958 20.3108C61.5919 20.921 60.6463 20.921 60.3423 20.3108L58.6537 16.874C58.1809 15.9104 57.3704 15.1396 56.3573 14.6899L52.7437 13.0839C52.102 12.7948 52.102 11.8955 52.7437 11.6064L56.3573 10.0005C57.3704 9.55079 58.1809 8.77992 58.6537 7.81634L60.3423 4.37958C60.6463 3.76931 61.5919 3.76931 61.8958 4.37958L63.5844 7.81634C64.0573 8.77992 64.8678 9.55079 65.8809 10.0005L69.4945 11.6064C70.17 11.8955 70.17 12.7948 69.4945 13.0839L65.8809 14.6899ZM55.9771 19.2252C56.2773 19.0967 56.2773 18.697 55.9771 18.5685L54.371 17.8548C53.9207 17.6549 53.5605 17.3123 53.3504 16.8841L52.5999 15.3566C52.4648 15.0854 52.0445 15.0854 51.9094 15.3566L51.159 16.8841C50.9488 17.3123 50.5886 17.6549 50.1383 17.8548L48.5322 18.5685C48.2471 18.697 48.2471 19.0967 48.5322 19.2252L50.1383 19.939C50.5886 20.1388 50.9488 20.4814 51.159 20.9097L51.9094 22.4371C52.0445 22.7084 52.4648 22.7084 52.5999 22.4371L53.3504 20.9097C53.5605 20.4814 53.9207 20.1388 54.371 19.939L55.9771 19.2252ZM53.9317 19.0462L54.2676 18.8969L53.9317 18.7476C53.2605 18.4497 52.723 17.9385 52.41 17.3008C52.4099 17.3006 52.4101 17.3009 52.41 17.3008L52.2547 16.9846L52.0995 17.3003C52.0995 17.3005 52.0996 17.3002 52.0995 17.3003C51.7865 17.938 51.2488 18.4497 50.5776 18.7476L50.2418 18.8969L50.5776 19.0462C50.5778 19.0462 50.5775 19.0461 50.5776 19.0462C51.2486 19.3441 51.7864 19.8555 52.0993 20.493C52.0994 20.4931 52.0992 20.4928 52.0993 20.493L52.2547 20.8092L52.4098 20.4934C52.4099 20.4933 52.4097 20.4936 52.4098 20.4934C52.7227 19.8559 53.2607 19.3441 53.9317 19.0462C53.9319 19.0461 53.9315 19.0462 53.9317 19.0462Z" fill="#4C4C4C"/>
</svg>
