<svg width="72" height="72" viewBox="0 0 72 72" fill="none" xmlns="http://www.w3.org/2000/svg">
<path d="M68.9602 30.7726C70.3466 34.1196 70.3466 37.8804 68.9602 41.2274L63.0027 55.61C61.6163 58.9571 58.9571 61.6163 55.61 63.0027L41.2274 68.9602C37.8804 70.3466 34.1196 70.3466 30.7726 68.9602L16.39 63.0027C13.0429 61.6163 10.3837 58.9571 8.99727 55.61L3.0398 41.2274C1.6534 37.8804 1.6534 34.1196 3.0398 30.7726L8.99728 16.39C10.3837 13.0429 13.0429 10.3837 16.39 8.99727L30.7726 3.0398C34.1196 1.6534 37.8804 1.6534 41.2274 3.0398L55.61 8.99728C58.9571 10.3837 61.6163 13.0429 63.0027 16.39L68.9602 30.7726Z" fill="#76CFED"/>
<path d="M19.333 2C9.76024 2 2 9.68337 2 19.1613V20.8387C2 29.7747 8.89822 37.1155 17.7099 37.9258L24.222 46.6C24.7992 47.3688 26.0238 46.961 26.0238 46V38H35.2172C44.7899 38 52.5501 30.3166 52.5501 20.8387V19.1613C52.5501 9.68337 44.7899 2 35.2172 2H19.333Z" fill="#7EAD00"/>
<path d="M30.6873 41H37.2986C41.5874 41 45.6715 39.1678 48.5208 35.9655L51.1594 33H53.7069C60.531 33 66.0631 38.2928 66.0631 44.8217V45.9772C66.0631 52.1329 61.1455 57.1897 54.864 57.7478L50.2216 63.7231C49.8102 64.2527 48.9372 63.9718 48.9372 63.3098V57.7989H42.3835C35.5594 57.7989 30.0273 52.5062 30.0273 45.9772V44.8217C30.0273 43.4843 30.2595 42.1988 30.6873 41Z" fill="#1A73B3"/>
<path d="M47.5093 25.3151C47.0387 25.3151 46.6622 25.1741 46.3798 24.892C46.1079 24.6099 45.9719 24.239 45.9719 23.7793C45.9719 23.33 46.1079 22.9696 46.3798 22.6979C46.6622 22.4158 47.0387 22.2748 47.5093 22.2748C48.0008 22.2748 48.3774 22.4158 48.6388 22.6979C48.9107 22.9696 49.0467 23.33 49.0467 23.7793C49.0467 24.239 48.9107 24.6099 48.6388 24.892C48.3774 25.1741 48.0008 25.3151 47.5093 25.3151Z" fill="white"/>
<path d="M44.4109 26.616C44.5992 26.9294 44.6671 27.2115 44.6149 27.4623C44.5626 27.7235 44.4318 27.9429 44.2227 28.1205C44.024 28.2981 43.7834 28.4131 43.501 28.4653C43.2291 28.5176 42.9572 28.4914 42.6853 28.387C42.4134 28.2825 42.1885 28.084 42.0107 27.7914L40.8498 25.9264C40.7348 25.7384 40.5831 25.6025 40.3949 25.519C40.2066 25.4354 39.9609 25.3936 39.6576 25.3936L41.8068 24.5943C42.2774 24.5943 42.6748 24.6831 42.999 24.8607C43.3232 25.0279 43.6004 25.3048 43.8305 25.6914L44.4109 26.616ZM39.6733 25.3936C38.5542 25.3936 37.5711 25.1585 36.724 24.6883C35.8768 24.2077 35.218 23.5391 34.7473 22.6823C34.2872 21.8256 34.0571 20.8278 34.0571 19.689C34.0571 18.8322 34.1878 18.0538 34.4493 17.3538C34.7212 16.6538 35.1029 16.053 35.5945 15.5515C36.0965 15.05 36.6926 14.6687 37.3829 14.4075C38.0731 14.1358 38.8366 14 39.6733 14C40.7923 14 41.7702 14.2351 42.6068 14.7052C43.454 15.1754 44.1129 15.8389 44.5835 16.6956C45.0541 17.5419 45.2894 18.5397 45.2894 19.689C45.2894 20.5457 45.1535 21.3241 44.8815 22.0241C44.6201 22.7241 44.2383 23.3301 43.7363 23.8421C43.2448 24.3436 42.6539 24.7301 41.9636 25.0018C41.2734 25.263 40.5099 25.3936 39.6733 25.3936ZM39.6733 22.9801C40.2276 22.9801 40.6982 22.8495 41.0851 22.5883C41.4721 22.3271 41.7702 21.951 41.9793 21.4599C42.1885 20.9688 42.2931 20.3785 42.2931 19.689C42.2931 18.6546 42.063 17.8501 41.6028 17.2755C41.1427 16.7008 40.4995 16.4135 39.6733 16.4135C39.1294 16.4135 38.6588 16.5441 38.2614 16.8053C37.8744 17.0561 37.5763 17.427 37.3672 17.918C37.158 18.3986 37.0534 18.9889 37.0534 19.689C37.0534 20.7233 37.2835 21.533 37.7437 22.1181C38.2038 22.6928 38.847 22.9801 39.6733 22.9801Z" fill="white"/>
<path d="M31.8074 25.3151C31.3368 25.3151 30.9603 25.1741 30.6779 24.892C30.406 24.6099 30.27 24.239 30.27 23.7793C30.27 23.33 30.406 22.9696 30.6779 22.6979C30.9603 22.4158 31.3368 22.2748 31.8074 22.2748C32.2989 22.2748 32.6754 22.4158 32.9369 22.6979C33.2088 22.9696 33.3448 23.33 33.3448 23.7793C33.3448 24.239 33.2088 24.6099 32.9369 24.892C32.6754 25.1741 32.2989 25.3151 31.8074 25.3151Z" fill="white"/>
<path d="M18.9233 25.3615C18.5991 25.3615 18.3272 25.2884 18.1076 25.1421C17.8879 24.9854 17.752 24.7764 17.6997 24.5152C17.6474 24.2436 17.6945 23.9406 17.8409 23.6062L21.7471 15.206C21.9353 14.7985 22.1654 14.5008 22.4373 14.3127C22.7197 14.1246 23.0387 14.0306 23.3943 14.0306C23.7499 14.0306 24.0584 14.1246 24.3199 14.3127C24.5918 14.5008 24.8271 14.7985 25.0258 15.206L28.932 23.6062C29.0994 23.9406 29.1569 24.2436 29.1046 24.5152C29.0628 24.7869 28.932 24.9958 28.7124 25.1421C28.5032 25.2884 28.2418 25.3615 27.928 25.3615C27.5097 25.3615 27.1855 25.2675 26.9554 25.0794C26.7358 24.8913 26.537 24.5884 26.3593 24.1704L25.5121 22.1801L26.6103 22.9794H20.147L21.2608 22.1801L20.4136 24.1704C20.2254 24.5884 20.0319 24.8913 19.8332 25.0794C19.6345 25.2675 19.3312 25.3615 18.9233 25.3615ZM23.3629 17.1807L21.5432 21.5219L21.1039 20.7696H25.669L25.2297 21.5219L23.3943 17.1807H23.3629Z" fill="white"/>
<path d="M14.9554 25.3151C14.4848 25.3151 14.1083 25.1741 13.8259 24.892C13.554 24.6099 13.4181 24.239 13.4181 23.7793C13.4181 23.33 13.554 22.9696 13.8259 22.6979C14.1083 22.4158 14.4848 22.2748 14.9554 22.2748C15.447 22.2748 15.8235 22.4158 16.085 22.6979C16.3569 22.9696 16.4928 23.33 16.4928 23.7793C16.4928 24.239 16.3569 24.6099 16.085 24.892C15.8235 25.1741 15.447 25.3151 14.9554 25.3151Z" fill="white"/>
<path d="M6.72067 25.3613C6.2605 25.3613 5.89968 25.2359 5.63822 24.9851C5.38722 24.7239 5.26172 24.353 5.26172 23.8724V15.6603C5.26172 15.1796 5.38722 14.814 5.63822 14.5632C5.89968 14.302 6.27618 14.1714 6.76773 14.1714H11.9917C12.3682 14.1714 12.6506 14.2654 12.8388 14.4535C13.0271 14.6416 13.1212 14.9132 13.1212 15.2685C13.1212 15.6341 13.0271 15.9162 12.8388 16.1147C12.6506 16.3028 12.3682 16.3968 11.9917 16.3968H8.14824V18.6223H11.6466C12.0126 18.6223 12.2898 18.7163 12.478 18.9044C12.6767 19.0924 12.7761 19.3641 12.7761 19.7193C12.7761 20.085 12.6767 20.3619 12.478 20.5499C12.2898 20.738 12.0126 20.832 11.6466 20.832H8.14824V23.8724C8.14824 24.865 7.67238 25.3613 6.72067 25.3613Z" fill="white"/>
<ellipse cx="39.5376" cy="46.5" rx="2.50248" ry="2.5" fill="#054B74"/>
<ellipse cx="48.5455" cy="46.5" rx="2.50248" ry="2.5" fill="#054B74"/>
<ellipse cx="57.5552" cy="46.5" rx="2.50248" ry="2.5" fill="#054B74"/>
<path d="M58.6828 21.471C58.1266 21.3221 57.7367 21.023 57.5132 20.5738C57.2897 20.1245 57.2582 19.6006 57.4188 19.0021C57.5736 18.425 57.7811 17.9078 58.0413 17.4506C58.3287 16.9777 58.688 16.5355 59.1194 16.1241C59.578 15.697 60.1328 15.2957 60.7839 14.9202C61.2237 14.6484 61.5771 14.3994 61.8442 14.1731C62.1327 13.9525 62.3512 13.7361 62.4999 13.5239C62.6543 13.2903 62.7659 13.0453 62.8347 12.7888C62.9665 12.2972 62.885 11.8744 62.59 11.5206C62.2951 11.1667 61.8053 10.8981 61.1206 10.7149C60.436 10.5316 59.774 10.4346 59.1348 10.4238C58.4956 10.4131 57.8577 10.4829 57.2212 10.6332C56.4876 10.8034 55.8891 10.7692 55.4256 10.5306C54.9679 10.2706 54.6516 9.91103 54.4767 9.45184C54.3017 8.99264 54.2616 8.50082 54.3564 7.97638C54.4726 7.45766 54.7464 6.99259 55.1778 6.58116C55.6306 6.17545 56.2316 5.90106 56.9809 5.75799C57.9728 5.56532 58.9866 5.50453 60.0224 5.57561C61.064 5.62532 62.0126 5.76472 62.8685 5.99381C64.3448 6.389 65.5762 6.97062 66.5626 7.73867C67.5705 8.51246 68.27 9.40989 68.6611 10.431C69.058 11.4307 69.1045 12.4969 68.8007 13.6298C68.6287 14.271 68.369 14.8544 68.0217 15.38C67.6743 15.9055 67.2122 16.3889 66.6352 16.8301C66.0639 17.2499 65.3187 17.6346 64.3994 17.9842C63.6042 18.2982 62.9732 18.599 62.5063 18.8863C62.0451 19.1523 61.6831 19.4334 61.4202 19.7296C61.1787 20.0315 60.9607 20.3741 60.7662 20.7573C60.5889 21.0763 60.3296 21.3162 59.9884 21.4769C59.6529 21.6162 59.2177 21.6142 58.6828 21.471ZM56.5313 29.108C55.5471 28.8446 54.8435 28.347 54.4206 27.6152C54.0192 26.8892 53.9445 26.056 54.1968 25.1155C54.4433 24.1964 54.9192 23.5334 55.6246 23.1266C56.357 22.7041 57.2154 22.6246 58.1996 22.8881C59.1838 23.1515 59.8766 23.6462 60.2781 24.3723C60.6854 25.0769 60.7657 25.8888 60.5192 26.8079C60.267 27.7484 59.7853 28.4327 59.0742 28.8609C58.3631 29.2891 57.5155 29.3715 56.5313 29.108Z" fill="#DD2826"/>
<path fill-rule="evenodd" clip-rule="evenodd" d="M57.1791 16.9439L57.1865 16.9317C57.5228 16.3782 57.939 15.8682 58.4291 15.4008L58.4376 15.3926C58.9579 14.9081 59.5721 14.466 60.2706 14.062C60.6797 13.8087 60.984 13.5914 61.1976 13.4105L61.2167 13.3943L61.2366 13.379C61.4659 13.2037 61.6002 13.0621 61.6734 12.9607C61.7673 12.8161 61.8302 12.6731 61.8686 12.5299C61.9266 12.3137 61.8842 12.2354 61.8217 12.1604C61.7128 12.0298 61.4478 11.8375 60.8624 11.6808C60.2484 11.5164 59.6679 11.4329 59.1189 11.4237C58.5647 11.4144 58.0098 11.4747 57.4523 11.6064L57.4485 11.6073C56.5843 11.8078 55.7189 11.8061 54.9679 11.4195L54.9496 11.4101L54.9317 11.3999C54.2872 11.0338 53.8058 10.4998 53.542 9.80756C53.2968 9.16406 53.2479 8.48643 53.3722 7.79867L53.3759 7.77825L53.3805 7.75799C53.545 7.02366 53.9309 6.38861 54.4875 5.85784L54.4987 5.8471L54.5103 5.83671C55.1288 5.2826 55.9099 4.94479 56.7923 4.77607C57.8681 4.56724 58.9653 4.50153 60.0814 4.57725C61.1782 4.63022 62.1956 4.77819 63.1284 5.02789C64.7049 5.44988 66.0638 6.08246 67.1761 6.94783C68.3033 7.81385 69.1275 8.85167 69.5947 10.068C70.0761 11.2841 70.1221 12.57 69.7684 13.8886C69.5701 14.628 69.2676 15.311 68.8579 15.931C68.4404 16.5626 67.8968 17.1254 67.2445 17.6242L67.2369 17.63L67.2292 17.6356C66.5645 18.1241 65.7336 18.5467 64.7624 18.9164C63.9982 19.2186 63.4287 19.4937 63.0322 19.7377L63.02 19.7452L63.0077 19.7524C62.622 19.9748 62.3584 20.1861 62.1862 20.3751C61.9982 20.6133 61.8219 20.8901 61.6598 21.2095L61.6513 21.2262L61.6422 21.2426C61.3596 21.7512 60.9404 22.1345 60.416 22.3814L60.3949 22.3914L60.3734 22.4003C60.2156 22.4659 60.0536 22.5116 59.8893 22.5405C60.4103 22.8782 60.8395 23.3212 61.1506 23.8804C61.7087 24.8515 61.7888 25.9414 61.487 27.0667C61.1802 28.2105 60.5628 29.1326 59.5918 29.7174C58.5967 30.3166 57.4562 30.3907 56.2731 30.074C55.0886 29.7569 54.1367 29.1225 53.5546 28.1152L53.5499 28.1071L53.5453 28.0988C52.9971 27.1074 52.924 26.0005 53.2307 24.8567C53.5334 23.7282 54.1508 22.8224 55.1249 22.2606C55.7526 21.8985 56.4321 21.7332 57.1414 21.7365C56.9329 21.5356 56.756 21.2969 56.6176 21.0188C56.2617 20.3033 56.2445 19.5196 56.4527 18.7433C56.6267 18.0949 56.8644 17.4969 57.172 16.9563L57.1791 16.9439ZM60.279 24.3723C59.8775 23.6462 59.1847 23.1515 58.2004 22.8881C57.2162 22.6246 56.3579 22.7041 55.6254 23.1266C54.9201 23.5334 54.4442 24.1964 54.1976 25.1155C53.9454 26.056 54.02 26.8892 54.4215 27.6152C54.8444 28.347 55.548 28.8446 56.5322 29.108C57.5164 29.3715 58.364 29.2891 59.0751 28.8609C59.7862 28.4327 60.2678 27.7484 60.5201 26.8079C60.7666 25.8888 60.6862 25.0769 60.279 24.3723ZM61.421 19.7296C61.6839 19.4334 62.046 19.1523 62.5072 18.8863C62.9741 18.599 63.6051 18.2982 64.4002 17.9842C65.3195 17.6346 66.0648 17.2499 66.636 16.8301C67.213 16.3889 67.6752 15.9055 68.0225 15.38C68.3699 14.8544 68.6296 14.271 68.8015 13.6298C69.1054 12.4969 69.0589 11.4307 68.662 10.431C68.2708 9.40989 67.5713 8.51246 66.5635 7.73867C65.577 6.97062 64.3456 6.389 62.8693 5.99381C62.0135 5.76472 61.0648 5.62532 60.0233 5.57561C58.9875 5.50453 57.9736 5.56532 56.9818 5.75799C56.2325 5.90106 55.6315 6.17545 55.1787 6.58116C54.7473 6.99259 54.4735 7.45766 54.3573 7.97638C54.2625 8.50082 54.3026 8.99264 54.4775 9.45184C54.6525 9.91103 54.9688 10.2706 55.4265 10.5306C55.8899 10.7692 56.4885 10.8034 57.2221 10.6332C57.8586 10.4829 58.4965 10.4131 59.1357 10.4238C59.7749 10.4346 60.4368 10.5316 61.1215 10.7149C61.8062 10.8981 62.296 11.1667 62.5909 11.5206C62.8858 11.8744 62.9674 12.2972 62.8355 12.7888C62.7667 13.0453 62.6551 13.2903 62.5007 13.5239C62.3521 13.7361 62.1335 13.9525 61.845 14.1731C61.578 14.3994 61.2245 14.6484 60.7847 14.9202C60.1336 15.2957 59.5788 15.697 59.1203 16.1241C58.6889 16.5355 58.3295 16.9777 58.0422 17.4506C57.7819 17.9078 57.5744 18.425 57.4196 19.0021C57.2591 19.6006 57.2906 20.1245 57.5141 20.5738C57.7375 21.023 58.1274 21.3221 58.6837 21.471C59.2186 21.6142 59.6538 21.6162 59.9893 21.4769C60.3305 21.3162 60.5897 21.0763 60.767 20.7573C60.9615 20.3741 61.1795 20.0315 61.421 19.7296Z" fill="#4C4C4C"/>
<path d="M2.61102 54.9783L6.95714 52.8929C8.17568 52.309 9.15052 51.3081 9.71917 50.0569L11.7501 45.5943C12.1156 44.8019 13.2529 44.8019 13.6185 45.5943L15.6494 50.0569C16.218 51.3081 17.1929 52.309 18.4114 52.8929L22.7575 54.9783C23.5293 55.3536 23.5293 56.5214 22.7575 56.8967L18.4114 58.9821C17.1929 59.566 16.218 60.5669 15.6494 61.8181L13.6185 66.2807C13.2529 67.0731 12.1156 67.0731 11.7501 66.2807L9.71917 61.8181C9.15052 60.5669 8.17568 59.566 6.95714 58.9821L2.61102 56.8967C1.79866 56.5214 1.79866 55.3536 2.61102 54.9783Z" fill="white"/>
<path d="M19.5337 64.3349L21.3964 63.3419C21.9186 63.0638 22.3364 62.5872 22.5801 61.9914L23.4505 59.8663C23.6071 59.489 24.0946 59.489 24.2512 59.8663L25.1216 61.9914C25.3653 62.5872 25.7831 63.0638 26.3053 63.3419L28.168 64.3349C28.4987 64.5136 28.4987 65.0697 28.168 65.2485L26.3053 66.2415C25.7831 66.5195 25.3653 66.9961 25.1216 67.592L24.2512 69.717C24.0946 70.0943 23.6071 70.0943 23.4505 69.717L22.5801 67.592C22.3364 66.9961 21.9186 66.5195 21.3964 66.2415L19.5337 65.2485C19.1856 65.0697 19.1856 64.5136 19.5337 64.3349Z" fill="white"/>
<path fill-rule="evenodd" clip-rule="evenodd" d="M3.03504 55.9249L7.38727 53.8366C7.38743 53.8366 7.38711 53.8367 7.38727 53.8366C8.82185 53.1491 9.9705 51.9697 10.6398 50.4974C10.6399 50.4972 10.6397 50.4975 10.6398 50.4974L12.6666 46.0438C12.6711 46.0426 12.6772 46.0417 12.6843 46.0417C12.6913 46.0417 12.6974 46.0426 12.702 46.0438L14.7285 50.4969C14.7286 50.497 14.7285 50.4967 14.7285 50.4969C15.3978 51.9693 16.5462 53.1489 17.9808 53.8364C17.981 53.8365 17.9807 53.8363 17.9808 53.8364L22.318 55.9174C22.318 55.9176 22.3179 55.9172 22.318 55.9174C22.3193 55.9224 22.3204 55.9298 22.3204 55.9375C22.3204 55.9452 22.3194 55.952 22.3181 55.957C22.3181 55.9572 22.3182 55.9568 22.3181 55.957L17.9813 58.0384C16.5465 58.7259 15.3981 59.9051 14.7288 61.3776C14.7287 61.3778 14.7288 61.3775 14.7288 61.3776L12.702 65.8312C12.6974 65.8324 12.6913 65.8333 12.6843 65.8333C12.6772 65.8333 12.6711 65.8324 12.6666 65.8312L10.64 61.3781C10.64 61.378 10.6401 61.3783 10.64 61.3781C9.97064 59.9056 8.82207 58.7259 7.38727 58.0384L3.03504 55.9501L3.02842 55.9471C3.02327 55.9447 3.01989 55.9427 3.01793 55.9415C3.01779 55.9404 3.01768 55.9391 3.01768 55.9375C3.01768 55.9359 3.01779 55.9346 3.01793 55.9335C3.01989 55.9323 3.02327 55.9303 3.02842 55.9279L3.03504 55.9249ZM6.95714 58.9821C8.17568 59.566 9.15052 60.5669 9.71917 61.8181L11.7501 66.2807C12.1156 67.0731 13.2529 67.0731 13.6185 66.2807L15.6494 61.8181C16.218 60.5669 17.1929 59.566 18.4114 58.9821L22.7575 56.8967C23.5293 56.5214 23.5293 55.3536 22.7575 54.9783L18.4114 52.8929C17.1929 52.309 16.218 51.3081 15.6494 50.0569L13.6185 45.5943C13.2529 44.8019 12.1156 44.8019 11.7501 45.5943L9.71917 50.0569C9.15052 51.3081 8.17568 52.309 6.95714 52.8929L2.61102 54.9783C1.79866 55.3536 1.79866 56.5214 2.61102 56.8967L6.95714 58.9821ZM20.8792 64.7917L21.8645 64.2663C22.613 63.8677 23.1884 63.1975 23.517 62.3943L23.8508 61.5791L24.1847 62.3943C24.5133 63.1975 25.0882 63.8674 25.8367 64.2661L26.8225 64.7917L25.8372 65.317C25.0887 65.7157 24.5133 66.3859 24.1847 67.1891L23.8508 68.0043L23.517 67.1891C23.1884 66.3859 22.6135 65.7159 21.865 65.3173L20.8792 64.7917ZM21.3964 66.2415C21.9186 66.5195 22.3364 66.9961 22.5801 67.592L23.4505 69.717C23.6071 70.0943 24.0946 70.0943 24.2512 69.717L25.1216 67.592C25.3653 66.9961 25.7831 66.5195 26.3053 66.2415L28.168 65.2485C28.4987 65.0697 28.4987 64.5136 28.168 64.3349L26.3053 63.3419C25.7831 63.0638 25.3653 62.5872 25.1216 61.9914L24.2512 59.8663C24.0946 59.489 23.6071 59.489 23.4505 59.8663L22.5801 61.9914C22.3364 62.5872 21.9186 63.0638 21.3964 63.3419L19.5337 64.3349C19.1856 64.5136 19.1856 65.0697 19.5337 65.2485L21.3964 66.2415Z" fill="#4C4C4C"/>
</svg>
