<svg width="121" height="37" viewBox="0 0 121 37" fill="none" xmlns="http://www.w3.org/2000/svg">
<path fill-rule="evenodd" clip-rule="evenodd" d="M12.6178 11.9316H22.4616C21.9031 12.4778 21.3201 12.8706 20.7923 13.5948C18.6014 16.6081 12.6178 26.0714 12.6178 26.0714C11.9304 27.1761 10.4023 28.1396 9.29762 28.1396H0L9.29762 13.8709C10.12 12.8951 11.5131 11.9316 12.6178 11.9316Z" fill="#016DB6"/>
<path fill-rule="evenodd" clip-rule="evenodd" d="M28.8437 9.57378H37.1656L32.5873 2.63279C31.765 1.25195 30.7892 0 28.4326 0H19.5522L23.9955 6.92872C24.8301 8.32183 26.2232 9.57378 28.8499 9.57378" fill="#EB1B31"/>
<path fill-rule="evenodd" clip-rule="evenodd" d="M28.8437 11.9316H37.1656L32.5873 18.8604C31.765 20.2412 30.7892 21.4931 28.4326 21.4931H19.5522L23.9955 14.5644C24.8301 13.0424 26.2232 11.9316 28.8499 11.9316" fill="#ACC52B"/>
<path fill-rule="evenodd" clip-rule="evenodd" d="M111.994 21.4608H114.351L115.045 19.7915H117.935L118.622 21.4608H120.979L117.659 11.9238H115.315L111.994 21.4608ZM116.554 14.9617L117.389 17.8645H115.591L116.554 14.9617ZM108.545 11.93H110.902V21.4669H108.545L104.403 15.6613V21.4669H102.059V11.93H104.403L108.545 17.7295V11.93ZM100.113 21.4608H97.7688V11.9238H100.113V21.4608ZM75.657 21.4608H78.1425L78.701 19.7915H81.7388L82.285 21.4608H84.7828L81.4627 11.9238H78.9772L75.657 21.4608ZM80.2168 14.9617L81.1926 17.8645H79.2533L80.2168 14.9617ZM76.4855 14.2743H73.7238V21.5958H71.3672V14.2743H68.7467V11.93H76.4794V14.2743H76.4855ZM58.7986 11.93V14.2743H54.7972V15.5263H58.6574V17.8706H54.7972V19.2515H58.7986V21.4669H52.4406V11.93H58.7986ZM46.0887 13.9982V16.2136H47.7457C48.4454 16.2136 48.8504 15.7963 48.8504 15.2378V14.9617C48.8504 14.4155 48.4454 13.9982 47.7457 13.9982H46.0887ZM46.0887 18.2818V21.4608H43.7444V11.9238H48.3042C49.9551 11.9238 51.207 13.1635 51.207 14.8144V15.3729C51.207 17.0237 49.9551 18.2757 48.3042 18.2757H46.0887V18.2818ZM62.9411 13.7281V16.0725H64.463C65.0092 16.0725 65.4266 15.6552 65.4266 15.109V14.8266C65.4266 14.2805 65.0092 13.7343 64.463 13.7343H62.9411V13.7281ZM65.7027 17.5945C66.9547 17.306 67.9182 16.3425 67.9182 15.1028V14.5443C67.9182 13.0346 66.6785 11.9238 65.2977 11.9238H60.5967V21.4608H62.9411V17.5945H63.2295L66.12 21.4608H69.0229L65.7027 17.5945ZM88.4528 15.7963L87.6304 21.4608H85.4149L86.9369 11.9238H89.1524L90.8032 16.901L92.6014 11.9238H94.8046L96.3266 21.4608H94.1111L93.2887 15.7963L91.3494 21.4608H90.3859L88.4466 15.7963H88.4528Z" fill="#09160D"/>
<path d="M44.438 35.8837H43.947V28.6113H45.3094C45.917 28.6113 46.5 28.6482 46.9787 29.0348C47.4513 29.4091 47.6783 29.9615 47.6783 30.5322C47.6783 31.0539 47.4635 31.6308 47.034 31.9683C46.5614 32.3549 45.917 32.4286 45.3094 32.4286H44.438V35.8837ZM45.334 31.9928C45.8372 31.9928 46.2852 31.9376 46.6903 31.6001C47.0278 31.3116 47.1935 30.9373 47.1935 30.5077C47.1935 30.0535 46.9971 29.5994 46.6105 29.3294C46.2239 29.0471 45.7268 29.0409 45.2542 29.0409H44.4441V31.9928H45.334Z" fill="#EB1B31" stroke="#EB1B31" stroke-width="0.58" stroke-miterlimit="10"/>
<path d="M48.8999 33.6069L47.8627 36.0003H47.3595L50.5999 28.4824L53.8279 36.0003H53.3247L52.2875 33.6069H48.8938H48.8999ZM50.5999 29.6669L49.084 33.1773H52.1096L50.5999 29.6669Z" fill="#EB1B31" stroke="#EB1B31" stroke-width="0.58" stroke-miterlimit="10"/>
<path d="M55.6813 35.883H55.1904V29.0402H53.1897V28.6045H57.682V29.0402H55.6813V35.883Z" fill="#EB1B31" stroke="#EB1B31" stroke-width="0.58" stroke-miterlimit="10"/>
<path d="M62.4016 35.8837H61.837L59.3147 32.4408H59.0692V35.8837H58.5782V28.6113H59.5418C60.1677 28.6113 60.7814 28.6236 61.3031 28.9796C61.8554 29.3478 62.0825 29.9247 62.0825 30.5445C62.0825 31.8087 61.1497 32.4654 59.867 32.447L62.4016 35.8899V35.8837ZM59.6952 32.0051C60.18 32.0051 60.6587 31.9867 61.0515 31.6676C61.4197 31.3853 61.5977 30.9557 61.5977 30.5199C61.5977 29.9799 61.3338 29.4398 60.7753 29.2066C60.3641 29.0225 59.8425 29.0409 59.3883 29.0409H59.0692V32.0051H59.6952Z" fill="#EB1B31" stroke="#EB1B31" stroke-width="0.58" stroke-miterlimit="10"/>
<path d="M64.6908 33.6069L63.6536 36.0003H63.1504L66.3907 28.4824L69.6188 36.0003H69.1156L68.0784 33.6069H64.6847H64.6908ZM66.3969 29.6669L64.881 33.1773H67.9066L66.3969 29.6669Z" fill="#EB1B31" stroke="#EB1B31" stroke-width="0.58" stroke-miterlimit="10"/>
<path d="M79.8736 35.6505L74.1354 29.5564V35.81H73.6997V28.4395L79.4378 34.4844V28.5315H79.8736V35.6505Z" fill="#EB1B31" stroke="#EB1B31" stroke-width="0.58" stroke-miterlimit="10"/>
<path d="M82.2239 35.8837H81.7329V28.6113H82.2239V35.8837Z" fill="#EB1B31" stroke="#EB1B31" stroke-width="0.58" stroke-miterlimit="10"/>
<path d="M84.7524 33.6069L83.7153 36.0003H83.212L86.4524 28.4824L89.6805 36.0003H89.1772L88.1401 33.6069H84.7463H84.7524ZM86.4585 29.6669L84.9427 33.1773H87.9682L86.4585 29.6669Z" fill="#EB1B31" stroke="#EB1B31" stroke-width="0.58" stroke-miterlimit="10"/>
<path d="M97.3152 32.38C97.3336 33.2944 97.1986 34.0984 96.5665 34.8041C95.8853 35.559 94.8604 35.9825 93.8539 35.9825C91.8716 35.9825 90.184 34.2825 90.184 32.2757C90.184 30.2689 91.8594 28.5137 93.9092 28.5137C95.2102 28.5137 96.2596 29.1703 97.0084 30.2136L96.6401 30.5144C96.0019 29.5508 95.0384 28.9494 93.8785 28.9494C92.1355 28.9494 90.6381 30.5021 90.6381 32.2511C90.6381 34.0002 92.0987 35.5529 93.8785 35.5529C94.6456 35.5529 95.3943 35.2337 95.9835 34.755C96.5972 34.2273 96.8242 33.6197 96.8549 32.828H94.2958V32.3923H97.3091L97.3152 32.38Z" fill="#EB1B31" stroke="#EB1B31" stroke-width="0.58" stroke-miterlimit="10"/>
<path d="M99.5491 33.6069L98.5119 36.0003H98.0087L101.249 28.4824L104.477 36.0003H103.974L102.937 33.6069H99.5429H99.5491ZM101.255 29.6669L99.7393 33.1773H102.765L101.255 29.6669Z" fill="#EB1B31" stroke="#EB1B31" stroke-width="0.58" stroke-miterlimit="10"/>
</svg>
