<svg width="221" height="37" viewBox="0 0 221 37" fill="none" xmlns="http://www.w3.org/2000/svg">
<path fill-rule="evenodd" clip-rule="evenodd" d="M207.767 7.96586C207.289 8.93193 206.943 10.0094 206.735 11.1926H206.737C206.529 12.3758 206.492 13.4533 206.632 14.4194C206.768 15.3854 207.058 16.2151 207.495 16.9055C207.932 17.596 208.502 18.1277 209.207 18.5036C209.911 18.8794 210.744 19.066 211.665 19.066C212.587 19.066 213.467 18.8794 214.31 18.5036C215.151 18.1305 215.911 17.596 216.585 16.9055C217.258 16.2151 217.837 15.3854 218.316 14.4194C218.795 13.4533 219.14 12.3758 219.349 11.1926C219.558 10.0094 219.594 8.93193 219.455 7.96586C219.316 6.997 219.029 6.17291 218.598 5.48803C218.166 4.80315 217.595 4.27417 216.885 3.89832C216.175 3.52247 215.374 3.33594 214.438 3.33594C213.503 3.33594 212.617 3.52247 211.782 3.89832C210.944 4.27417 210.187 4.80315 209.508 5.48803C208.828 6.17291 208.246 6.99978 207.767 7.96586ZM210.424 12.9883C210.401 12.4482 210.446 11.8496 210.563 11.1926C210.677 10.5467 210.841 9.95091 211.055 9.40523C211.273 8.85955 211.52 8.39182 211.807 8.00484C212.094 7.61785 212.406 7.31439 212.748 7.09723C213.088 6.88007 213.464 6.77149 213.831 6.77149C214.199 6.77149 214.519 6.88007 214.789 7.09723C215.062 7.31439 215.268 7.61785 215.41 8.00484C215.549 8.39182 215.632 8.85955 215.655 9.40523C215.677 9.95369 215.633 10.5467 215.518 11.1926C215.401 11.8496 215.237 12.4482 215.023 12.9883C214.808 13.5257 214.563 13.9934 214.282 14.3887C214.004 14.7841 213.689 15.0903 213.341 15.3075C212.993 15.5246 212.648 15.6332 212.267 15.6332C211.885 15.6332 211.562 15.5246 211.298 15.3075C211.033 15.0903 210.827 14.7841 210.68 14.3887C210.532 13.9962 210.446 13.5284 210.424 12.9883Z" fill="#484344"/>
<path d="M204.137 18.654H192.157L196.522 14.8259C197.675 13.8125 198.588 12.955 199.267 12.2506C199.944 11.5462 200.462 10.9504 200.815 10.4632C201.172 9.976 201.408 9.58066 201.528 9.27998C201.648 8.97651 201.726 8.72038 201.762 8.51157C201.801 8.28884 201.804 8.07169 201.767 7.8601C201.731 7.64851 201.656 7.46197 201.542 7.29771C201.425 7.13345 201.275 7.0026 201.088 6.90237C200.902 6.80493 200.67 6.75482 200.395 6.75482C199.869 6.75482 199.426 6.92465 199.07 7.26709C198.713 7.60953 198.491 8.03549 198.399 8.55055C198.374 8.69532 198.357 8.90691 198.346 9.18253H194.122C194.275 8.3139 194.557 7.52322 194.963 6.81328C195.372 6.10334 195.876 5.49085 196.48 4.97858C197.085 4.4663 197.761 4.07097 198.516 3.79534C199.267 3.51972 200.066 3.38051 200.907 3.38051C201.748 3.38051 202.48 3.51137 203.137 3.77585C203.794 4.04034 204.337 4.40784 204.769 4.88113C205.197 5.35443 205.501 5.91681 205.676 6.56828C205.852 7.21976 205.871 7.92691 205.737 8.68975C205.593 9.50549 205.286 10.26 204.816 10.9504C204.345 11.6409 203.663 12.348 202.775 13.0719L199.902 15.3799H204.719L204.139 18.6568L204.137 18.654Z" fill="#484344"/>
<path d="M163.138 3.42466V3.40796H191.942L186.263 30.4052C185.586 33.6236 182.746 35.9288 179.456 35.9288H140.941L140.909 35.9291L140.876 35.9291H2.86963L7.49677 13.9294C8.07864 11.162 10.5203 9.1825 13.3461 9.1825H142.331L143.193 8.17152C145.763 5.15358 149.527 3.41909 153.491 3.41909L163.138 3.42466Z" fill="#484344"/>
<path d="M201.789 36.0598H189.81L194.175 32.2317C195.328 31.2183 196.241 30.3608 196.92 29.6565C197.597 28.9521 198.112 28.3563 198.468 27.8691C198.824 27.3819 199.061 26.9865 199.181 26.6858C199.3 26.3824 199.378 26.1262 199.415 25.9174C199.454 25.6947 199.456 25.4776 199.42 25.266C199.384 25.0544 199.309 24.8678 199.195 24.7036C199.078 24.5393 198.927 24.4085 198.741 24.3082C198.554 24.2108 198.323 24.1607 198.048 24.1607C197.521 24.1607 197.079 24.3305 196.722 24.673C196.366 25.0154 196.143 25.4414 196.051 25.9564C196.026 26.1012 196.01 26.3128 195.999 26.5884H191.775C191.928 25.7198 192.209 24.9291 192.616 24.2192C193.025 23.5092 193.529 22.8967 194.133 22.3844C194.737 21.8722 195.414 21.4768 196.168 21.2012C196.92 20.9256 197.719 20.7864 198.56 20.7864C199.401 20.7864 200.133 20.9172 200.79 21.1817C201.447 21.4462 201.99 21.8137 202.421 22.287C202.85 22.7603 203.154 23.3227 203.329 23.9742C203.504 24.6256 203.524 25.3328 203.39 26.0956C203.246 26.9114 202.939 27.6658 202.469 28.3563C201.998 29.0467 201.316 29.7539 200.428 30.4778L197.555 32.7858H202.371L201.792 36.0626L201.789 36.0598Z" fill="#484344"/>
<path fill-rule="evenodd" clip-rule="evenodd" d="M216.923 30.0409H215.128L216.69 21.1792H211.597L204.267 30.5142L203.827 33.0004H211.013L210.473 36.0601H214.064L214.604 33.0004H216.4L216.923 30.0409ZM212.569 24.1777L211.536 30.0409H208.12L212.569 24.1777Z" fill="#484344"/>
<path d="M128.411 6.8457H11.4765C8.65065 6.8457 6.20901 8.82518 5.62714 11.5926L1 33.5923H139.007C141.713 33.5923 144.049 31.6964 144.606 29.0487L149.274 6.8457H128.411Z" fill="#1A73B3" stroke="#231F20" stroke-width="0.157181" stroke-miterlimit="10"/>
<path d="M11.4765 6.8457C8.65064 6.8457 6.20901 8.82518 5.62714 11.5926L1 33.5923H12.9827C16.0452 33.5923 18.9517 32.2476 20.934 29.9146L35.4557 12.8287L37.2125 10.7657C39.3256 8.28507 42.4215 6.8457 45.6817 6.84849H11.4765V6.8457Z" fill="#DD2826" stroke="#231F20" stroke-width="0.157181" stroke-miterlimit="10"/>
<path d="M161.268 1.07324V1.08995L151.622 1.08438C147.657 1.08438 143.893 2.81886 141.323 5.8368L139.185 8.34525L121.528 29.12C119.117 31.957 115.582 33.5913 111.859 33.5941H177.586C180.877 33.5941 183.716 31.2888 184.393 28.0704L190.072 1.07324H161.268Z" fill="#B8CC33" stroke="#231F20" stroke-width="0.157181" stroke-miterlimit="10"/>
<path fill-rule="evenodd" clip-rule="evenodd" d="M45.6292 14.7109H41.7371L39.8188 24.5805H42.1575L42.795 21.3064H44.4376C46.7707 21.3064 48.3632 20.2986 48.817 17.9627C49.307 15.4431 47.8732 14.7109 45.632 14.7109H45.6292ZM44.6798 19.1961C44.5741 19.2128 44.5128 19.1961 44.4655 19.1961H43.2043L43.6804 16.7433H45.1559C45.8854 16.76 46.573 16.9354 46.367 17.9934C46.1554 19.0764 45.1531 19.1822 44.6771 19.1961H44.6798Z" fill="white" stroke="#231F20" stroke-width="0.157181" stroke-miterlimit="10"/>
<path fill-rule="evenodd" clip-rule="evenodd" d="M52.603 16.8964L52.2856 18.539H56.2946L55.8715 20.7162H51.8624L51.5339 22.4061H55.6794L55.2562 24.5805H48.7693L50.6875 14.7109H57.1744L56.7512 16.8964H52.603Z" fill="white" stroke="#231F20" stroke-width="0.157181" stroke-miterlimit="10"/>
<path fill-rule="evenodd" clip-rule="evenodd" d="M63.2243 20.5827C64.5467 20.3349 65.7021 19.3299 66.0084 17.7541C66.4176 15.6521 65.2595 14.7139 63.4804 14.7139H59.115L57.1968 24.5834H59.5382L60.276 20.7915H60.2982L60.7019 20.8138L61.3868 22.0416L62.8011 24.5834H65.6826L63.2243 20.5827ZM61.9548 19.1127C61.8657 19.1211 61.7849 19.1211 61.6931 19.1211H60.5989L61.075 16.6683H62.4281C63.1157 16.7045 63.7394 16.9356 63.5528 17.8905C63.3691 18.8427 62.6536 19.0793 61.952 19.1127H61.9548Z" fill="white" stroke="#231F20" stroke-width="0.157181" stroke-miterlimit="10"/>
<path fill-rule="evenodd" clip-rule="evenodd" d="M70.636 24.5805H68.3085L69.8035 16.8964H67.0974L67.5206 14.7109H75.2659L74.8399 16.8964H72.131L70.636 24.5805Z" fill="white" stroke="#231F20" stroke-width="0.157181" stroke-miterlimit="10"/>
<path fill-rule="evenodd" clip-rule="evenodd" d="M80.5355 14.7109H77.9853L72.5981 24.5805H75.0871L76.0365 22.8627H79.2604L79.5082 24.5805H81.9861L80.5355 14.7109ZM77.061 20.9111L78.634 17.7706H78.6563L78.9959 20.9111H77.0582H77.061Z" fill="white" stroke="#231F20" stroke-width="0.157181" stroke-miterlimit="10"/>
<path fill-rule="evenodd" clip-rule="evenodd" d="M86.1647 14.7109H88.4671L89.2606 19.9979L92.2173 14.7109H94.5476L93.988 24.5805H91.6466L92.092 18.9121H92.0586L88.8096 24.5805H87.8853L86.9192 18.9121H86.8997L85.0344 24.5805H82.718L86.1647 14.7109Z" fill="white" stroke="#231F20" stroke-width="0.157181" stroke-miterlimit="10"/>
<path fill-rule="evenodd" clip-rule="evenodd" d="M97.8229 24.5805H95.4871L97.4081 14.7109H99.7439L97.8229 24.5805Z" fill="white" stroke="#231F20" stroke-width="0.157181" stroke-miterlimit="10"/>
<path fill-rule="evenodd" clip-rule="evenodd" d="M101.796 14.7109H104.129L107.233 20.7552H107.256L108.431 14.7109H110.769L108.851 24.5805H106.512L103.408 18.539H103.386L102.211 24.5805H99.8779L101.796 14.7109Z" fill="white" stroke="#231F20" stroke-width="0.157181" stroke-miterlimit="10"/>
<path fill-rule="evenodd" clip-rule="evenodd" d="M117.967 14.7109H115.401L110.05 24.5805H112.519L113.463 22.8627H116.684L116.929 24.5805H119.415L117.965 14.7109H117.967ZM114.49 20.9111L116.063 17.7706H116.085L116.428 20.9111H114.49Z" fill="white" stroke="#231F20" stroke-width="0.157181" stroke-miterlimit="10"/>
<path d="M19.7052 14.4759L16.3922 18.446L14.7997 14.5538C14.4294 13.6462 13.5413 13.0838 12.4861 13.0838H10.5456L7.56384 27.1128H7.96197C9.70758 27.1128 11.4309 25.6957 11.8012 23.9501L12.823 19.1448L14.5797 23.0842C14.7189 23.3988 15.0196 23.5854 15.3843 23.5854C15.7128 23.5854 16.0358 23.4323 16.2669 23.165L19.7219 19.2032L18.0403 27.1128H18.4385C20.1841 27.1128 21.9074 25.6957 22.2777 23.9501L24.5885 13.0811H22.6814C21.5316 13.0811 20.4402 13.5905 19.7024 14.4759H19.7052Z" fill="white" stroke="#231F20" stroke-width="0.157181" stroke-miterlimit="10"/>
<path d="M40.5442 14.6882H38.4088C37.0975 14.6882 35.8697 15.2701 35.0401 16.2835L32.0722 19.8638H32.0917L30.8445 21.3588L29.4803 17.7869C29.1295 16.8709 28.2581 16.3002 27.2029 16.3002H24.764L28.1745 24.4408L25.9862 26.9938C24.8726 28.294 25.023 30.2512 26.3231 31.3648L29.2408 27.9404C29.2297 27.971 29.2186 27.9849 29.2186 27.9849L29.5109 27.6286L39.18 16.2946H39.1661L40.5442 14.6826V14.6882Z" fill="white" stroke="#231F20" stroke-width="0.157181" stroke-miterlimit="10"/>
<path d="M162.151 12.6731C161.53 12.378 160.809 12.2305 159.988 12.2305H159.759C159.695 12.2305 159.62 12.2388 159.526 12.2583C158.66 12.3112 157.83 12.5117 157.039 12.8597C156.249 13.2077 155.53 13.6671 154.885 14.2378L154.815 14.3185L154.848 14.4243C154.954 14.7111 155.102 14.9143 155.291 15.0396C155.503 15.1454 155.734 15.2011 155.981 15.2011C156.213 15.2011 156.46 15.1705 156.722 15.1064C156.984 15.0452 157.248 14.9672 157.516 14.8781C157.783 14.789 158.047 14.7139 158.309 14.6498C158.571 14.5886 158.83 14.5468 159.083 14.5301H159.378C159.645 14.5301 159.876 14.5524 160.074 14.5969C160.269 14.6415 160.45 14.7083 160.611 14.7974C161.026 15.048 161.296 15.4489 161.422 16.0029C161.516 16.4316 161.539 16.9216 161.483 17.4757C160.695 17.2084 159.837 17.0748 158.91 17.0748C158.251 17.0748 157.602 17.1499 156.967 17.3031C156.33 17.4562 155.742 17.6817 155.202 17.9852C154.617 18.3248 154.158 18.7257 153.818 19.1907C153.442 19.6556 153.186 20.2347 153.053 20.9307L153.022 21.0922C152.894 21.8411 152.95 22.4759 153.189 22.9937C153.342 23.4058 153.562 23.7398 153.852 23.9988C154.141 24.2577 154.475 24.4665 154.854 24.628C155.21 24.8061 155.589 24.9259 155.987 24.9899C156.385 25.0511 156.772 25.0846 157.145 25.0846H157.493C157.599 25.0846 157.71 25.0762 157.819 25.0567C158.64 24.9676 159.409 24.7449 160.13 24.3885C160.851 24.0322 161.497 23.5672 162.073 22.9965C163.245 21.8383 164.011 20.3293 164.37 18.4724L164.412 18.258C164.726 16.4567 164.481 15.0006 163.679 13.8953C163.281 13.3775 162.769 12.971 162.151 12.6787V12.6731ZM160.804 20.4212C160.662 20.7776 160.461 21.1256 160.199 21.4653C160.074 21.6434 159.935 21.8077 159.782 21.9608C159.629 22.1139 159.45 22.242 159.253 22.3478C158.827 22.6151 158.362 22.7571 157.858 22.7766C157.783 22.7933 157.674 22.8044 157.532 22.8044C157.067 22.8044 156.711 22.7431 156.458 22.6179C156.204 22.4926 156.026 22.3422 155.917 22.1641C155.792 21.9859 155.723 21.7938 155.709 21.5878C155.695 21.3817 155.706 21.1896 155.739 21.0114C155.759 20.9057 155.784 20.8249 155.812 20.7692C155.862 20.6078 155.926 20.4602 156.004 20.3266C156.085 20.1929 156.179 20.0732 156.288 19.9646C156.577 19.6612 156.962 19.4384 157.435 19.2965C157.644 19.2241 157.869 19.1767 158.106 19.1489C158.342 19.1211 158.587 19.1099 158.835 19.1099C159.139 19.1099 159.434 19.1266 159.721 19.1628C160.007 19.199 160.263 19.2352 160.489 19.2686C160.606 19.3048 160.709 19.3327 160.795 19.3494C160.881 19.3661 160.957 19.3855 161.026 19.4023C161.043 19.4023 161.057 19.4078 161.062 19.4162C161.071 19.4245 161.082 19.4301 161.099 19.4301C161.04 19.7336 160.94 20.0649 160.798 20.4212H160.804Z" fill="white" stroke="#231F20" stroke-width="0.157181" stroke-miterlimit="10"/>
<path d="M171.46 6.20949C171.237 6.0675 170.992 5.99512 170.725 5.99512C170.422 5.99512 170.11 6.07864 169.792 6.24847C169.475 6.4183 169.205 6.65494 168.985 6.95841C168.773 7.22568 168.634 7.52914 168.567 7.8688C168.509 8.17227 168.526 8.45346 168.617 8.71238C168.709 8.9713 168.874 9.1801 169.11 9.34158C169.336 9.46686 169.592 9.52811 169.876 9.52811C170.536 9.52811 171.115 9.2163 171.61 8.59266C171.827 8.30869 171.967 8.00522 172.028 7.68227C172.086 7.3788 172.07 7.09483 171.981 6.82477C171.889 6.5575 171.716 6.35148 171.457 6.20949H171.46Z" fill="white" stroke="#231F20" stroke-width="0.157181" stroke-miterlimit="10"/>
<path d="M170.531 15.1249C170.634 14.5903 170.723 14.156 170.796 13.8275C170.868 13.4962 170.932 13.2345 170.991 13.0368C171.049 12.8225 171.102 12.6526 171.144 12.5273C170.039 12.5273 169.153 12.7584 168.493 13.2234C167.831 13.6883 167.396 14.4539 167.19 15.5258L165.935 21.8429C165.848 22.2883 165.832 22.7171 165.885 23.1263C165.938 23.5384 166.074 23.8947 166.291 24.1982C166.508 24.5017 166.806 24.7383 167.185 24.9081C167.563 25.078 168.034 25.1364 168.596 25.0808C169.175 25.0446 169.626 24.8803 169.949 24.5852C170.275 24.2901 170.512 23.9838 170.665 23.6609C170.846 23.285 170.963 22.8674 171.016 22.4025C170.902 22.5278 170.732 22.6308 170.501 22.7115C170.272 22.7922 170.052 22.8145 169.846 22.7783C169.64 22.7421 169.473 22.6308 169.348 22.4442C169.223 22.2577 169.203 21.9487 169.287 21.5199L170.531 15.1221V15.1249Z" fill="white" stroke="#231F20" stroke-width="0.157181" stroke-miterlimit="10"/>
<path d="M181.39 12.5537H180.079C179.4 12.5537 178.704 12.6289 177.988 12.782C177.273 12.9351 176.596 13.2247 175.958 13.6506C175.321 14.0794 174.756 14.6724 174.26 15.4297C173.765 16.1869 173.4 17.1641 173.169 18.3613L172.492 21.8414C172.283 22.9133 172.431 23.6733 172.929 24.1299C173.431 24.5837 174.224 24.812 175.313 24.812C175.313 24.7062 175.329 24.5447 175.352 24.3304C175.371 24.1355 175.41 23.871 175.466 23.5397C175.521 23.2112 175.599 22.7768 175.705 22.2423L176.46 18.3613C176.604 17.6124 176.796 17.0138 177.036 16.5684C177.275 16.1229 177.531 15.7777 177.813 15.5382C178.091 15.296 178.386 15.129 178.701 15.0288C179.015 14.9313 179.324 14.8645 179.636 14.8283C180.11 14.7754 180.474 14.6223 180.728 14.3745C180.981 14.1239 181.151 13.865 181.24 13.5977C181.357 13.2776 181.407 12.9296 181.39 12.5537Z" fill="white" stroke="#231F20" stroke-width="0.157181" stroke-miterlimit="10"/>
<path d="M146.842 12.0215C147.084 11.3282 147.738 10.8605 148.473 10.8605H150.013L150.004 10.8466H152.56C152.969 10.8466 153.384 10.8299 153.802 10.7937C154.22 10.7575 154.615 10.6517 154.988 10.4735C155.4 10.2786 155.731 10.0002 155.979 9.64386C156.26 9.3042 156.458 8.83091 156.575 8.22398L156.605 8.0625H156.391C156.244 8.0792 155.918 8.10704 155.411 8.14324C154.904 8.17943 154.08 8.19614 152.939 8.19614H150.584C150.138 8.19614 149.707 8.20449 149.295 8.22398C148.88 8.24068 148.482 8.26852 148.1 8.30471C147.808 8.34091 147.529 8.38824 147.268 8.45227C147.006 8.5163 146.75 8.59147 146.502 8.68057C146.135 8.82255 145.798 9.00073 145.489 9.21511C145.18 9.42948 144.893 9.71624 144.626 10.0726C144.439 10.3148 144.269 10.5904 144.119 10.9023L136.482 30.6247C138.153 30.4159 139.873 29.7198 140.697 28.041C141.758 25.8695 143.303 21.8409 144.626 18.23H149.865C150.687 18.23 151.366 17.9877 151.906 17.5061C152.446 17.0244 152.794 16.3813 152.95 15.5795H145.586C146.107 14.1262 146.547 12.8734 146.842 12.0242V12.0215Z" fill="white" stroke="#231F20" stroke-width="0.157181" stroke-miterlimit="10"/>
<path d="M202.266 16.3184H190.286L194.651 12.4903C195.804 11.4769 196.717 10.6194 197.396 9.91499C198.073 9.21062 198.591 8.61483 198.944 8.12762C199.301 7.6404 199.537 7.24506 199.657 6.94438C199.777 6.64092 199.855 6.38478 199.891 6.17598C199.93 5.95325 199.933 5.73609 199.897 5.5245C199.86 5.31291 199.785 5.12638 199.671 4.96212C199.554 4.79786 199.404 4.66701 199.217 4.56678C199.031 4.46934 198.8 4.41922 198.524 4.41922C197.998 4.41922 197.555 4.58905 197.199 4.93149C196.842 5.27394 196.62 5.6999 196.528 6.21495C196.503 6.35973 196.486 6.57132 196.475 6.84694H192.251C192.405 5.97831 192.686 5.18763 193.092 4.47769C193.502 3.76775 194.005 3.15525 194.61 2.64298C195.214 2.13071 195.89 1.73537 196.645 1.45975C197.396 1.18413 198.195 1.04492 199.036 1.04492C199.877 1.04492 200.609 1.17577 201.266 1.44026C201.923 1.70475 202.466 2.07225 202.898 2.54554C203.326 3.01883 203.63 3.58122 203.805 4.23269C203.981 4.88416 204 5.59132 203.867 6.35416C203.722 7.16989 203.416 7.92438 202.945 8.61483C202.475 9.30528 201.792 10.0124 200.904 10.7363L198.031 13.0443H202.848L202.269 16.3212L202.266 16.3184Z" fill="#B8CC33" stroke="#231F20" stroke-width="0.157181" stroke-miterlimit="10"/>
<path d="M204.864 8.85667C205.073 7.67343 205.418 6.596 205.897 5.62992C206.376 4.66385 206.958 3.83698 207.637 3.15209C208.316 2.46721 209.074 1.93823 209.912 1.56238C210.747 1.18653 211.632 1 212.568 1C213.503 1 214.305 1.18653 215.015 1.56238C215.725 1.93823 216.295 2.46721 216.727 3.15209C217.159 3.83698 217.445 4.66106 217.584 5.62992C217.724 6.596 217.687 7.67343 217.479 8.85667C217.27 10.0399 216.925 11.1173 216.446 12.0834C215.967 13.0495 215.388 13.8791 214.714 14.5696C214.04 15.26 213.28 15.7946 212.44 16.1677C211.596 16.5435 210.716 16.73 209.795 16.73C208.873 16.73 208.041 16.5435 207.336 16.1677C206.632 15.7918 206.061 15.26 205.624 14.5696C205.187 13.8791 204.897 13.0495 204.761 12.0834C204.622 11.1173 204.658 10.0399 204.867 8.85667H204.864ZM208.692 8.85667C208.575 9.51371 208.531 10.1123 208.553 10.6524C208.575 11.1925 208.662 11.6602 208.809 12.0528C208.957 12.4481 209.163 12.7544 209.427 12.9715C209.692 13.1887 210.015 13.2973 210.396 13.2973C210.777 13.2973 211.123 13.1887 211.471 12.9715C211.819 12.7544 212.133 12.4481 212.412 12.0528C212.693 11.6574 212.938 11.1897 213.152 10.6524C213.367 10.1123 213.531 9.51371 213.648 8.85667C213.762 8.21076 213.806 7.61775 213.784 7.06929C213.762 6.52361 213.678 6.05589 213.539 5.6689C213.397 5.28191 213.191 4.97845 212.918 4.76129C212.648 4.54413 212.328 4.43555 211.961 4.43555C211.593 4.43555 211.217 4.54413 210.878 4.76129C210.535 4.97845 210.223 5.28191 209.937 5.6689C209.65 6.05589 209.402 6.52361 209.185 7.06929C208.971 7.61497 208.806 8.21076 208.692 8.85667Z" fill="#B8CC33" stroke="#231F20" stroke-width="0.157181" stroke-miterlimit="10"/>
<path d="M199.921 33.7236H187.941L192.306 29.8955C193.459 28.8821 194.372 28.0246 195.051 27.3203C195.728 26.6159 196.243 26.0201 196.599 25.5329C196.956 25.0457 197.192 24.6503 197.312 24.3497C197.432 24.0462 197.51 23.7901 197.546 23.5813C197.585 23.3585 197.587 23.1414 197.551 22.9298C197.515 22.7182 197.44 22.5317 197.326 22.3674C197.209 22.2031 197.059 22.0723 196.872 21.9721C196.685 21.8746 196.454 21.8245 196.179 21.8245C195.653 21.8245 195.21 21.9943 194.854 22.3368C194.497 22.6792 194.274 23.1052 194.183 23.6202C194.158 23.765 194.141 23.9766 194.13 24.2522H189.906C190.059 23.3836 190.341 22.5929 190.747 21.883C191.156 21.173 191.66 20.5605 192.264 20.0483C192.868 19.536 193.545 19.1406 194.299 18.865C195.051 18.5894 195.85 18.4502 196.691 18.4502C197.532 18.4502 198.264 18.581 198.921 18.8455C199.578 19.11 200.121 19.4775 200.553 19.9508C200.981 20.4241 201.285 20.9865 201.46 21.638C201.636 22.2894 201.655 22.9966 201.521 23.7594C201.377 24.5752 201.07 25.3297 200.6 26.0201C200.129 26.7106 199.447 27.4177 198.559 28.1416L195.686 30.4496H200.502L199.923 33.7264L199.921 33.7236Z" fill="white" stroke="#231F20" stroke-width="0.157181" stroke-miterlimit="10"/>
<path d="M213.258 27.7055H215.053L214.53 30.6649H212.734L212.194 33.7246H208.603L209.143 30.6649H201.957L202.397 28.1788L209.727 18.8438H214.819L213.258 27.7055ZM209.666 27.7055L210.699 21.8422L206.25 27.7055H209.666Z" fill="white" stroke="#231F20" stroke-width="0.157181" stroke-miterlimit="10"/>
</svg>
