<svg width="72" height="72" viewBox="0 0 72 72" fill="none" xmlns="http://www.w3.org/2000/svg">
<path fill-rule="evenodd" clip-rule="evenodd" d="M20.0759 6.74167L22.5777 7.91227C23.8161 8.47758 23.8161 10.2297 22.5777 10.795L20.0759 11.9656C19.5845 12.1952 19.1915 12.5884 18.9619 13.0809L18.6846 13.6752C23.9917 12.9684 29.7014 11.953 34.1745 10.5288C41.1709 8.30133 51.0622 3.39604 52.1612 2.84699L53.2201 2L53.654 3.38859L53.154 3.54481L53.2762 3.56101L53.6775 3.47354C53.6815 3.49181 53.8657 4.3353 54.2107 5.63229C55.2917 8.45091 57.8828 12.3138 60.8631 15.7558C62.3523 17.4757 63.9167 19.0649 65.4032 20.3417C66.903 21.6298 68.2707 22.5538 69.3675 23.0004L69.8461 23.1952L70 23.869L69.8597 25.0441C69.7447 26.0077 69.2979 27.762 67.9742 29.1948C66.6565 30.6212 64.5769 31.6117 61.4622 31.3361L56.0265 58.7657C56.708 59.4724 56.9394 60.5309 56.544 61.5155C55.9961 62.8796 54.4416 63.6178 53.0381 63.1803L49.6564 62.1262C49.632 62.1186 49.6078 62.1107 49.5837 62.1024L37.1422 60.4187L38.5292 64.9792L38.5321 64.9885L38.5373 65.0047L38.5402 65.014L38.9436 66.3405C39.3248 67.5939 38.5863 68.8779 37.3112 69.1789C36.0839 69.4686 34.8128 68.7378 34.4459 67.5315L34.0742 66.3091L34.0714 66.2999L34.0662 66.2838L34.0633 66.2746L32.0738 59.7328L31.3326 59.6325L30.2795 64.5609C30.2763 64.5778 30.2729 64.5948 30.2692 64.6117L29.5227 68.1055C29.2572 69.3477 28.0411 70.1759 26.7878 69.9681C25.4993 69.7544 24.6648 68.5294 24.9377 67.2523L25.2756 65.6713C25.2788 65.6544 25.2822 65.6374 25.2858 65.6204L26.3598 60.5944L24.7229 63.0923C24.7113 63.1111 24.6994 63.1298 24.6873 63.1483L23.1883 65.4356C22.5153 66.4626 21.1215 66.8334 20.027 66.2767C18.8568 65.6815 18.4787 64.2607 19.1982 63.1627L20.122 61.753C20.1336 61.7342 20.1455 61.7155 20.1577 61.697L22.3107 58.4116L4.9376 56.0605C3.44734 55.8588 2.43903 54.4814 2.69731 53.0001C2.95052 51.5479 4.32796 50.5399 5.78896 50.7376L6.94008 50.8934L13.446 25.5247C12.3751 24.9124 11.6027 24.0821 11.0855 23.2974C10.6951 23.6507 10.2465 23.9991 9.75746 24.2952C8.76152 24.8983 7.44811 25.3714 6.07845 25.003C4.76432 24.6495 3.82784 23.7145 3.20822 22.8104C2.58512 21.9012 2.2074 20.917 2.04353 20.2575L2 20.0824L2.57548 15.1471L3.41642 15.1064L3.43094 15.1057L3.47657 15.1034C3.51721 15.1013 3.57811 15.0981 3.65828 15.0938C3.81862 15.0852 4.05604 15.0719 4.36263 15.0534C4.97584 15.0166 5.86558 14.9591 6.96864 14.8769C8.87482 14.7349 11.4161 14.5191 14.2669 14.2084L13.7409 13.0814C13.5114 12.5888 13.1186 12.1954 12.6273 11.9659L10.1151 10.7905C8.91328 10.2204 8.91328 8.4869 10.1151 7.91687L10.1198 7.91464L12.6268 6.74167C13.1181 6.5121 13.5112 6.11897 13.7407 5.6264L14.9124 3.11577L14.9146 3.11106C15.484 1.90742 17.2186 1.90742 17.788 3.11106L17.7903 3.11576L18.9617 5.62594C19.1913 6.11851 19.5845 6.5121 20.0759 6.74167ZM15.7514 15.0408C15.4006 15.0815 15.0534 15.1208 14.7104 15.1588C8.36589 15.8609 3.46449 16.0983 3.46449 16.0983L3.00742 20.0181C3.2853 21.1363 4.34014 23.5071 6.33645 24.044C7.89474 24.4631 9.52185 23.4212 10.5886 22.4035C10.8847 22.121 11.1376 21.8404 11.3339 21.5934C11.4278 21.8735 11.5823 22.2143 11.8033 22.576C12.3317 23.4412 13.2402 24.4264 14.6085 24.99L7.68264 51.996L5.65574 51.7217C4.72375 51.5956 3.83727 52.2443 3.67575 53.1707C3.51422 54.0971 4.13881 54.9503 5.07081 55.0764L24.0046 57.6387L20.9884 62.2412C20.9791 62.2553 20.9702 62.2695 20.9616 62.2838L20.029 63.7069C19.6336 64.3103 19.8343 65.0646 20.4773 65.3916C21.1203 65.7187 21.9622 65.4947 22.3576 64.8914L23.8565 62.604C23.8658 62.5899 23.8747 62.5758 23.8833 62.5615L26.8564 58.0247L27.8945 58.1652L26.2571 65.8279C26.2544 65.8408 26.2518 65.8538 26.2494 65.8667L25.909 67.4598C25.7545 68.183 26.2207 68.8674 26.9504 68.9884C27.6801 69.1094 28.3969 68.6213 28.5514 67.898L29.298 64.4043C29.3007 64.3913 29.3033 64.3784 29.3056 64.3655L30.5537 58.525L32.8386 58.8342L35.0136 65.9857L35.0216 66.011L35.3962 67.2426C35.6106 67.9475 36.3658 68.3817 37.083 68.2124C37.8002 68.0431 38.2078 67.3344 37.9934 66.6295L37.5899 65.303L37.5819 65.2774L35.7417 59.2271L49.8245 61.1329C49.8659 61.1495 49.9084 61.1646 49.952 61.1782L53.3337 62.2322C54.2428 62.5156 55.2674 62.0291 55.6223 61.1455C55.9332 60.3713 55.6267 59.5492 54.9345 59.1669L60.672 30.2141C60.8034 30.2474 60.9396 30.2746 61.0805 30.2951C61.1156 30.3002 61.1511 30.3049 61.1868 30.3091C67.2926 31.038 68.6729 26.6062 68.8735 24.9264L68.9934 23.9223L68.9929 23.9201C64.022 21.8962 55.5248 11.8999 53.2643 5.93781C53.2215 5.77731 53.181 5.62342 53.143 5.4768C53.0655 5.17844 52.998 4.91019 52.9408 4.67764C52.8131 4.15879 52.7364 3.81763 52.7139 3.71606C52.7127 3.71053 52.7116 3.70571 52.7107 3.70161C52.7087 3.69267 52.7075 3.68716 52.7071 3.68517C52.7071 3.68514 52.7071 3.68519 52.7071 3.68517L52.7069 3.68285L52.7063 3.68413L52.7056 3.68327L52.703 3.68537L52.7019 3.68623L52.6998 3.68793C52.6492 3.71334 52.3322 3.87238 51.805 4.13111C51.8004 4.13338 51.7957 4.13566 51.7911 4.13794C49.0403 5.48764 40.6599 9.50618 34.4758 11.4751C29.7425 12.982 23.6878 14.03 18.1867 14.7421C17.7954 14.7928 17.407 14.8417 17.0221 14.889L18.0617 12.6615C18.3897 11.9577 18.952 11.3946 19.6549 11.0662L22.1619 9.89323C22.6304 9.68209 22.6304 9.02523 22.1619 8.81409L19.6549 7.64111C18.952 7.31268 18.3897 6.74964 18.0617 6.04586L16.8902 3.53568C16.6793 3.08995 16.0233 3.08995 15.8125 3.53568L14.641 6.04586C14.313 6.74964 13.7507 7.31268 13.0478 7.64111L10.5408 8.81409C10.0956 9.02523 10.0956 9.68209 10.5408 9.89323L13.0478 11.0662C13.7507 11.3946 14.313 11.9577 14.641 12.6615L15.7514 15.0408ZM14.0197 61.6933L15.7814 62.5176C16.1106 62.666 16.1106 63.1275 15.7814 63.2759L14.0197 64.1002C13.5258 64.3309 13.1307 64.7266 12.9002 65.2211L12.077 66.9851C11.9288 67.2983 11.4678 67.2983 11.3196 66.9851L10.4964 65.2211C10.2659 64.7266 9.87078 64.3309 9.37686 64.1002L7.61522 63.2759C7.3024 63.1275 7.3024 62.666 7.61522 62.5176L9.37686 61.6933C9.87078 61.4625 10.2659 61.0669 10.4964 60.5723L11.3196 58.8084C11.4678 58.4952 11.9288 58.4952 12.077 58.8084L12.9002 60.5723C13.1307 61.0669 13.5258 61.4625 14.0197 61.6933ZM16.1975 64.1776L14.4407 64.9996C14.1583 65.1315 13.9325 65.3573 13.8004 65.6406L12.9748 67.4097C12.4681 68.4808 10.9285 68.4808 10.4218 67.4097L10.4196 67.405L9.59639 65.6411C9.46433 65.3577 9.23871 65.1317 8.95636 64.9998L7.18955 64.1731C6.12002 63.6659 6.12004 62.1276 7.18954 61.6204L7.19425 61.6181L8.9559 60.7939C9.23825 60.662 9.46412 60.4362 9.59617 60.1529L10.4218 58.3838C10.9285 57.3127 12.4681 57.3127 12.9748 58.3838L12.977 58.3885L13.8002 60.1524C13.9322 60.4358 14.1579 60.6617 14.4402 60.7937L16.1974 61.6159C17.2962 62.1185 17.2962 63.675 16.1975 64.1776ZM66.3755 51.7434C66.6542 51.6178 66.6542 51.2272 66.3755 51.1017L64.8849 50.4043C64.467 50.209 64.1326 49.8742 63.9376 49.4557L63.241 47.9632C63.1157 47.6982 62.7256 47.6982 62.6002 47.9632L61.9037 49.4557C61.7086 49.8742 61.3743 50.209 60.9563 50.4043L59.4657 51.1017C59.201 51.2272 59.201 51.6178 59.4657 51.7434L60.9563 52.4408C61.3743 52.6361 61.7086 52.9709 61.9037 53.3893L62.6002 54.8819C62.7256 55.1469 63.1157 55.1469 63.241 54.8819L63.9376 53.3893C64.1326 52.9709 64.467 52.6361 64.8849 52.4408L66.3755 51.7434ZM66.7836 50.1963L65.3059 49.5048C65.0995 49.4084 64.9344 49.2435 64.8378 49.0363L64.1411 47.5433L64.1389 47.5386C63.6549 46.5156 62.1863 46.5156 61.7024 47.5386L61.0036 49.0358C60.907 49.2431 60.7422 49.4082 60.5358 49.5046L59.0448 50.2023L59.0401 50.2045C58.0187 50.6889 58.0187 52.1561 59.0401 52.6406L60.5354 53.3402C60.7417 53.4367 60.9068 53.6015 61.0034 53.8088L61.7002 55.3018L61.7024 55.3065C62.1863 56.3294 63.6549 56.3294 64.1389 55.3065L64.8376 53.8092C64.9342 53.602 65.099 53.4369 65.3054 53.3405L66.7836 52.6487C66.7862 52.6475 66.7889 52.6463 66.7915 52.6451C67.8397 52.1654 67.8397 50.6797 66.7915 50.1999C66.7889 50.1987 66.7862 50.1975 66.7836 50.1963Z" fill="#4C4C4C"/>
<path d="M34.9946 65.9164C34.7802 65.2115 35.1878 64.5028 35.905 64.3335C36.6222 64.1642 37.3774 64.5984 37.5918 65.3033L37.9953 66.6298C38.2097 67.3348 37.8021 68.0435 37.0849 68.2128C36.3677 68.3821 35.6125 67.9479 35.3981 67.2429L34.9946 65.9164Z" fill="#8579A0"/>
<path d="M23.8584 62.6027C24.2538 61.9993 24.0531 61.2451 23.41 60.918C22.767 60.5909 21.9252 60.8149 21.5298 61.4183L20.0308 63.7056C19.6354 64.309 19.8362 65.0632 20.4792 65.3903C21.1222 65.7173 21.964 65.4934 22.3594 64.89L23.8584 62.6027Z" fill="#8579A0"/>
<path d="M29.2974 64.4045C29.452 63.6812 28.9857 62.9969 28.2561 62.8758C27.5264 62.7548 26.8096 63.243 26.655 63.9662L25.9085 67.46C25.7539 68.1832 26.2202 68.8676 26.9499 68.9886C27.6795 69.1096 28.3964 68.6214 28.5509 67.8982L29.2974 64.4045Z" fill="#8579A0"/>
<path d="M32.7212 58.4477C32.5068 57.7427 32.9144 57.034 33.6316 56.8647C34.3488 56.6954 35.104 57.1296 35.3184 57.8346L37.6107 65.3714C37.8251 66.0763 37.4175 66.785 36.7003 66.9543C35.9831 67.1236 35.2279 66.6894 35.0135 65.9845L32.7212 58.4477Z" fill="#5E5577"/>
<path d="M27.0353 57.7492C27.4307 57.1458 27.2299 56.3916 26.5869 56.0645C25.9439 55.7374 25.1021 55.9614 24.7067 56.5647L20.9879 62.2394C20.5925 62.8428 20.7932 63.597 21.4362 63.9241C22.0792 64.2511 22.921 64.0272 23.3164 63.4238L27.0353 57.7492Z" fill="#5E5577"/>
<path d="M30.5865 58.3752C30.741 57.6519 30.2748 56.9676 29.5451 56.8465C28.8154 56.7255 28.0986 57.2137 27.9441 57.9369L26.2581 65.827C26.1036 66.5503 26.5698 67.2346 27.2995 67.3557C28.0292 67.4767 28.746 66.9885 28.9005 66.2653L30.5865 58.3752Z" fill="#5E5577"/>
<path d="M7.51172 52.6549L16.0515 19.3555L59.3217 25.3461L53.351 61.6266L7.51172 52.6549Z" fill="#F0F0F0"/>
<path d="M61.054 27.3254L59.3226 25.3457L52.2582 60.3044C52.1456 60.8617 52.478 61.4125 53.0235 61.5727L53.2266 61.6323C53.8446 61.8138 54.4852 61.4257 54.6104 60.794L61.1624 27.7306C61.1911 27.586 61.151 27.4363 61.054 27.3254Z" fill="#6A6086"/>
<path d="M20.2181 36.875C19.6433 36.8093 19.1622 36.6423 18.7748 36.374C18.3874 36.1058 18.1063 35.7576 17.9313 35.3295C17.7612 34.902 17.707 34.4181 17.7689 33.8777C17.8149 33.4749 17.9182 33.116 18.0787 32.8009C18.2441 32.4864 18.4582 32.2248 18.721 32.016C18.9887 31.8077 19.2991 31.6616 19.6521 31.5775C20.0106 31.4892 20.4036 31.4694 20.831 31.5183C21.057 31.5442 21.2873 31.5979 21.5218 31.6794C21.7618 31.7566 21.9693 31.8575 22.1442 31.982C22.2733 32.0714 22.3584 32.1757 22.3995 32.2949C22.4407 32.414 22.4446 32.5314 22.4115 32.6471C22.3833 32.7633 22.3294 32.8641 22.25 32.9496C22.1705 33.0351 22.0748 33.0888 21.9628 33.1108C21.8513 33.1279 21.7354 33.0973 21.6149 33.0188C21.4754 32.9332 21.3339 32.8647 21.1905 32.8135C21.0525 32.7579 20.9049 32.7211 20.7477 32.7031C20.4431 32.6683 20.1809 32.698 19.9611 32.7923C19.7467 32.8822 19.5753 33.0318 19.4468 33.2411C19.3184 33.4503 19.2356 33.7171 19.1985 34.0413C19.1614 34.3655 19.1815 34.6464 19.2589 34.8842C19.3367 35.1171 19.4696 35.3039 19.6576 35.4449C19.851 35.5815 20.1 35.6672 20.4046 35.702C20.5323 35.7166 20.6716 35.7176 20.8223 35.705C20.9737 35.6875 21.1245 35.6525 21.2748 35.6C21.4295 35.553 21.5617 35.5507 21.6713 35.5931C21.7859 35.636 21.8725 35.7057 21.9311 35.8019C21.9947 35.8988 22.0296 36.0073 22.0357 36.1274C22.0425 36.2427 22.0123 36.3537 21.9454 36.4605C21.8833 36.5678 21.7845 36.6486 21.6489 36.7028C21.4651 36.7862 21.2421 36.8428 20.9799 36.8726C20.7226 36.9029 20.4687 36.9037 20.2181 36.875Z" fill="#6A6086"/>
<path d="M25.0011 37.4221C24.4754 37.3619 24.0263 37.1986 23.6536 36.932C23.2815 36.6606 23.008 36.3108 22.833 35.8827C22.6629 35.4552 22.6085 34.9737 22.6698 34.4383C22.7158 34.0355 22.8191 33.6766 22.9796 33.3615C23.145 33.047 23.3566 32.785 23.6145 32.5757C23.8773 32.3669 24.1778 32.2196 24.5161 32.1339C24.855 32.0432 25.2209 32.0204 25.614 32.0654C26.1397 32.1255 26.5864 32.2885 26.9541 32.5545C27.3268 32.8211 27.6006 33.1684 27.7756 33.5965C27.9511 34.0197 28.008 34.5014 27.9462 35.0418C27.9001 35.4446 27.7944 35.8032 27.629 36.1177C27.4685 36.4328 27.2566 36.6972 26.9932 36.9109C26.7354 37.1203 26.437 37.2703 26.0981 37.3609C25.7598 37.4466 25.3942 37.467 25.0011 37.4221ZM25.1309 36.2874C25.3913 36.3171 25.6194 36.281 25.8153 36.179C26.0111 36.077 26.1713 35.9162 26.296 35.6965C26.4207 35.4769 26.5016 35.205 26.5386 34.8808C26.5943 34.3945 26.5295 34.0039 26.3442 33.709C26.159 33.4141 25.8723 33.2445 25.4842 33.2001C25.2287 33.1708 25.0006 33.207 24.7998 33.3084C24.6046 33.4055 24.4446 33.5639 24.3199 33.7835C24.1958 33.9982 24.1149 34.2702 24.0773 34.5993C24.0217 35.0856 24.0862 35.4786 24.2709 35.7784C24.4561 36.0733 24.7428 36.243 25.1309 36.2874Z" fill="#6A6086"/>
<path d="M29.068 37.8723C28.8715 37.8498 28.7254 37.7784 28.6297 37.6579C28.5389 37.5381 28.5047 37.3799 28.5272 37.1834L28.995 33.094C29.0181 32.8926 29.092 32.7468 29.2168 32.6566C29.3422 32.5614 29.508 32.5257 29.7144 32.5493C29.8863 32.5689 30.0175 32.6188 30.1079 32.6988C30.2037 32.7744 30.2847 32.8932 30.3508 33.055L31.6098 36.0804L31.3519 36.0509L33.2543 33.3871C33.3602 33.2449 33.4659 33.1475 33.5715 33.0949C33.6825 33.0379 33.824 33.0193 33.9959 33.039C34.1925 33.0614 34.3361 33.1326 34.4269 33.2525C34.5232 33.368 34.5598 33.5265 34.5368 33.7279L34.0689 37.8172C34.0464 38.0137 33.9774 38.1601 33.8619 38.2564C33.7464 38.3526 33.5879 38.3892 33.3865 38.3662C33.1899 38.3437 33.0438 38.2723 32.9481 38.1519C32.8573 38.032 32.8231 37.8738 32.8456 37.6773L33.1356 35.1426L33.2904 35.1603L31.8679 37.0878C31.7867 37.188 31.7037 37.2606 31.619 37.3056C31.5391 37.3512 31.4353 37.3667 31.3075 37.3521C31.1847 37.3381 31.0871 37.2995 31.0147 37.2365C30.9423 37.1735 30.8803 37.0843 30.8288 36.9689L29.8718 34.7619L30.0413 34.7813L29.7505 37.3233C29.728 37.5198 29.659 37.6662 29.5435 37.7624C29.4279 37.8587 29.2695 37.8953 29.068 37.8723Z" fill="#6A6086"/>
<path d="M35.6325 38.6231C35.4164 38.5984 35.2561 38.5203 35.1517 38.389C35.0478 38.2527 35.0085 38.074 35.0338 37.8529L35.4848 33.9109C35.5107 33.685 35.5893 33.5198 35.7207 33.4154C35.8521 33.311 36.0259 33.2711 36.242 33.2959C36.4631 33.3211 36.6234 33.3992 36.7229 33.53C36.8273 33.6614 36.8666 33.8401 36.8408 34.066L36.3898 38.008C36.3645 38.2291 36.2883 38.3945 36.1613 38.5044C36.0348 38.6094 35.8585 38.649 35.6325 38.6231Z" fill="#6A6086"/>
<path d="M37.884 38.8806C37.6777 38.857 37.5267 38.785 37.431 38.6646C37.3352 38.5441 37.2995 38.3783 37.3236 38.1671L37.7831 34.1514C37.8078 33.9353 37.8806 33.7769 38.0017 33.6763C38.1232 33.5707 38.2724 33.5281 38.4493 33.5483C38.6065 33.5663 38.726 33.6098 38.8077 33.6789C38.8894 33.7479 38.9764 33.8574 39.0687 34.0073L41.071 37.1923L40.8646 37.1687L41.1698 34.5014C41.1934 34.2951 41.263 34.1438 41.3785 34.0476C41.4989 33.9519 41.6623 33.9158 41.8687 33.9394C42.075 33.963 42.2236 34.0347 42.3144 34.1546C42.4101 34.275 42.4462 34.4384 42.4226 34.6447L41.9556 38.7267C41.9342 38.9134 41.8679 39.0576 41.7568 39.1593C41.6461 39.2562 41.5073 39.295 41.3403 39.2759C41.1732 39.2568 41.044 39.2122 40.9524 39.142C40.8664 39.0675 40.7769 38.9577 40.684 38.8127L38.6826 35.6203L38.8889 35.6439L38.5838 38.3112C38.5596 38.5224 38.4873 38.6759 38.3669 38.7716C38.2513 38.8679 38.0904 38.9042 37.884 38.8806Z" fill="#6A6086"/>
<path d="M45.4861 39.765C44.8917 39.697 44.3983 39.5286 44.006 39.2598C43.6186 38.9916 43.3396 38.6462 43.1689 38.2235C42.9983 37.8009 42.9433 37.3244 43.004 36.7939C43.0512 36.3812 43.1575 36.0177 43.3229 35.7032C43.4938 35.3843 43.7155 35.121 43.9881 34.9134C44.2613 34.7008 44.5818 34.5533 44.9496 34.4709C45.3228 34.3842 45.7354 34.3667 46.1874 34.4184C46.4331 34.4465 46.6808 34.4997 46.9307 34.5781C47.1811 34.6515 47.4218 34.7661 47.6528 34.9219C47.7738 34.9955 47.8502 35.0888 47.8821 35.202C47.9194 35.3107 47.9215 35.4229 47.8884 35.5386C47.8607 35.6499 47.8069 35.7507 47.7268 35.8411C47.6523 35.9271 47.5566 35.9809 47.4396 36.0023C47.3233 36.0189 47.1975 35.9871 47.0623 35.9069C46.9228 35.8213 46.769 35.7515 46.601 35.6974C46.4336 35.6384 46.254 35.598 46.0624 35.5761C45.7333 35.5384 45.4514 35.5659 45.2168 35.6585C44.9872 35.7517 44.8051 35.9075 44.6706 36.126C44.5361 36.3446 44.4498 36.6208 44.4115 36.9548C44.3542 37.4559 44.4338 37.8482 44.6502 38.1317C44.8666 38.4152 45.2156 38.5845 45.697 38.6396C45.8444 38.6565 46.0058 38.66 46.1811 38.6502C46.3613 38.6409 46.543 38.6194 46.726 38.5856L46.4173 39.0653L46.5614 37.8054L46.0456 37.7464C45.8785 37.7273 45.7531 37.6706 45.6693 37.5764C45.5905 37.4828 45.5597 37.3599 45.5771 37.2076C45.5946 37.0553 45.652 36.9449 45.7494 36.8765C45.8523 36.8036 45.9873 36.7768 46.1543 36.7959L47.245 36.9206C47.4169 36.9403 47.5418 37.0018 47.6195 37.1053C47.7028 37.2044 47.7345 37.3399 47.7149 37.5118L47.5286 39.1402C47.5117 39.2876 47.4655 39.4092 47.3898 39.505C47.319 39.6014 47.2148 39.6642 47.0771 39.6932C46.8372 39.7454 46.5796 39.7781 46.3043 39.7914C46.0291 39.8047 45.7563 39.7959 45.4861 39.765Z" fill="#6A6086"/>
<path d="M22.6319 47.1463C22.4353 47.1239 22.2307 47.0855 22.0179 47.0313C21.8095 46.9826 21.6125 46.9203 21.4271 46.8443C21.2417 46.7684 21.077 46.6848 20.9332 46.5937C20.8078 46.5147 20.724 46.4205 20.6818 46.3112C20.6401 46.1969 20.6334 46.0817 20.6616 45.9655C20.6898 45.8493 20.7434 45.7509 20.8223 45.6704C20.9018 45.5849 20.9997 45.5339 21.116 45.5174C21.233 45.4959 21.359 45.5252 21.4942 45.6054C21.6708 45.7152 21.8741 45.8081 22.1043 45.8842C22.3345 45.9603 22.5528 46.0101 22.7592 46.0337C23.0834 46.0708 23.3142 46.0549 23.4515 45.986C23.5942 45.9128 23.6729 45.8123 23.6875 45.6846C23.7005 45.5716 23.6642 45.4754 23.5787 45.3959C23.4981 45.317 23.3452 45.2398 23.1199 45.1643L22.2788 44.8815C21.8184 44.7293 21.4868 44.5172 21.284 44.2452C21.0812 43.9732 21.002 43.6431 21.0464 43.2551C21.0756 42.9996 21.1536 42.7746 21.2804 42.5801C21.4126 42.3813 21.583 42.2191 21.7914 42.0937C22.0048 41.9688 22.2486 41.8822 22.5229 41.834C22.8027 41.7814 23.1072 41.7739 23.4363 41.8115C23.6918 41.8407 23.9463 41.8997 24.2 41.9884C24.4591 42.0728 24.678 42.1825 24.8567 42.3174C24.9629 42.3892 25.0347 42.4795 25.072 42.5883C25.1094 42.6971 25.1167 42.8074 25.0939 42.9193C25.0717 43.0262 25.0214 43.1175 24.9431 43.1931C24.8697 43.2693 24.7748 43.3157 24.6584 43.3323C24.5475 43.3445 24.4196 43.3099 24.2746 43.2287C24.1394 43.1485 23.9826 43.0833 23.8042 43.033C23.6313 42.9784 23.4613 42.9416 23.2943 42.9224C23.1125 42.9017 22.9552 42.9061 22.8224 42.9357C22.6902 42.9603 22.5852 43.0081 22.5074 43.0788C22.4346 43.1501 22.3922 43.2373 22.3804 43.3405C22.3686 43.4436 22.4003 43.5368 22.4754 43.62C22.5559 43.6989 22.7089 43.7761 22.9341 43.8517L23.7679 44.1336C24.2327 44.2913 24.5695 44.5015 24.7783 44.7643C24.9871 45.027 25.0699 45.3475 25.0267 45.7258C24.9974 45.9812 24.9194 46.2062 24.7927 46.4007C24.6659 46.5952 24.4983 46.7552 24.2898 46.8806C24.0819 47.0012 23.8383 47.0853 23.5591 47.133C23.2799 47.1806 22.9709 47.1851 22.6319 47.1463Z" fill="#6A6086"/>
<path d="M28.0068 47.7611C27.4811 47.701 27.032 47.5376 26.6593 47.2711C26.2872 46.9996 26.0137 46.6498 25.8387 46.2217C25.6686 45.7942 25.6142 45.3127 25.6754 44.7773C25.7215 44.3745 25.8248 44.0156 25.9853 43.7005C26.1507 43.386 26.3623 43.1241 26.6202 42.9147C26.883 42.7059 27.1835 42.5586 27.5218 42.4729C27.8607 42.3823 28.2266 42.3594 28.6197 42.4044C29.1453 42.4645 29.5921 42.6276 29.9598 42.8936C30.3324 43.1601 30.6063 43.5074 30.7813 43.9355C30.9568 44.3587 31.0137 44.8405 30.9519 45.3808C30.9058 45.7836 30.8001 46.1422 30.6347 46.4567C30.4742 46.7718 30.2623 47.0362 29.9989 47.2499C29.741 47.4593 29.4427 47.6093 29.1038 47.6999C28.7655 47.7857 28.3998 47.806 28.0068 47.7611ZM28.1366 46.6264C28.397 46.6562 28.6251 46.62 28.8209 46.518C29.0168 46.416 29.177 46.2552 29.3017 46.0356C29.4264 45.8159 29.5072 45.544 29.5443 45.2198C29.6 44.7335 29.5352 44.3429 29.3499 44.048C29.1646 43.7531 28.878 43.5835 28.4898 43.5391C28.2344 43.5099 28.0063 43.546 27.8055 43.6474C27.6103 43.7445 27.4503 43.9029 27.3256 44.1225C27.2015 44.3373 27.1206 44.6092 27.083 44.9383C27.0273 45.4246 27.0919 45.8176 27.2766 46.1175C27.4618 46.4123 27.7485 46.582 28.1366 46.6264Z" fill="#6A6086"/>
<path d="M33.9512 48.441C33.4255 48.3809 32.9764 48.2175 32.6037 47.9509C32.2316 47.6795 31.9581 47.3297 31.7831 46.9016C31.613 46.4741 31.5586 45.9926 31.6198 45.4572C31.6659 45.0544 31.7692 44.6955 31.9297 44.3804C32.0951 44.0659 32.3067 43.8039 32.5646 43.5946C32.8274 43.3858 33.1279 43.2385 33.4662 43.1528C33.8051 43.0621 34.171 43.0393 34.5641 43.0843C35.0897 43.1444 35.5365 43.3074 35.9042 43.5734C36.2768 43.84 36.5507 44.1873 36.7257 44.6154C36.9012 45.0386 36.9581 45.5203 36.8963 46.0607C36.8502 46.4635 36.7445 46.8221 36.5791 47.1366C36.4186 47.4517 36.2067 47.7161 35.9433 47.9298C35.6854 48.1392 35.3871 48.2892 35.0482 48.3798C34.7099 48.4655 34.3442 48.4859 33.9512 48.441ZM34.081 47.3063C34.3414 47.336 34.5695 47.2999 34.7653 47.1979C34.9612 47.0959 35.1214 46.9351 35.2461 46.7154C35.3708 46.4958 35.4516 46.2239 35.4887 45.8997C35.5444 45.4134 35.4796 45.0228 35.2943 44.7279C35.109 44.433 34.8224 44.2634 34.4342 44.219C34.1788 44.1897 33.9507 44.2259 33.7499 44.3273C33.5547 44.4244 33.3947 44.5828 33.27 44.8024C33.1459 45.0171 33.065 45.2891 33.0274 45.6182C32.9717 46.1045 33.0363 46.4975 33.221 46.7973C33.4062 47.0922 33.6929 47.2619 34.081 47.3063Z" fill="#6A6086"/>
<path d="M38.0255 48.892C37.8191 48.8684 37.6681 48.7964 37.5724 48.676C37.4767 48.5556 37.4409 48.3897 37.4651 48.1785L37.9245 44.1628C37.9492 43.9467 38.0221 43.7883 38.1431 43.6877C38.2647 43.5822 38.4139 43.5395 38.5907 43.5597C38.748 43.5777 38.8674 43.6212 38.9491 43.6903C39.0308 43.7594 39.1178 43.8688 39.2102 44.0187L41.2124 47.2038L41.0061 47.1802L41.3112 44.5129C41.3348 44.3065 41.4044 44.1553 41.5199 44.059C41.6404 43.9633 41.8038 43.9272 42.0101 43.9508C42.2165 43.9744 42.365 44.0462 42.4558 44.166C42.5516 44.2865 42.5876 44.4498 42.564 44.6561L42.097 48.7381C42.0756 48.9248 42.0094 49.069 41.8982 49.1708C41.7876 49.2676 41.6487 49.3064 41.4817 49.2873C41.3147 49.2682 41.1854 49.2236 41.0939 49.1534C41.0078 49.0789 40.9184 48.9691 40.8255 48.8241L38.824 45.6317L39.0304 45.6553L38.7252 48.3226C38.7011 48.5339 38.6287 48.6873 38.5083 48.783C38.3928 48.8793 38.2318 48.9156 38.0255 48.892Z" fill="#6A6086"/>
<rect width="6.23259" height="3.52389" rx="1.76194" transform="matrix(0.881317 0.472525 -0.568366 0.822776 58.0215 22.752)" fill="#004D76"/>
<path d="M48.9495 59.0659C49.3044 58.1823 50.329 57.6958 51.2382 57.9792L54.6198 59.0332C55.529 59.3166 55.9783 60.2626 55.6235 61.1462C55.2686 62.0298 54.244 62.5163 53.3348 62.2329L49.9532 61.1789C49.044 60.8955 48.5947 59.9495 48.9495 59.0659Z" fill="#004D76"/>
<path d="M3.67583 53.1698C3.83735 52.2434 4.72383 51.5946 5.65582 51.7208L50.6894 57.8151C51.6214 57.9413 52.246 58.7945 52.0845 59.7209C51.9229 60.6473 51.0365 61.296 50.1045 61.1699L5.07089 55.0755C4.1389 54.9494 3.5143 54.0961 3.67583 53.1698Z" fill="#0074B7"/>
<rect width="45.9155" height="3.40535" rx="1.70268" transform="matrix(0.990967 0.134107 -0.171769 0.985137 15.0547 17.3652)" fill="#0074B7"/>
<path d="M14.4265 19.166L26.2125 20.6164L26.2105 20.6273L37.9079 22.0668L37.1826 26.1459C35.9133 27.2942 32.6858 29.4455 29.9296 28.8654C27.2227 28.2956 25.8101 25.9304 25.417 24.7583C24.1023 25.9201 20.9409 27.9848 18.2342 27.415C15.4781 26.8349 14.0638 24.3934 13.7012 23.2452L14.4265 19.166Z" fill="#6A6086"/>
<path d="M37.9079 22.0668L49.6939 23.5172L49.69 23.539L61.2986 24.9675L60.5734 29.0467C59.3041 30.1949 56.0765 32.3463 53.3204 31.7662C50.6596 31.2061 49.2494 28.9112 48.8288 27.72C47.4748 28.8913 44.3757 30.8757 41.7157 30.3158C38.9595 29.7356 37.5452 27.2942 37.1826 26.1459L37.9079 22.0668Z" fill="#6A6086"/>
<path d="M34.4782 11.4744C22.9154 15.1558 3.46684 16.0977 3.46684 16.0977L3.38328 16.8201L68.9042 24.6412L68.9904 23.9187C68.9904 23.9187 61.4621 22.9006 57.8395 17.4177C54.6429 12.5794 52.7093 3.68369 52.7093 3.68369C52.7093 3.68369 41.9784 9.08652 34.4782 11.4744Z" fill="#EEEFE8"/>
<path d="M52.7079 3.68263C41.8601 12.3609 23.0767 17.0197 11.868 17.1007L11.3786 21.2C11.3334 21.5806 12.2647 24.5317 16.0395 24.9822C19.8353 25.4353 21.9914 22.9279 22.7825 22.5612L23.4324 18.5604C32.5458 18.4224 52.7542 5.67639 52.7079 3.68263Z" fill="#FF0000"/>
<path d="M23.0687 18.4382L11.868 17.1007L11.3324 21.5811C11.7026 22.6989 13.0481 24.802 15.7461 25.3287C18.4441 25.8555 21.3115 24.06 22.5339 22.9181L23.0687 18.4382Z" fill="#BA0707"/>
<path d="M46.033 21.1793L34.8315 19.8419L34.3635 23.7618C34.7337 24.8796 36.0067 27.2924 38.7047 27.8192C41.4027 28.3459 44.3426 26.2407 45.565 25.0989L46.033 21.1793Z" fill="#BA0707"/>
<path d="M52.781 9.9566C52.8448 14.3546 56.1676 20.2716 57.7941 22.5824L68.9089 24.6425L68.9952 23.9194C63.3206 21.609 53.0506 8.90906 52.7092 3.68164C52.596 4.00854 52.7171 5.55865 52.781 9.9566Z" fill="#FF0000"/>
<path d="M68.9957 23.9216L57.7941 22.5845L57.326 26.5045C57.6655 27.6218 58.6865 30.0098 61.1891 30.3085C67.295 31.0373 68.6753 26.6055 68.8759 24.9257L68.9957 23.9216Z" fill="#BA0707"/>
<path d="M46.033 21.1793C46.1949 17.7003 50.5898 8.06147 52.7093 3.68369C48.6396 9.86475 41.5004 14.8464 34.8315 19.8419L46.033 21.1793Z" fill="#FF0000"/>
<path d="M34.8318 19.8408L23.0702 18.4369L22.5353 22.9169C22.9056 24.0347 24.4807 26.0454 27.1787 26.5721C29.8767 27.0989 33.1414 24.9027 34.3638 23.7608L34.8318 19.8408Z" fill="#CCCDC7"/>
<path d="M57.7913 22.5846L46.0298 21.1807L45.5574 25.1001C45.9276 26.2179 47.3478 28.541 50.0458 29.0677C52.7438 29.5945 56.1009 27.6464 57.3233 26.5045L57.7913 22.5846Z" fill="#CCCDC7"/>
<path d="M11.8671 17.102L3.46593 16.0993L3.00977 20.0174C3.28765 21.1357 4.34249 23.5065 6.3388 24.0434C8.33511 24.5803 10.4444 22.7194 11.3437 21.5834L11.8671 17.102Z" fill="#CCCDC7"/>
<path d="M15.7836 62.5163L14.0219 61.6921C13.528 61.4613 13.1329 61.0656 12.9024 60.5711L12.0792 58.8072C11.931 58.494 11.47 58.494 11.3218 58.8072L10.4986 60.5711C10.2681 61.0656 9.87299 61.4613 9.37907 61.6921L7.61742 62.5163C7.30461 62.6647 7.30461 63.1263 7.61742 63.2746L9.37907 64.0989C9.87299 64.3297 10.2681 64.7253 10.4986 65.2199L11.3218 66.9838C11.47 67.297 11.931 67.297 12.0792 66.9838L12.9024 65.2199C13.1329 64.7253 13.528 64.3297 14.0219 64.0989L15.7836 63.2746C16.1128 63.1263 16.1128 62.6647 15.7836 62.5163Z" fill="#FAD810"/>
<path d="M22.1619 8.81388L19.655 7.6409C18.9521 7.31247 18.3898 6.74944 18.0618 6.04565L16.8903 3.53547C16.6794 3.08974 16.0234 3.08974 15.8125 3.53547L14.6411 6.04565C14.3131 6.74944 13.7507 7.31247 13.0479 7.6409L10.5409 8.81388C10.0957 9.02502 10.0957 9.68189 10.5409 9.89302L13.0479 11.066C13.7507 11.3944 14.3131 11.9575 14.6411 12.6613L15.8125 15.1714C16.0234 15.6172 16.6794 15.6172 16.8903 15.1714L18.0618 12.6613C18.3898 11.9575 18.9521 11.3944 19.655 11.066L22.1619 9.89302C22.6305 9.68189 22.6305 9.02502 22.1619 8.81388Z" fill="#FAD810"/>
<path d="M66.3759 51.101L64.8853 50.4035C64.4674 50.2082 64.133 49.8735 63.938 49.455L63.2414 47.9624C63.116 47.6974 62.726 47.6974 62.6006 47.9624L61.904 49.455C61.709 49.8735 61.3747 50.2082 60.9567 50.4035L59.4661 51.101C59.2014 51.2265 59.2014 51.6171 59.4661 51.7426L60.9567 52.4401C61.3747 52.6353 61.709 52.9701 61.904 53.3886L62.6006 54.8811C62.726 55.1462 63.116 55.1462 63.2414 54.8811L63.938 53.3886C64.133 52.9701 64.4674 52.6353 64.8853 52.4401L66.3759 51.7426C66.6545 51.6171 66.6545 51.2265 66.3759 51.101Z" fill="#FAD810"/>
</svg>
