<svg width="22" height="43" viewBox="0 0 22 43" fill="none" xmlns="http://www.w3.org/2000/svg">
<path fill-rule="evenodd" clip-rule="evenodd" d="M0.00378421 0V42.5571H19.809C23.1172 37.3615 22.7613 28.4978 18.2033 19.2725C13.8633 10.4813 6.83736 3.32783 0.00378421 0Z" fill="black"/>
<path d="M13.9668 36.7734C13.9668 36.7734 13.858 36.8823 13.661 37.0792C13.5677 37.1777 13.4485 37.2969 13.3137 37.4369C13.179 37.5716 12.9976 37.6857 12.8214 37.836C12.6399 37.9811 12.4534 38.1469 12.2098 38.2661C11.9765 38.3905 11.7485 38.5512 11.4789 38.6652C11.2094 38.7741 10.9295 38.8881 10.6445 39.0021C10.3387 39.0747 10.0277 39.1524 9.71672 39.2198C9.40056 39.282 9.06366 39.2976 8.7475 39.3442C8.43134 39.3909 8.07889 39.3442 7.76273 39.3442C7.44138 39.3494 7.12003 39.3028 6.80905 39.2613C6.49807 39.2095 6.213 39.2043 5.9383 39.1213C5.65842 39.054 5.40445 38.997 5.18158 38.9451C4.95353 38.8881 4.75139 38.8104 4.59072 38.7637C4.26419 38.6601 4.07242 38.603 4.07242 38.603C4.07242 38.603 4.26419 38.686 4.60109 38.8207C4.76694 38.8829 4.97426 38.9762 5.2075 39.0591C5.43555 39.1317 5.6947 39.2095 5.97977 39.2924C6.27002 39.3909 6.56027 39.4168 6.87643 39.4842C7.19259 39.5464 7.53467 39.6189 7.85602 39.6137C8.18255 39.6137 8.54018 39.6759 8.86671 39.6345C9.19324 39.5982 9.5405 39.5878 9.86185 39.5308C10.1728 39.4479 10.489 39.3649 10.7948 39.2872C11.0799 39.1628 11.3597 39.0436 11.6293 38.9244C11.8988 38.8052 12.1165 38.6186 12.3445 38.4735C12.5726 38.3387 12.7592 38.1521 12.9302 37.9914C13.1012 37.8256 13.2671 37.6908 13.3863 37.5353C13.5055 37.3799 13.6092 37.2451 13.6921 37.1311C13.8631 36.903 13.9564 36.7734 13.9564 36.7734H13.9668Z" fill="white"/>
<path opacity="0.1" d="M13.8444 12.127C14.3627 13.231 15.0987 14.1535 15.1816 15.4389C14.6374 14.7496 14.1036 14.0343 13.435 13.4383C12.5694 12.666 11.1907 11.2925 10.0349 10.9815C10.2941 12.1736 11.7038 13.7959 11.3307 14.9828C10.8642 14.5423 10.2733 14.2261 9.74466 13.8374C9.10714 13.3657 8.65104 12.78 8.04463 12.298C8.07573 12.8111 8.55775 13.4538 8.77543 13.9307C9.20044 14.8532 9.75502 15.7136 9.60471 16.7502C9.00348 16.6362 7.98243 15.47 7.58334 15.0554C7.15833 14.6148 6.80589 14.0032 6.36015 13.6301C6.2824 15.2834 7.69737 16.828 7.8684 18.4192C7.6248 18.2378 7.46931 17.8905 7.26717 17.6573C6.64003 16.9265 5.74337 16.3615 5.02293 15.7033C4.17291 14.9258 3.45247 13.5419 2.33812 13.0392C3.5043 13.5886 4.80524 15.0139 6.13728 15.0295C6.25649 14.4127 5.7019 13.8115 5.34428 13.3398C4.67567 12.4483 3.95004 11.5776 3.24515 10.7068C2.89789 10.2818 2.34331 9.73761 2.14117 9.21931C2.84088 9.67541 3.76864 9.90347 4.53572 10.2818C5.16287 10.598 5.7641 10.9867 6.40679 11.2718C6.31868 10.0538 4.50463 8.65436 3.77382 7.66959C4.3906 7.94429 5.04884 8.08423 5.63971 8.41594C6.00252 8.61808 6.37051 8.96534 6.72814 9.11565C5.98179 8.33301 5.28726 7.53483 4.44243 6.82475C3.8101 6.2909 2.05824 5.37869 1.91312 4.62197C3.34881 5.48753 4.91927 6.27535 6.45344 6.98024C5.72263 6.37383 4.95555 5.72077 4.1159 5.17137C2.94454 4.40428 1.12012 3.20701 0.612181 1.96827C1.93385 2.66279 3.3229 3.25884 4.60829 4.01038C4.76896 4.10367 4.96591 4.2177 5.17842 4.34727C4.78451 4.03111 4.37505 3.73049 3.99151 3.42988C2.89271 2.5695 1.74208 1.80759 0.56035 1.04051C0.0213162 0.688062 0.00150696 0.658586 0.00150696 0.658586C4.8269 3.03759 9.8535 6.71073 13.8444 12.1218V12.127Z" fill="white"/>
<path d="M1.07655 22.716C0.682644 21.897 0.807038 21.1455 1.35125 21.0367C1.89547 20.9278 2.65219 21.5031 3.04092 22.322C3.43483 23.141 3.31043 23.8925 2.7714 24.0065C2.22718 24.1154 1.47046 23.5401 1.08174 22.716H1.07655Z" fill="#003FBA"/>
<path opacity="0.05" d="M0.778346 42.5586H18.1503C22.0542 37.8389 22.0046 28.8416 17.3731 19.4457C13.2359 11.0489 6.51899 4.23046 0.00195312 1.09961V42.0331C0.26016 42.214 0.519017 42.3892 0.778346 42.5586Z" fill="#848484"/>
<path fill-rule="evenodd" clip-rule="evenodd" d="M0.00378421 0V42.5571H19.809C23.1172 37.3615 22.7613 28.4978 18.2033 19.2725C13.8633 10.4813 6.83736 3.32783 0.00378421 0Z" fill="black"/>
<path d="M13.9668 36.7734C13.9668 36.7734 13.858 36.8823 13.661 37.0792C13.5677 37.1777 13.4485 37.2969 13.3137 37.4369C13.179 37.5716 12.9976 37.6857 12.8214 37.836C12.6399 37.9811 12.4534 38.1469 12.2098 38.2661C11.9765 38.3905 11.7485 38.5512 11.4789 38.6652C11.2094 38.7741 10.9295 38.8881 10.6445 39.0021C10.3387 39.0747 10.0277 39.1524 9.71672 39.2198C9.40056 39.282 9.06366 39.2976 8.7475 39.3442C8.43134 39.3909 8.07889 39.3442 7.76273 39.3442C7.44138 39.3494 7.12003 39.3028 6.80905 39.2613C6.49807 39.2095 6.213 39.2043 5.9383 39.1213C5.65842 39.054 5.40445 38.997 5.18158 38.9451C4.95353 38.8881 4.75139 38.8104 4.59072 38.7637C4.26419 38.6601 4.07242 38.603 4.07242 38.603C4.07242 38.603 4.26419 38.686 4.60109 38.8207C4.76694 38.8829 4.97426 38.9762 5.2075 39.0591C5.43555 39.1317 5.6947 39.2095 5.97977 39.2924C6.27002 39.3909 6.56027 39.4168 6.87643 39.4842C7.19259 39.5464 7.53467 39.6189 7.85602 39.6137C8.18255 39.6137 8.54018 39.6759 8.86671 39.6345C9.19324 39.5982 9.5405 39.5878 9.86185 39.5308C10.1728 39.4479 10.489 39.3649 10.7948 39.2872C11.0799 39.1628 11.3597 39.0436 11.6293 38.9244C11.8988 38.8052 12.1165 38.6186 12.3445 38.4735C12.5726 38.3387 12.7592 38.1521 12.9302 37.9914C13.1012 37.8256 13.2671 37.6908 13.3863 37.5353C13.5055 37.3799 13.6092 37.2451 13.6921 37.1311C13.8631 36.903 13.9564 36.7734 13.9564 36.7734H13.9668Z" fill="white"/>
<path opacity="0.1" d="M13.8444 12.127C14.3627 13.231 15.0987 14.1535 15.1816 15.4389C14.6374 14.7496 14.1036 14.0343 13.435 13.4383C12.5694 12.666 11.1907 11.2925 10.0349 10.9815C10.2941 12.1736 11.7038 13.7959 11.3307 14.9828C10.8642 14.5423 10.2733 14.2261 9.74466 13.8374C9.10714 13.3657 8.65104 12.78 8.04463 12.298C8.07573 12.8111 8.55775 13.4538 8.77543 13.9307C9.20044 14.8532 9.75502 15.7136 9.60471 16.7502C9.00348 16.6362 7.98243 15.47 7.58334 15.0554C7.15833 14.6148 6.80589 14.0032 6.36015 13.6301C6.2824 15.2834 7.69737 16.828 7.8684 18.4192C7.6248 18.2378 7.46931 17.8905 7.26717 17.6573C6.64003 16.9265 5.74337 16.3615 5.02293 15.7033C4.17291 14.9258 3.45247 13.5419 2.33812 13.0392C3.5043 13.5886 4.80524 15.0139 6.13728 15.0295C6.25649 14.4127 5.7019 13.8115 5.34428 13.3398C4.67567 12.4483 3.95004 11.5776 3.24515 10.7068C2.89789 10.2818 2.34331 9.73761 2.14117 9.21931C2.84088 9.67541 3.76864 9.90347 4.53572 10.2818C5.16287 10.598 5.7641 10.9867 6.40679 11.2718C6.31868 10.0538 4.50463 8.65436 3.77382 7.66959C4.3906 7.94429 5.04884 8.08423 5.63971 8.41594C6.00252 8.61808 6.37051 8.96534 6.72814 9.11565C5.98179 8.33301 5.28726 7.53483 4.44243 6.82475C3.8101 6.2909 2.05824 5.37869 1.91312 4.62197C3.34881 5.48753 4.91927 6.27535 6.45344 6.98024C5.72263 6.37383 4.95555 5.72077 4.1159 5.17137C2.94454 4.40428 1.12012 3.20701 0.612181 1.96827C1.93385 2.66279 3.3229 3.25884 4.60829 4.01038C4.76896 4.10367 4.96591 4.2177 5.17842 4.34727C4.78451 4.03111 4.37505 3.73049 3.99151 3.42988C2.89271 2.5695 1.74208 1.80759 0.56035 1.04051C0.0213162 0.688062 0.00150696 0.658586 0.00150696 0.658586C4.8269 3.03759 9.8535 6.71073 13.8444 12.1218V12.127Z" fill="white"/>
<path d="M0.0023234 11.3555C1.78535 11.3555 6.58651 14.7889 9.60302 21.0085C12.6195 27.2229 11.6762 33.0123 7.5039 33.9297C3.33158 34.8471 2.67687 33.6433 0.0023234 30.0773V11.3555Z" fill="#AE20FF"/>
<path opacity="0.5" d="M0.00189448 17.2558C1.92479 16.8878 4.15409 18.9292 5.54313 21.8213C6.93218 24.7134 6.50199 27.3827 4.57391 27.787C2.65101 28.1912 1.78492 27.4026 0.00189448 25.6196V17.2558Z" fill="white"/>
<path d="M1.07655 22.716C0.682644 21.897 0.807038 21.1455 1.35125 21.0367C1.89547 20.9278 2.65219 21.5031 3.04092 22.322C3.43483 23.141 3.31043 23.8925 2.7714 24.0065C2.22718 24.1154 1.47046 23.5401 1.08174 22.716H1.07655Z" fill="#003FBA"/>
<path d="M0.413427 22.4184C-0.291463 20.9412 -0.0685935 19.5936 0.905814 19.4018C1.88022 19.2101 3.23817 20.2415 3.93788 21.7135C4.64277 23.1803 4.42508 24.533 3.45067 24.7352C2.47627 24.9373 1.11832 23.9007 0.413427 22.4235V22.4184Z" fill="#003FBA"/>
<path opacity="0.05" d="M0.778346 42.5586H18.1503C22.0542 37.8389 22.0046 28.8416 17.3731 19.4457C13.2359 11.0489 6.51899 4.23046 0.00195312 1.09961V42.0331C0.26016 42.214 0.519017 42.3892 0.778346 42.5586Z" fill="#848484"/>
<path opacity="0.05" d="M12.8793 42.5601C19.412 40.0964 20.6668 30.2474 15.539 19.8097C11.8445 12.2895 5.81414 6.21478 0 3.52539V39.4776C1.98929 40.9071 4.0269 41.9609 6.00865 42.5601H12.8793Z" fill="#848484"/>
</svg>
