<svg width="136" height="49" viewBox="0 0 136 49" fill="none" xmlns="http://www.w3.org/2000/svg">
<g clip-path="url(#clip0_140_6748)">
<path d="M19.5595 14.7117L3.72323 8.89844L2.23682 11.5006L12.6871 14.7836C13.6138 15.0748 14.5782 15.2186 15.5276 15.2072C16.3105 15.1959 17.101 15.2942 17.8764 15.4909L19.2909 15.8502C19.5178 15.9069 19.6956 16.0809 19.7486 16.2927L20.6147 19.8707C20.7811 20.5591 21.7494 20.7822 22.1352 20.2262C22.4302 19.7988 22.468 19.2428 22.2297 18.7398L20.8832 15.8918C20.6298 15.3547 20.1495 14.9235 19.5632 14.708L19.5595 14.7117Z" fill="#0074B7"/>
<path d="M3.66298 8.73242L19.6051 14.5835C20.2254 14.8105 20.7322 15.2681 21.0007 15.8355L22.3472 18.6835C22.6044 19.2319 22.5666 19.8371 22.2413 20.3061C22.0409 20.5935 21.6816 20.7297 21.3071 20.6616C20.8948 20.5859 20.5734 20.2871 20.4788 19.9051L19.6127 16.3271C19.5748 16.1645 19.4311 16.0284 19.2534 15.983L17.8388 15.6237C17.0748 15.427 16.2956 15.3362 15.5241 15.3438C14.5558 15.3551 13.5838 15.2114 12.642 14.9164L2.03662 11.5804L3.66298 8.73242ZM19.8812 16.2666L20.7473 19.8446C20.8154 20.1245 21.0537 20.3401 21.3601 20.3968C21.6362 20.446 21.882 20.359 22.022 20.1548C22.2905 19.7652 22.3207 19.2622 22.1052 18.8045L20.7587 15.9565C20.5204 15.4535 20.0665 15.045 19.5143 14.8445L3.7878 9.06904L2.44132 11.4254L12.729 14.6592C13.6443 14.9466 14.5861 15.0866 15.5279 15.0752C16.3221 15.0639 17.1277 15.1622 17.9144 15.3627L19.329 15.722C19.3782 15.7333 19.4273 15.7522 19.4727 15.7749C19.677 15.8733 19.832 16.0548 19.8812 16.2666Z" fill="black"/>
<path d="M37.6763 29.0797L22.3205 23.6484L20.7319 26.4851L30.891 29.4844C31.795 29.7492 32.7367 29.8589 33.6747 29.7984C34.4501 29.7492 35.2255 29.8135 35.9819 29.9875L37.3624 30.3052C37.5818 30.3543 37.752 30.5321 37.7936 30.7553L38.4782 34.5186C38.6106 35.241 39.5523 35.4377 39.9608 34.8249C40.2747 34.3559 40.3353 33.7621 40.1235 33.2402L38.9283 30.2749C38.7013 29.7151 38.2475 29.2802 37.6801 29.0797H37.6763Z" fill="#0074B7"/>
<path d="M22.2563 23.4824L37.7181 28.9515C38.3232 29.1633 38.8074 29.6286 39.0457 30.2261L40.2408 33.1914C40.4678 33.755 40.4035 34.3942 40.0669 34.901C39.8475 35.23 39.4693 35.3851 39.0797 35.3057C38.6901 35.2263 38.4065 34.935 38.3346 34.5455L37.65 30.7821C37.6198 30.6119 37.4912 30.4796 37.3247 30.4417L35.9442 30.124C35.1991 29.9538 34.4389 29.8895 33.6787 29.9387C32.7218 29.9954 31.7686 29.8895 30.8496 29.6172L20.5278 26.5687L22.2563 23.4824ZM37.9223 30.733L38.6069 34.4963C38.6674 34.8291 38.9208 34.9955 39.1402 35.0409C39.3558 35.0863 39.6546 35.0334 39.8437 34.7535C40.1312 34.3223 40.1879 33.7777 39.995 33.2935L38.7998 30.3283C38.588 29.8063 38.1644 29.3978 37.6311 29.2087L22.3849 23.8153L20.9325 26.4023L30.929 29.3525C31.8178 29.6134 32.7407 29.7193 33.6673 29.6626C34.454 29.6134 35.2445 29.6777 36.0123 29.8555L37.3928 30.1732C37.442 30.1845 37.4912 30.2035 37.5403 30.2224C37.7408 30.3169 37.8883 30.506 37.9261 30.7292L37.9223 30.733Z" fill="black"/>
<path d="M20.4638 20.2107C20.4638 20.2107 21.3905 20.9785 21.6174 22.7032L22.4495 23.6676L20.6908 26.4438L19.5258 26.3984C19.5258 26.3984 13.7277 34.4697 8.89396 30.7064C8.89396 30.7064 3.82198 27.6428 8.05052 19.3067L7.60422 18.8453C7.60422 18.8453 4.45362 24.2993 0.992871 20.8839C0.834017 20.7251 0.697857 20.5397 0.603301 20.3355C0.141868 19.3786 -0.686441 16.4927 2.33935 11.2316L3.79551 8.52734L4.32124 8.78075C4.32124 8.78075 4.60869 8.34958 6.42794 9.62419C6.42794 9.62419 9.36674 11.4132 10.0324 13.3081C10.214 13.8263 10.5241 14.2877 10.9553 14.6281C11.3675 14.9571 11.8668 15.1652 12.3925 15.2257C13.6293 15.3656 16.4471 16.175 20.4676 20.2145L20.4638 20.2107Z" fill="white"/>
<path d="M8.81883 30.8199C8.70158 30.748 7.49126 29.9651 6.76507 28.1836C6.08427 26.5195 5.72874 23.6336 7.8884 19.3294L7.63121 19.0647C7.2492 19.6736 5.74765 21.8484 3.76954 22.1169C2.76725 22.2531 1.799 21.8711 0.898827 20.9785C0.724844 20.8083 0.584902 20.6116 0.478999 20.3922C-0.00890928 19.3786 -0.818308 16.4512 2.22261 11.1674L3.7355 8.34961L4.30662 8.62193C4.33688 8.6068 4.3747 8.59167 4.42009 8.58411C4.80966 8.51225 5.53207 8.82995 6.49654 9.50697C6.61757 9.58262 9.4845 11.3451 10.1577 13.259C10.3355 13.7658 10.6381 14.2007 11.0352 14.5184C11.4324 14.8324 11.9013 15.029 12.4006 15.0858C13.7282 15.2371 16.5535 16.0918 20.5513 20.1086C20.6383 20.1804 21.512 20.9634 21.7427 22.6427L22.6164 23.6525L20.7631 26.58L19.5906 26.5346C19.167 27.1095 15.9862 31.27 12.4006 31.7881C11.4626 31.9243 10.5776 31.7919 9.75304 31.3985C9.43155 31.2435 9.11763 31.0506 8.81126 30.8123L8.81883 30.8199ZM22.2836 23.6828L21.4893 22.7637V22.7221C21.2699 21.0806 20.3925 20.3279 20.3773 20.3166L20.366 20.309C16.4211 16.3453 13.6639 15.5056 12.3741 15.3581C11.8257 15.2938 11.3038 15.0782 10.8688 14.734C10.4338 14.3861 10.0972 13.9095 9.90433 13.3535C9.26513 11.5305 6.38685 9.76038 6.34903 9.73769C4.84748 8.68623 4.46548 8.84508 4.42765 8.87156L4.37092 8.95855L3.85275 8.7127L2.45711 11.3073C-0.519511 16.4739 0.255847 19.2992 0.724844 20.275C0.815618 20.4641 0.940432 20.6381 1.08794 20.7856C1.9276 21.6139 2.81642 21.9694 3.73172 21.8446C5.85356 21.561 7.47235 18.8037 7.48748 18.7734L7.57826 18.6184L8.21745 19.2803L8.17207 19.3673C6.01619 23.6185 6.34903 26.4438 7.00714 28.0664C7.7182 29.8176 8.95121 30.5854 8.96634 30.5929L8.97768 30.6005C9.99132 31.391 11.1336 31.7011 12.3666 31.5234C16.0202 30.9976 19.3864 26.3682 19.4204 26.3228L19.462 26.2623L20.6232 26.3077L22.2836 23.6828Z" fill="black"/>
<path d="M19.0078 21.5048C18.1417 20.5176 16.0804 18.4903 12.7028 17.0153C12.2187 16.8035 11.6551 16.9699 11.3601 17.4086C10.1423 19.243 7.26019 24.141 8.50455 27.893C8.68988 28.4527 9.07188 28.9217 9.58627 29.213C11.1256 30.0829 14.8209 30.8923 19.1515 22.7302C19.3633 22.3331 19.3028 21.8414 19.0078 21.5048Z" fill="#303030"/>
<path d="M8.76482 13.9093C8.18614 13.1378 6.83967 11.5681 4.79348 10.4675C4.33204 10.2179 3.75336 10.3843 3.49995 10.842C2.58465 12.4948 0.640583 16.4132 1.1474 19.0948C1.276 19.7794 1.77147 20.3354 2.44471 20.5131C3.77984 20.8724 6.29124 20.5358 8.87073 14.8776C9.01445 14.5599 8.97663 14.1855 8.76861 13.9056L8.76482 13.9093Z" fill="#303030"/>
</g>
<path d="M135.083 33.7159C135.083 33.7159 135.083 33.716 135 34.209L135.083 33.716L135.501 33.7865L135.5 34.2104L135.479 41.2048L135.479 41.2957L135.447 41.3806C135.066 42.3845 134.268 43.9035 133.091 45.2464C131.916 46.5871 130.321 47.8003 128.345 48.0868C126.343 48.3769 124.474 47.4943 122.975 46.3224C121.763 45.3758 120.748 44.2065 120.032 43.1946C118.784 45.2281 115.966 48.0456 111.479 48.3783C108.912 48.5687 106.427 47.6696 104.363 46.4612C102.598 45.428 101.109 44.1498 100.095 43.0671C98.8097 45.0983 95.6434 47.83 91.0946 48.1674C88.5069 48.3593 85.8591 47.2458 83.6552 45.8464C81.7692 44.6488 80.1562 43.2087 79.1097 42.0848C77.9272 44.1891 75.1475 47.5973 70.5419 47.9388C67.9588 48.1304 65.4517 47.0786 63.3798 45.7328C61.61 44.5832 60.1169 43.1928 59.1063 42.0869C57.8721 44.1784 54.8939 47.4099 50.3095 47.7499C47.7362 47.9408 45.0423 46.9437 42.7822 45.6495C40.8603 44.5489 39.2011 43.2041 38.1324 42.0985C37.6622 43.0268 36.9401 44.1957 35.9166 45.2167C34.6114 46.5187 32.7992 47.5946 30.3999 47.5946C24.8065 47.5946 21.548 45.5083 19.7067 42.9665C17.8865 40.454 17.4997 37.5646 17.4997 36.002V34.209V33.709H17.9327C20.1386 33.0906 22.8486 31.6728 25.7744 29.7101C28.7214 27.7332 31.8582 25.2232 34.877 22.4755C40.9158 16.979 46.432 10.5774 49.0138 5.6451C49.9204 3.37078 50.4382 1.87732 50.4507 1.84121L50.6374 1.90585L50.6497 1.90569L50.4548 1.83539L50.4559 1.83234L50.7254 1.08495L51.2564 1.62461C52.3661 2.3573 69.3444 13.5252 81.5869 19.0969C91.3298 23.5309 104.694 27.1862 115.646 29.7353C121.118 31.0087 125.978 32.0041 129.471 32.6811C131.217 33.0196 132.621 33.2785 133.588 33.4526C134.071 33.5397 134.446 33.6056 134.699 33.6497C134.825 33.6718 134.922 33.6883 134.986 33.6994L135.059 33.7119L135.077 33.715L135.082 33.7157L135.083 33.7159Z" stroke="black"/>
<path d="M81.3798 19.5519C100.961 28.4635 135 34.209 135 34.209L134.995 35.4985L18.0092 35.4993V34.209C18.0092 34.209 31.476 33.9986 39.0056 25.1064C45.6499 17.2597 50.9235 2.00391 50.9235 2.00391C50.9235 2.00391 68.6784 13.7715 81.3798 19.5519Z" fill="#EEEFE8"/>
<path d="M50.9262 2.00195C68.1986 19.5609 100.285 31.7109 120 34.209L120 41.5293C119.999 42.209 117.74 47.209 111 47.209C104.223 47.209 100.954 42.3412 99.6385 41.5293L99.3353 34.3487C83.3214 32.1907 50.4257 5.50252 50.9262 2.00195Z" fill="#FF0000"/>
<path d="M100 34.209L120 34.209V42.209C119.113 44.0992 116.303 47.5192 111.442 47.8797C106.582 48.2401 101.912 44.4763 100 42.209V34.209Z" fill="#BA0707"/>
<path d="M59 34.2097L79 34.209V41.209C78.1133 43.0992 75.3652 47.0798 70.5049 47.4402C65.6447 47.8007 60.9119 43.4763 59 41.209V34.2097Z" fill="#BA0707"/>
<path d="M49.4789 13.0329C48.4421 20.7627 41.349 30.4823 38 34.209L18.0007 35.5001V34.209C28.476 31.3338 49.2244 11.1319 50.9241 2C51.0547 2.59936 50.5157 5.30309 49.4789 13.0329Z" fill="#FF0000"/>
<path d="M17.9997 34.209L38 34.2089V41.209C37.1676 43.1049 34.8683 47.0946 30.3999 47.0946C19.498 47.0946 17.9997 39.0017 17.9997 36.002L17.9997 34.209Z" fill="#BA0707"/>
<path d="M59 34.209C59.4462 28.0497 53.7343 10.157 50.9235 2.00391C56.7886 13.7418 68.3102 24.0122 79 34.209H59Z" fill="#FF0000"/>
<path d="M79 34.209H100L100 42.209C99.1133 44.0992 95.9179 47.3083 91.0577 47.6687C86.1974 48.0292 80.9119 43.4763 79 41.209V34.209Z" fill="#CCCDC7"/>
<path d="M38 34.209H59L59.0078 41.209C58.1211 43.0992 55.1327 46.8908 50.2725 47.2513C45.4123 47.6117 39.9119 43.4763 38 41.209V34.209Z" fill="#CCCDC7"/>
<path d="M120 34.209H135L134.979 41.2034C134.255 43.1138 131.9 47.0662 128.273 47.592C124.646 48.1178 121.324 44.3982 119.979 42.209L120 34.209Z" fill="#CCCDC7"/>
<defs>
<clipPath id="clip0_140_6748">
<rect width="40.3791" height="26.9787" fill="white" transform="translate(0 8.35156)"/>
</clipPath>
</defs>
</svg>
