<svg width="155" height="53" viewBox="0 0 155 53" fill="none" xmlns="http://www.w3.org/2000/svg">
<path d="M120.253 2.90584C120.5 1.98832 121.444 1.44451 122.362 1.69047V1.69047C123.281 1.93667 123.826 2.88095 123.58 3.79985L114.333 38.3586L110.689 38.3575L120.253 2.90584Z" fill="#E87227"/>
<path d="M120.51 1.89863C120.616 1.53522 120.992 1.32283 121.358 1.42076V1.42076C121.729 1.52018 121.949 1.90174 121.849 2.27269L112.144 38.3563L109.943 38.3518L120.51 1.89863Z" fill="#F1BFA3"/>
<path d="M150.629 19.5784L122.515 2.44336L116.011 26.714L149.756 23.3972C151.73 23.2032 152.322 20.6103 150.629 19.5784Z" fill="#FAD810"/>
<path d="M121.416 1.02385L121.545 0.540882L121.545 0.540882L121.416 1.02385ZM120.568 1.50171L121.048 1.64092L121.048 1.64092L120.568 1.50171ZM121.767 1.24687L121.385 1.56904L121.559 1.77578L121.827 1.74323L121.767 1.24687ZM122.42 1.29356L122.549 0.810594L122.549 0.810594L122.42 1.29356ZM123.681 2.72187L123.186 2.79049L123.218 3.0254L123.421 3.14882L123.681 2.72187ZM150.687 19.1814L150.947 18.7545L150.947 18.7545L150.687 19.1814ZM149.814 23.0003L149.766 22.5027L149.766 22.5027L149.814 23.0003ZM117.546 26.172L117.497 25.6744L117.152 25.7083L117.063 26.0427L117.546 26.172ZM114.391 37.9617L114.391 38.4617L114.775 38.4618L114.874 38.0909L114.391 37.9617ZM110.747 37.9606L110.264 37.8304L110.094 38.4604L110.747 38.4606L110.747 37.9606ZM110.748 37.9564L111.231 38.0866L111.401 37.4578L110.749 37.4564L110.748 37.9564ZM110.001 37.9549L109.521 37.8157L109.336 38.4536L110 38.4549L110.001 37.9549ZM121.545 0.540882C120.917 0.372509 120.269 0.737678 120.088 1.3625L121.048 1.64092C121.078 1.53893 121.184 1.47932 121.286 1.50681L121.545 0.540882ZM122.149 0.924698C121.997 0.744094 121.79 0.606405 121.545 0.540882L121.286 1.50681C121.327 1.5177 121.36 1.53977 121.385 1.56904L122.149 0.924698ZM122.549 0.810594C122.267 0.734978 121.982 0.717167 121.707 0.750504L121.827 1.74323C121.977 1.72503 122.134 1.73456 122.29 1.77652L122.549 0.810594ZM124.176 2.65325C124.057 1.79574 123.44 1.04922 122.549 0.810594L122.29 1.77652C122.779 1.90748 123.12 2.31712 123.186 2.79049L124.176 2.65325ZM150.947 18.7545L123.941 2.29492L123.421 3.14882L150.427 19.6084L150.947 18.7545ZM149.863 23.4979C152.314 23.2569 153.05 20.0362 150.947 18.7545L150.427 19.6084C151.71 20.3905 151.261 22.3557 149.766 22.5027L149.863 23.4979ZM117.595 26.6696L149.863 23.4979L149.766 22.5027L117.497 25.6744L117.595 26.6696ZM114.874 38.0909L118.029 26.3012L117.063 26.0427L113.908 37.8324L114.874 38.0909ZM110.747 38.4606L114.391 38.4617L114.391 37.4617L110.747 37.4606L110.747 38.4606ZM110.265 37.8262L110.264 37.8304L111.23 38.0908L111.231 38.0866L110.265 37.8262ZM110 38.4549L110.747 38.4564L110.749 37.4564L110.002 37.4549L110 38.4549ZM120.088 1.3625L109.521 37.8157L110.481 38.0941L121.048 1.64092L120.088 1.3625Z" fill="black"/>
<path d="M0.917093 37.7159C0.916872 37.7159 0.916781 37.716 1 38.209L0.916781 37.716L0.498759 37.7865L0.500002 38.2104L0.52052 45.2048L0.520787 45.2957L0.552984 45.3806C0.93354 46.3845 1.73235 47.9035 2.90916 49.2464C4.08393 50.5871 5.67877 51.8003 7.65536 52.0868C9.65678 52.3769 11.5256 51.4943 13.0252 50.3224C14.2365 49.3758 15.2524 48.2065 15.9678 47.1946C17.2164 49.2281 20.0343 52.0456 24.5206 52.3783C27.0881 52.5687 29.5732 51.6696 31.6371 50.4612C33.4016 49.428 34.8909 48.1498 35.9049 47.0671C37.1903 49.0983 40.3566 51.83 44.9054 52.1674C47.4931 52.3593 50.1409 51.2458 52.3448 49.8464C54.2308 48.6488 55.8438 47.2087 56.8903 46.0848C58.0728 48.1891 60.8525 51.5973 65.4581 51.9388C68.0412 52.1304 70.5483 51.0786 72.6202 49.7328C74.39 48.5832 75.8831 47.1928 76.8937 46.0869C78.1279 48.1784 81.1061 51.4099 85.6905 51.7499C88.2638 51.9408 90.9577 50.9437 93.2178 49.6495C95.1397 48.5489 96.7989 47.2041 97.8676 46.0985C98.3378 47.0268 99.0599 48.1957 100.083 49.2167C101.389 50.5187 103.201 51.5946 105.6 51.5946C111.193 51.5946 114.452 49.5083 116.293 46.9665C118.114 44.454 118.5 41.5646 118.5 40.002V38.209V37.709H118.067C115.861 37.0906 113.151 35.6728 110.226 33.7101C107.279 31.7332 104.142 29.2232 101.123 26.4755C95.0842 20.979 89.568 14.5774 86.9862 9.6451C86.0796 7.37078 85.5618 5.87732 85.5493 5.84121L85.3626 5.90585L85.3503 5.90569L85.5452 5.83539L85.5441 5.83234L85.2746 5.08495L84.7436 5.62461C83.6339 6.3573 66.6556 17.5252 54.4131 23.0969C44.6702 27.5309 31.3059 31.1862 20.3538 33.7353C14.8825 35.0087 10.0219 36.0041 6.52939 36.6811C4.78323 37.0196 3.37928 37.2785 2.41224 37.4526C1.92872 37.5397 1.55445 37.6056 1.30126 37.6497C1.17466 37.6718 1.07834 37.6883 1.01376 37.6994L0.940903 37.7119L0.922681 37.715L0.918182 37.7157L0.917093 37.7159Z" stroke="black"/>
<path d="M54.6202 23.5519C35.039 32.4635 1 38.209 1 38.209L1.00476 39.4985L117.991 39.4993V38.209C117.991 38.209 104.524 37.9986 96.9944 29.1064C90.3501 21.2597 85.0765 6.00391 85.0765 6.00391C85.0765 6.00391 67.3216 17.7715 54.6202 23.5519Z" fill="#EEEFE8"/>
<path d="M85.0738 6.00195C67.8014 23.5609 35.7145 35.7109 16 38.209L16 45.5293C16.0005 46.209 18.2603 51.209 25 51.209C31.7773 51.209 35.0458 46.3412 36.3615 45.5293L36.6647 38.3487C52.6786 36.1907 85.5743 9.50252 85.0738 6.00195Z" fill="#FF0000"/>
<path d="M36 38.209L16 38.209V46.209C16.8867 48.0992 19.6973 51.5192 24.5576 51.8797C29.4178 52.2401 34.0881 48.4763 36 46.209V38.209Z" fill="#BA0707"/>
<path d="M77 38.2097L57 38.209V45.209C57.8867 47.0992 60.6348 51.0798 65.4951 51.4402C70.3553 51.8007 75.0881 47.4763 77 45.209V38.2097Z" fill="#BA0707"/>
<path d="M86.5211 17.0329C87.5579 24.7627 94.651 34.4823 98 38.209L117.999 39.5001V38.209C107.524 35.3338 86.7756 15.1319 85.0759 6C84.9453 6.59936 85.4843 9.30309 86.5211 17.0329Z" fill="#FF0000"/>
<path d="M118 38.209L98 38.2089V45.209C98.8324 47.1049 101.132 51.0946 105.6 51.0946C116.502 51.0946 118 43.0017 118 40.002L118 38.209Z" fill="#BA0707"/>
<path d="M77 38.209C76.5538 32.0497 82.2657 14.157 85.0765 6.00391C79.2114 17.7418 67.6898 28.0122 57 38.209H77Z" fill="#FF0000"/>
<path d="M57 38.209H36L36 46.209C36.8867 48.0992 40.0821 51.3083 44.9423 51.6687C49.8026 52.0292 55.0881 47.4763 57 45.209V38.209Z" fill="#CCCDC7"/>
<path d="M98 38.209H77L76.9922 45.209C77.8789 47.0992 80.8673 50.8908 85.7275 51.2513C90.5877 51.6117 96.0881 47.4763 98 45.209V38.209Z" fill="#CCCDC7"/>
<path d="M16 38.209H1L1.02052 45.2034C1.74474 47.1138 4.09996 51.0662 7.72709 51.592C11.3542 52.1178 14.6762 48.3982 16.0205 46.209L16 38.209Z" fill="#CCCDC7"/>
</svg>
