<svg width="21" height="41" viewBox="0 0 21 41" fill="none" xmlns="http://www.w3.org/2000/svg">
<path fill-rule="evenodd" clip-rule="evenodd" d="M21.0009 0V40.6249H2.09294C-1.0646 35.6651 -0.724616 27.2043 3.62622 18.3982C7.76947 10.0055 14.4771 3.17641 21.0009 0Z" fill="black"/>
<path d="M7.66992 35.1035C7.66992 35.1035 7.77382 35.2074 7.96184 35.3954C8.05089 35.4894 8.16469 35.6032 8.29333 35.7368C8.42197 35.8655 8.59514 35.9743 8.76336 36.1178C8.93653 36.2563 9.11465 36.4147 9.34719 36.5285C9.56983 36.6472 9.78753 36.8006 10.0448 36.9094C10.3021 37.0133 10.5693 37.1222 10.8414 37.231C11.1333 37.3003 11.4302 37.3745 11.727 37.4388C12.0288 37.4982 12.3504 37.513 12.6522 37.5576C12.9541 37.6021 13.2905 37.5576 13.5923 37.5576C13.8991 37.5625 14.2058 37.518 14.5027 37.4784C14.7995 37.4289 15.0717 37.424 15.3339 37.3448C15.6011 37.2805 15.8435 37.2261 16.0563 37.1766C16.274 37.1222 16.4669 37.048 16.6203 37.0034C16.932 36.9045 17.1151 36.85 17.1151 36.85C17.1151 36.85 16.932 36.9292 16.6104 37.0579C16.4521 37.1172 16.2542 37.2063 16.0315 37.2854C15.8138 37.3547 15.5664 37.4289 15.2943 37.5081C15.0172 37.6021 14.7402 37.6268 14.4384 37.6912C14.1365 37.7505 13.81 37.8198 13.5032 37.8149C13.1915 37.8149 12.8502 37.8742 12.5384 37.8346C12.2267 37.8 11.8952 37.7901 11.5885 37.7357C11.2916 37.6565 10.9898 37.5774 10.6979 37.5031C10.4258 37.3844 10.1586 37.2706 9.90133 37.1568C9.64405 37.043 9.43625 36.8649 9.21855 36.7264C9.00085 36.5977 8.82273 36.4196 8.65946 36.2662C8.49619 36.1079 8.33786 35.9793 8.22406 35.8308C8.11027 35.6824 8.01131 35.5538 7.93215 35.4449C7.76888 35.2272 7.67982 35.1035 7.67982 35.1035H7.66992Z" fill="white"/>
<path opacity="0.1" d="M7.78627 11.575C7.2915 12.6289 6.58893 13.5095 6.50977 14.7366C7.02927 14.0785 7.53888 13.3958 8.17714 12.8268C9.0034 12.0896 10.3195 10.7784 11.4228 10.4816C11.1754 11.6195 9.82966 13.1682 10.1859 14.3012C10.6312 13.8806 11.1952 13.5788 11.6999 13.2077C12.3085 12.7575 12.7439 12.1984 13.3227 11.7383C13.293 12.2281 12.8329 12.8416 12.6251 13.2968C12.2194 14.1775 11.69 14.9988 11.8335 15.9883C12.4074 15.8795 13.3821 14.7663 13.7631 14.3704C14.1688 13.9499 14.5052 13.3661 14.9307 13.0098C15.0049 14.5881 13.6542 16.0626 13.491 17.5815C13.7235 17.4083 13.8719 17.0768 14.0649 16.8542C14.6636 16.1566 15.5195 15.6173 16.2072 14.9889C17.0187 14.2468 17.7064 12.9257 18.7701 12.4458C17.6569 12.9703 16.415 14.3309 15.1435 14.3457C15.0297 13.7569 15.5591 13.183 15.9005 12.7328C16.5387 11.8818 17.2314 11.0505 17.9043 10.2193C18.2358 9.81363 18.7652 9.29412 18.9581 8.79935C18.2902 9.23475 17.4046 9.45245 16.6723 9.81363C16.0736 10.1154 15.4997 10.4865 14.8862 10.7586C14.9703 9.59593 16.702 8.26005 17.3996 7.31999C16.8109 7.58222 16.1825 7.71581 15.6185 8.03246C15.2721 8.22542 14.9208 8.55691 14.5794 8.7004C15.2919 7.9533 15.9549 7.19135 16.7614 6.51352C17.365 6.00391 19.0373 5.13311 19.1758 4.41075C17.8053 5.23701 16.3062 5.98906 14.8417 6.66195C15.5393 6.08307 16.2716 5.45966 17.0731 4.93521C18.1913 4.20295 19.9328 3.06003 20.4177 1.87754C19.1561 2.54053 17.8301 3.10951 16.603 3.82692C16.4497 3.91598 16.2617 4.02483 16.0588 4.14852C16.4348 3.84671 16.8257 3.55975 17.1918 3.27278C18.2407 2.45147 19.3391 1.72416 20.4672 0.991899C20.9818 0.655456 21.0007 0.627319 21.0007 0.627319C16.3944 2.89831 11.596 6.40467 7.78627 11.5701V11.575Z" fill="white"/>
<path d="M19.9742 21.684C20.3502 20.9023 20.2315 20.1849 19.712 20.081C19.1924 19.9771 18.4701 20.5263 18.099 21.308C17.723 22.0897 17.8417 22.8072 18.3563 22.916C18.8758 23.0199 19.5982 22.4707 19.9692 21.684H19.9742Z" fill="#003FBA"/>
<path opacity="0.05" d="M20.2589 40.6255H3.67566C-0.0509706 36.12 -0.00360328 27.5312 4.41755 18.5619C8.36696 10.5464 14.7789 4.03753 21 1.04883V40.1238C20.7535 40.2964 20.5064 40.4637 20.2589 40.6255Z" fill="#848484"/>
<path fill-rule="evenodd" clip-rule="evenodd" d="M21.0009 0V40.6249H2.09294C-1.0646 35.6651 -0.724616 27.2043 3.62622 18.3982C7.76947 10.0055 14.4771 3.17641 21.0009 0Z" fill="black"/>
<path d="M7.66992 35.1035C7.66992 35.1035 7.77382 35.2074 7.96184 35.3954C8.05089 35.4894 8.16469 35.6032 8.29333 35.7368C8.42197 35.8655 8.59514 35.9743 8.76336 36.1178C8.93653 36.2563 9.11465 36.4147 9.34719 36.5285C9.56983 36.6472 9.78753 36.8006 10.0448 36.9094C10.3021 37.0133 10.5693 37.1222 10.8414 37.231C11.1333 37.3003 11.4302 37.3745 11.727 37.4388C12.0288 37.4982 12.3504 37.513 12.6522 37.5576C12.9541 37.6021 13.2905 37.5576 13.5923 37.5576C13.8991 37.5625 14.2058 37.518 14.5027 37.4784C14.7995 37.4289 15.0717 37.424 15.3339 37.3448C15.6011 37.2805 15.8435 37.2261 16.0563 37.1766C16.274 37.1222 16.4669 37.048 16.6203 37.0034C16.932 36.9045 17.1151 36.85 17.1151 36.85C17.1151 36.85 16.932 36.9292 16.6104 37.0579C16.4521 37.1172 16.2542 37.2063 16.0315 37.2854C15.8138 37.3547 15.5664 37.4289 15.2943 37.5081C15.0172 37.6021 14.7402 37.6268 14.4384 37.6912C14.1365 37.7505 13.81 37.8198 13.5032 37.8149C13.1915 37.8149 12.8502 37.8742 12.5384 37.8346C12.2267 37.8 11.8952 37.7901 11.5885 37.7357C11.2916 37.6565 10.9898 37.5774 10.6979 37.5031C10.4258 37.3844 10.1586 37.2706 9.90133 37.1568C9.64405 37.043 9.43625 36.8649 9.21855 36.7264C9.00085 36.5977 8.82273 36.4196 8.65946 36.2662C8.49619 36.1079 8.33786 35.9793 8.22406 35.8308C8.11027 35.6824 8.01131 35.5538 7.93215 35.4449C7.76888 35.2272 7.67982 35.1035 7.67982 35.1035H7.66992Z" fill="white"/>
<path opacity="0.1" d="M7.78627 11.575C7.2915 12.6289 6.58893 13.5095 6.50977 14.7366C7.02927 14.0785 7.53888 13.3958 8.17714 12.8268C9.0034 12.0896 10.3195 10.7784 11.4228 10.4816C11.1754 11.6195 9.82966 13.1682 10.1859 14.3012C10.6312 13.8806 11.1952 13.5788 11.6999 13.2077C12.3085 12.7575 12.7439 12.1984 13.3227 11.7383C13.293 12.2281 12.8329 12.8416 12.6251 13.2968C12.2194 14.1775 11.69 14.9988 11.8335 15.9883C12.4074 15.8795 13.3821 14.7663 13.7631 14.3704C14.1688 13.9499 14.5052 13.3661 14.9307 13.0098C15.0049 14.5881 13.6542 16.0626 13.491 17.5815C13.7235 17.4083 13.8719 17.0768 14.0649 16.8542C14.6636 16.1566 15.5195 15.6173 16.2072 14.9889C17.0187 14.2468 17.7064 12.9257 18.7701 12.4458C17.6569 12.9703 16.415 14.3309 15.1435 14.3457C15.0297 13.7569 15.5591 13.183 15.9005 12.7328C16.5387 11.8818 17.2314 11.0505 17.9043 10.2193C18.2358 9.81363 18.7652 9.29412 18.9581 8.79935C18.2902 9.23475 17.4046 9.45245 16.6723 9.81363C16.0736 10.1154 15.4997 10.4865 14.8862 10.7586C14.9703 9.59593 16.702 8.26005 17.3996 7.31999C16.8109 7.58222 16.1825 7.71581 15.6185 8.03246C15.2721 8.22542 14.9208 8.55691 14.5794 8.7004C15.2919 7.9533 15.9549 7.19135 16.7614 6.51352C17.365 6.00391 19.0373 5.13311 19.1758 4.41075C17.8053 5.23701 16.3062 5.98906 14.8417 6.66195C15.5393 6.08307 16.2716 5.45966 17.0731 4.93521C18.1913 4.20295 19.9328 3.06003 20.4177 1.87754C19.1561 2.54053 17.8301 3.10951 16.603 3.82692C16.4497 3.91598 16.2617 4.02483 16.0588 4.14852C16.4348 3.84671 16.8257 3.55975 17.1918 3.27278C18.2407 2.45147 19.3391 1.72416 20.4672 0.991899C20.9818 0.655456 21.0007 0.627319 21.0007 0.627319C16.3944 2.89831 11.596 6.40467 7.78627 11.5701V11.575Z" fill="white"/>
<path d="M20.9992 10.8398C19.2971 10.8398 14.7139 14.1173 11.8344 20.0546C8.95481 25.9868 9.85529 31.5134 13.8382 32.3891C17.8211 33.2649 18.446 32.1158 20.9992 28.7116V10.8398Z" fill="#8FA801"/>
<path opacity="0.5" d="M21.0006 16.4726C19.165 16.1213 17.0369 18.07 15.7109 20.8308C14.3849 23.5916 14.7956 26.1397 16.6361 26.5256C18.4717 26.9115 19.2985 26.1587 21.0006 24.4567V16.4726Z" fill="white"/>
<path d="M19.9742 21.684C20.3502 20.9023 20.2315 20.1849 19.712 20.081C19.1924 19.9771 18.4701 20.5263 18.099 21.308C17.723 22.0897 17.8417 22.8072 18.3563 22.916C18.8758 23.0199 19.5982 22.4707 19.9692 21.684H19.9742Z" fill="#003FBA"/>
<path d="M20.607 21.3995C21.2799 19.9894 21.0671 18.703 20.137 18.5199C19.2068 18.3369 17.9105 19.3215 17.2426 20.7266C16.5697 22.1268 16.7775 23.4182 17.7076 23.6111C18.6378 23.8041 19.9341 22.8145 20.607 21.4044V21.3995Z" fill="#003FBA"/>
<path opacity="0.05" d="M20.2589 40.6255H3.67566C-0.0509706 36.12 -0.00360328 27.5312 4.41755 18.5619C8.36696 10.5464 14.7789 4.03753 21 1.04883V40.1238C20.7535 40.2964 20.5064 40.4637 20.2589 40.6255Z" fill="#848484"/>
<path opacity="0.05" d="M8.70546 40.6257C2.46935 38.2738 1.27154 28.872 6.16653 18.9082C9.69333 11.7294 15.4498 5.93056 21 3.36328V37.6831C19.101 39.0477 17.1559 40.0537 15.2642 40.6257H8.70546Z" fill="#848484"/>
</svg>
